<svg xmlns="http://www.w3.org/2000/svg" viewBox="0 0 794 320.3"><path fill="#7A7979" d="M134.8 320.3H91.3c-2.2 0-4.1-1.8-4.1-4.1v-9.5h51.6v9.5c0 2.3-1.8 4.1-4 4.1zM702.7 320.3h-43.4c-2.2 0-4.1-1.8-4.1-4.1v-9.5h51.6v9.5c-.1 2.3-1.9 4.1-4.1 4.1z"/><path fill="#FBFBFB" d="M3 3h788v303.7H3z"/><path fill="#202019" d="M791 309.7H3c-1.7 0-3-1.3-3-3V3c0-1.7 1.3-3 3-3h788c1.7 0 3 1.3 3 3v303.7c0 1.7-1.3 3-3 3zm-785-6h782V6H6v297.7z"/><path fill="#95D5EE" d="M328.7 223.7H46.8c-4.6 0-8.3-3.7-8.3-8.3V38c0-4.6 3.7-8.3 8.3-8.3h281.9c4.6 0 8.3 3.7 8.3 8.3v177.3c0 4.7-3.7 8.4-8.3 8.4z"/><path fill="#FFF" d="M44.8 35.2h285.9v183H44.8z"/><path fill="#CFD5D6" d="M747.2 244.8H398.8c-4.6 0-8.3-3.7-8.3-8.3V38c0-4.6 3.7-8.3 8.3-8.3h348.3c4.6 0 8.3 3.7 8.3 8.3v198.4c.1 4.7-3.6 8.4-8.2 8.4z"/><path fill="#FFF" d="M397 35.2h352v204.1H397zM321.5 291.4H54c-3.2 0-5.7-2.6-5.7-5.7v-40.9c0-3.2 2.6-5.7 5.7-5.7h267.5c3.2 0 5.7 2.6 5.7 5.7v40.9c.1 3.2-2.5 5.7-5.7 5.7z"/><circle fill="#F4CD7C" cx="81.8" cy="265.2" r="17.8"/><circle fill="#FAFAFA" cx="89.1" cy="256.2" r="4.6"/><circle fill="#F4CD7C" cx="146" cy="265.2" r="17.8"/><circle fill="#FAFAFA" cx="155.8" cy="271.4" r="4.6"/><circle fill="#E58A76" cx="303.4" cy="265.2" r="8.1"/><circle fill="#C3D880" cx="275.8" cy="265.2" r="8.1"/><circle fill="#C7C6C6" cx="433.5" cy="272.6" r="14.9"/><circle fill="#FBFBFB" cx="433.5" cy="272.6" r="10"/><circle fill="#C7C6C6" cx="526.5" cy="272.6" r="14.9"/><circle fill="#FBFBFB" cx="526.5" cy="272.6" r="10"/><circle fill="#C7C6C6" cx="619.5" cy="272.6" r="14.9"/><circle fill="#FBFBFB" cx="619.5" cy="272.6" r="10"/><circle fill="#C7C6C6" cx="712.5" cy="272.6" r="14.9"/><circle fill="#FBFBFB" cx="712.5" cy="272.6" r="10"/><g fill="#FBFBFB"><path d="M57.1 35.2h1v183h-1zM89.6 35.2h1v183h-1zM122.2 35.2h1v183h-1zM154.7 35.2h1v183h-1zM187.3 35.2h1v183h-1zM219.8 35.2h1v183h-1zM252.3 35.2h1v183h-1zM284.9 35.2h1v183h-1zM317.4 35.2h1v183h-1z"/><path d="M45 34.7h285.7v1H45zM45 71.3h285.7v1H45zM45 107.9h285.7v1H45zM45 144.5h285.7v1H45zM45 181.1h285.7v1H45zM45 217.7h285.7v1H45z"/></g><path fill="#64C5E2" d="M330.7 116.8c-7.7 0-11-14.5-14.5-29.8-2.9-12.9-6.2-27.4-11.5-27.4s-8.6 14.6-11.5 27.4c-3.5 15.3-6.8 29.8-14.5 29.8s-11-14.5-14.5-29.8c-2.9-12.9-6.2-27.4-11.5-27.4s-8.6 14.6-11.5 27.4c-3.5 15.3-6.8 29.8-14.5 29.8s-11-14.5-14.5-29.8c-2.9-12.9-6.2-27.4-11.5-27.4s-8.6 14.6-11.5 27.4c-3.5 15.3-6.8 29.8-14.5 29.8s-11-14.5-14.5-29.8c-2.9-12.9-6.2-27.4-11.5-27.4s-8.6 14.6-11.5 27.4c-3.5 15.3-6.8 29.8-14.5 29.8s-11-14.5-14.5-29.8c-2.9-12.9-6.2-27.4-11.5-27.4S88.1 74.2 85.2 87c-3.5 15.3-6.8 29.8-14.5 29.8s-11-14.5-14.5-29.8C53.3 74.1 50 59.6 44.7 59.6v-3c7.7 0 11 14.5 14.5 29.8 2.9 12.9 6.2 27.4 11.5 27.4s8.6-14.6 11.5-27.4c3.5-15.3 6.8-29.8 14.5-29.8s11 14.5 14.5 29.8c2.9 12.9 6.2 27.4 11.5 27.4s8.6-14.6 11.5-27.4c3.5-15.3 6.8-29.8 14.5-29.8s11 14.5 14.5 29.8c2.9 12.9 6.2 27.4 11.5 27.4s8.6-14.6 11.5-27.4c3.5-15.3 6.8-29.8 14.5-29.8s11 14.5 14.5 29.8c2.9 12.9 6.2 27.4 11.5 27.4s8.6-14.6 11.5-27.4c3.5-15.3 6.8-29.8 14.5-29.8s11 14.5 14.5 29.8c2.9 12.9 6.2 27.4 11.5 27.4s8.6-14.6 11.5-27.4c3.5-15.3 6.8-29.8 14.5-29.8s11 14.5 14.5 29.8c2.9 12.9 6.2 27.4 11.5 27.4v3z"/><path fill="#98CA92" d="M310.3 202.5c-6.1 0-8.4-13.5-11.7-35.6-2-13.2-4.9-33-8.7-33s-6.8 19.9-8.7 33c-3.3 22.1-5.6 35.6-11.7 35.6s-8.4-13.5-11.7-35.6c-2-13.2-4.9-33-8.7-33s-6.8 19.9-8.7 33c-3.3 22.1-5.6 35.6-11.7 35.6s-8.4-13.5-11.7-35.6c-2-13.2-4.9-33-8.7-33s-6.8 19.9-8.7 33c-3.3 22.1-5.6 35.6-11.7 35.6s-8.4-13.5-11.7-35.6c-2-13.2-4.9-33-8.7-33-3.8 0-6.8 19.9-8.7 33-3.3 22.1-5.6 35.6-11.7 35.6s-8.4-13.5-11.7-35.6c-2-13.2-4.9-33-8.7-33-3.8 0-6.8 19.9-8.7 33-3.3 22.1-5.6 35.6-11.7 35.6s-8.4-13.5-11.7-35.6c-2-13.2-4.9-33-8.7-33s-6.8 19.9-8.7 33c-3.3 22.1-5.6 35.6-11.7 35.6s-8.4-13.5-11.7-35.6c-2-13.2-4.9-33-8.7-33v-3c6.1 0 8.4 13.5 11.7 35.6 2 13.2 4.9 33 8.7 33 3.8 0 6.8-19.9 8.7-33 3.3-22.1 5.6-35.6 11.7-35.6s8.4 13.5 11.7 35.6c2 13.2 4.9 33 8.7 33 3.8 0 6.8-19.9 8.7-33 3.3-22.1 5.6-35.6 11.7-35.6s8.4 13.5 11.7 35.6c2 13.2 4.9 33 8.7 33 3.8 0 6.8-19.9 8.7-33 3.3-22.1 5.6-35.6 11.7-35.6s8.4 13.5 11.7 35.6c2 13.2 4.9 33 8.7 33 3.8 0 6.8-19.9 8.7-33 3.3-22.1 5.6-35.6 11.7-35.6s8.4 13.5 11.7 35.6c2 13.2 4.9 33 8.7 33s6.8-19.9 8.7-33c3.3-22.1 5.6-35.6 11.7-35.6s8.4 13.5 11.7 35.6c2 13.2 4.9 33 8.7 33 3.8 0 6.8-19.9 8.7-33 3.3-22.1 5.6-35.6 11.7-35.6s8.4 13.5 11.7 35.6c2 13.2 4.9 33 8.7 33s6.8-19.9 8.7-33c3.3-22.1 5.6-35.6 11.7-35.6v3c-3.8 0-6.8 19.9-8.7 33-3.3 22.1-5.6 35.6-11.7 35.6z"/><path fill="#D6D987" d="M408.7 195.7h144.4v37.5H408.7z"/><path fill="#FBFBFB" d="M415.5 202.5h79.8v6.8h-79.8zM415.5 220.3h119.8v6.8H415.5z"/><path fill="#CFD5D6" d="M734.4 140.3H411.6c-1.6 0-3-1.3-3-3v-.1c0-1.6 1.3-3 3-3h322.7c1.6 0 3 1.3 3 3v.1c0 1.6-1.3 3-2.9 3z"/><g fill="#395377"><path d="M519.8 54.5H411.9c-1.8 0-3.2-1.4-3.2-3.2v-.1c0-1.8 1.4-3.2 3.2-3.2h107.9c1.8 0 3.2 1.4 3.2 3.2v.1c0 1.8-1.4 3.2-3.2 3.2zM626.3 54.5h-55.4c-1.8 0-3.2-1.4-3.2-3.2v-.1c0-1.8 1.4-3.2 3.2-3.2h55.4c1.8 0 3.2 1.4 3.2 3.2v.1c0 1.8-1.4 3.2-3.2 3.2zM734.1 54.5h-70.9c-1.8 0-3.2-1.4-3.2-3.2v-.1c0-1.8 1.4-3.2 3.2-3.2h70.9c1.8 0 3.2 1.4 3.2 3.2v.1c0 1.8-1.4 3.2-3.2 3.2z"/></g><path fill="#C7C6C6" d="M420.1 125.1h-1.6c-.5 0-.9-.4-.9-.9V64.1c0-.5.4-.9.9-.9h1.6c.5 0 .9.4.9.9v60.1c0 .5-.4.9-.9.9z"/><path fill="#95D5EE" d="M425.5 83.1h-12.4c-.8 0-1.5-.7-1.5-1.5v-6.5c0-.8.7-1.5 1.5-1.5h12.4c.8 0 1.5.7 1.5 1.5v6.5c0 .8-.7 1.5-1.5 1.5z"/><path fill="#C7C6C6" d="M513.1 125.1h-1.6c-.5 0-.9-.4-.9-.9V64.1c0-.5.4-.9.9-.9h1.6c.5 0 .9.4.9.9v60.1c0 .5-.4.9-.9.9z"/><path fill="#95D5EE" d="M518.5 113.1h-12.4c-.8 0-1.5-.7-1.5-1.5v-6.5c0-.8.7-1.5 1.5-1.5h12.4c.8 0 1.5.7 1.5 1.5v6.5c0 .8-.6 1.5-1.5 1.5z"/><g><circle fill="#C3D880" cx="461.5" cy="83.8" r="12.8"/><circle fill="#FAFAFA" cx="453.8" cy="80.6" r="3.3"/></g><g fill="#575555"><path d="M437.8 107.1h47.4v2.1h-47.4zM437.8 115.2h47.4v2.1h-47.4z"/></g><g><circle fill="#C3D880" cx="687.7" cy="83.8" r="12.8"/><circle fill="#FAFAFA" cx="693.4" cy="89.9" r="3.3"/></g><g><path fill="#C7C6C6" d="M732.2 125.1h-1.6c-.5 0-.9-.4-.9-.9V64.1c0-.5.4-.9.9-.9h1.6c.5 0 .9.4.9.9v60.1c0 .5-.4.9-.9.9z"/><path fill="#95D5EE" d="M737.6 93.1h-12.4c-.8 0-1.5-.7-1.5-1.5v-6.5c0-.8.7-1.5 1.5-1.5h12.4c.8 0 1.5.7 1.5 1.5v6.5c0 .8-.7 1.5-1.5 1.5z"/></g><g fill="#575555"><path d="M664 106.3h47.4v2.1H664zM664 114.4h47.4v2.1H664z"/></g><g><path fill="#C7C6C6" d="M573.8 125.1h-1.6c-.5 0-.9-.4-.9-.9V64.1c0-.5.4-.9.9-.9h1.6c.5 0 .9.4.9.9v60.1c0 .5-.4.9-.9.9z"/><path fill="#95D5EE" d="M579.2 103.1h-12.4c-.8 0-1.5-.7-1.5-1.5v-6.5c0-.8.7-1.5 1.5-1.5h12.4c.8 0 1.5.7 1.5 1.5v6.5c0 .8-.7 1.5-1.5 1.5z"/></g><g><circle fill="#C3D880" cx="608.6" cy="83.8" r="12.8"/><circle fill="#FAFAFA" cx="603.1" cy="77.5" r="3.3"/></g><path fill="#575555" d="M593.7 110.3h29.8v2.1h-29.8z"/><g fill="#575555"><path d="M574.8 198.7h47.7v2.1h-47.7zM574.8 208.8h29.5v2.1h-29.5z"/></g><g fill="#575555"><path d="M679.9 198.7h37.7v2.1h-37.7zM679.9 208.8h34v2.1h-34z"/></g><g><path fill="#F4CD7C" d="M589.4 231.8h-7.3c-2.6 0-4.6-2.1-4.6-4.6v-.2c0-2.6 2.1-4.6 4.6-4.6h7.3c2.6 0 4.6 2.1 4.6 4.6v.1c0 2.6-2.1 4.7-4.6 4.7z"/><path fill="#E58A76" d="M615.1 231.8h-7.3c-2.6 0-4.6-2.1-4.6-4.6v-.2c0-2.6 2.1-4.6 4.6-4.6h7.3c2.6 0 4.6 2.1 4.6 4.6v.1c.1 2.6-2 4.7-4.6 4.7z"/></g><g><path fill="#F4CD7C" d="M689.4 231.8h-7.3c-2.6 0-4.6-2.1-4.6-4.6v-.2c0-2.6 2.1-4.6 4.6-4.6h7.3c2.6 0 4.6 2.1 4.6 4.6v.1c.1 2.6-2 4.7-4.6 4.7z"/><path fill="#E58A76" d="M715.2 231.8h-7.3c-2.6 0-4.6-2.1-4.6-4.6v-.2c0-2.6 2.1-4.6 4.6-4.6h7.3c2.6 0 4.6 2.1 4.6 4.6v.1c0 2.6-2 4.7-4.6 4.7z"/></g><g><path fill="#F4CD7C" d="M420.6 160.2h-7.3c-2.6 0-4.6-2.1-4.6-4.6v-.1c0-2.6 2.1-4.6 4.6-4.6h7.3c2.6 0 4.6 2.1 4.6 4.6v.1c0 2.5-2.1 4.6-4.6 4.6z"/><path fill="#C3D880" d="M420.6 180.2h-7.3c-2.6 0-4.6-2.1-4.6-4.6v-.1c0-2.6 2.1-4.6 4.6-4.6h7.3c2.6 0 4.6 2.1 4.6 4.6v.1c0 2.5-2.1 4.6-4.6 4.6z"/><path fill="#E58A76" d="M463.2 160.2h-7.3c-2.6 0-4.6-2.1-4.6-4.6v-.1c0-2.6 2.1-4.6 4.6-4.6h7.3c2.6 0 4.6 2.1 4.6 4.6v.1c0 2.5-2.1 4.6-4.6 4.6z"/><path fill="#6084AE" d="M463.2 180.2h-7.3c-2.6 0-4.6-2.1-4.6-4.6v-.1c0-2.6 2.1-4.6 4.6-4.6h7.3c2.6 0 4.6 2.1 4.6 4.6v.1c0 2.5-2.1 4.6-4.6 4.6z"/><path fill="#FAFAFA" d="M505.8 160.2h-7.3c-2.6 0-4.6-2.1-4.6-4.6v-.1c0-2.6 2.1-4.6 4.6-4.6h7.3c2.6 0 4.6 2.1 4.6 4.6v.1c0 2.5-2.1 4.6-4.6 4.6z"/><path fill="#C3D880" d="M505.8 180.2h-7.3c-2.6 0-4.6-2.1-4.6-4.6v-.1c0-2.6 2.1-4.6 4.6-4.6h7.3c2.6 0 4.6 2.1 4.6 4.6v.1c0 2.5-2.1 4.6-4.6 4.6z"/><path fill="#6084AE" d="M548.4 160.2h-7.3c-2.6 0-4.6-2.1-4.6-4.6v-.1c0-2.6 2.1-4.6 4.6-4.6h7.3c2.6 0 4.6 2.1 4.6 4.6v.1c0 2.5-2 4.6-4.6 4.6z"/><path fill="#F4CD7C" d="M548.4 180.2h-7.3c-2.6 0-4.6-2.1-4.6-4.6v-.1c0-2.6 2.1-4.6 4.6-4.6h7.3c2.6 0 4.6 2.1 4.6 4.6v.1c0 2.5-2 4.6-4.6 4.6z"/></g><g><circle fill="#95D5EE" cx="598.6" cy="166.9" r="20.9"/><circle fill="#FAFAFA" cx="607.1" cy="156.3" r="5.4"/></g><g><circle fill="#6084AE" cx="698.7" cy="166.9" r="20.9"/><circle fill="#FAFAFA" cx="689.3" cy="157" r="5.4"/></g><path fill="#CFD5D6" d="M648.7 231.8c-.9 0-1.5-.7-1.5-1.5V146c0-.8.7-1.5 1.5-1.5s1.5.7 1.5 1.5v84.3c-.1.8-.7 1.5-1.5 1.5z"/></svg>