<svg xmlns="http://www.w3.org/2000/svg" xmlns:xlink="http://www.w3.org/1999/xlink" viewBox="-575 -154.5 317.8 461.09999"><defs><linearGradient x1="632.651" y1="-57.421" x2="632.651" y2="78.724" id="b" xlink:href="#a" gradientUnits="userSpaceOnUse"/></defs><g transform="translate(-1048.8 16.2)"><linearGradient x1="632.651" y1="-57.421" x2="632.651" y2="78.724" id="a" gradientUnits="userSpaceOnUse"><stop offset="0" stop-opacity=".15"/><stop offset=".007" stop-color="#090909" stop-opacity=".156"/><stop offset=".048" stop-color="#373737" stop-opacity=".191"/><stop offset=".093" stop-color="#626262" stop-opacity=".229"/><stop offset=".142" stop-color="#888" stop-opacity=".271"/><stop offset=".195" stop-color="#a8a8a8" stop-opacity=".316"/><stop offset=".254" stop-color="#c4c4c4" stop-opacity=".366"/><stop offset=".32" stop-color="#dadada" stop-opacity=".422"/><stop offset=".397" stop-color="#ebebeb" stop-opacity=".488"/><stop offset=".493" stop-color="#f6f6f6" stop-opacity=".569"/><stop offset=".627" stop-color="#fdfdfd" stop-opacity=".683"/><stop offset="1" stop-color="#fff"/></linearGradient><path d="M639.8 258.7l-4.3-278.6c-.6.2-1.2.3-1.8.3l-3.9 4.5-4.3 273.8h14.3z" fill="url(#b)"/><path d="M635.5-19.9l4.3 278.6h-14.3l4.3-273.8-1.8 2-4.2 272.6c0 .2.1.5.3.6.2.2.4.3.6.3h16c.5 0 .9-.4.9-.9v-.1l-4.3-280.1c-.7.4-1.2.6-1.8.8z" fill="#151515"/></g><path d="M-413.8-16.6c-.7-.6-1.5-.9-2.4-.9-1.1 0-2.1.5-2.8 1.3-.6.8-.9 1.7-.9 2.7.1 1 .6 1.9 1.3 2.5.7.6 1.5.9 2.4.9 1.1 0 2.1-.5 2.8-1.3 1.4-1.5 1.2-3.9-.4-5.2z" fill="none"/><path d="M-290.2 5l-118.1-23.4c-.2 0-.4-.2-.5-.3-.5-.7-1-1.3-1.7-1.8-.6-.5-1.3-1-2.1-1.3-.2-.1-.3-.2-.4-.4l-43.6-112.3c-.5-1.3-1.8-2.2-3.2-2.2-.4 0-.8.1-1.1.2h-.1c-1.7.6-2.6 2.6-2 4.3l38.8 114c.1.2.1.4 0 .6-.7 1.5-1 3.2-.9 4.8 0 .2 0 .4-.2.6l-75.4 93.9c-1.2 1.4-1 3.5.4 4.7l.1.1c.6.5 1.4.8 2.2.8 1 0 1.9-.4 2.6-1.2L-416-4.5c.1-.1.3-.2.5-.3 1.7-.1 3.3-.7 4.6-1.7.2-.1.4-.2.6-.1l119 18.4c.2 0 .4.1.6.1 1.6 0 3-1.2 3.3-2.8V9c.2-.9 0-1.8-.6-2.5-.5-.8-1.3-1.3-2.2-1.5zm-122-15.4c-1 1.2-2.5 1.9-4 1.9-1.2 0-2.4-.4-3.4-1.2-1.1-.9-1.7-2.2-1.8-3.5-.1-1.4.3-2.7 1.2-3.8 1-1.2 2.5-1.9 4-1.9 1.2 0 2.4.4 3.4 1.2 2.2 1.8 2.5 5.1.6 7.3z" fill="#fafafa"/><path d="M-286.8 5.6c-.7-1.1-1.9-1.8-3.1-2l-117.8-23.4c-.5-.7-1.1-1.3-1.8-1.9-.7-.6-1.4-1-2.2-1.4l-43.5-112c-.7-1.9-2.5-3.2-4.6-3.2-.6 0-1.1.1-1.7.3h-.1c-2.5.9-3.8 3.7-2.9 6.2l38.7 113.7c-.7 1.6-1 3.3-.9 5.1l-75.1 93.7c-1.7 2.1-1.5 5.1.6 6.8l.1.1c.9.7 2 1.1 3.1 1.1 1.4 0 2.8-.6 3.7-1.7l73.5-83.9 1.8-2 3.9-4.5 1.8-.3c.6-.2 1.2-.4 1.7-.7.5-.2.9-.5 1.3-.8l118.7 18.4c.3 0 .6.1.8.1 2.4 0 4.4-1.7 4.8-4v-.1c.3-1.3 0-2.6-.8-3.6zm-.6 3.3c-.3 1.7-1.7 2.9-3.3 2.9-.2 0-.4 0-.6-.1l-119-18.4c-.2 0-.4 0-.6.1-1.3 1-2.9 1.6-4.6 1.7-.2 0-.4.1-.5.3L-495.4 86c-.6.8-1.6 1.2-2.6 1.2-.8 0-1.5-.3-2.2-.8l-.1-.1c-1.4-1.2-1.6-3.3-.4-4.7l75.4-93.9c.1-.2.2-.4.2-.6-.2-1.7.1-3.3.9-4.8.1-.2.1-.4 0-.6l-38.8-114c-.6-1.7.3-3.7 2-4.3h.1c.4-.1.8-.2 1.1-.2 1.4 0 2.7.9 3.2 2.2L-413-22.3c.1.2.2.3.4.4.8.3 1.5.8 2.1 1.3.6.5 1.2 1.2 1.7 1.8.1.2.3.3.5.3l118.1 23.4c.9.2 1.6.6 2.2 1.4.5.9.7 1.7.6 2.6z" fill="#202019"/><path d="M-412.8-17.7c-.9-.8-2.1-1.2-3.4-1.2-1.5 0-3 .7-4 1.9-.9 1.1-1.3 2.4-1.2 3.8.1 1.4.8 2.6 1.8 3.5.9.8 2.1 1.2 3.4 1.2 1.5 0 3-.7 4-1.9 1.9-2.2 1.6-5.5-.6-7.3zm-3.4 7.7c-.9 0-1.7-.3-2.4-.9-.8-.6-1.2-1.5-1.3-2.5-.1-1 .2-1.9.9-2.7.7-.8 1.7-1.3 2.8-1.3.9 0 1.7.3 2.4.9 1.6 1.3 1.8 3.7.5 5.2-.7.8-1.8 1.3-2.9 1.3z" fill="#202019"/></svg>