<svg xmlns="http://www.w3.org/2000/svg" viewBox="-575 -154.5 511.5 169" width="100" height="100"><path d="M-118.4-57.4h6.5v2.8c0 .9-.8 1.5-1.5 1.5h-3.5c-.9 0-1.5-.8-1.5-1.5v-2.8zM-125.2-57.4h6.5v2.8c0 .9-.8 1.5-1.5 1.5h-3.4c-.9 0-1.5-.8-1.5-1.5v-2.8h-.1zM-132-57.4h6.5v2.8c0 .9-.8 1.5-1.5 1.5h-3.4c-.9 0-1.5-.8-1.5-1.5v-2.8h-.1zM-138.6-57.4h6.5v2.8c0 .9-.8 1.5-1.5 1.5h-3.4c-.9 0-1.5-.8-1.5-1.5v-2.8h-.1zM-145.4-57.4h6.5v2.8c0 .9-.8 1.5-1.5 1.5h-3.4c-.9 0-1.5-.8-1.5-1.5v-2.8h-.1zM-152.2-57.4h6.5v2.8c0 .9-.8 1.5-1.5 1.5h-3.4c-.9 0-1.5-.8-1.5-1.5v-2.8h-.1zM-158.9-57.4h6.5v2.8c0 .9-.8 1.5-1.5 1.5h-3.4c-.9 0-1.5-.8-1.5-1.5v-2.8h-.1zM-165.6-57.4h6.5v2.8c0 .9-.8 1.5-1.5 1.5h-3.3c-.9 0-1.5-.8-1.5-1.5v-2.8h-.2zM-172.3-57.4h6.5v2.8c0 .9-.8 1.5-1.5 1.5h-3.5c-.9 0-1.5-.8-1.5-1.5v-2.8zM-179.1-57.4h6.5v2.8c0 .9-.8 1.5-1.5 1.5h-3.4c-.9 0-1.5-.8-1.5-1.5v-2.8h-.1zM-185.9-57.4h6.5v2.8c0 .9-.8 1.5-1.5 1.5h-3.4c-.9 0-1.5-.8-1.5-1.5v-2.8h-.1zM-192.5-57.4h6.5v2.8c0 .9-.8 1.5-1.5 1.5h-3.4c-.9 0-1.5-.8-1.5-1.5v-2.8h-.1zM-199.3-57.4h6.5v2.8c0 .9-.8 1.5-1.5 1.5h-3.4c-.9 0-1.5-.8-1.5-1.5v-2.8h-.1zM-206.1-57.4h6.5v2.8c0 .9-.8 1.5-1.5 1.5h-3.4c-.9 0-1.5-.8-1.5-1.5v-2.8h-.1zM-212.9-57.4h6.5v2.8c0 .9-.8 1.5-1.5 1.5h-3.4c-.9 0-1.5-.8-1.5-1.5v-2.8h-.1zM-219.5-57.4h6.5v2.8c0 .9-.8 1.5-1.5 1.5h-3.4c-.9 0-1.5-.8-1.5-1.5v-2.8h-.1zM-226.3-57.4h6.5v2.8c0 .9-.8 1.5-1.5 1.5h-3.5c-.9 0-1.5-.8-1.5-1.5v-2.8zM-233.1-57.4h6.5v2.8c0 .9-.8 1.5-1.5 1.5h-3.4c-.9 0-1.5-.8-1.5-1.5v-2.8h-.1zM-239.8-57.4h6.5v2.8c0 .9-.8 1.5-1.5 1.5h-3.4c-.9 0-1.5-.8-1.5-1.5v-2.8h-.1zM-246.5-57.4h6.5v2.8c0 .9-.8 1.5-1.5 1.5h-3.4c-.9 0-1.5-.8-1.5-1.5v-2.8h-.1zM-253.3-57.4h6.5v2.8c0 .9-.8 1.5-1.5 1.5h-3.4c-.9 0-1.5-.8-1.5-1.5v-2.8h-.1zM-260-57.4h6.5v2.8c0 .9-.8 1.5-1.5 1.5h-3.4c-.9 0-1.5-.8-1.5-1.5v-2.8h-.1zM-266.8-57.4h6.5v2.8c0 .9-.8 1.5-1.5 1.5h-3.4c-.9 0-1.5-.8-1.5-1.5v-2.8h-.1zM-273.5-57.4h6.5v2.8c0 .9-.8 1.5-1.5 1.5h-3.4c-.9 0-1.5-.8-1.5-1.5v-2.8h-.1zM-280.2-57.4h6.5v2.8c0 .9-.8 1.5-1.5 1.5h-3.5c-.9 0-1.5-.8-1.5-1.5v-2.8zM-287-57.4h6.5v2.8c0 .9-.8 1.5-1.5 1.5h-3.4c-.9 0-1.5-.8-1.5-1.5v-2.8h-.1zM-293.8-57.4h6.5v2.8c0 .9-.8 1.5-1.5 1.5h-3.4c-.9 0-1.5-.8-1.5-1.5v-2.8h-.1zM-300.4-57.4h6.5v2.8c0 .9-.8 1.5-1.5 1.5h-3.4c-.9 0-1.5-.8-1.5-1.5v-2.8h-.1zM-307.2-57.4h6.5v2.8c0 .9-.8 1.5-1.5 1.5h-3.4c-.9 0-1.5-.8-1.5-1.5v-2.8h-.1zM-314-57.4h6.5v2.8c0 .9-.8 1.5-1.5 1.5h-3.4c-.9 0-1.5-.8-1.5-1.5v-2.8h-.1zM-320.7-57.4h6.5v2.8c0 .9-.8 1.5-1.5 1.5h-3.4c-.9 0-1.5-.8-1.5-1.5v-2.8h-.1zM-327.4-57.4h6.5v2.8c0 .9-.8 1.5-1.5 1.5h-3.4c-.9 0-1.5-.8-1.5-1.5v-2.8h-.1zM-334.2-57.4h6.5v2.8c0 .9-.8 1.5-1.5 1.5h-3.5c-.9 0-1.5-.8-1.5-1.5v-2.8zM-340.9-57.4h6.5v2.8c0 .9-.8 1.5-1.5 1.5h-3.4c-.9 0-1.5-.8-1.5-1.5v-2.8h-.1zM-347.7-57.4h6.5v2.8c0 .9-.8 1.5-1.5 1.5h-3.4c-.9 0-1.5-.8-1.5-1.5v-2.8h-.1zM-354.4-57.4h6.5v2.8c0 .9-.8 1.5-1.5 1.5h-3.4c-.9 0-1.5-.8-1.5-1.5v-2.8h-.1zM-361.1-57.4h6.5v2.8c0 .9-.8 1.5-1.5 1.5h-3.4c-.9 0-1.5-.8-1.5-1.5v-2.8h-.1zM-367.9-57.4h6.5v2.8c0 .9-.8 1.5-1.5 1.5h-3.4c-.9 0-1.5-.8-1.5-1.5v-2.8h-.1zM-374.7-57.4h6.5v2.8c0 .9-.8 1.5-1.5 1.5h-3.4c-.9 0-1.5-.8-1.5-1.5v-2.8h-.1zM-381.3-57.4h6.5v2.8c0 .9-.8 1.5-1.5 1.5h-3.4c-.9 0-1.5-.8-1.5-1.5v-2.8h-.1zM-388.1-57.4h6.5v2.8c0 .9-.8 1.5-1.5 1.5h-3.5c-.9 0-1.5-.8-1.5-1.5v-2.8zM-394.9-57.4h6.5v2.8c0 .9-.8 1.5-1.5 1.5h-3.4c-.9 0-1.5-.8-1.5-1.5v-2.8h-.1zM-401.7-57.4h6.5v2.8c0 .9-.8 1.5-1.5 1.5h-3.4c-.9 0-1.5-.8-1.5-1.5v-2.8h-.1zM-408.3-57.4h6.5v2.8c0 .9-.8 1.5-1.5 1.5h-3.4c-.9 0-1.5-.8-1.5-1.5v-2.8h-.1zM-415.1-57.4h6.5v2.8c0 .9-.8 1.5-1.5 1.5h-3.4c-.9 0-1.5-.8-1.5-1.5v-2.8h-.1zM-421.8-57.4h6.5v2.8c0 .9-.8 1.5-1.5 1.5h-3.4c-.9 0-1.5-.8-1.5-1.5v-2.8h-.1zM-428.6-57.4h6.5v2.8c0 .9-.8 1.5-1.5 1.5h-3.4c-.9 0-1.5-.8-1.5-1.5v-2.8h-.1zM-435.3-57.4h6.5v2.8c0 .9-.8 1.5-1.5 1.5h-3.4c-.9 0-1.5-.8-1.5-1.5v-2.8h-.1zM-442-57.4h6.5v2.8c0 .9-.8 1.5-1.5 1.5h-3.5c-.9 0-1.5-.8-1.5-1.5v-2.8zM-448.8-57.4h6.5v2.8c0 .9-.8 1.5-1.5 1.5h-3.4c-.9 0-1.5-.8-1.5-1.5v-2.8h-.1zM-455.6-57.4h6.5v2.8c0 .9-.8 1.5-1.5 1.5h-3.4c-.9 0-1.5-.8-1.5-1.5v-2.8h-.1zM-462.2-57.4h6.5v2.8c0 .9-.8 1.5-1.5 1.5h-3.4c-.9 0-1.5-.8-1.5-1.5v-2.8h-.1zM-469-57.4h6.5v2.8c0 .9-.8 1.5-1.5 1.5h-3.4c-.9 0-1.5-.8-1.5-1.5v-2.8h-.1zM-475.8-57.4h6.5v2.8c0 .9-.8 1.5-1.5 1.5h-3.4c-.9 0-1.5-.8-1.5-1.5v-2.8h-.1zM-482.6-57.4h6.5v2.8c0 .9-.8 1.5-1.5 1.5h-3.3c-.9 0-1.5-.8-1.5-1.5v-2.8h-.2zM-489.2-57.4h6.5v2.8c0 .9-.8 1.5-1.5 1.5h-3.4c-.9 0-1.5-.8-1.5-1.5v-2.8h-.1zM-495-58.6s.1 0 .3.1c.1 0 .4.1.6.3.5.1 1.1.4 1.9.5.8.1 1.4.3 1.9.3H-489.4v2.8c0 .4-.1.8-.5 1.1-.4.3-.8.4-1.3.4 0 0-1-.1-1.9-.3-.3 0-.5-.1-.8-.1-.3 0-.4-.1-.6-.1-.4-.1-.6-.1-.6-.1-.3-.1-.4-.3-.6-.4-.1-.1-.3-.4-.4-.5-.1-.4-.3-.8 0-1.3l1.1-2.7z" fill="#3d3e3f"/><path d="M-499.6-61.9s0 .1.1.1l.5.5c.4.4.9.9 1.5 1.3s1.1.8 1.6 1c.3.1.4.3.6.3.1.1.3.1.3.1l-1.1 2.5c-.1.4-.5.6-.9.8-.4.1-.9.1-1.3-.1 0 0-.9-.5-1.6-1.1-.3-.1-.4-.3-.6-.4-.1-.1-.4-.3-.5-.4-.3-.3-.5-.4-.5-.4-.4-.4-.5-.8-.5-1.1 0-.4.1-.8.5-1.1l1.9-2zM-502.5-67s0 .1.1.3c0 .1 0 .1.1.3 0 .1.1.3.1.4.1.5.5 1.1.9 1.8.1.3.4.6.5.9.3.3.4.5.5.8.1.3.3.4.4.5l.1.1-2.1 1.9c-.4.3-.8.4-1.1.4-.3 0-.4-.1-.6-.3-.3-.1-.4-.3-.5-.5 0 0-.1-.3-.4-.5-.3-.3-.5-.8-.8-1.1-.1-.3-.3-.4-.4-.6-.1-.3-.3-.4-.3-.5-.1-.4-.3-.5-.3-.5-.3-.5-.3-.9 0-1.3.1-.4.5-.6.9-.8l2.9-1.3z" fill="#3d3e3f"/><path d="M-503.1-72.7v3c.1.8.1 1.4.4 1.9 0 .3.1.5.1.6 0 .1.1.3.1.3l-2.6.9c-.4.1-.9.1-1.1-.1-.4-.3-.6-.6-.8-1.1 0 0 0-.3-.1-.6 0-.1-.1-.4-.1-.6 0-.3-.1-.5-.1-.8v-.8-.6-.6c0-.3 0-.5.1-.6.1-.3.3-.4.4-.5.3-.3.8-.5 1.1-.4h2.6zM-501.4-78.3s0 .1-.1.3c-.1.1-.1.4-.3.6-.3.5-.5 1.1-.8 1.8-.3.6-.4 1.4-.5 1.9 0 .3-.1.5-.1.6v.3l-2.8-.3c-.4 0-.8-.3-1-.6-.3-.4-.4-.8-.3-1.3 0 0 .3-1 .5-1.9.1-.3.1-.5.3-.6.1-.3.1-.4.3-.6.1-.4.3-.5.3-.5.3-.5.5-.8 1-.9.4-.1.9-.1 1.3.1l2.2 1.1z" fill="#3d3e3f"/><path d="M-497.6-82.6s-.1 0-.3.1c-.1.1-.3.3-.5.4l-1.4 1.4c-.5.5-.9 1.1-1.3 1.5-.1.3-.3.4-.4.5-.1.1-.1.3-.1.3l-2.3-1.5c-.4-.3-.6-.6-.8-1-.1-.4 0-.9.3-1.3 0 0 .6-.8 1.3-1.5.4-.4.6-.8.9-1 .1-.1.3-.3.4-.3l.1-.1c.1-.1.4-.3.6-.4.2-.1.4-.1.6-.1.4 0 .8.3 1 .6l1.9 2.4zM-492.3-85h-.3c-.1 0-.4.1-.6.1-.5.1-1.1.4-1.9.6-.6.3-1.3.6-1.8.9-.5.3-.8.5-.8.5l-1.6-2.3c-.3-.4-.4-.8-.3-1.1.1-.4.4-.8.8-1 0 0 .9-.5 1.8-.9.3-.1.5-.3.6-.3.3-.1.4-.1.6-.3.4-.1.6-.3.6-.3.5-.1.9-.1 1.3.1.4.3.6.5.8 1l.8 3zM-486.1-85.3h-5.2c-.3 0-.5.1-.6.1h-.3l-.5-2.8c-.1-.4 0-.9.3-1.1.3-.4.6-.5 1.1-.6h3.8c.9 0 1.5.8 1.5 1.5v2.9h-.1zM-479.3-85.3h-6.5v-2.8c0-.9.8-1.5 1.5-1.5h3.4c.9 0 1.5.8 1.5 1.5v2.8h.1zM-472.5-85.3h-6.5v-2.8c0-.9.8-1.5 1.5-1.5h3.4c.9 0 1.5.8 1.5 1.5v2.8h.1zM-465.9-85.3h-6.5v-2.8c0-.9.8-1.5 1.5-1.5h3.4c.9 0 1.5.8 1.5 1.5v2.8h.1zM-459.1-85.3h-6.5v-2.8c0-.9.8-1.5 1.5-1.5h3.4c.9 0 1.5.8 1.5 1.5v2.8h.1zM-452.3-85.3h-6.6v-2.8c0-.9.8-1.5 1.5-1.5h3.4c.9 0 1.5.8 1.5 1.5v2.8h.2zM-445.6-85.3h-6.5v-2.8c0-.9.8-1.5 1.5-1.5h3.4c.9 0 1.5.8 1.5 1.5v2.8h.1zM-438.9-85.3h-6.5v-2.8c0-.9.8-1.5 1.5-1.5h3.4c.9 0 1.5.8 1.5 1.5v2.8h.1zM-432.1-85.3h-6.5v-2.8c0-.9.8-1.5 1.5-1.5h3.4c.9 0 1.5.8 1.5 1.5v2.8h.1zM-425.4-85.3h-6.5v-2.8c0-.9.8-1.5 1.5-1.5h3.4c.9 0 1.5.8 1.5 1.5v2.8h.1zM-418.6-85.3h-6.5v-2.8c0-.9.8-1.5 1.5-1.5h3.4c.9 0 1.5.8 1.5 1.5v2.8h.1zM-411.9-85.3h-6.5v-2.8c0-.9.8-1.5 1.5-1.5h3.4c.9 0 1.5.8 1.5 1.5v2.8h.1zM-405.2-85.3h-6.5v-2.8c0-.9.8-1.5 1.5-1.5h3.4c.9 0 1.5.8 1.5 1.5v2.8h.1zM-398.4-85.3h-6.5v-2.8c0-.9.8-1.5 1.5-1.5h3.4c.9 0 1.5.8 1.5 1.5v2.8h.1zM-391.6-85.3h-6.5v-2.8c0-.9.8-1.5 1.5-1.5h3.4c.9 0 1.5.8 1.5 1.5v2.8h.1zM-385-85.3h-6.5v-2.8c0-.9.8-1.5 1.5-1.5h3.4c.9 0 1.5.8 1.5 1.5v2.8h.1zM-378.2-85.3h-6.5v-2.8c0-.9.8-1.5 1.5-1.5h3.4c.9 0 1.5.8 1.5 1.5v2.8h.1zM-371.4-85.3h-6.5v-2.8c0-.9.8-1.5 1.5-1.5h3.4c.9 0 1.5.8 1.5 1.5v2.8h.1zM-364.6-85.3h-6.5v-2.8c0-.9.8-1.5 1.5-1.5h3.4c.9 0 1.5.8 1.5 1.5v2.8h.1zM-358-85.3h-6.5v-2.8c0-.9.8-1.5 1.5-1.5h3.4c.9 0 1.5.8 1.5 1.5v2.8h.1zM-351.2-85.3h-6.5v-2.8c0-.9.8-1.5 1.5-1.5h3.4c.9 0 1.5.8 1.5 1.5v2.8h.1zM-344.5-85.3h-6.5v-2.8c0-.9.8-1.5 1.5-1.5h3.4c.9 0 1.5.8 1.5 1.5v2.8h.1zM-337.7-85.3h-6.5v-2.8c0-.9.8-1.5 1.5-1.5h3.4c.9 0 1.5.8 1.5 1.5v2.8h.1zM-331-85.3h-6.5v-2.8c0-.9.8-1.5 1.5-1.5h3.4c.9 0 1.5.8 1.5 1.5v2.8h.1zM-324.3-85.3h-6.5v-2.8c0-.9.8-1.5 1.5-1.5h3.4c.9 0 1.5.8 1.5 1.5v2.8h.1zM-317.5-85.3h-6.5v-2.8c0-.9.8-1.5 1.5-1.5h3.4c.9 0 1.5.8 1.5 1.5v2.8h.1zM-310.7-85.3h-6.5v-2.8c0-.9.8-1.5 1.5-1.5h3.4c.9 0 1.5.8 1.5 1.5v2.8h.1zM-304.1-85.3h-6.5v-2.8c0-.9.8-1.5 1.5-1.5h3.4c.9 0 1.5.8 1.5 1.5v2.8h.1zM-297.3-85.3h-6.5v-2.8c0-.9.8-1.5 1.5-1.5h3.4c.9 0 1.5.8 1.5 1.5v2.8h.1zM-290.5-85.3h-6.5v-2.8c0-.9.8-1.5 1.5-1.5h3.4c.9 0 1.5.8 1.5 1.5v2.8h.1zM-283.7-85.3h-6.5v-2.8c0-.9.8-1.5 1.5-1.5h3.4c.9 0 1.5.8 1.5 1.5v2.8h.1zM-277.1-85.3h-6.5v-2.8c0-.9.8-1.5 1.5-1.5h3.4c.9 0 1.5.8 1.5 1.5v2.8h.1zM-270.3-85.3h-6.5v-2.8c0-.9.8-1.5 1.5-1.5h3.4c.9 0 1.5.8 1.5 1.5v2.8h.1zM-263.5-85.3h-6.5v-2.8c0-.9.8-1.5 1.5-1.5h3.4c.9 0 1.5.8 1.5 1.5v2.8h.1zM-256.8-85.3h-6.5v-2.8c0-.9.8-1.5 1.5-1.5h3.4c.9 0 1.5.8 1.5 1.5v2.8h.1zM-250.1-85.3h-6.5v-2.8c0-.9.8-1.5 1.5-1.5h3.4c.9 0 1.5.8 1.5 1.5v2.8h.1zM-243.3-85.3h-6.6v-2.8c0-.9.8-1.5 1.5-1.5h3.4c.9 0 1.5.8 1.5 1.5v2.8h.2zM-236.6-85.3h-6.5v-2.8c0-.9.8-1.5 1.5-1.5h3.4c.9 0 1.5.8 1.5 1.5v2.8h.1zM-229.8-85.3h-6.5v-2.8c0-.9.8-1.5 1.5-1.5h3.4c.9 0 1.5.8 1.5 1.5v2.8h.1zM-223.2-85.3h-6.5v-2.8c0-.9.8-1.5 1.5-1.5h3.4c.9 0 1.5.8 1.5 1.5v2.8h.1zM-216.4-85.3h-6.5v-2.8c0-.9.8-1.5 1.5-1.5h3.4c.9 0 1.5.8 1.5 1.5v2.8h.1zM-209.6-85.3h-6.5v-2.8c0-.9.8-1.5 1.5-1.5h3.4c.9 0 1.5.8 1.5 1.5v2.8h.1zM-202.8-85.3h-6.5v-2.8c0-.9.8-1.5 1.5-1.5h3.4c.9 0 1.5.8 1.5 1.5v2.8h.1zM-196.2-85.3h-6.5v-2.8c0-.9.8-1.5 1.5-1.5h3.4c.9 0 1.5.8 1.5 1.5v2.8h.1zM-189.4-85.3h-6.5v-2.8c0-.9.8-1.5 1.5-1.5h3.4c.9 0 1.5.8 1.5 1.5v2.8h.1zM-182.6-85.3h-6.5v-2.8c0-.9.8-1.5 1.5-1.5h3.4c.9 0 1.5.8 1.5 1.5v2.8h.1zM-175.9-85.3h-6.5v-2.8c0-.9.8-1.5 1.5-1.5h3.4c.9 0 1.5.8 1.5 1.5v2.8h.1zM-169.1-85.3h-6.5v-2.8c0-.9.8-1.5 1.5-1.5h3.4c.9 0 1.5.8 1.5 1.5v2.8h.1zM-162.4-85.3h-6.5v-2.8c0-.9.8-1.5 1.5-1.5h3.4c.9 0 1.5.8 1.5 1.5v2.8h.1zM-155.7-85.3h-6.5v-2.8c0-.9.8-1.5 1.5-1.5h3.4c.9 0 1.5.8 1.5 1.5v2.8h.1zM-148.9-85.3h-6.5v-2.8c0-.9.8-1.5 1.5-1.5h3.4c.9 0 1.5.8 1.5 1.5v2.8h.1zM-142.1-85.3h-6.5v-2.8c0-.9.8-1.5 1.5-1.5h3.4c.9 0 1.5.8 1.5 1.5v2.8h.1zM-135.5-85.3h-6.5v-2.8c0-.9.8-1.5 1.5-1.5h3.4c.9 0 1.5.8 1.5 1.5v2.8h.1zM-128.7-85.3h-6.5v-2.8c0-.9.8-1.5 1.5-1.5h3.4c.9 0 1.5.8 1.5 1.5v2.8h.1zM-121.9-85.3h-6.5v-2.8c0-.9.8-1.5 1.5-1.5h3.4c.9 0 1.5.8 1.5 1.5v2.8h.1zM-115.1-85.3h-6.5v-2.8c0-.9.8-1.5 1.5-1.5h3.4c.9 0 1.5.8 1.5 1.5v2.8h.1zM-108.9-85h-.3c-.1 0-.4-.1-.6-.1-.5-.1-1.3-.1-2-.1h-3.3V-88c0-.9.8-1.5 1.5-1.5H-109.8c.5 0 .9.3 1.1.6.3.4.4.8.3 1.1l-.5 2.8z" fill="#3d3e3f"/><path d="M-103.6-82.6s-.1 0-.3-.1c-.1-.1-.3-.3-.5-.4-.3-.1-.5-.3-.8-.5-.3-.1-.6-.4-.9-.5-.6-.3-1.3-.5-1.9-.6-.1 0-.3-.1-.4-.1h-.6l.6-2.8c.1-.4.4-.8.8-1 .4-.3.9-.3 1.3-.1 0 0 .3.1.6.3.1 0 .4.1.6.3.3.1.5.1.6.3.5.3.9.4 1.3.6.4.1.5.3.5.3.3.1.4.3.5.5.1.1.3.4.3.6.1.4 0 .9-.3 1.1l-1.4 2.1zM-99.7-78.4s0-.1-.1-.3c-.1-.1-.3-.4-.4-.5-.3-.4-.8-1-1.1-1.5l-1.4-1.4c-.3-.1-.4-.3-.5-.4-.1-.1-.3-.1-.3-.1l1.6-2.3c.3-.4.6-.5 1-.6.4 0 .9.1 1.3.5 0 0 .8.6 1.4 1.4l.5.5c.1.1.3.4.4.5.1.1.3.3.3.4 0 .1.1.1.1.1.3.4.4.9.3 1.3-.1.4-.4.8-.8 1l-2.3 1.4z" fill="#3d3e3f"/><path d="M-98-72.9v-.3c0-.2 0-.4-.1-.6-.1-.5-.3-1.3-.5-1.9-.3-.6-.5-1.4-.8-1.8-.1-.3-.3-.4-.3-.6-.1-.1-.1-.3-.1-.3l2.4-1.4c.4-.3.8-.3 1.3-.1.3.1.4.3.5.4.1.1.3.4.4.6 0 0 .1.3.3.6.1.1.1.4.3.6.1.3.1.5.3.6.3.9.5 1.9.5 1.9.1.5 0 1-.3 1.3-.3.4-.6.6-1 .6l-2.9.4zM-98.5-67.1s0-.1.1-.3c0-.1.1-.4.1-.6.1-.5.3-1.3.4-1.9v-1-.5-.5-.4-.3-.3l2.8-.3c.4 0 .9.1 1.1.4.1.1.3.4.4.5 0 .1.1.3.1.4v2.3c-.1 1-.3 1.9-.3 1.9-.1.5-.4.9-.8 1.1-.4.3-.8.3-1.1.1l-2.8-.6z" fill="#3d3e3f"/><path d="M-101.3-62.1s0-.1.1-.1c.1-.1.3-.3.4-.5.1-.3.4-.5.5-.8.1-.3.4-.6.5-.9.4-.6.6-1.3.9-1.8.1-.3.1-.5.3-.6 0-.1.1-.3.1-.3l2.6.9c.4.1.8.4.9.9.1.4.1.9 0 1.3 0 0-.1.3-.3.5-.1.4-.4.8-.6 1.1-.2.3-.5.9-.8 1.1-.3.3-.4.5-.4.5-.1.3-.4.4-.5.5-.3.1-.4.3-.6.3-.4 0-.9-.1-1.1-.4l-2-1.7zM-106-58.7s.4-.1.8-.4c.5-.3 1.1-.6 1.6-1 .6-.4 1.1-.9 1.5-1.3.3-.1.4-.4.5-.5l.1-.1 2 1.9c.4.3.5.6.5 1.1 0 .4-.3.9-.5 1.1 0 0-.1.1-.5.4-.1.1-.3.3-.5.4-.1.1-.4.3-.6.4-.8.6-1.6 1-1.6 1-.4.3-.9.3-1.3.1-.4-.1-.8-.4-.9-.8l-1.1-2.3zM-111.6-57.4H-110.7c.5 0 1.3-.1 1.9-.3.8-.1 1.4-.4 1.9-.5.3-.1.5-.1.6-.3.1 0 .1 0 .1-.1l1.1 2.5c.1.4.1.9 0 1.3-.1.1-.3.4-.4.5-.1.1-.4.3-.6.4 0 0-.3.1-.6.1-.4.1-.9.3-1.3.4-.5.1-1 .1-1.4.3h-.6c-.5 0-.9-.1-1.3-.4-.4-.3-.5-.6-.5-1.1v-2.8h.2z" fill="#3d3e3f"/><g><path d="M-505.3-71.2c0 8.8 7.2 15.9 15.9 15.9h377.7c8.8 0 15.9-7.2 15.9-15.9v-.1h-409.5v.1z" fill="#afafaf"/><path d="M-505.4-71.5c0-8.8 7.2-15.9 15.9-15.9h377.7c8.8 0 15.9 7.2 15.9 15.9v.1h-409.5v-.1z" fill="#e4e4e4"/></g><g><g transform="translate(-644.9 -261.9)"><circle cx="283" cy="190.5" r="14.2" fill="#f4adb7"/><path d="M283 205.5c-8.3 0-15.1-6.8-15.1-15.1s6.8-15.1 15.1-15.1 15.1 6.8 15.1 15.1c-.2 8.4-6.8 15.1-15.1 15.1zm0-28.4c-7.4 0-13.4 6-13.4 13.4s6 13.4 13.4 13.4 13.4-6 13.4-13.4-6-13.4-13.4-13.4z" fill="#202019"/><circle cx="283" cy="190.5" r="5.6" fill="#fafafa" opacity=".5"/></g><g transform="translate(-644.9 -261.9)"><circle cx="160.6" cy="190.5" r="14.2" fill="#f4adb7"/><path d="M160.6 205.5c-8.3 0-15.1-6.8-15.1-15.1s6.8-15.1 15.1-15.1 15.1 6.8 15.1 15.1c-.2 8.4-6.8 15.1-15.1 15.1zm0-28.4c-7.4 0-13.4 6-13.4 13.4s6 13.4 13.4 13.4 13.4-6 13.4-13.4-6-13.4-13.4-13.4z" fill="#202019"/><circle cx="160.6" cy="190.5" r="5.6" fill="#fafafa" opacity=".5"/></g><g transform="translate(-644.9 -261.9)"><circle cx="221.8" cy="190.5" r="14.2" fill="#63c4e1"/><path d="M221.8 205.5c-8.3 0-15.1-6.8-15.1-15.1s6.8-15.1 15.1-15.1 15.1 6.8 15.1 15.1c-.2 8.4-6.8 15.1-15.1 15.1zm0-28.4c-7.4 0-13.4 6-13.4 13.4s6 13.4 13.4 13.4 13.4-6 13.4-13.4-6-13.4-13.4-13.4z" fill="#202019"/><circle cx="221.8" cy="190.5" r="5.6" fill="#fafafa" opacity=".5"/></g><g transform="translate(-644.9 -261.9)"><circle cx="405.4" cy="190.5" r="14.2" fill="#f4adb7"/><path d="M405.4 205.5c-8.3 0-15.1-6.8-15.1-15.1s6.8-15.1 15.1-15.1 15.1 6.8 15.1 15.1c-.1 8.4-6.8 15.1-15.1 15.1zm0-28.4c-7.4 0-13.4 6-13.4 13.4s6 13.4 13.4 13.4 13.4-6 13.4-13.4-6-13.4-13.4-13.4z" fill="#202019"/><circle cx="405.4" cy="190.5" r="5.6" fill="#fafafa" opacity=".5"/></g><g transform="translate(-644.9 -261.9)"><circle cx="466.7" cy="190.5" r="14.2" fill="#63c4e1"/><path d="M466.7 205.5c-8.3 0-15.1-6.8-15.1-15.1s6.8-15.1 15.1-15.1 15.1 6.8 15.1 15.1c-.2 8.4-6.9 15.1-15.1 15.1zm0-28.4c-7.4 0-13.4 6-13.4 13.4s6 13.4 13.4 13.4 13.4-6 13.4-13.4-6-13.4-13.4-13.4z" fill="#202019"/><circle cx="466.7" cy="190.5" r="5.6" fill="#fafafa" opacity=".5"/></g><g transform="translate(-644.9 -261.9)"><circle cx="527.9" cy="190.5" r="14.2" fill="#f4adb7"/><path d="M527.9 205.5c-8.3 0-15.1-6.8-15.1-15.1s6.8-15.1 15.1-15.1 15.1 6.8 15.1 15.1c-.2 8.4-6.9 15.1-15.1 15.1zm0-28.4c-7.4 0-13.4 6-13.4 13.4s6 13.4 13.4 13.4 13.4-6 13.4-13.4-6-13.4-13.4-13.4z" fill="#202019"/><circle cx="527.9" cy="190.5" r="5.6" fill="#fafafa" opacity=".5"/></g></g><g><path d="M-406.8-114.4c-.6 0-1.1.1-1.8.3l2.5 14.6c3.6-.4 6.6-3.6 6.6-7.4.2-4.2-3.2-7.5-7.3-7.5z" fill="none"/><path d="M-406.8-118.5c-1 0-2.1.1-3.1.4-.3 0-.4 0-.6-.1-.1-.1-.3-.3-.4-.5l-.4-1.9H-433l-1 6c0 .3-.1.4-.4.5-.3.1-.5.1-.6 0l-12.7-5.4c-.3-.1-.4-.3-.4-.5l-1.4-3.9-3.8 8.9 3.9-1.9c.3-.1.4-.1.6 0l13.5 5.8c.4.1.5.5.5.9l-3.3 18.8h32.1l-.6-3.4c0-.3 0-.4.1-.6.1-.1.4-.3.5-.3 6-.4 10.7-5.5 10.7-11.5 0-6.2-5.1-11.3-11.5-11.3zm.3 20.4c-.4 0-.8-.3-.8-.6l-2.8-15.9c-.1-.4.1-.8.5-.9.9-.3 1.9-.5 2.9-.5 4.9 0 9 4 9 9-.1 4.8-4 8.9-8.8 8.9z" fill="#e4d4e9"/><path d="M-393.6-107c0-7.3-5.9-13-13-13-.9 0-1.8.1-2.6.3l-.3-1.8c-.1-.4-.4-.6-.8-.6h-23.2c-.4 0-.8.3-.8.6l-1.3 5.8-11.4-4.9-2-5.5c-.1-.3-.4-.5-.8-.5s-.6.1-.8.5l-5.4 12.7c-.1.3 0 .6.1.9.3.3.6.3.9.1l5.4-2.6 12.7 5.4-3.4 19.2c0 .3 0 .5.1.6.1.1.4.3.6.3h34c.3 0 .5-.1.6-.3.1-.1.3-.4.1-.6l-.6-3.5c7-1 11.9-6.6 11.9-13.1zm-12.3 11.6c-.3 0-.4.1-.5.3-.1.1-.3.4-.1.6l.6 3.4H-438l3.3-18.8c0-.4-.1-.8-.5-.9l-13.5-5.8c-.3-.1-.5-.1-.6 0l-3.9 1.9 3.8-8.9 1.4 3.9c.1.3.3.4.4.5l12.7 5.4c.3.1.5.1.6 0 .3-.1.4-.4.4-.5l1-6h22l.4 1.9c0 .3.1.4.4.5.1.1.4.1.6.1 1-.3 2-.4 3.1-.4 6.4 0 11.5 5.1 11.5 11.5-.4 5.7-5 10.8-11 11.3z" fill="#202019"/><path d="M-406.8-116c-1 0-1.9.1-2.9.5-.4.1-.6.5-.5.9l2.8 15.9c.1.4.4.6.8.6 4.9-.1 8.8-4.1 8.8-9s-4-8.9-9-8.9zm.9 16.4l-2.5-14.6c.5-.1 1.1-.3 1.8-.3 4.1 0 7.4 3.4 7.4 7.4-.1 3.9-3 7-6.7 7.5z" fill="#202019"/><g><path d="M-422.2-114.8c-.3 0-.4.1-.5.3 0 0-1.4 1.5-2.8 3.6-1.9 2.9-2.9 5.4-2.9 7.4 0 1.6.6 3.3 1.6 4.4.9 1 2.4 2.1 4.9 2.1 4.3 0 6.1-3.8 6.1-6.5 0-4.3-5.8-10.8-6-11 0-.3-.3-.3-.4-.3zm5 11.2c0 2.1-1.5 5.1-4.8 5.1-2.5 0-5.1-1.8-5.1-5.1 0-3.6 3.4-7.9 4.8-9.5.5.6 1.5 1.8 2.4 3.1 1.8 2.8 2.7 4.9 2.7 6.4zm-4.9 1.8c.6 0 1-.1 1.3-.5.4-.5.4-1.5.3-1.8-.1-.4.1-.8.5-.9.4-.1.8.1.9.5 0 .1.4 1.9-.5 3-.5.6-1.3 1-2.4 1-.4 0-.8-.3-.8-.8 0-.2.2-.5.7-.5z" fill="#fafafa"/></g></g><g><path d="M-329.1-114.4c-.6 0-1.1.1-1.8.3l2.5 14.6c3.6-.4 6.6-3.6 6.6-7.4.2-4.2-3.2-7.5-7.3-7.5z" fill="none"/><path d="M-329.1-118.5c-1 0-2.1.1-3.1.4-.3 0-.4 0-.6-.1-.1-.1-.3-.3-.4-.5l-.4-1.9h-22l-1 6c0 .3-.1.4-.4.5-.3.1-.5.1-.6 0l-12.7-5.4c-.3-.1-.4-.3-.4-.5l-1.4-3.9-3.8 8.9 3.9-1.9c.3-.1.4-.1.6 0l13.5 5.8c.4.1.5.5.5.9l-3.3 18.8h32.1l-.6-3.4c0-.3 0-.4.1-.6.1-.1.4-.3.5-.3 6-.4 10.7-5.5 10.7-11.5.3-6.2-4.8-11.3-11.2-11.3zm.2 20.4c-.4 0-.8-.3-.8-.6l-2.8-15.9c-.1-.4.1-.8.5-.9.9-.3 1.9-.5 2.9-.5 4.9 0 9 4 9 9 0 4.8-3.9 8.9-8.8 8.9z" fill="#e4d4e9"/><path d="M-316-107c0-7.3-5.9-13-13-13-.9 0-1.8.1-2.6.3l-.3-1.8c-.1-.4-.4-.6-.8-.6h-23.2c-.4 0-.8.3-.8.6l-1 5.6-11.4-4.9-2-5.5c-.1-.3-.4-.5-.8-.5s-.6.1-.8.5l-5.4 12.7c-.1.3 0 .6.1.9.3.3.6.3.9.1l5.4-2.6 12.8 5.3-3.4 19.2c0 .3 0 .5.1.6.1.1.4.3.6.3h34c.3 0 .5-.1.6-.3.1-.1.3-.4.1-.6l-.6-3.5c6.6-.7 11.5-6.3 11.5-12.8zm-12.3 11.6c-.3 0-.4.1-.5.3-.1.1-.3.4-.1.6l.6 3.4h-32.1l3.3-18.8c0-.4-.1-.8-.5-.9l-13.5-5.8c-.3-.1-.5-.1-.6 0l-3.9 1.9 3.8-8.9 1.4 3.9c.1.3.3.4.4.5l12.7 5.4c.3.1.5.1.6 0 .3-.1.4-.4.4-.5l1-6h22l.4 1.9c0 .3.1.4.4.5.1.1.4.1.6.1 1-.3 2-.4 3.1-.4 6.4 0 11.5 5.1 11.5 11.5-.3 5.7-4.9 10.8-11 11.3z" fill="#202019"/><path d="M-329.1-116c-1 0-1.9.1-2.9.5-.4.1-.6.5-.5.9l2.8 15.9c.1.4.4.6.8.6 4.9-.1 8.8-4.1 8.8-9s-4-8.9-9-8.9zm.8 16.4l-2.5-14.6c.5-.1 1.1-.3 1.8-.3 4.1 0 7.4 3.4 7.4 7.4 0 3.9-3 7-6.7 7.5z" fill="#202019"/><g><path d="M-344.7-114.8c-.3 0-.4.1-.5.3 0 0-1.4 1.5-2.8 3.6-1.9 2.9-2.9 5.4-2.9 7.4 0 1.6.6 3.3 1.6 4.4.9 1 2.4 2.1 4.9 2.1 4.3 0 6.1-3.8 6.1-6.5 0-4.3-5.8-10.8-6-11 0-.3-.2-.3-.4-.3zm5.1 11.2c0 2.1-1.5 5.1-4.8 5.1-2.5 0-5.1-1.8-5.1-5.1 0-3.6 3.4-7.9 4.8-9.5.5.6 1.5 1.8 2.4 3.1 1.9 2.8 2.7 4.9 2.7 6.4zm-5 1.8c.6 0 1-.1 1.3-.5.4-.5.4-1.5.3-1.8-.1-.4.1-.8.5-.9.4-.1.8.1.9.5 0 .1.4 1.9-.5 3-.5.6-1.3 1-2.4 1-.4 0-.8-.3-.8-.8.1-.2.3-.5.7-.5z" fill="#fafafa"/></g></g><path fill="#fafafa" d="M-336.7-136h72.5v40.4h-72.5z"/><g><path d="M-275.5-104.3c-.4 0-.6-.3-.8-.6l-4.6-18.1-1.5 6.4c-.1.4-.4.6-.8.6h-7.3l-3.6 7.2c-.1.3-.5.5-.8.4-.4 0-.6-.3-.6-.6l-2-10.7-2.3 7.4c-.1.4-.4.6-.8.5-.4 0-.6-.3-.8-.6l-2-7.9-1.6 3.8c-.1.3-.4.5-.8.5h-3.8l-3.3 11c-.1.4-.4.5-.8.5s-.6-.3-.8-.6l-4.9-20.9-3.8 9.2c-.1.3-.4.5-.8.5h-15.1c-.4 0-.8-.4-.8-.8s.4-.8.8-.8h14.6l4.5-10.8c.1-.3.5-.5.8-.5.4 0 .6.3.8.6l4.8 20.4 2.6-8.8c.1-.4.4-.5.8-.5h3.8l2.4-5.3c.1-.3.5-.5.8-.5.4 0 .6.3.6.6l1.9 7.4 2.4-7.8c.1-.4.4-.5.8-.5s.6.3.8.6l2.1 11.4 2.8-5.5c.1-.3.4-.4.8-.4h7.2l2-9c.1-.4.4-.6.8-.6s.6.3.8.6l4.6 18.3 2.3-8.8c.1-.4.4-.6.8-.6h8c.4 0 .8.4.8.8s-.4.8-.8.8h-7.4l-2.9 11c0 .4-.3.7-.7.7z" fill="#7cba52"/></g><g><path d="M-340.4-89.5h2.4V-130h-2.4c-2.8 0-4.9 2.3-4.9 4.9v30.7c0 2.6 2.2 4.9 4.9 4.9z" fill="#90b9e3"/><path d="M-338.1-88.8h-2.4c-3.1 0-5.6-2.5-5.6-5.6v-30.7c0-3.1 2.5-5.6 5.6-5.6h2.4c.4 0 .8.4.8.8v40.5c0 .2-.4.6-.8.6zm-2.3-40.5c-2.3 0-4.1 1.9-4.1 4.1v30.7c0 2.3 1.9 4.1 4.1 4.1h1.5v-39c0 .1-1.5.1-1.5.1z" fill="#202019"/><path d="M-260.7-89.5h-2.4V-130h2.4c2.8 0 4.9 2.3 4.9 4.9v30.7c0 2.6-2.2 4.9-4.9 4.9z" fill="#90b9e3"/><path d="M-260.7-88.8h-2.4c-.4 0-.8-.4-.8-.8v-40.5c0-.4.4-.8.8-.8h2.4c3.1 0 5.6 2.5 5.6 5.6v30.7c.1 3.3-2.4 5.8-5.6 5.8zm-1.6-1.5h1.5c2.3 0 4.1-1.9 4.1-4.1v-30.7c0-2.3-1.9-4.1-4.1-4.1h-1.5v38.9z" fill="#202019"/><g><path d="M-266.9-139h-67.4c-3.1 0-5.8 2.6-5.8 5.8v88.8c0 3.1 2.6 5.8 5.8 5.8h67.4c3.1 0 5.8-2.6 5.8-5.8v-88.8c-.1-3.1-2.6-5.8-5.8-5.8zm-1.4 32.4c0 2.4-1.9 4.3-4.3 4.3h-55.9c-2.4 0-4.3-1.9-4.3-4.3v-21.1c0-2.4 1.9-4.3 4.3-4.3h55.9c2.4 0 4.3 1.9 4.3 4.3v21.1z" fill="#6e93cc"/><path d="M-266.9-37.7h-67.4c-3.6 0-6.5-2.9-6.5-6.5V-133c0-3.6 2.9-6.5 6.5-6.5h67.4c3.6 0 6.5 2.9 6.5 6.5v88.8c.1 3.5-2.9 6.5-6.5 6.5zm-67.3-100.5c-2.8 0-5 2.3-5 5v88.8c0 2.8 2.3 5 5 5h67.4c2.8 0 5-2.3 5-5v-88.8c0-2.8-2.3-5-5-5h-67.4zm61.6 36.6h-55.9c-2.8 0-5-2.3-5-5v-21.1c0-2.8 2.3-5 5-5h55.9c2.8 0 5 2.3 5 5v21.1c0 2.8-2.2 5-5 5zm-55.9-29.5c-1.9 0-3.5 1.5-3.5 3.5v21.1c0 1.9 1.5 3.5 3.5 3.5h55.9c1.9 0 3.5-1.5 3.5-3.5v-21.1c0-1.9-1.5-3.5-3.5-3.5h-55.9z" fill="#202019"/></g><g transform="translate(-644.9 -261.9)"><circle cx="344.5" cy="190.5" r="15.6" fill="#fafafa"/><circle cx="344.5" cy="190.5" r="13.9" fill="#aace81"/><path d="M346.6 181.1l-7.9 11h4.8L342 200l7.9-11h-4.8l1.5-7.9z" fill="#fafafa"/></g></g><g><path d="M-223.7-124.7c-.4 0-.6-.4-.6-.8v-3.3c0-.4.4-.8.8-.8h.3-3.9.3c.4 0 .8.4.8.8v3.3c0 .4-.3.8-.6.8-2.6.4-4.6 2.6-4.6 5.3v.6c0 1.6.3 3.4.9 5.3.1.5.4 1 .4 1.6 0 .1 0 .3.1.4.3-.3.5-.4.8-.4.3 0 .5-.1.6-.4.4-.5.9-.9 1.6-.9.6 0 1.1.3 1.4.8.1.3.5.4.8.3.1 0 .4-.1.5-.1.3 0 .4 0 .6.1.3.1.6 0 .8-.3.4-.5.9-.8 1.5-.8.5 0 1 .3 1.4.6.1-.4.1-.6.3-1 .6-1.8.9-3.5.9-5.3v-.6c-.4-2.5-2.4-4.8-5.1-5.2z" fill="none"/><path d="M-221.5-113c-.6 0-1.1.3-1.5.8-.1.3-.5.4-.8.3-.3-.1-.4-.1-.6-.1-.1 0-.4 0-.5.1-.3.1-.5 0-.8-.3-.4-.4-.9-.8-1.4-.8-.6 0-1.3.4-1.6.9-.1.3-.4.4-.6.4-.4 0-.6.1-.8.4.1.8.1 1.4.1 2.1 0 1.4-.3 2.8-.6 4.1-.6 1.8-.9 3.5-.9 5.3v6.8c0 1.1.9 1.9 1.9 1.9h8.7c1.1 0 1.9-.9 1.9-1.9v-6.8c0-1.6-.3-3.4-.9-5.3-.5-1.4-.6-2.8-.6-4.1 0-.8.1-1.6.3-2.4 0-.3.1-.5.1-.8-.4-.5-.9-.6-1.4-.6z" fill="#92cef1"/><path d="M-217.4-118.8v-.6c0-3.3-2.3-6-5.3-6.8v-1.7h.3c.4 0 .8-.4.8-.8v-1.6c0-.4-.4-.8-.8-.8h-5.4c-.4 0-.8.4-.8.8v1.6c0 .4.4.8.8.8h.3v1.8c-3.1.8-5.3 3.5-5.3 6.8v.6c0 1.9.4 3.8 1 5.8.4 1.1.6 2.4.6 3.6 0 1.2-.3 2.5-.6 3.6-.6 1.9-1 3.9-1 5.8v6.8c0 1.9 1.5 3.5 3.5 3.5h8.7c1.9 0 3.5-1.5 3.5-3.5v-6.8c0-1.9-.4-3.8-1-5.8-.4-1.1-.6-2.4-.6-3.6 0-1.2.3-2.5.6-3.6.3-2 .7-4 .7-5.9zm-1.6 0c0 1.6-.3 3.4-.9 5.3-.1.4-.3.6-.3 1 0 .3-.1.5-.1.8-.1.8-.3 1.6-.3 2.4 0 1.4.3 2.8.6 4.1.6 1.8.9 3.5.9 5.3v6.8c0 1.1-.9 1.9-1.9 1.9h-8.7c-1.1 0-1.9-.9-1.9-1.9v-6.8c0-1.6.3-3.4.9-5.3.5-1.4.6-2.8.6-4.1 0-.8 0-1.4-.1-2.1 0-.1 0-.3-.1-.4-.1-.5-.3-1.1-.4-1.6-.6-1.8-.9-3.5-.9-5.3v-.6c0-2.6 2-5 4.6-5.3.4 0 .6-.4.6-.8v-3.3c0-.4-.4-.8-.8-.8h-.3 3.9-.3c-.4 0-.8.4-.8.8v3.3c0 .4.3.8.6.8 2.6.4 4.6 2.6 4.6 5.3v.5z" fill="#202019"/></g><g><path d="M-184.5-124.7c-.4 0-.6-.4-.6-.8v-3.3c0-.4.4-.8.8-.8h.3-3.9.3c.4 0 .8.4.8.8v3.3c0 .4-.3.8-.6.8-2.6.4-4.6 2.6-4.6 5.3v.6c0 1.6.3 3.4.9 5.3.1.5.4 1 .4 1.6 0 .1 0 .3.1.4.3-.3.5-.4.8-.4.3 0 .5-.1.6-.4.4-.5.9-.9 1.6-.9.6 0 1.1.3 1.4.8.1.3.5.4.8.3.1 0 .4-.1.5-.1.3 0 .4 0 .6.1.3.1.6 0 .8-.3.4-.5.9-.8 1.5-.8.5 0 1 .3 1.4.6.1-.4.1-.6.3-1 .6-1.8.9-3.5.9-5.3v-.6c-.5-2.5-2.5-4.8-5.1-5.2z" fill="none"/><path d="M-182.4-113c-.6 0-1.1.3-1.5.8-.1.3-.5.4-.8.3-.3-.1-.4-.1-.6-.1-.1 0-.4 0-.5.1-.3.1-.5 0-.8-.3-.4-.4-.9-.8-1.4-.8-.6 0-1.3.4-1.6.9-.1.3-.4.4-.6.4-.4 0-.6.1-.8.4.1.8.1 1.4.1 2.1 0 1.4-.3 2.8-.6 4.1-.6 1.8-.9 3.5-.9 5.3v6.8c0 1.1.9 1.9 1.9 1.9h8.7c1.1 0 1.9-.9 1.9-1.9v-6.8c0-1.6-.3-3.4-.9-5.3-.5-1.4-.6-2.8-.6-4.1 0-.8.1-1.6.3-2.4 0-.3.1-.5.1-.8-.4-.5-.9-.6-1.4-.6z" fill="#92cef1"/><path d="M-178.2-118.8v-.6c0-3.3-2.3-6-5.3-6.8v-1.7h.3c.4 0 .8-.4.8-.8v-1.6c0-.4-.4-.8-.8-.8h-5.4c-.4 0-.8.4-.8.8v1.6c0 .4.4.8.8.8h.3v1.8c-3.1.8-5.3 3.5-5.3 6.8v.6c0 1.9.4 3.8 1 5.8.4 1.1.6 2.4.6 3.6 0 1.2-.3 2.5-.6 3.6-.6 1.9-1 3.9-1 5.8v6.8c0 1.9 1.5 3.5 3.5 3.5h8.7c1.9 0 3.5-1.5 3.5-3.5v-6.8c0-1.9-.4-3.8-1-5.8-.4-1.1-.6-2.4-.6-3.6 0-1.2.3-2.5.6-3.6.3-2 .7-4 .7-5.9zm-1.7 0c0 1.6-.3 3.4-.9 5.3-.1.4-.3.6-.3 1 0 .3-.1.5-.1.8-.1.8-.3 1.6-.3 2.4 0 1.4.3 2.8.6 4.1.6 1.8.9 3.5.9 5.3v6.8c0 1.1-.9 1.9-1.9 1.9h-8.7c-1.1 0-1.9-.9-1.9-1.9v-6.8c0-1.6.3-3.4.9-5.3.5-1.4.6-2.8.6-4.1 0-.8 0-1.4-.1-2.1 0-.1 0-.3-.1-.4-.1-.5-.3-1.1-.4-1.6-.6-1.8-.9-3.5-.9-5.3v-.6c0-2.6 2-5 4.6-5.3.4 0 .6-.4.6-.8v-3.3c0-.4-.4-.8-.8-.8h-.3 3.9-.3c-.4 0-.8.4-.8.8v3.3c0 .4.3.8.6.8 2.6.4 4.6 2.6 4.6 5.3l.5.5z" fill="#202019"/></g><g><path d="M-145.4-124.7c-.4 0-.6-.4-.6-.8v-3.3c0-.4.4-.8.8-.8h.3-4 .3c.4 0 .8.4.8.8v3.3c0 .4-.3.8-.6.8-2.6.4-4.6 2.6-4.6 5.3v.6c0 1.6.3 3.4.9 5.3.1.5.4 1 .4 1.6 0 .1 0 .3.1.4.3-.3.5-.4.8-.4.3 0 .5-.1.6-.4.4-.5.9-.9 1.6-.9.6 0 1.1.3 1.4.8.1.3.5.4.8.3.1 0 .4-.1.5-.1.3 0 .4 0 .6.1.2.1.6 0 .8-.3.4-.5.9-.8 1.5-.8.5 0 1 .3 1.4.6.1-.4.1-.6.3-1 .6-1.8.9-3.5.9-5.3v-.6c-.3-2.5-2.3-4.8-5-5.2z" fill="none"/><path d="M-143.2-113c-.6 0-1.1.3-1.5.8-.1.3-.5.4-.8.3-.3-.1-.4-.1-.6-.1-.1 0-.4 0-.5.1-.3.1-.5 0-.8-.3-.4-.4-.9-.8-1.4-.8-.6 0-1.3.4-1.6.9-.1.3-.4.4-.6.4-.4 0-.6.1-.8.4.1.8.1 1.4.1 2.1 0 1.4-.3 2.8-.6 4.1-.6 1.8-.9 3.5-.9 5.3v6.8c0 1.1.9 1.9 1.9 1.9h8.7c1.1 0 1.9-.9 1.9-1.9v-6.8c0-1.6-.3-3.4-.9-5.3-.5-1.4-.6-2.8-.6-4.1 0-.8.1-1.6.3-2.4 0-.3.1-.5.1-.8-.4-.5-.9-.6-1.4-.6z" fill="#92cef1"/><path d="M-139.1-118.8v-.6c0-3.3-2.3-6-5.3-6.8v-1.7h.3c.4 0 .8-.4.8-.8v-1.6c0-.4-.4-.8-.8-.8h-5.4c-.4 0-.8.4-.8.8v1.6c0 .4.4.8.8.8h.3v1.8c-3.1.8-5.3 3.5-5.3 6.8v.6c0 1.9.4 3.8 1 5.8.4 1.1.6 2.4.6 3.6 0 1.2-.3 2.5-.6 3.6-.6 1.9-1 3.9-1 5.8v6.8c0 1.9 1.5 3.5 3.5 3.5h8.7c1.9 0 3.5-1.5 3.5-3.5v-6.8c0-1.9-.4-3.8-1-5.8-.4-1.1-.6-2.4-.6-3.6 0-1.2.3-2.5.6-3.6.3-2 .7-4 .7-5.9zm-1.6 0c0 1.6-.3 3.4-.9 5.3-.1.4-.3.6-.3 1 0 .3-.1.5-.1.8-.1.8-.3 1.6-.3 2.4 0 1.4.3 2.8.6 4.1.6 1.8.9 3.5.9 5.3v6.8c0 1.1-.9 1.9-1.9 1.9h-8.7c-1.1 0-1.9-.9-1.9-1.9v-6.8c0-1.6.3-3.4.9-5.3.5-1.4.6-2.8.6-4.1 0-.8 0-1.4-.1-2.1 0-.1 0-.3-.1-.4-.1-.5-.3-1.1-.4-1.6-.6-1.8-.9-3.5-.9-5.3v-.6c0-2.6 2-5 4.6-5.3.4 0 .6-.4.6-.8v-3.3c0-.4-.4-.8-.8-.8h3.9-.3c-.4 0-.8.4-.8.8v3.3c0 .4.3.8.6.8 2.6.4 4.6 2.6 4.6 5.3l.2.5z" fill="#202019"/></g><g><path d="M-487.5-117.6c-.5.3-1 .5-1.5.8l7.3 12.9c3.4-1.6 5-5.6 3.8-9.2-1.5-3.9-5.8-5.9-9.6-4.5z" fill="none"/><path d="M-488.8-121.5c-1 .4-1.9.9-2.8 1.4-.1.1-.4.1-.6.1-.3 0-.4-.1-.5-.4l-.9-1.6-20.7 7.3 1 6c0 .3 0 .5-.3.6-.1.1-.4.3-.6.3l-13.7-.9c-.3 0-.4-.1-.5-.3l-2.6-3.3-.6 9.7 3-3c.1-.1.4-.3.6-.3l14.8 1c.4 0 .6.3.8.6l3.1 18.9 30.4-10.5-1.6-3c-.1-.3-.1-.4 0-.6.1-.3.3-.4.4-.5 5.5-2.4 8.3-8.8 6.3-14.4-2.5-6.1-9.1-9.3-15-7.1zm7 19.2c-.1 0-.1.1 0 0-.4.1-.8 0-1-.4l-7.9-14c-.1-.4-.1-.8.3-1 .8-.6 1.6-1 2.5-1.4 4.6-1.6 9.8.8 11.4 5.5 1.6 4.5-.8 9.6-5.3 11.3z" fill="#e4d4e9"/><path d="M-472.6-115c-2.4-6.8-9.9-10.4-16.7-8-.9.3-1.6.6-2.4 1.1l-.9-1.5c-.1-.4-.6-.5-.9-.4l-22 7.8c-.4.1-.6.5-.5.9l1 5.6-12.4-.8-3.6-4.5c-.3-.3-.5-.4-.9-.3-.3.1-.5.4-.5.6l-.9 13.8c0 .4.1.6.5.8.3.1.6.1.9-.1l4.3-4.3 13.8.9 3.3 19.2c0 .3.1.4.4.5.3.1.4.1.6.1l32.1-11.3c.3-.1.4-.3.5-.5.1-.3.1-.5 0-.6l-1.8-3c5.4-3 8.2-9.9 6.1-16zm-7.8 14.9c-.3.1-.4.3-.4.5-.1.3 0 .4 0 .6l1.6 3-30.4 10.7-3.1-18.9c0-.4-.4-.6-.8-.6l-14.8-1c-.3 0-.5.1-.6.3l-3 3 .6-9.7 2.6 3.3c.1.1.4.3.5.3l13.7.9c.3 0 .5-.1.6-.3.1-.1.3-.4.3-.6l-1-6 20.7-7.3.9 1.6c.1.3.3.4.5.4s.5 0 .6-.1c.9-.6 1.8-1.1 2.8-1.4 6-2.1 12.7 1 14.7 7 2.3 5.5-.5 11.9-6 14.3z" fill="#202019"/><path d="M-488.1-119.1c-.9.4-1.8.8-2.5 1.4-.3.3-.4.6-.3 1l7.9 14.2c.1.4.6.5.9.4 4.5-1.8 6.9-6.8 5.3-11.4-1.4-4.9-6.5-7.3-11.3-5.6zm6.3 15.1l-7.3-12.9c.5-.3 1-.6 1.5-.8 3.9-1.4 8.2.6 9.5 4.5 1.3 3.6-.3 7.6-3.7 9.2z" fill="#202019"/><g><path d="M-502.3-112.9c-.3 0-.4.3-.4.4 0 .1-.9 1.9-1.5 4.3-.9 3.3-.9 6-.3 7.9.5 1.5 1.6 2.9 3 3.6 1.1.6 3 1.1 5.3.4 4-1.4 4.5-5.6 3.6-8.2-1.4-4-9-8.2-9.3-8.4h-.4zm8.6 8.9c.8 2 .4 5.4-2.8 6.4-2.4.9-5.4 0-6.5-3.1-1.1-3.4.6-8.7 1.4-10.5.8.5 2 1.3 3.3 2.1 2.4 2 4.1 3.8 4.6 5.1zm-4.2 3.4c.6-.3.9-.5 1-.9.3-.6-.1-1.5-.4-1.8-.3-.4-.1-.8.3-1 .4-.3.8-.1 1 .3.1.1 1 1.6.5 3-.3.8-.9 1.4-1.9 1.8-.4.1-.8-.1-.9-.4-.1-.3.1-.9.4-1z" fill="#fafafa"/></g><g><path d="M-544.3-106.7h-.1c-.4-.1-.6-.5-.6-.9.5-2.3 1.6-4 3.4-5 3.3-1.9 7.5-.6 7.7-.5.4.1.6.6.5 1-.1.4-.6.6-1 .5 0 0-3.8-1.1-6.4.4-1.4.8-2.3 2.1-2.6 4-.2.2-.5.5-.9.5zM-542.5-101.1c-.5 0-.9-.5-.8-.9.3-2.3 1.1-3.9 2.6-4.9 2.6-1.9 6.3-1 6.4-1 .4.1.6.5.6.9-.1.4-.5.6-.9.6 0 0-3-.8-5.1.8-1.1.8-1.8 2-2 3.8-.1.3-.4.7-.8.7zM-540.6-95.6c-.4 0-.8-.4-.8-.8 0-2.1.6-3.8 1.9-4.9 2-1.8 4.9-1.4 5-1.4.4 0 .8.5.6.9 0 .4-.5.8-.9.6 0 0-2.4-.3-3.9 1-.9.8-1.4 2-1.4 3.8.2.5-.2.8-.5.8z" fill="#92cef1"/></g></g><g><path d="M-111.5-4.7v-66.6c0-3.1-2.5-5.5-5.5-5.5h-.1c-3.1 0-5.5 2.5-5.5 5.5v66.6h-4.9v3.5h21.1v-3.5h-5.1zm-5.5-69.4c1.5 0 2.8 1.3 2.8 2.8 0 1.5-1.3 2.8-2.8 2.8-1.5 0-2.8-1.3-2.8-2.8 0-1.5 1.3-2.8 2.8-2.8z" fill="#fafafa"/><path d="M-106.5-.5h-21.1c-.4 0-.8-.4-.8-.8v-3.5c0-.4.4-.8.8-.8h4.1v-65.9c0-3.5 2.9-6.4 6.4-6.4h.1c3.5 0 6.4 2.9 6.4 6.4v65.9h4.1c.4 0 .8.4.8.8v3.5c0 .4-.4.8-.8.8zm-20.3-1.6h19.6V-4h-4.1c-.4 0-.8-.4-.8-.8v-66.6c0-2.6-2.1-4.8-4.8-4.8h-.1c-2.6 0-4.8 2.1-4.8 4.8v66.6c0 .3-.1.4-.3.5-.1.1-.4.3-.5.3h-4.1v1.9h-.1zm9.8-65.7c-1.9 0-3.5-1.6-3.5-3.5s1.6-3.5 3.5-3.5 3.5 1.6 3.5 3.5c0 1.8-1.6 3.5-3.5 3.5zm0-5.6c-1.1 0-2 .9-2 2s.9 2 2 2 2-.9 2-2c-.1-1.1-1-2-2-2z" fill="#202019"/><g><path d="M-478.7-4.7v-66.6c0-3.1-2.5-5.5-5.5-5.5h-.3c-3.1 0-5.5 2.5-5.5 5.5v66.6h-4.9v3.5h21.1v-3.5h-4.9zm-5.6-69.4c1.5 0 2.8 1.3 2.8 2.8 0 1.5-1.3 2.8-2.8 2.8-1.5 0-2.8-1.3-2.8-2.8 0-1.5 1.3-2.8 2.8-2.8z" fill="#fafafa"/><path d="M-473.8-.5h-21.1c-.4 0-.8-.4-.8-.8v-3.5c0-.4.4-.8.8-.8h4.1v-65.9c0-3.5 2.9-6.4 6.4-6.4h.1c3.5 0 6.4 2.9 6.4 6.4v65.9h4.1c.4 0 .8.4.8.8v3.5c0 .4-.4.8-.8.8zm-20.3-1.6h19.6V-4h-4.1c-.4 0-.8-.4-.8-.8v-66.6c0-2.6-2.1-4.8-4.8-4.8h-.3c-2.6 0-4.8 2.1-4.8 4.8v66.6c0 .3-.1.4-.3.5-.1.1-.4.3-.5.3h-4.1v1.9zm9.8-65.7c-1.9 0-3.5-1.6-3.5-3.5s1.6-3.5 3.5-3.5 3.5 1.6 3.5 3.5c0 1.8-1.6 3.5-3.5 3.5zm0-5.6c-1.1 0-2 .9-2 2s.9 2 2 2 2-.9 2-2c-.1-1.1-1-2-2-2z" fill="#202019"/></g></g></svg>