<svg xmlns="http://www.w3.org/2000/svg" viewBox="0 0 595.8 363.1"><path fill="#212119" d="M595.5 275.5v35.7c0 1-.8 1.8-1.8 1.8H349.3v33.9h18.6c.9 0 1.7.7 1.8 1.6V361c0 1-.8 1.8-1.8 1.8h-140c-1 0-1.8-.8-1.8-1.8v-12.4-.2c.1-.9.9-1.6 1.8-1.6h18.6V313H2.1c-1 0-1.8-.8-1.8-1.8V2C.3 1 1.1.2 2.1.2h591.6c1 0 1.8.8 1.8 1.8V275.5zm-3.6 33.9v-33.9H3.9v33.9h588zm0-37.5V3.8H3.9v268h588zm-225.8 87.3v-8.8H229.7v8.8h136.4zm-20.5-12.4V313h-95.5v33.9h95.5z"/><path fill="#303849" d="M591.9 3.8v268h-294V3.8h294zm-44.4 166.1v-10.2H377.7v10.2h169.8zm-3.9 90.3V250h-108v10.2h108zm-4.1-183.3V66.7h-45.1v10.2h45.1zm-15 114.3V181h-26.3v10.2h26.3zm-34.9 0V181h-52.4v10.2h52.4zm-2.7-114.8V66.2h-32.4v10.2h32.4zm-7.7-23.7V42.5H338v10.2h141.2zM470.8 99V88.8H456V99h14.8zm-.1 115.6v-10.2H356.3v10.2h114.4zM441.9 75.9V65.6H338v10.2h103.9zm-1.9 72v-10.2H317.5v10.2H440zm-14.5 112.3V250h-108v10.2h108zm0-138.1v-10.2H338v10.2h87.5zm-1.5 69.1V181h-67.7v10.2H424zm-8.4 48.9v-10.2h-98v10.2h98zm0-141.1V88.8H338V99h77.6zm-37.9-73.3V15.5h-60.1v10.2h60.1zm-16.2 144.2v-10.2H338v10.2h23.5z"/><path fill="#A591C5" d="M575.5 300.2c-4.3 0-7.8-3.5-7.8-7.8 0-2.1.9-4.1 2.3-5.5.3-.3.5-.5.8-.7l.9-.6c1.1-.6 2.4-.9 3.7-.9 1.3 0 2.6.3 3.7.9.5.3 1 .6 1.4.9.7.6 1.3 1.3 1.7 2.1.6 1.1.9 2.4.9 3.7s-.3 2.6-.9 3.7c-.1.2-.2.3-.3.5-.1.1-.2.3-.3.4-.1.1-.2.3-.3.4l-.4.4c-1.3 1.6-3.2 2.5-5.4 2.5z"/><path fill="#92ABD9" d="M549.2 300.2c-4.3 0-7.8-3.5-7.8-7.8 0-2.1.9-4.1 2.3-5.5.4-.4.8-.7 1.3-1 .2-.1.3-.2.5-.3 1.1-.6 2.4-.9 3.7-.9 1.3 0 2.6.3 3.7.9.5.3 1 .6 1.4.9.7.6 1.3 1.3 1.7 2.1.6 1.1.9 2.4.9 3.7s-.3 2.6-.9 3.7c-.1.2-.2.3-.3.5-.1.1-.2.3-.3.4-.1.1-.2.3-.3.4l-.4.4c-1.5 1.6-3.4 2.5-5.5 2.5z"/><path fill="#BEE2E8" d="M377.7 159.7h169.9v10.2H377.7z"/><path fill="#F6B7B7" d="M435.6 250h108v10.2h-108zM437.2 181h52.4v10.2h-52.4zM454.5 66.2h32.4v10.2h-32.4z"/><path fill="#BEE2E8" d="M338 42.5h141.3v10.2H338zM338 111.9h87.6v10.2H338zM317.5 229.9h98v10.2h-98z"/><path fill="#F6B7B7" d="M338 88.8h77.6V99H338zM317.5 15.5h60.1v10.2h-60.1zM338 159.7h23.5v10.2H338z"/><path fill="#FFF" d="M345.6 313v33.8h-95.5V313"/><path fill="#303849" d="M297.9 303.9c-5.6 0-10.3-4-11.3-9.3-.1-.4-.1-.7-.2-1.1 0-.4-.1-.8-.1-1.2 0-.4 0-.8.1-1.1 0-.2 0-.4.1-.6.1-.4.1-.7.2-1 0-.2.1-.3.1-.5.1-.2.1-.3.2-.5s.1-.3.2-.5.1-.3.2-.5c0-.1.1-.1.1-.2.1-.2.2-.5.4-.7 2-3.5 5.7-5.9 10.1-5.9 1 0 1.9.1 2.8.4 4.7 1.2 8.3 5.2 8.7 10.2v1.9c-.4 5-4 9-8.7 10.2-1 .3-1.9.4-2.9.4z"/><path fill="#232937" d="M297.9 3.8v268H3.9V3.8h294zm-23.1 187.9v-10.2H173.3v10.2h101.5zm-19.2-92.2V89.3h-215v10.2h215zm-5.5 70.9v-10.2H138.9v10.2h111.2zm-20 44.8V205h-45.7v10.2h45.7zm-17.2 25.5v-10.2H20.1v10.2h192.8zm0-214.5V16H20.1v10.2h192.8zm-9 27.1V43.1h-43.6v10.2h43.6zm-11.7 69.4v-10.2h-75.7v10.2h75.7zm-18.9-46.3V66.2h-68.8v10.2h68.8zm-6 138.8V205h-45.7v10.2h45.7zm-6.9-23.5v-10.2H58.9v10.2h101.5zM144.5 53.3V43.1H40.6v10.2h103.9zm-40 207.5v-10.2H20.1v10.2h84.4zm0-45.6V205H58.9v10.2h45.6zm-5.3-44.8v-10.2H40.6v10.2h58.6zm-2.5-94V66.2H40.6v10.2h56.1zM91 148.5v-10.2H20.1v10.2H91zm0-25.8v-10.2H40.6v10.2H91z"/><path fill="#FCCA77" d="M173.3 181.5h101.5v10.2H173.3zM20.1 230.5h192.8v10.2H20.1z"/><path fill="#9BCD9E" d="M20.1 16h192.8v10.2H20.1z"/><path fill="#FCCA77" d="M116.5 112.4h75.7v10.2h-75.7z"/><path fill="#9BCD9E" d="M104.5 66.2h68.8v10.2h-68.8zM121.7 204.9h45.7v10.2h-45.7z"/><path fill="#FCCA77" d="M40.6 43.1h103.9v10.2H40.6zM40.6 160.2h58.7v10.2H40.6z"/><path fill="#9BCD9E" d="M20.1 138.3H91v10.2H20.1z"/></svg>