<svg version="1.1" id="Calque_1" xmlns="http://www.w3.org/2000/svg" x="0" y="0" viewBox="0 0 794 320.3" enable-background="new 0 0 794 320.3" xml:space="preserve"><path fill="#7A7979" d="M134.8 320.3H91.3c-2.2 0-4.1-1.8-4.1-4.1v-9.5h51.6v9.5C138.8 318.5 137 320.3 134.8 320.3z"/><path fill="#7A7979" d="M702.7 320.3h-43.4c-2.2 0-4.1-1.8-4.1-4.1v-9.5h51.6v9.5C706.7 318.5 704.9 320.3 702.7 320.3z"/><g id="armature"><rect x="3" y="3" fill="#FBFBFB" width="788" height="303.7"/><path fill="#202019" d="M791 309.7H3c-1.7 0-3-1.3-3-3V3c0-1.7 1.3-3 3-3h788c1.7 0 3 1.3 3 3v303.7C794 308.4 792.7 309.7 791 309.7zM6 303.7h782V6H6V303.7z"/></g><g id="Partie_écran"><path fill="#95D5EE" d="M328.7 223.7H46.8c-4.6 0-8.3-3.7-8.3-8.3V38c0-4.6 3.7-8.3 8.3-8.3h281.9c4.6 0 8.3 3.7 8.3 8.3v177.3C337 220 333.3 223.7 328.7 223.7z"/><rect x="44.8" y="35.2" fill="#FFFFFF" width="285.9" height="183"/></g><g id="Partie_contrôle"><path fill="#CFD5D6" d="M747.2 244.8H398.8c-4.6 0-8.3-3.7-8.3-8.3V38c0-4.6 3.7-8.3 8.3-8.3h348.3c4.6 0 8.3 3.7 8.3 8.3v198.4C755.5 241.1 751.8 244.8 747.2 244.8z"/><rect x="397" y="35.2" fill="#FFFFFF" width="352" height="204.1"/></g><path id="partie_blanche_sous_écran" fill="#FFFFFF" d="M321.5 291.4H54c-3.2 0-5.7-2.6-5.7-5.7v-40.9c0-3.2 2.6-5.7 5.7-5.7h267.5c3.2 0 5.7 2.6 5.7 5.7v40.9C327.3 288.9 324.7 291.4 321.5 291.4z"/><g id="Bouton_rond_orange_droite"><circle fill="#F4CD7C" cx="81.8" cy="265.2" r="17.8"/><circle fill="#FAFAFA" cx="89.1" cy="256.2" r="4.6"/></g><g id="Bouton_rond_orange_gauche"><circle fill="#F4CD7C" cx="146" cy="265.2" r="17.8"/><circle fill="#FAFAFA" cx="155.8" cy="271.4" r="4.6"/></g><circle id="bouton_rond_rouge" fill="#E58A76" cx="303.4" cy="265.2" r="8.1"/><circle id="bouton_rond_vert" fill="#C3D880" cx="275.8" cy="265.2" r="8.1"/><g id="entrées_sorties"><circle fill="#C7C6C6" cx="433.5" cy="272.6" r="14.9"/><circle fill="#FBFBFB" cx="433.5" cy="272.6" r="10"/><circle fill="#C7C6C6" cx="526.5" cy="272.6" r="14.9"/><circle fill="#FBFBFB" cx="526.5" cy="272.6" r="10"/><circle fill="#C7C6C6" cx="619.5" cy="272.6" r="14.9"/><circle fill="#FBFBFB" cx="619.5" cy="272.6" r="10"/><circle fill="#C7C6C6" cx="712.5" cy="272.6" r="14.9"/><circle fill="#FBFBFB" cx="712.5" cy="272.6" r="10"/></g><g id="quadrillage_écran"><rect x="57.1" y="35.2" fill="#FBFBFB" width="1" height="183"/><rect x="89.6" y="35.2" fill="#FBFBFB" width="1" height="183"/><rect x="122.2" y="35.2" fill="#FBFBFB" width="1" height="183"/><rect x="154.7" y="35.2" fill="#FBFBFB" width="1" height="183"/><rect x="187.3" y="35.2" fill="#FBFBFB" width="1" height="183"/><rect x="219.8" y="35.2" fill="#FBFBFB" width="1" height="183"/><rect x="252.3" y="35.2" fill="#FBFBFB" width="1" height="183"/><rect x="284.9" y="35.2" fill="#FBFBFB" width="1" height="183"/><rect x="317.4" y="35.2" fill="#FBFBFB" width="1" height="183"/><rect x="45" y="34.7" fill="#FBFBFB" width="285.7" height="1"/><rect x="45" y="71.3" fill="#FBFBFB" width="285.7" height="1"/><rect x="45" y="107.9" fill="#FBFBFB" width="285.7" height="1"/><rect x="45" y="144.5" fill="#FBFBFB" width="285.7" height="1"/><rect x="45" y="181.1" fill="#FBFBFB" width="285.7" height="1"/><rect x="45" y="217.7" fill="#FBFBFB" width="285.7" height="1"/></g><g id="sinusoïdes"><path id="sinusoïde_bleue" fill="#64C5E2" d="M330.7 116.8c-7.7 0-11-14.5-14.5-29.8 -2.9-12.9-6.2-27.4-11.5-27.4s-8.6 14.6-11.5 27.4c-3.5 15.3-6.8 29.8-14.5 29.8s-11-14.5-14.5-29.8c-2.9-12.9-6.2-27.4-11.5-27.4s-8.6 14.6-11.5 27.4c-3.5 15.3-6.8 29.8-14.5 29.8s-11-14.5-14.5-29.8c-2.9-12.9-6.2-27.4-11.5-27.4s-8.6 14.6-11.5 27.4c-3.5 15.3-6.8 29.8-14.5 29.8 -7.7 0-11-14.5-14.5-29.8 -2.9-12.9-6.2-27.4-11.5-27.4s-8.6 14.6-11.5 27.4c-3.5 15.3-6.8 29.8-14.5 29.8 -7.7 0-11-14.5-14.5-29.8 -2.9-12.9-6.2-27.4-11.5-27.4 -5.3 0-8.6 14.6-11.5 27.4 -3.5 15.3-6.8 29.8-14.5 29.8 -7.7 0-11-14.5-14.5-29.8 -2.9-12.9-6.2-27.4-11.5-27.4v-3c7.7 0 11 14.5 14.5 29.8 2.9 12.9 6.2 27.4 11.5 27.4s8.6-14.6 11.5-27.4c3.5-15.3 6.8-29.8 14.5-29.8 7.7 0 11 14.5 14.5 29.8 2.9 12.9 6.2 27.4 11.5 27.4s8.6-14.6 11.5-27.4c3.5-15.3 6.8-29.8 14.5-29.8s11 14.5 14.5 29.8c2.9 12.9 6.2 27.4 11.5 27.4 5.3 0 8.6-14.6 11.5-27.4 3.5-15.3 6.8-29.8 14.5-29.8s11 14.5 14.5 29.8c2.9 12.9 6.2 27.4 11.5 27.4s8.6-14.6 11.5-27.4c3.5-15.3 6.8-29.8 14.5-29.8s11 14.5 14.5 29.8c2.9 12.9 6.2 27.4 11.5 27.4s8.6-14.6 11.5-27.4c3.5-15.3 6.8-29.8 14.5-29.8s11 14.5 14.5 29.8c2.9 12.9 6.2 27.4 11.5 27.4V116.8z"/><path id="sinusoïde_verte" fill="#98CA92" d="M310.3 202.5c-6.1 0-8.4-13.5-11.7-35.6 -2-13.2-4.9-33-8.7-33s-6.8 19.9-8.7 33c-3.3 22.1-5.6 35.6-11.7 35.6 -6.1 0-8.4-13.5-11.7-35.6 -2-13.2-4.9-33-8.7-33s-6.8 19.9-8.7 33c-3.3 22.1-5.6 35.6-11.7 35.6s-8.4-13.5-11.7-35.6c-2-13.2-4.9-33-8.7-33s-6.8 19.9-8.7 33c-3.3 22.1-5.6 35.6-11.7 35.6 -6.1 0-8.4-13.5-11.7-35.6 -2-13.2-4.9-33-8.7-33 -3.8 0-6.8 19.9-8.7 33 -3.3 22.1-5.6 35.6-11.7 35.6 -6.1 0-8.4-13.5-11.7-35.6 -2-13.2-4.9-33-8.7-33 -3.8 0-6.8 19.9-8.7 33 -3.3 22.1-5.6 35.6-11.7 35.6 -6.1 0-8.4-13.5-11.7-35.6 -2-13.2-4.9-33-8.7-33s-6.8 19.9-8.7 33c-3.3 22.1-5.6 35.6-11.7 35.6 -6.1 0-8.4-13.5-11.7-35.6 -2-13.2-4.9-33-8.7-33v-3c6.1 0 8.4 13.5 11.7 35.6 2 13.2 4.9 33 8.7 33 3.8 0 6.8-19.9 8.7-33 3.3-22.1 5.6-35.6 11.7-35.6s8.4 13.5 11.7 35.6c2 13.2 4.9 33 8.7 33 3.8 0 6.8-19.9 8.7-33 3.3-22.1 5.6-35.6 11.7-35.6 6.1 0 8.4 13.5 11.7 35.6 2 13.2 4.9 33 8.7 33 3.8 0 6.8-19.9 8.7-33 3.3-22.1 5.6-35.6 11.7-35.6s8.4 13.5 11.7 35.6c2 13.2 4.9 33 8.7 33 3.8 0 6.8-19.9 8.7-33 3.3-22.1 5.6-35.6 11.7-35.6s8.4 13.5 11.7 35.6c2 13.2 4.9 33 8.7 33s6.8-19.9 8.7-33c3.3-22.1 5.6-35.6 11.7-35.6s8.4 13.5 11.7 35.6c2 13.2 4.9 33 8.7 33 3.8 0 6.8-19.9 8.7-33 3.3-22.1 5.6-35.6 11.7-35.6s8.4 13.5 11.7 35.6c2 13.2 4.9 33 8.7 33s6.8-19.9 8.7-33c3.3-22.1 5.6-35.6 11.7-35.6v3c-3.8 0-6.8 19.9-8.7 33C318.7 189 316.4 202.5 310.3 202.5z"/></g><g id="lcd"><rect x="408.7" y="195.7" fill="#D6D987" width="144.4" height="37.5"/><rect x="415.5" y="202.5" fill="#FBFBFB" width="79.8" height="6.8"/><rect x="415.5" y="220.3" fill="#FBFBFB" width="119.8" height="6.8"/></g><path id="séparation_horizontale" fill="#CFD5D6" d="M734.4 140.3H411.6c-1.6 0-3-1.3-3-3v-0.1c0-1.6 1.3-3 3-3h322.7c1.6 0 3 1.3 3 3v0.1C737.3 138.9 736 140.3 734.4 140.3z"/><g id="titres_bleu_foncé"><path fill="#395377" d="M519.8 54.5H411.9c-1.8 0-3.2-1.4-3.2-3.2v-0.1c0-1.8 1.4-3.2 3.2-3.2h107.9c1.8 0 3.2 1.4 3.2 3.2v0.1C523 53.1 521.6 54.5 519.8 54.5z"/><path fill="#395377" d="M626.3 54.5h-55.4c-1.8 0-3.2-1.4-3.2-3.2v-0.1c0-1.8 1.4-3.2 3.2-3.2h55.4c1.8 0 3.2 1.4 3.2 3.2v0.1C629.5 53.1 628.1 54.5 626.3 54.5z"/><path fill="#395377" d="M734.1 54.5h-70.9c-1.8 0-3.2-1.4-3.2-3.2v-0.1c0-1.8 1.4-3.2 3.2-3.2h70.9c1.8 0 3.2 1.4 3.2 3.2v0.1C737.3 53.1 735.9 54.5 734.1 54.5z"/></g><g id="curseur_1"><path fill="#C7C6C6" d="M420.1 125.1h-1.6c-0.5 0-0.9-0.4-0.9-0.9V64.1c0-0.5 0.4-0.9 0.9-0.9h1.6c0.5 0 0.9 0.4 0.9 0.9v60.1C421 124.7 420.6 125.1 420.1 125.1z"/><path fill="#95D5EE" d="M425.5 83.1h-12.4c-0.8 0-1.5-0.7-1.5-1.5v-6.5c0-0.8 0.7-1.5 1.5-1.5h12.4c0.8 0 1.5 0.7 1.5 1.5v6.5C427 82.4 426.3 83.1 425.5 83.1z"/></g><g id="curseur_2"><path fill="#C7C6C6" d="M513.1 125.1h-1.6c-0.5 0-0.9-0.4-0.9-0.9V64.1c0-0.5 0.4-0.9 0.9-0.9h1.6c0.5 0 0.9 0.4 0.9 0.9v60.1C514 124.7 513.6 125.1 513.1 125.1z"/><path fill="#95D5EE" d="M518.5 113.1h-12.4c-0.8 0-1.5-0.7-1.5-1.5v-6.5c0-0.8 0.7-1.5 1.5-1.5h12.4c0.8 0 1.5 0.7 1.5 1.5v6.5C520 112.4 519.4 113.1 518.5 113.1z"/></g><g id="bouton_vert_rond_gauche"><circle fill="#C3D880" cx="461.5" cy="83.8" r="12.8"/><circle fill="#FAFAFA" cx="453.8" cy="80.6" r="3.3"/></g><g id="blabla_btn_vert_gauche"><rect x="437.8" y="107.1" fill="#575555" width="47.4" height="2.1"/><rect x="437.8" y="115.2" fill="#575555" width="47.4" height="2.1"/></g><g id="bouton_vert_rond_droite"><circle fill="#C3D880" cx="687.7" cy="83.8" r="12.8"/><circle fill="#FAFAFA" cx="693.4" cy="89.9" r="3.3"/></g><g id="curseur_4"><path fill="#C7C6C6" d="M732.2 125.1h-1.6c-0.5 0-0.9-0.4-0.9-0.9V64.1c0-0.5 0.4-0.9 0.9-0.9h1.6c0.5 0 0.9 0.4 0.9 0.9v60.1C733.1 124.7 732.7 125.1 732.2 125.1z"/><path fill="#95D5EE" d="M737.6 93.1h-12.4c-0.8 0-1.5-0.7-1.5-1.5v-6.5c0-0.8 0.7-1.5 1.5-1.5h12.4c0.8 0 1.5 0.7 1.5 1.5v6.5C739.1 92.4 738.4 93.1 737.6 93.1z"/></g><g id="blabla_btn_vert_droite"><rect x="664" y="106.3" fill="#575555" width="47.4" height="2.1"/><rect x="664" y="114.4" fill="#575555" width="47.4" height="2.1"/></g><g id="curseur_3"><path fill="#C7C6C6" d="M573.8 125.1h-1.6c-0.5 0-0.9-0.4-0.9-0.9V64.1c0-0.5 0.4-0.9 0.9-0.9h1.6c0.5 0 0.9 0.4 0.9 0.9v60.1C574.7 124.7 574.3 125.1 573.8 125.1z"/><path fill="#95D5EE" d="M579.2 103.1h-12.4c-0.8 0-1.5-0.7-1.5-1.5v-6.5c0-0.8 0.7-1.5 1.5-1.5h12.4c0.8 0 1.5 0.7 1.5 1.5v6.5C580.7 102.4 580 103.1 579.2 103.1z"/></g><g id="bouton_vert_rond_centre"><circle fill="#C3D880" cx="608.6" cy="83.8" r="12.8"/><circle fill="#FAFAFA" cx="603.1" cy="77.5" r="3.3"/></g><rect id="blabla_btn_vert_centre" x="593.7" y="110.3" fill="#575555" width="29.8" height="2.1"/><g id="blabla_btn_bleu_ciel"><rect x="574.8" y="198.7" fill="#575555" width="47.7" height="2.1"/><rect x="574.8" y="208.8" fill="#575555" width="29.5" height="2.1"/></g><g id="blabla_bouton_bleu_marine"><rect x="679.9" y="198.7" fill="#575555" width="37.7" height="2.1"/><rect x="679.9" y="208.8" fill="#575555" width="34" height="2.1"/></g><g id="boutons_ovales_gauche"><path fill="#F4CD7C" d="M589.4 231.8h-7.3c-2.6 0-4.6-2.1-4.6-4.6V227c0-2.6 2.1-4.6 4.6-4.6h7.3c2.6 0 4.6 2.1 4.6 4.6v0.1C594 229.7 591.9 231.8 589.4 231.8z"/><path fill="#E58A76" d="M615.1 231.8h-7.3c-2.6 0-4.6-2.1-4.6-4.6V227c0-2.6 2.1-4.6 4.6-4.6h7.3c2.6 0 4.6 2.1 4.6 4.6v0.1C619.8 229.7 617.7 231.8 615.1 231.8z"/></g><g id="bouton_ovales_droite"><path fill="#F4CD7C" d="M689.4 231.8h-7.3c-2.6 0-4.6-2.1-4.6-4.6V227c0-2.6 2.1-4.6 4.6-4.6h7.3c2.6 0 4.6 2.1 4.6 4.6v0.1C694.1 229.7 692 231.8 689.4 231.8z"/><path fill="#E58A76" d="M715.2 231.8h-7.3c-2.6 0-4.6-2.1-4.6-4.6V227c0-2.6 2.1-4.6 4.6-4.6h7.3c2.6 0 4.6 2.1 4.6 4.6v0.1C719.8 229.7 717.8 231.8 715.2 231.8z"/></g><g id="boutons_multicolores"><path fill="#F4CD7C" d="M420.6 160.2h-7.3c-2.6 0-4.6-2.1-4.6-4.6v-0.1c0-2.6 2.1-4.6 4.6-4.6h7.3c2.6 0 4.6 2.1 4.6 4.6v0.1C425.2 158.1 423.1 160.2 420.6 160.2z"/><path fill="#C3D880" d="M420.6 180.2h-7.3c-2.6 0-4.6-2.1-4.6-4.6v-0.1c0-2.6 2.1-4.6 4.6-4.6h7.3c2.6 0 4.6 2.1 4.6 4.6v0.1C425.2 178.1 423.1 180.2 420.6 180.2z"/><path fill="#E58A76" d="M463.2 160.2h-7.3c-2.6 0-4.6-2.1-4.6-4.6v-0.1c0-2.6 2.1-4.6 4.6-4.6h7.3c2.6 0 4.6 2.1 4.6 4.6v0.1C467.8 158.1 465.7 160.2 463.2 160.2z"/><path fill="#6084AE" d="M463.2 180.2h-7.3c-2.6 0-4.6-2.1-4.6-4.6v-0.1c0-2.6 2.1-4.6 4.6-4.6h7.3c2.6 0 4.6 2.1 4.6 4.6v0.1C467.8 178.1 465.7 180.2 463.2 180.2z"/><path fill="#FAFAFA" d="M505.8 160.2h-7.3c-2.6 0-4.6-2.1-4.6-4.6v-0.1c0-2.6 2.1-4.6 4.6-4.6h7.3c2.6 0 4.6 2.1 4.6 4.6v0.1C510.4 158.1 508.3 160.2 505.8 160.2z"/><path fill="#C3D880" d="M505.8 180.2h-7.3c-2.6 0-4.6-2.1-4.6-4.6v-0.1c0-2.6 2.1-4.6 4.6-4.6h7.3c2.6 0 4.6 2.1 4.6 4.6v0.1C510.4 178.1 508.3 180.2 505.8 180.2z"/><path fill="#6084AE" d="M548.4 160.2h-7.3c-2.6 0-4.6-2.1-4.6-4.6v-0.1c0-2.6 2.1-4.6 4.6-4.6h7.3c2.6 0 4.6 2.1 4.6 4.6v0.1C553 158.1 551 160.2 548.4 160.2z"/><path fill="#F4CD7C" d="M548.4 180.2h-7.3c-2.6 0-4.6-2.1-4.6-4.6v-0.1c0-2.6 2.1-4.6 4.6-4.6h7.3c2.6 0 4.6 2.1 4.6 4.6v0.1C553 178.1 551 180.2 548.4 180.2z"/></g><g id="bouton_rond_bleu_ciel"><circle fill="#95D5EE" cx="598.6" cy="166.9" r="20.9"/><circle fill="#FAFAFA" cx="607.1" cy="156.3" r="5.4"/></g><g id="bouton_rond_bleu_marine"><circle fill="#6084AE" cx="698.7" cy="166.9" r="20.9"/><circle fill="#FAFAFA" cx="689.3" cy="157" r="5.4"/></g><path id="séparation_verticale" fill="#CFD5D6" d="M648.7 231.8L648.7 231.8c-0.9 0-1.5-0.7-1.5-1.5V146c0-0.8 0.7-1.5 1.5-1.5h0c0.8 0 1.5 0.7 1.5 1.5v84.3C650.1 231.1 649.5 231.8 648.7 231.8z"/></svg>