<?xml version="1.0" encoding="UTF-8" standalone="no"?>
<svg
   xmlns:dc="http://purl.org/dc/elements/1.1/"
   xmlns:cc="http://creativecommons.org/ns#"
   xmlns:rdf="http://www.w3.org/1999/02/22-rdf-syntax-ns#"
   xmlns:svg="http://www.w3.org/2000/svg"
   xmlns="http://www.w3.org/2000/svg"
   xmlns:sodipodi="http://sodipodi.sourceforge.net/DTD/sodipodi-0.dtd"
   xmlns:inkscape="http://www.inkscape.org/namespaces/inkscape"
   version="1.1"
   width="100"
   height="100"
   viewBox="-575 -154.5 317.8 461.1"
   id="svg2"
   xml:space="preserve"
   inkscape:version="0.48.4 r9939"
   sodipodi:docname="energie-optimised.svg"><sodipodi:namedview
     pagecolor="#ffffff"
     bordercolor="#666666"
     borderopacity="1"
     objecttolerance="10"
     gridtolerance="10"
     guidetolerance="10"
     inkscape:pageopacity="0"
     inkscape:pageshadow="2"
     inkscape:window-width="640"
     inkscape:window-height="480"
     id="namedview29"
     showgrid="false"
     inkscape:zoom="9.44"
     inkscape:cx="56.68507"
     inkscape:cy="67.092138"
     inkscape:window-x="501"
     inkscape:window-y="103"
     inkscape:window-maximized="0"
     inkscape:current-layer="éolienne" /><metadata
     id="metadata1360"><rdf:RDF><cc:Work
         rdf:about=""><dc:format>image/svg+xml</dc:format><dc:type
           rdf:resource="http://purl.org/dc/dcmitype/StillImage" /></cc:Work></rdf:RDF></metadata><defs
     id="defs1358"><linearGradient
       x1="632.65"
       y1="-57.42"
       x2="632.65"
       y2="78.72"
       id="linearGradient5105"
       gradientUnits="userSpaceOnUse" /></defs><g
     transform="translate(-1048.8,16.2)"
     id="Calque_5_1_"><g
       id="éolienne"><g
         id="mât"><linearGradient
           x1="632.65"
           y1="-57.42"
           x2="632.65"
           y2="78.72"
           id="SVGID_2_"
           gradientUnits="userSpaceOnUse"><stop
             id="stop299"
             offset="0"
             style="stop-color:#000000;stop-opacity:0.15" /><stop
             id="stop301"
             offset="0.01"
             style="stop-color:#090909;stop-opacity:0.16" /><stop
             id="stop303"
             offset="0.05"
             style="stop-color:#373737;stop-opacity:0.19" /><stop
             id="stop305"
             offset="0.09"
             style="stop-color:#626262;stop-opacity:0.23" /><stop
             id="stop307"
             offset="0.14"
             style="stop-color:#888888;stop-opacity:0.27" /><stop
             id="stop309"
             offset="0.19"
             style="stop-color:#a8a8a8;stop-opacity:0.32" /><stop
             id="stop311"
             offset="0.25"
             style="stop-color:#c4c4c4;stop-opacity:0.37" /><stop
             id="stop313"
             offset="0.32"
             style="stop-color:#dadada;stop-opacity:0.42" /><stop
             id="stop315"
             offset="0.4"
             style="stop-color:#ebebeb;stop-opacity:0.49" /><stop
             id="stop317"
             offset="0.49"
             style="stop-color:#f6f6f6;stop-opacity:0.57" /><stop
             id="stop319"
             offset="0.63"
             style="stop-color:#fdfdfd;stop-opacity:0.68" /><stop
             id="stop321"
             offset="1"
             style="stop-color:#ffffff;stop-opacity:1" /></linearGradient><path
           d="m639.8 258.7-4.3-278.6c-0.6 0.2-1.2 0.3-1.8 0.3l-3.9 4.5-4.3 273.8h14.3z"
           id="path323"
           fill="url(#linearGradient5105)" /><path
           d="m635.5-19.9 4.3 278.6h-14.3l4.3-273.8-1.8 2-4.2 272.6c0 0.2 0.1 0.5 0.3 0.6 0.2 0.2 0.4 0.3 0.6 0.3h16c0 0 0 0 0 0 0.5 0 0.9-0.4 0.9-0.9 0 0 0-0.1 0-0.1l-4.3-280.1c-0.7 0.4-1.2 0.6-1.8 0.8z"
           id="path325"
           fill="#151515" /></g><path
         style="fill:none"
         inkscape:connector-curvature="0"
         id="path328"
         d="m 635,-32.8 c -0.7,-0.6 -1.5,-0.9 -2.4,-0.9 -1.1,0 -2.1,0.5 -2.8,1.3 -0.6,0.8 -0.9,1.7 -0.9,2.7 0.1,1 0.6,1.9 1.3,2.5 0.7,0.6 1.5,0.9 2.4,0.9 1.1,0 2.1,-0.5 2.8,-1.3 1.4,-1.5 1.2,-3.9 -0.4,-5.2 z" /><path
         style="fill:#fafafa"
         inkscape:connector-curvature="0"
         id="path330"
         d="M 758.6,-11.2 640.5,-34.6 c -0.2,0 -0.4,-0.2 -0.5,-0.3 -0.5,-0.7 -1,-1.3 -1.7,-1.8 -0.6,-0.5 -1.3,-1 -2.1,-1.3 -0.2,-0.1 -0.3,-0.2 -0.4,-0.4 l -43.6,-112.3 c -0.5,-1.3 -1.8,-2.2 -3.2,-2.2 -0.4,0 -0.8,0.1 -1.1,0.2 l -0.1,0 c -1.7,0.6 -2.6,2.6 -2,4.3 l 38.8,114 c 0.1,0.2 0.1,0.4 0,0.6 -0.7,1.5 -1,3.2 -0.9,4.8 0,0.2 0,0.4 -0.2,0.6 l -75.4,93.9 c -1.2,1.4 -1,3.5 0.4,4.7 l 0.1,0.1 c 0.6,0.5 1.4,0.8 2.2,0.8 1,0 1.9,-0.4 2.6,-1.2 l 79.4,-90.6 c 0.1,-0.1 0.3,-0.2 0.5,-0.3 1.7,-0.1 3.3,-0.7 4.6,-1.7 0.2,-0.1 0.4,-0.2 0.6,-0.1 l 119,18.4 c 0.2,0 0.4,0.1 0.6,0.1 1.6,0 3,-1.2 3.3,-2.8 l 0,-0.1 c 0.2,-0.9 0,-1.8 -0.6,-2.5 -0.5,-0.8 -1.3,-1.3 -2.2,-1.5 z m -122,-15.4 c -1,1.2 -2.5,1.9 -4,1.9 -1.2,0 -2.4,-0.4 -3.4,-1.2 -1.1,-0.9 -1.7,-2.2 -1.8,-3.5 -0.1,-1.4 0.3,-2.7 1.2,-3.8 1,-1.2 2.5,-1.9 4,-1.9 1.2,0 2.4,0.4 3.4,1.2 2.2,1.8 2.5,5.1 0.6,7.3 z" /><path
         style="fill:#202019"
         inkscape:connector-curvature="0"
         id="path332"
         d="m 762,-10.6 c -0.7,-1.1 -1.9,-1.8 -3.1,-2 L 641.1,-36 c -0.5,-0.7 -1.1,-1.3 -1.8,-1.9 -0.7,-0.6 -1.4,-1 -2.2,-1.4 l -43.5,-112 c -0.7,-1.9 -2.5,-3.2 -4.6,-3.2 -0.6,0 -1.1,0.1 -1.7,0.3 l -0.1,0 c -2.5,0.9 -3.8,3.7 -2.9,6.2 L 623,-34.3 c -0.7,1.6 -1,3.3 -0.9,5.1 L 547,64.5 c -1.7,2.1 -1.5,5.1 0.6,6.8 l 0.1,0.1 c 0.9,0.7 2,1.1 3.1,1.1 0,0 0,0 0,0 1.4,0 2.8,-0.6 3.7,-1.7 l 73.5,-83.9 1.8,-2 3.9,-4.5 c 0.6,-0.1 1.2,-0.2 1.8,-0.3 0.6,-0.2 1.2,-0.4 1.7,-0.7 0.5,-0.2 0.9,-0.5 1.3,-0.8 L 757.2,-3 c 0.3,0 0.6,0.1 0.8,0.1 2.4,0 4.4,-1.7 4.8,-4 l 0,-0.1 c 0.3,-1.3 0,-2.6 -0.8,-3.6 z m -0.6,3.3 0,0 c -0.3,1.7 -1.7,2.9 -3.3,2.9 -0.2,0 -0.4,0 -0.6,-0.1 l -119,-18.4 c -0.2,0 -0.4,0 -0.6,0.1 -1.3,1 -2.9,1.6 -4.6,1.7 -0.2,0 -0.4,0.1 -0.5,0.3 l -79.4,90.6 c -0.6,0.8 -1.6,1.2 -2.6,1.2 -0.8,0 -1.5,-0.3 -2.2,-0.8 l -0.1,-0.1 c -1.4,-1.2 -1.6,-3.3 -0.4,-4.7 l 75.4,-93.9 c 0.1,-0.2 0.2,-0.4 0.2,-0.6 -0.2,-1.7 0.1,-3.3 0.9,-4.8 0.1,-0.2 0.1,-0.4 0,-0.6 l -38.8,-114 c -0.6,-1.7 0.3,-3.7 2,-4.3 l 0.1,0 c 0.4,-0.1 0.8,-0.2 1.1,-0.2 1.4,0 2.7,0.9 3.2,2.2 l 43.6,112.3 c 0.1,0.2 0.2,0.3 0.4,0.4 0.8,0.3 1.5,0.8 2.1,1.3 0.6,0.5 1.2,1.2 1.7,1.8 0.1,0.2 0.3,0.3 0.5,0.3 l 118.1,23.4 c 0.9,0.2 1.6,0.6 2.2,1.4 0.5,0.9 0.7,1.7 0.6,2.6 z" /><path
         style="fill:#202019"
         inkscape:connector-curvature="0"
         id="path334"
         d="m 636,-33.9 c -0.9,-0.8 -2.1,-1.2 -3.4,-1.2 -1.5,0 -3,0.7 -4,1.9 -0.9,1.1 -1.3,2.4 -1.2,3.8 0.1,1.4 0.8,2.6 1.8,3.5 0.9,0.8 2.1,1.2 3.4,1.2 1.5,0 3,-0.7 4,-1.9 1.9,-2.2 1.6,-5.5 -0.6,-7.3 z m -3.4,7.7 c -0.9,0 -1.7,-0.3 -2.4,-0.9 -0.8,-0.6 -1.2,-1.5 -1.3,-2.5 -0.1,-1 0.2,-1.9 0.9,-2.7 0.7,-0.8 1.7,-1.3 2.8,-1.3 0.9,0 1.7,0.3 2.4,0.9 1.6,1.3 1.8,3.7 0.5,5.2 -0.7,0.8 -1.8,1.3 -2.9,1.3 z" /></g></g></svg>