<?xml version="1.0" encoding="UTF-8" standalone="no"?>
<!-- Generator: Adobe Illustrator 17.1.0, SVG Export Plug-In . SVG Version: 6.00 Build 0)  -->

<svg
   xmlns:dc="http://purl.org/dc/elements/1.1/"
   xmlns:cc="http://creativecommons.org/ns#"
   xmlns:rdf="http://www.w3.org/1999/02/22-rdf-syntax-ns#"
   xmlns:svg="http://www.w3.org/2000/svg"
   xmlns="http://www.w3.org/2000/svg"
   xmlns:sodipodi="http://sodipodi.sourceforge.net/DTD/sodipodi-0.dtd"
   xmlns:inkscape="http://www.inkscape.org/namespaces/inkscape"
   version="1.1"
   x="0px"
   y="0px"
   viewBox="-575 -154.5 511.5 169"
   enable-background="new -575 -154.5 1337.9 438"
   xml:space="preserve"
   id="svg2"
   inkscape:version="0.48.4 r9939"
   width="100%"
   height="100%"
   sodipodi:docname="Illustrations_svg(1).svg"><metadata
     id="metadata1360"><rdf:RDF><cc:Work
         rdf:about=""><dc:format>image/svg+xml</dc:format><dc:type
           rdf:resource="http://purl.org/dc/dcmitype/StillImage" /><dc:title></dc:title></cc:Work></rdf:RDF></metadata><defs
     id="defs1358" /><sodipodi:namedview
     pagecolor="#ffffff"
     bordercolor="#666666"
     borderopacity="1"
     objecttolerance="10"
     gridtolerance="10"
     guidetolerance="10"
     inkscape:pageopacity="0"
     inkscape:pageshadow="2"
     inkscape:window-width="1920"
     inkscape:window-height="1015"
     id="namedview1356"
     showgrid="false"
     fit-margin-top="15"
     fit-margin-left="30"
     fit-margin-right="30"
     fit-margin-bottom="15"
     inkscape:zoom="0.9058973"
     inkscape:cx="246.33707"
     inkscape:cy="234.57993"
     inkscape:window-x="0"
     inkscape:window-y="26"
     inkscape:window-maximized="1"
     inkscape:current-layer="svg2" /><g
     id="Calque_3_1_"
     transform="translate(-644.9,-261.9)"><g
       id="Calque_3"><g
         id="génir_indu"><g
           id="contour_tapis"><g
             id="g340"><path
               d="m 526.5,204.5 h 6.5 v 2.8 c 0,0.9 -0.8,1.5 -1.5,1.5 H 528 c -0.9,0 -1.5,-0.8 -1.5,-1.5 v -2.8 z"
               id="path342"
               inkscape:connector-curvature="0"
               style="fill:#3d3e3f" /></g><g
             id="g344"><path
               d="m 519.7,204.5 h 6.5 v 2.8 c 0,0.9 -0.8,1.5 -1.5,1.5 h -3.4 c -0.9,0 -1.5,-0.8 -1.5,-1.5 v -2.8 h -0.1 z"
               id="path346"
               inkscape:connector-curvature="0"
               style="fill:#3d3e3f" /></g><g
             id="g348"><path
               d="m 512.9,204.5 h 6.5 v 2.8 c 0,0.9 -0.8,1.5 -1.5,1.5 h -3.4 c -0.9,0 -1.5,-0.8 -1.5,-1.5 v -2.8 h -0.1 z"
               id="path350"
               inkscape:connector-curvature="0"
               style="fill:#3d3e3f" /></g><g
             id="g352"><path
               d="m 506.3,204.5 h 6.5 v 2.8 c 0,0.9 -0.8,1.5 -1.5,1.5 h -3.4 c -0.9,0 -1.5,-0.8 -1.5,-1.5 v -2.8 h -0.1 z"
               id="path354"
               inkscape:connector-curvature="0"
               style="fill:#3d3e3f" /></g><g
             id="g356"><path
               d="m 499.5,204.5 h 6.5 v 2.8 c 0,0.9 -0.8,1.5 -1.5,1.5 h -3.4 c -0.9,0 -1.5,-0.8 -1.5,-1.5 v -2.8 h -0.1 z"
               id="path358"
               inkscape:connector-curvature="0"
               style="fill:#3d3e3f" /></g><g
             id="g360"><path
               d="m 492.7,204.5 h 6.5 v 2.8 c 0,0.9 -0.8,1.5 -1.5,1.5 h -3.4 c -0.9,0 -1.5,-0.8 -1.5,-1.5 v -2.8 h -0.1 z"
               id="path362"
               inkscape:connector-curvature="0"
               style="fill:#3d3e3f" /></g><g
             id="g364"><path
               d="m 486,204.5 h 6.5 v 2.8 c 0,0.9 -0.8,1.5 -1.5,1.5 h -3.4 c -0.9,0 -1.5,-0.8 -1.5,-1.5 v -2.8 H 486 z"
               id="path366"
               inkscape:connector-curvature="0"
               style="fill:#3d3e3f" /></g><g
             id="g368"><path
               d="m 479.3,204.5 h 6.5 v 2.8 c 0,0.9 -0.8,1.5 -1.5,1.5 H 481 c -0.9,0 -1.5,-0.8 -1.5,-1.5 v -2.8 h -0.2 z"
               id="path370"
               inkscape:connector-curvature="0"
               style="fill:#3d3e3f" /></g><g
             id="g372"><path
               d="m 472.6,204.5 h 6.5 v 2.8 c 0,0.9 -0.8,1.5 -1.5,1.5 h -3.5 c -0.9,0 -1.5,-0.8 -1.5,-1.5 v -2.8 z"
               id="path374"
               inkscape:connector-curvature="0"
               style="fill:#3d3e3f" /></g><g
             id="g376"><path
               d="m 465.8,204.5 h 6.5 v 2.8 c 0,0.9 -0.8,1.5 -1.5,1.5 h -3.4 c -0.9,0 -1.5,-0.8 -1.5,-1.5 v -2.8 h -0.1 z"
               id="path378"
               inkscape:connector-curvature="0"
               style="fill:#3d3e3f" /></g><g
             id="g380"><path
               d="m 459,204.5 h 6.5 v 2.8 c 0,0.9 -0.8,1.5 -1.5,1.5 h -3.4 c -0.9,0 -1.5,-0.8 -1.5,-1.5 v -2.8 H 459 z"
               id="path382"
               inkscape:connector-curvature="0"
               style="fill:#3d3e3f" /></g><g
             id="g384"><path
               d="m 452.4,204.5 h 6.5 v 2.8 c 0,0.9 -0.8,1.5 -1.5,1.5 H 454 c -0.9,0 -1.5,-0.8 -1.5,-1.5 v -2.8 h -0.1 z"
               id="path386"
               inkscape:connector-curvature="0"
               style="fill:#3d3e3f" /></g><g
             id="g388"><path
               d="m 445.6,204.5 h 6.5 v 2.8 c 0,0.9 -0.8,1.5 -1.5,1.5 h -3.4 c -0.9,0 -1.5,-0.8 -1.5,-1.5 v -2.8 h -0.1 z"
               id="path390"
               inkscape:connector-curvature="0"
               style="fill:#3d3e3f" /></g><g
             id="g392"><path
               d="m 438.8,204.5 h 6.5 v 2.8 c 0,0.9 -0.8,1.5 -1.5,1.5 h -3.4 c -0.9,0 -1.5,-0.8 -1.5,-1.5 v -2.8 h -0.1 z"
               id="path394"
               inkscape:connector-curvature="0"
               style="fill:#3d3e3f" /></g><g
             id="g396"><path
               d="m 432,204.5 h 6.5 v 2.8 c 0,0.9 -0.8,1.5 -1.5,1.5 h -3.4 c -0.9,0 -1.5,-0.8 -1.5,-1.5 v -2.8 H 432 z"
               id="path398"
               inkscape:connector-curvature="0"
               style="fill:#3d3e3f" /></g><g
             id="g400"><path
               d="m 425.4,204.5 h 6.5 v 2.8 c 0,0.9 -0.8,1.5 -1.5,1.5 H 427 c -0.9,0 -1.5,-0.8 -1.5,-1.5 v -2.8 h -0.1 z"
               id="path402"
               inkscape:connector-curvature="0"
               style="fill:#3d3e3f" /></g><g
             id="g404"><path
               d="m 418.6,204.5 h 6.5 v 2.8 c 0,0.9 -0.8,1.5 -1.5,1.5 h -3.5 c -0.9,0 -1.5,-0.8 -1.5,-1.5 v -2.8 z"
               id="path406"
               inkscape:connector-curvature="0"
               style="fill:#3d3e3f" /></g><g
             id="g408"><path
               d="m 411.8,204.5 h 6.5 v 2.8 c 0,0.9 -0.8,1.5 -1.5,1.5 h -3.4 c -0.9,0 -1.5,-0.8 -1.5,-1.5 v -2.8 h -0.1 z"
               id="path410"
               inkscape:connector-curvature="0"
               style="fill:#3d3e3f" /></g><g
             id="g412"><path
               d="m 405.1,204.5 h 6.5 v 2.8 c 0,0.9 -0.8,1.5 -1.5,1.5 h -3.4 c -0.9,0 -1.5,-0.8 -1.5,-1.5 v -2.8 h -0.1 z"
               id="path414"
               inkscape:connector-curvature="0"
               style="fill:#3d3e3f" /></g><g
             id="g416"><path
               d="m 398.4,204.5 h 6.5 v 2.8 c 0,0.9 -0.8,1.5 -1.5,1.5 H 400 c -0.9,0 -1.5,-0.8 -1.5,-1.5 v -2.8 h -0.1 z"
               id="path418"
               inkscape:connector-curvature="0"
               style="fill:#3d3e3f" /></g><g
             id="g420"><path
               d="m 391.6,204.5 h 6.5 v 2.8 c 0,0.9 -0.8,1.5 -1.5,1.5 h -3.4 c -0.9,0 -1.5,-0.8 -1.5,-1.5 v -2.8 h -0.1 z"
               id="path422"
               inkscape:connector-curvature="0"
               style="fill:#3d3e3f" /></g><g
             id="g424"><path
               d="m 384.9,204.5 h 6.5 v 2.8 c 0,0.9 -0.8,1.5 -1.5,1.5 h -3.4 c -0.9,0 -1.5,-0.8 -1.5,-1.5 v -2.8 h -0.1 z"
               id="path426"
               inkscape:connector-curvature="0"
               style="fill:#3d3e3f" /></g><g
             id="g428"><path
               d="m 378.1,204.5 h 6.5 v 2.8 c 0,0.9 -0.8,1.5 -1.5,1.5 h -3.4 c -0.9,0 -1.5,-0.8 -1.5,-1.5 v -2.8 h -0.1 z"
               id="path430"
               inkscape:connector-curvature="0"
               style="fill:#3d3e3f" /></g><g
             id="g432"><path
               d="m 371.4,204.5 h 6.5 v 2.8 c 0,0.9 -0.8,1.5 -1.5,1.5 H 373 c -0.9,0 -1.5,-0.8 -1.5,-1.5 v -2.8 h -0.1 z"
               id="path434"
               inkscape:connector-curvature="0"
               style="fill:#3d3e3f" /></g><g
             id="g436"><path
               d="m 364.7,204.5 h 6.5 v 2.8 c 0,0.9 -0.8,1.5 -1.5,1.5 h -3.5 c -0.9,0 -1.5,-0.8 -1.5,-1.5 v -2.8 z"
               id="path438"
               inkscape:connector-curvature="0"
               style="fill:#3d3e3f" /></g><g
             id="g440"><path
               d="m 357.9,204.5 h 6.5 v 2.8 c 0,0.9 -0.8,1.5 -1.5,1.5 h -3.4 c -0.9,0 -1.5,-0.8 -1.5,-1.5 v -2.8 h -0.1 z"
               id="path442"
               inkscape:connector-curvature="0"
               style="fill:#3d3e3f" /></g><g
             id="g444"><path
               d="m 351.1,204.5 h 6.5 v 2.8 c 0,0.9 -0.8,1.5 -1.5,1.5 h -3.4 c -0.9,0 -1.5,-0.8 -1.5,-1.5 v -2.8 h -0.1 z"
               id="path446"
               inkscape:connector-curvature="0"
               style="fill:#3d3e3f" /></g><g
             id="g448"><path
               d="m 344.5,204.5 h 6.5 v 2.8 c 0,0.9 -0.8,1.5 -1.5,1.5 h -3.4 c -0.9,0 -1.5,-0.8 -1.5,-1.5 v -2.8 h -0.1 z"
               id="path450"
               inkscape:connector-curvature="0"
               style="fill:#3d3e3f" /></g><g
             id="g452"><path
               d="m 337.7,204.5 h 6.5 v 2.8 c 0,0.9 -0.8,1.5 -1.5,1.5 h -3.4 c -0.9,0 -1.5,-0.8 -1.5,-1.5 v -2.8 h -0.1 z"
               id="path454"
               inkscape:connector-curvature="0"
               style="fill:#3d3e3f" /></g><g
             id="g456"><path
               d="m 330.9,204.5 h 6.5 v 2.8 c 0,0.9 -0.8,1.5 -1.5,1.5 h -3.4 c -0.9,0 -1.5,-0.8 -1.5,-1.5 v -2.8 h -0.1 z"
               id="path458"
               inkscape:connector-curvature="0"
               style="fill:#3d3e3f" /></g><g
             id="g460"><path
               d="m 324.2,204.5 h 6.5 v 2.8 c 0,0.9 -0.8,1.5 -1.5,1.5 h -3.4 c -0.9,0 -1.5,-0.8 -1.5,-1.5 v -2.8 h -0.1 z"
               id="path462"
               inkscape:connector-curvature="0"
               style="fill:#3d3e3f" /></g><g
             id="g464"><path
               d="m 317.5,204.5 h 6.5 v 2.8 c 0,0.9 -0.8,1.5 -1.5,1.5 h -3.4 c -0.9,0 -1.5,-0.8 -1.5,-1.5 v -2.8 h -0.1 z"
               id="path466"
               inkscape:connector-curvature="0"
               style="fill:#3d3e3f" /></g><g
             id="g468"><path
               d="m 310.7,204.5 h 6.5 v 2.8 c 0,0.9 -0.8,1.5 -1.5,1.5 h -3.5 c -0.9,0 -1.5,-0.8 -1.5,-1.5 v -2.8 z"
               id="path470"
               inkscape:connector-curvature="0"
               style="fill:#3d3e3f" /></g><g
             id="g472"><path
               d="m 304,204.5 h 6.5 v 2.8 c 0,0.9 -0.8,1.5 -1.5,1.5 h -3.4 c -0.9,0 -1.5,-0.8 -1.5,-1.5 v -2.8 H 304 z"
               id="path474"
               inkscape:connector-curvature="0"
               style="fill:#3d3e3f" /></g><g
             id="g476"><path
               d="m 297.2,204.5 h 6.5 v 2.8 c 0,0.9 -0.8,1.5 -1.5,1.5 h -3.4 c -0.9,0 -1.5,-0.8 -1.5,-1.5 v -2.8 h -0.1 z"
               id="path478"
               inkscape:connector-curvature="0"
               style="fill:#3d3e3f" /></g><g
             id="g480"><path
               d="m 290.5,204.5 h 6.5 v 2.8 c 0,0.9 -0.8,1.5 -1.5,1.5 h -3.4 c -0.9,0 -1.5,-0.8 -1.5,-1.5 v -2.8 h -0.1 z"
               id="path482"
               inkscape:connector-curvature="0"
               style="fill:#3d3e3f" /></g><g
             id="g484"><path
               d="m 283.8,204.5 h 6.5 v 2.8 c 0,0.9 -0.8,1.5 -1.5,1.5 h -3.4 c -0.9,0 -1.5,-0.8 -1.5,-1.5 v -2.8 h -0.1 z"
               id="path486"
               inkscape:connector-curvature="0"
               style="fill:#3d3e3f" /></g><g
             id="g488"><path
               d="m 277,204.5 h 6.5 v 2.8 c 0,0.9 -0.8,1.5 -1.5,1.5 h -3.4 c -0.9,0 -1.5,-0.8 -1.5,-1.5 v -2.8 H 277 z"
               id="path490"
               inkscape:connector-curvature="0"
               style="fill:#3d3e3f" /></g><g
             id="g492"><path
               d="m 270.2,204.5 h 6.5 v 2.8 c 0,0.9 -0.8,1.5 -1.5,1.5 h -3.4 c -0.9,0 -1.5,-0.8 -1.5,-1.5 v -2.8 h -0.1 z"
               id="path494"
               inkscape:connector-curvature="0"
               style="fill:#3d3e3f" /></g><g
             id="g496"><path
               d="m 263.6,204.5 h 6.5 v 2.8 c 0,0.9 -0.8,1.5 -1.5,1.5 h -3.4 c -0.9,0 -1.5,-0.8 -1.5,-1.5 v -2.8 h -0.1 z"
               id="path498"
               inkscape:connector-curvature="0"
               style="fill:#3d3e3f" /></g><g
             id="g500"><path
               d="m 256.8,204.5 h 6.5 v 2.8 c 0,0.9 -0.8,1.5 -1.5,1.5 h -3.5 c -0.9,0 -1.5,-0.8 -1.5,-1.5 v -2.8 z"
               id="path502"
               inkscape:connector-curvature="0"
               style="fill:#3d3e3f" /></g><g
             id="g504"><path
               d="m 250,204.5 h 6.5 v 2.8 c 0,0.9 -0.8,1.5 -1.5,1.5 h -3.4 c -0.9,0 -1.5,-0.8 -1.5,-1.5 v -2.8 H 250 z"
               id="path506"
               inkscape:connector-curvature="0"
               style="fill:#3d3e3f" /></g><g
             id="g508"><path
               d="m 243.2,204.5 h 6.5 v 2.8 c 0,0.9 -0.8,1.5 -1.5,1.5 h -3.4 c -0.9,0 -1.5,-0.8 -1.5,-1.5 v -2.8 h -0.1 z"
               id="path510"
               inkscape:connector-curvature="0"
               style="fill:#3d3e3f" /></g><g
             id="g512"><path
               d="m 236.6,204.5 h 6.5 v 2.8 c 0,0.9 -0.8,1.5 -1.5,1.5 h -3.4 c -0.9,0 -1.5,-0.8 -1.5,-1.5 v -2.8 h -0.1 z"
               id="path514"
               inkscape:connector-curvature="0"
               style="fill:#3d3e3f" /></g><g
             id="g516"><path
               d="m 229.8,204.5 h 6.5 v 2.8 c 0,0.9 -0.8,1.5 -1.5,1.5 h -3.4 c -0.9,0 -1.5,-0.8 -1.5,-1.5 v -2.8 h -0.1 z"
               id="path518"
               inkscape:connector-curvature="0"
               style="fill:#3d3e3f" /></g><g
             id="g520"><path
               d="m 223.1,204.5 h 6.5 v 2.8 c 0,0.9 -0.8,1.5 -1.5,1.5 h -3.4 c -0.9,0 -1.5,-0.8 -1.5,-1.5 v -2.8 h -0.1 z"
               id="path522"
               inkscape:connector-curvature="0"
               style="fill:#3d3e3f" /></g><g
             id="g524"><path
               d="m 216.3,204.5 h 6.5 v 2.8 c 0,0.9 -0.8,1.5 -1.5,1.5 h -3.4 c -0.9,0 -1.5,-0.8 -1.5,-1.5 v -2.8 h -0.1 z"
               id="path526"
               inkscape:connector-curvature="0"
               style="fill:#3d3e3f" /></g><g
             id="g528"><path
               d="m 209.6,204.5 h 6.5 v 2.8 c 0,0.9 -0.8,1.5 -1.5,1.5 h -3.4 c -0.9,0 -1.5,-0.8 -1.5,-1.5 v -2.8 h -0.1 z"
               id="path530"
               inkscape:connector-curvature="0"
               style="fill:#3d3e3f" /></g><g
             id="g532"><path
               d="m 202.9,204.5 h 6.5 v 2.8 c 0,0.9 -0.8,1.5 -1.5,1.5 h -3.5 c -0.9,0 -1.5,-0.8 -1.5,-1.5 v -2.8 z"
               id="path534"
               inkscape:connector-curvature="0"
               style="fill:#3d3e3f" /></g><g
             id="g536"><path
               d="m 196.1,204.5 h 6.5 v 2.8 c 0,0.9 -0.8,1.5 -1.5,1.5 h -3.4 c -0.9,0 -1.5,-0.8 -1.5,-1.5 v -2.8 h -0.1 z"
               id="path538"
               inkscape:connector-curvature="0"
               style="fill:#3d3e3f" /></g><g
             id="g540"><path
               d="m 189.3,204.5 h 6.5 v 2.8 c 0,0.9 -0.8,1.5 -1.5,1.5 h -3.4 c -0.9,0 -1.5,-0.8 -1.5,-1.5 v -2.8 h -0.1 z"
               id="path542"
               inkscape:connector-curvature="0"
               style="fill:#3d3e3f" /></g><g
             id="g544"><path
               d="m 182.7,204.5 h 6.5 v 2.8 c 0,0.9 -0.8,1.5 -1.5,1.5 h -3.4 c -0.9,0 -1.5,-0.8 -1.5,-1.5 v -2.8 h -0.1 z"
               id="path546"
               inkscape:connector-curvature="0"
               style="fill:#3d3e3f" /></g><g
             id="g548"><path
               d="m 175.9,204.5 h 6.5 v 2.8 c 0,0.9 -0.8,1.5 -1.5,1.5 h -3.4 c -0.9,0 -1.5,-0.8 -1.5,-1.5 v -2.8 h -0.1 z"
               id="path550"
               inkscape:connector-curvature="0"
               style="fill:#3d3e3f" /></g><g
             id="g552"><path
               d="m 169.1,204.5 h 6.5 v 2.8 c 0,0.9 -0.8,1.5 -1.5,1.5 h -3.4 c -0.9,0 -1.5,-0.8 -1.5,-1.5 v -2.8 h -0.1 z"
               id="path554"
               inkscape:connector-curvature="0"
               style="fill:#3d3e3f" /></g><g
             id="g556"><path
               d="m 162.3,204.5 h 6.5 v 2.8 c 0,0.9 -0.8,1.5 -1.5,1.5 H 164 c -0.9,0 -1.5,-0.8 -1.5,-1.5 v -2.8 h -0.2 z"
               id="path558"
               inkscape:connector-curvature="0"
               style="fill:#3d3e3f" /></g><g
             id="g560"><path
               d="m 155.7,204.5 h 6.5 v 2.8 c 0,0.9 -0.8,1.5 -1.5,1.5 h -3.4 c -0.9,0 -1.5,-0.8 -1.5,-1.5 v -2.8 h -0.1 z"
               id="path562"
               inkscape:connector-curvature="0"
               style="fill:#3d3e3f" /></g><g
             id="g564"><path
               d="m 149.9,203.3 c 0,0 0.1,0 0.3,0.1 0.1,0 0.4,0.1 0.6,0.3 0.5,0.1 1.1,0.4 1.9,0.5 0.8,0.1 1.4,0.3 1.9,0.3 0.3,0 0.5,0 0.6,0 0.1,0 0.3,0 0.3,0 v 2.8 c 0,0.4 -0.1,0.8 -0.5,1.1 -0.4,0.3 -0.8,0.4 -1.3,0.4 0,0 -1,-0.1 -1.9,-0.3 -0.3,0 -0.5,-0.1 -0.8,-0.1 -0.3,0 -0.4,-0.1 -0.6,-0.1 -0.4,-0.1 -0.6,-0.1 -0.6,-0.1 -0.3,-0.1 -0.4,-0.3 -0.6,-0.4 -0.1,-0.1 -0.3,-0.4 -0.4,-0.5 -0.1,-0.4 -0.3,-0.8 0,-1.3 l 1.1,-2.7 z"
               id="path566"
               inkscape:connector-curvature="0"
               style="fill:#3d3e3f" /></g><g
             id="g568"><path
               d="m 145.3,200 c 0,0 0,0.1 0.1,0.1 0.1,0.1 0.3,0.3 0.5,0.5 0.4,0.4 0.9,0.9 1.5,1.3 0.6,0.4 1.1,0.8 1.6,1 0.3,0.1 0.4,0.3 0.6,0.3 0.1,0.1 0.3,0.1 0.3,0.1 l -1.1,2.5 c -0.1,0.4 -0.5,0.6 -0.9,0.8 -0.4,0.1 -0.9,0.1 -1.3,-0.1 0,0 -0.9,-0.5 -1.6,-1.1 -0.3,-0.1 -0.4,-0.3 -0.6,-0.4 -0.1,-0.1 -0.4,-0.3 -0.5,-0.4 -0.3,-0.3 -0.5,-0.4 -0.5,-0.4 -0.4,-0.4 -0.5,-0.8 -0.5,-1.1 0,-0.4 0.1,-0.8 0.5,-1.1 l 1.9,-2 z"
               id="path570"
               inkscape:connector-curvature="0"
               style="fill:#3d3e3f" /></g><g
             id="g572"><path
               d="m 142.4,194.9 c 0,0 0,0.1 0.1,0.3 0,0.1 0,0.1 0.1,0.3 0,0.1 0.1,0.3 0.1,0.4 0.1,0.5 0.5,1.1 0.9,1.8 0.1,0.3 0.4,0.6 0.5,0.9 0.3,0.3 0.4,0.5 0.5,0.8 0.1,0.3 0.3,0.4 0.4,0.5 0.1,0.1 0.1,0.1 0.1,0.1 l -2.1,1.9 c -0.4,0.3 -0.8,0.4 -1.1,0.4 -0.3,0 -0.4,-0.1 -0.6,-0.3 -0.3,-0.1 -0.4,-0.3 -0.5,-0.5 0,0 -0.1,-0.3 -0.4,-0.5 -0.3,-0.3 -0.5,-0.8 -0.8,-1.1 -0.1,-0.3 -0.3,-0.4 -0.4,-0.6 -0.1,-0.3 -0.3,-0.4 -0.3,-0.5 -0.1,-0.4 -0.3,-0.5 -0.3,-0.5 -0.3,-0.5 -0.3,-0.9 0,-1.3 0.1,-0.4 0.5,-0.6 0.9,-0.8 l 2.9,-1.3 z"
               id="path574"
               inkscape:connector-curvature="0"
               style="fill:#3d3e3f" /></g><g
             id="g576"><path
               d="m 141.8,189.2 c 0,0 0,0.1 0,0.3 0,0.2 0,0.1 0,0.3 0,0.2 0,0.3 0,0.4 0,0.1 0,0.3 0,0.4 0,0.1 0,0.1 0,0.3 0,0.2 0,0.1 0,0.3 0,0.1 0,0.4 0,0.5 0,0.1 0,0.4 0,0.5 0.1,0.8 0.1,1.4 0.4,1.9 0,0.3 0.1,0.5 0.1,0.6 0,0.1 0.1,0.3 0.1,0.3 l -2.6,0.9 c -0.4,0.1 -0.9,0.1 -1.1,-0.1 -0.4,-0.3 -0.6,-0.6 -0.8,-1.1 0,0 0,-0.3 -0.1,-0.6 0,-0.1 -0.1,-0.4 -0.1,-0.6 0,-0.3 -0.1,-0.5 -0.1,-0.8 0,-0.3 0,-0.5 0,-0.8 0,-0.3 0,-0.5 0,-0.6 0,-0.4 0,-0.6 0,-0.6 0,-0.3 0,-0.5 0.1,-0.6 0.1,-0.3 0.3,-0.4 0.4,-0.5 0.3,-0.3 0.8,-0.5 1.1,-0.4 l 2.6,0 z"
               id="path578"
               inkscape:connector-curvature="0"
               style="fill:#3d3e3f" /></g><g
             id="g580"><path
               d="m 143.5,183.6 c 0,0 0,0.1 -0.1,0.3 -0.1,0.1 -0.1,0.4 -0.3,0.6 -0.3,0.5 -0.5,1.1 -0.8,1.8 -0.3,0.6 -0.4,1.4 -0.5,1.9 0,0.3 -0.1,0.5 -0.1,0.6 0,0.1 0,0.3 0,0.3 l -2.8,-0.3 c -0.4,0 -0.8,-0.3 -1,-0.6 -0.3,-0.4 -0.4,-0.8 -0.3,-1.3 0,0 0.3,-1 0.5,-1.9 0.1,-0.3 0.1,-0.5 0.3,-0.6 0.1,-0.3 0.1,-0.4 0.3,-0.6 0.1,-0.4 0.3,-0.5 0.3,-0.5 0.3,-0.5 0.5,-0.8 1,-0.9 0.4,-0.1 0.9,-0.1 1.3,0.1 l 2.2,1.1 z"
               id="path582"
               inkscape:connector-curvature="0"
               style="fill:#3d3e3f" /></g><g
             id="g584"><path
               d="m 147.3,179.3 c 0,0 -0.1,0 -0.3,0.1 -0.1,0.1 -0.3,0.3 -0.5,0.4 -0.4,0.4 -0.9,0.9 -1.4,1.4 -0.5,0.5 -0.9,1.1 -1.3,1.5 -0.1,0.3 -0.3,0.4 -0.4,0.5 -0.1,0.1 -0.1,0.3 -0.1,0.3 L 141,182 c -0.4,-0.3 -0.6,-0.6 -0.8,-1 -0.1,-0.4 0,-0.9 0.3,-1.3 0,0 0.6,-0.8 1.3,-1.5 0.4,-0.4 0.6,-0.8 0.9,-1 0.1,-0.1 0.3,-0.3 0.4,-0.3 0.1,-0.1 0.1,-0.1 0.1,-0.1 0.1,-0.1 0.4,-0.3 0.6,-0.4 0.2,-0.1 0.4,-0.1 0.6,-0.1 0.4,0 0.8,0.3 1,0.6 l 1.9,2.4 z"
               id="path586"
               inkscape:connector-curvature="0"
               style="fill:#3d3e3f" /></g><g
             id="g588"><path
               d="m 152.6,176.9 c 0,0 -0.1,0 -0.3,0 -0.1,0 -0.4,0.1 -0.6,0.1 -0.5,0.1 -1.1,0.4 -1.9,0.6 -0.6,0.3 -1.3,0.6 -1.8,0.9 -0.5,0.3 -0.8,0.5 -0.8,0.5 l -1.6,-2.3 c -0.3,-0.4 -0.4,-0.8 -0.3,-1.1 0.1,-0.4 0.4,-0.8 0.8,-1 0,0 0.9,-0.5 1.8,-0.9 0.3,-0.1 0.5,-0.3 0.6,-0.3 0.3,-0.1 0.4,-0.1 0.6,-0.3 0.4,-0.1 0.6,-0.3 0.6,-0.3 0.5,-0.1 0.9,-0.1 1.3,0.1 0.4,0.3 0.6,0.5 0.8,1 l 0.8,3 z"
               id="path590"
               inkscape:connector-curvature="0"
               style="fill:#3d3e3f" /></g><g
             id="g592"><path
               d="m 158.8,176.6 c 0,0 -1.6,0 -3.3,0 -0.3,0 -0.4,0 -0.5,0 -0.1,0 -0.4,0 -0.5,0 -0.1,0 -0.4,0 -0.5,0 -0.1,0 -0.3,0 -0.4,0 -0.3,0 -0.5,0.1 -0.6,0.1 -0.1,0 -0.3,0 -0.3,0 l -0.5,-2.8 c -0.1,-0.4 0,-0.9 0.3,-1.1 0.3,-0.4 0.6,-0.5 1.1,-0.6 0,0 0.3,0 0.6,0 0.1,0 0.4,0 0.6,0 0.3,0 0.5,0 0.8,0 0.9,0 1.8,0 1.8,0 0.9,0 1.5,0.8 1.5,1.5 v 2.9 h -0.1 z"
               id="path594"
               inkscape:connector-curvature="0"
               style="fill:#3d3e3f" /></g><g
             id="g596"><path
               d="m 165.6,176.6 h -6.5 v -2.8 c 0,-0.9 0.8,-1.5 1.5,-1.5 h 3.4 c 0.9,0 1.5,0.8 1.5,1.5 v 2.8 h 0.1 z"
               id="path598"
               inkscape:connector-curvature="0"
               style="fill:#3d3e3f" /></g><g
             id="g600"><path
               d="m 172.4,176.6 h -6.5 v -2.8 c 0,-0.9 0.8,-1.5 1.5,-1.5 h 3.4 c 0.9,0 1.5,0.8 1.5,1.5 v 2.8 h 0.1 z"
               id="path602"
               inkscape:connector-curvature="0"
               style="fill:#3d3e3f" /></g><g
             id="g604"><path
               d="m 179,176.6 h -6.5 v -2.8 c 0,-0.9 0.8,-1.5 1.5,-1.5 h 3.4 c 0.9,0 1.5,0.8 1.5,1.5 v 2.8 h 0.1 z"
               id="path606"
               inkscape:connector-curvature="0"
               style="fill:#3d3e3f" /></g><g
             id="g608"><path
               d="m 185.8,176.6 h -6.5 v -2.8 c 0,-0.9 0.8,-1.5 1.5,-1.5 h 3.4 c 0.9,0 1.5,0.8 1.5,1.5 v 2.8 h 0.1 z"
               id="path610"
               inkscape:connector-curvature="0"
               style="fill:#3d3e3f" /></g><g
             id="g612"><path
               d="M 192.6,176.6 H 186 v -2.8 c 0,-0.9 0.8,-1.5 1.5,-1.5 h 3.4 c 0.9,0 1.5,0.8 1.5,1.5 v 2.8 h 0.2 z"
               id="path614"
               inkscape:connector-curvature="0"
               style="fill:#3d3e3f" /></g><g
             id="g616"><path
               d="m 199.3,176.6 h -6.5 v -2.8 c 0,-0.9 0.8,-1.5 1.5,-1.5 h 3.4 c 0.9,0 1.5,0.8 1.5,1.5 v 2.8 h 0.1 z"
               id="path618"
               inkscape:connector-curvature="0"
               style="fill:#3d3e3f" /></g><g
             id="g620"><path
               d="m 206,176.6 h -6.5 v -2.8 c 0,-0.9 0.8,-1.5 1.5,-1.5 h 3.4 c 0.9,0 1.5,0.8 1.5,1.5 v 2.8 h 0.1 z"
               id="path622"
               inkscape:connector-curvature="0"
               style="fill:#3d3e3f" /></g><g
             id="g624"><path
               d="m 212.8,176.6 h -6.5 v -2.8 c 0,-0.9 0.8,-1.5 1.5,-1.5 h 3.4 c 0.9,0 1.5,0.8 1.5,1.5 v 2.8 h 0.1 z"
               id="path626"
               inkscape:connector-curvature="0"
               style="fill:#3d3e3f" /></g><g
             id="g628"><path
               d="M 219.5,176.6 H 213 v -2.8 c 0,-0.9 0.8,-1.5 1.5,-1.5 h 3.4 c 0.9,0 1.5,0.8 1.5,1.5 v 2.8 h 0.1 z"
               id="path630"
               inkscape:connector-curvature="0"
               style="fill:#3d3e3f" /></g><g
             id="g632"><path
               d="m 226.3,176.6 h -6.5 v -2.8 c 0,-0.9 0.8,-1.5 1.5,-1.5 h 3.4 c 0.9,0 1.5,0.8 1.5,1.5 v 2.8 h 0.1 z"
               id="path634"
               inkscape:connector-curvature="0"
               style="fill:#3d3e3f" /></g><g
             id="g636"><path
               d="m 233,176.6 h -6.5 v -2.8 c 0,-0.9 0.8,-1.5 1.5,-1.5 h 3.4 c 0.9,0 1.5,0.8 1.5,1.5 v 2.8 h 0.1 z"
               id="path638"
               inkscape:connector-curvature="0"
               style="fill:#3d3e3f" /></g><g
             id="g640"><path
               d="m 239.7,176.6 h -6.5 v -2.8 c 0,-0.9 0.8,-1.5 1.5,-1.5 h 3.4 c 0.9,0 1.5,0.8 1.5,1.5 v 2.8 h 0.1 z"
               id="path642"
               inkscape:connector-curvature="0"
               style="fill:#3d3e3f" /></g><g
             id="g644"><path
               d="M 246.5,176.6 H 240 v -2.8 c 0,-0.9 0.8,-1.5 1.5,-1.5 h 3.4 c 0.9,0 1.5,0.8 1.5,1.5 v 2.8 h 0.1 z"
               id="path646"
               inkscape:connector-curvature="0"
               style="fill:#3d3e3f" /></g><g
             id="g648"><path
               d="m 253.3,176.6 h -6.5 v -2.8 c 0,-0.9 0.8,-1.5 1.5,-1.5 h 3.4 c 0.9,0 1.5,0.8 1.5,1.5 v 2.8 h 0.1 z"
               id="path650"
               inkscape:connector-curvature="0"
               style="fill:#3d3e3f" /></g><g
             id="g652"><path
               d="m 259.9,176.6 h -6.5 v -2.8 c 0,-0.9 0.8,-1.5 1.5,-1.5 h 3.4 c 0.9,0 1.5,0.8 1.5,1.5 v 2.8 h 0.1 z"
               id="path654"
               inkscape:connector-curvature="0"
               style="fill:#3d3e3f" /></g><g
             id="g656"><path
               d="m 266.7,176.6 h -6.5 v -2.8 c 0,-0.9 0.8,-1.5 1.5,-1.5 h 3.4 c 0.9,0 1.5,0.8 1.5,1.5 v 2.8 h 0.1 z"
               id="path658"
               inkscape:connector-curvature="0"
               style="fill:#3d3e3f" /></g><g
             id="g660"><path
               d="M 273.5,176.6 H 267 v -2.8 c 0,-0.9 0.8,-1.5 1.5,-1.5 h 3.4 c 0.9,0 1.5,0.8 1.5,1.5 v 2.8 h 0.1 z"
               id="path662"
               inkscape:connector-curvature="0"
               style="fill:#3d3e3f" /></g><g
             id="g664"><path
               d="m 280.3,176.6 h -6.5 v -2.8 c 0,-0.9 0.8,-1.5 1.5,-1.5 h 3.4 c 0.9,0 1.5,0.8 1.5,1.5 v 2.8 h 0.1 z"
               id="path666"
               inkscape:connector-curvature="0"
               style="fill:#3d3e3f" /></g><g
             id="g668"><path
               d="m 286.9,176.6 h -6.5 v -2.8 c 0,-0.9 0.8,-1.5 1.5,-1.5 h 3.4 c 0.9,0 1.5,0.8 1.5,1.5 v 2.8 h 0.1 z"
               id="path670"
               inkscape:connector-curvature="0"
               style="fill:#3d3e3f" /></g><g
             id="g672"><path
               d="m 293.7,176.6 h -6.5 v -2.8 c 0,-0.9 0.8,-1.5 1.5,-1.5 h 3.4 c 0.9,0 1.5,0.8 1.5,1.5 v 2.8 h 0.1 z"
               id="path674"
               inkscape:connector-curvature="0"
               style="fill:#3d3e3f" /></g><g
             id="g676"><path
               d="m 300.4,176.6 h -6.5 v -2.8 c 0,-0.9 0.8,-1.5 1.5,-1.5 h 3.4 c 0.9,0 1.5,0.8 1.5,1.5 v 2.8 h 0.1 z"
               id="path678"
               inkscape:connector-curvature="0"
               style="fill:#3d3e3f" /></g><g
             id="g680"><path
               d="m 307.2,176.6 h -6.5 v -2.8 c 0,-0.9 0.8,-1.5 1.5,-1.5 h 3.4 c 0.9,0 1.5,0.8 1.5,1.5 v 2.8 h 0.1 z"
               id="path682"
               inkscape:connector-curvature="0"
               style="fill:#3d3e3f" /></g><g
             id="g684"><path
               d="m 313.9,176.6 h -6.5 v -2.8 c 0,-0.9 0.8,-1.5 1.5,-1.5 h 3.4 c 0.9,0 1.5,0.8 1.5,1.5 v 2.8 h 0.1 z"
               id="path686"
               inkscape:connector-curvature="0"
               style="fill:#3d3e3f" /></g><g
             id="g688"><path
               d="m 320.6,176.6 h -6.5 v -2.8 c 0,-0.9 0.8,-1.5 1.5,-1.5 h 3.4 c 0.9,0 1.5,0.8 1.5,1.5 v 2.8 h 0.1 z"
               id="path690"
               inkscape:connector-curvature="0"
               style="fill:#3d3e3f" /></g><g
             id="g692"><path
               d="m 327.4,176.6 h -6.5 v -2.8 c 0,-0.9 0.8,-1.5 1.5,-1.5 h 3.4 c 0.9,0 1.5,0.8 1.5,1.5 v 2.8 h 0.1 z"
               id="path694"
               inkscape:connector-curvature="0"
               style="fill:#3d3e3f" /></g><g
             id="g696"><path
               d="m 334.2,176.6 h -6.5 v -2.8 c 0,-0.9 0.8,-1.5 1.5,-1.5 h 3.4 c 0.9,0 1.5,0.8 1.5,1.5 v 2.8 h 0.1 z"
               id="path698"
               inkscape:connector-curvature="0"
               style="fill:#3d3e3f" /></g><g
             id="g700"><path
               d="m 340.8,176.6 h -6.5 v -2.8 c 0,-0.9 0.8,-1.5 1.5,-1.5 h 3.4 c 0.9,0 1.5,0.8 1.5,1.5 v 2.8 h 0.1 z"
               id="path702"
               inkscape:connector-curvature="0"
               style="fill:#3d3e3f" /></g><g
             id="g704"><path
               d="m 347.6,176.6 h -6.5 v -2.8 c 0,-0.9 0.8,-1.5 1.5,-1.5 h 3.4 c 0.9,0 1.5,0.8 1.5,1.5 v 2.8 h 0.1 z"
               id="path706"
               inkscape:connector-curvature="0"
               style="fill:#3d3e3f" /></g><g
             id="g708"><path
               d="m 354.4,176.6 h -6.5 v -2.8 c 0,-0.9 0.8,-1.5 1.5,-1.5 h 3.4 c 0.9,0 1.5,0.8 1.5,1.5 v 2.8 h 0.1 z"
               id="path710"
               inkscape:connector-curvature="0"
               style="fill:#3d3e3f" /></g><g
             id="g712"><path
               d="m 361.2,176.6 h -6.5 v -2.8 c 0,-0.9 0.8,-1.5 1.5,-1.5 h 3.4 c 0.9,0 1.5,0.8 1.5,1.5 v 2.8 h 0.1 z"
               id="path714"
               inkscape:connector-curvature="0"
               style="fill:#3d3e3f" /></g><g
             id="g716"><path
               d="m 367.8,176.6 h -6.5 v -2.8 c 0,-0.9 0.8,-1.5 1.5,-1.5 h 3.4 c 0.9,0 1.5,0.8 1.5,1.5 v 2.8 h 0.1 z"
               id="path718"
               inkscape:connector-curvature="0"
               style="fill:#3d3e3f" /></g><g
             id="g720"><path
               d="m 374.6,176.6 h -6.5 v -2.8 c 0,-0.9 0.8,-1.5 1.5,-1.5 h 3.4 c 0.9,0 1.5,0.8 1.5,1.5 v 2.8 h 0.1 z"
               id="path722"
               inkscape:connector-curvature="0"
               style="fill:#3d3e3f" /></g><g
             id="g724"><path
               d="m 381.4,176.6 h -6.5 v -2.8 c 0,-0.9 0.8,-1.5 1.5,-1.5 h 3.4 c 0.9,0 1.5,0.8 1.5,1.5 v 2.8 h 0.1 z"
               id="path726"
               inkscape:connector-curvature="0"
               style="fill:#3d3e3f" /></g><g
             id="g728"><path
               d="m 388.1,176.6 h -6.5 v -2.8 c 0,-0.9 0.8,-1.5 1.5,-1.5 h 3.4 c 0.9,0 1.5,0.8 1.5,1.5 v 2.8 h 0.1 z"
               id="path730"
               inkscape:connector-curvature="0"
               style="fill:#3d3e3f" /></g><g
             id="g732"><path
               d="m 394.8,176.6 h -6.5 v -2.8 c 0,-0.9 0.8,-1.5 1.5,-1.5 h 3.4 c 0.9,0 1.5,0.8 1.5,1.5 v 2.8 h 0.1 z"
               id="path734"
               inkscape:connector-curvature="0"
               style="fill:#3d3e3f" /></g><g
             id="g736"><path
               d="M 401.6,176.6 H 395 v -2.8 c 0,-0.9 0.8,-1.5 1.5,-1.5 h 3.4 c 0.9,0 1.5,0.8 1.5,1.5 v 2.8 h 0.2 z"
               id="path738"
               inkscape:connector-curvature="0"
               style="fill:#3d3e3f" /></g><g
             id="g740"><path
               d="m 408.3,176.6 h -6.5 v -2.8 c 0,-0.9 0.8,-1.5 1.5,-1.5 h 3.4 c 0.9,0 1.5,0.8 1.5,1.5 v 2.8 h 0.1 z"
               id="path742"
               inkscape:connector-curvature="0"
               style="fill:#3d3e3f" /></g><g
             id="g744"><path
               d="m 415.1,176.6 h -6.5 v -2.8 c 0,-0.9 0.8,-1.5 1.5,-1.5 h 3.4 c 0.9,0 1.5,0.8 1.5,1.5 v 2.8 h 0.1 z"
               id="path746"
               inkscape:connector-curvature="0"
               style="fill:#3d3e3f" /></g><g
             id="g748"><path
               d="m 421.7,176.6 h -6.5 v -2.8 c 0,-0.9 0.8,-1.5 1.5,-1.5 h 3.4 c 0.9,0 1.5,0.8 1.5,1.5 v 2.8 h 0.1 z"
               id="path750"
               inkscape:connector-curvature="0"
               style="fill:#3d3e3f" /></g><g
             id="g752"><path
               d="M 428.5,176.6 H 422 v -2.8 c 0,-0.9 0.8,-1.5 1.5,-1.5 h 3.4 c 0.9,0 1.5,0.8 1.5,1.5 v 2.8 h 0.1 z"
               id="path754"
               inkscape:connector-curvature="0"
               style="fill:#3d3e3f" /></g><g
             id="g756"><path
               d="m 435.3,176.6 h -6.5 v -2.8 c 0,-0.9 0.8,-1.5 1.5,-1.5 h 3.4 c 0.9,0 1.5,0.8 1.5,1.5 v 2.8 h 0.1 z"
               id="path758"
               inkscape:connector-curvature="0"
               style="fill:#3d3e3f" /></g><g
             id="g760"><path
               d="m 442.1,176.6 h -6.5 v -2.8 c 0,-0.9 0.8,-1.5 1.5,-1.5 h 3.4 c 0.9,0 1.5,0.8 1.5,1.5 v 2.8 h 0.1 z"
               id="path762"
               inkscape:connector-curvature="0"
               style="fill:#3d3e3f" /></g><g
             id="g764"><path
               d="m 448.7,176.6 h -6.5 v -2.8 c 0,-0.9 0.8,-1.5 1.5,-1.5 h 3.4 c 0.9,0 1.5,0.8 1.5,1.5 v 2.8 h 0.1 z"
               id="path766"
               inkscape:connector-curvature="0"
               style="fill:#3d3e3f" /></g><g
             id="g768"><path
               d="M 455.5,176.6 H 449 v -2.8 c 0,-0.9 0.8,-1.5 1.5,-1.5 h 3.4 c 0.9,0 1.5,0.8 1.5,1.5 v 2.8 h 0.1 z"
               id="path770"
               inkscape:connector-curvature="0"
               style="fill:#3d3e3f" /></g><g
             id="g772"><path
               d="m 462.3,176.6 h -6.5 v -2.8 c 0,-0.9 0.8,-1.5 1.5,-1.5 h 3.4 c 0.9,0 1.5,0.8 1.5,1.5 v 2.8 h 0.1 z"
               id="path774"
               inkscape:connector-curvature="0"
               style="fill:#3d3e3f" /></g><g
             id="g776"><path
               d="m 469,176.6 h -6.5 v -2.8 c 0,-0.9 0.8,-1.5 1.5,-1.5 h 3.4 c 0.9,0 1.5,0.8 1.5,1.5 v 2.8 h 0.1 z"
               id="path778"
               inkscape:connector-curvature="0"
               style="fill:#3d3e3f" /></g><g
             id="g780"><path
               d="m 475.8,176.6 h -6.5 v -2.8 c 0,-0.9 0.8,-1.5 1.5,-1.5 h 3.4 c 0.9,0 1.5,0.8 1.5,1.5 v 2.8 h 0.1 z"
               id="path782"
               inkscape:connector-curvature="0"
               style="fill:#3d3e3f" /></g><g
             id="g784"><path
               d="M 482.5,176.6 H 476 v -2.8 c 0,-0.9 0.8,-1.5 1.5,-1.5 h 3.4 c 0.9,0 1.5,0.8 1.5,1.5 v 2.8 h 0.1 z"
               id="path786"
               inkscape:connector-curvature="0"
               style="fill:#3d3e3f" /></g><g
             id="g788"><path
               d="m 489.2,176.6 h -6.5 v -2.8 c 0,-0.9 0.8,-1.5 1.5,-1.5 h 3.4 c 0.9,0 1.5,0.8 1.5,1.5 v 2.8 h 0.1 z"
               id="path790"
               inkscape:connector-curvature="0"
               style="fill:#3d3e3f" /></g><g
             id="g792"><path
               d="m 496,176.6 h -6.5 v -2.8 c 0,-0.9 0.8,-1.5 1.5,-1.5 h 3.4 c 0.9,0 1.5,0.8 1.5,1.5 v 2.8 h 0.1 z"
               id="path794"
               inkscape:connector-curvature="0"
               style="fill:#3d3e3f" /></g><g
             id="g796"><path
               d="m 502.8,176.6 h -6.5 v -2.8 c 0,-0.9 0.8,-1.5 1.5,-1.5 h 3.4 c 0.9,0 1.5,0.8 1.5,1.5 v 2.8 h 0.1 z"
               id="path798"
               inkscape:connector-curvature="0"
               style="fill:#3d3e3f" /></g><g
             id="g800"><path
               d="m 509.4,176.6 h -6.5 v -2.8 c 0,-0.9 0.8,-1.5 1.5,-1.5 h 3.4 c 0.9,0 1.5,0.8 1.5,1.5 v 2.8 h 0.1 z"
               id="path802"
               inkscape:connector-curvature="0"
               style="fill:#3d3e3f" /></g><g
             id="g804"><path
               d="m 516.2,176.6 h -6.5 v -2.8 c 0,-0.9 0.8,-1.5 1.5,-1.5 h 3.4 c 0.9,0 1.5,0.8 1.5,1.5 v 2.8 h 0.1 z"
               id="path806"
               inkscape:connector-curvature="0"
               style="fill:#3d3e3f" /></g><g
             id="g808"><path
               d="m 523,176.6 h -6.5 v -2.8 c 0,-0.9 0.8,-1.5 1.5,-1.5 h 3.4 c 0.9,0 1.5,0.8 1.5,1.5 v 2.8 h 0.1 z"
               id="path810"
               inkscape:connector-curvature="0"
               style="fill:#3d3e3f" /></g><g
             id="g812"><path
               d="m 529.8,176.6 h -6.5 v -2.8 c 0,-0.9 0.8,-1.5 1.5,-1.5 h 3.4 c 0.9,0 1.5,0.8 1.5,1.5 v 2.8 h 0.1 z"
               id="path814"
               inkscape:connector-curvature="0"
               style="fill:#3d3e3f" /></g><g
             id="g816"><path
               d="m 536,176.9 c 0,0 -0.1,0 -0.3,0 -0.1,0 -0.4,-0.1 -0.6,-0.1 -0.5,-0.1 -1.3,-0.1 -2,-0.1 -1.6,0 -3.3,0 -3.3,0 v -2.8 c 0,-0.9 0.8,-1.5 1.5,-1.5 0,0 0.9,0 1.8,0 0.5,0 1,0 1.4,0 0.4,0 0.6,0 0.6,0 0.5,0 0.9,0.3 1.1,0.6 0.3,0.4 0.4,0.8 0.3,1.1 l -0.5,2.8 z"
               id="path818"
               inkscape:connector-curvature="0"
               style="fill:#3d3e3f" /></g><g
             id="g820"><path
               d="m 541.3,179.3 c 0,0 -0.1,0 -0.3,-0.1 -0.1,-0.1 -0.3,-0.3 -0.5,-0.4 -0.3,-0.1 -0.5,-0.3 -0.8,-0.5 -0.3,-0.1 -0.6,-0.4 -0.9,-0.5 -0.6,-0.3 -1.3,-0.5 -1.9,-0.6 -0.1,0 -0.3,-0.1 -0.4,-0.1 -0.1,0 -0.3,0 -0.3,0 -0.1,0 -0.3,0 -0.3,0 l 0.6,-2.8 c 0.1,-0.4 0.4,-0.8 0.8,-1 0.4,-0.3 0.9,-0.3 1.3,-0.1 0,0 0.3,0.1 0.6,0.3 0.1,0 0.4,0.1 0.6,0.3 0.3,0.1 0.5,0.1 0.6,0.3 0.5,0.3 0.9,0.4 1.3,0.6 0.4,0.1 0.5,0.3 0.5,0.3 0.3,0.1 0.4,0.3 0.5,0.5 0.1,0.1 0.3,0.4 0.3,0.6 0.1,0.4 0,0.9 -0.3,1.1 l -1.4,2.1 z"
               id="path822"
               inkscape:connector-curvature="0"
               style="fill:#3d3e3f" /></g><g
             id="g824"><path
               d="m 545.2,183.5 c 0,0 0,-0.1 -0.1,-0.3 -0.1,-0.1 -0.3,-0.4 -0.4,-0.5 -0.3,-0.4 -0.8,-1 -1.1,-1.5 -0.5,-0.5 -1,-1 -1.4,-1.4 -0.3,-0.1 -0.4,-0.3 -0.5,-0.4 -0.1,-0.1 -0.3,-0.1 -0.3,-0.1 L 543,177 c 0.3,-0.4 0.6,-0.5 1,-0.6 0.4,0 0.9,0.1 1.3,0.5 0,0 0.8,0.6 1.4,1.4 0.1,0.1 0.4,0.4 0.5,0.5 0.1,0.1 0.3,0.4 0.4,0.5 0.1,0.1 0.3,0.3 0.3,0.4 0,0.1 0.1,0.1 0.1,0.1 0.3,0.4 0.4,0.9 0.3,1.3 -0.1,0.4 -0.4,0.8 -0.8,1 l -2.3,1.4 z"
               id="path826"
               inkscape:connector-curvature="0"
               style="fill:#3d3e3f" /></g><g
             id="g828"><path
               d="m 546.9,189 c 0,0 0,-0.1 0,-0.3 0,-0.2 0,-0.4 -0.1,-0.6 -0.1,-0.5 -0.3,-1.3 -0.5,-1.9 -0.3,-0.6 -0.5,-1.4 -0.8,-1.8 -0.1,-0.3 -0.3,-0.4 -0.3,-0.6 -0.1,-0.1 -0.1,-0.3 -0.1,-0.3 l 2.4,-1.4 c 0.4,-0.3 0.8,-0.3 1.3,-0.1 0.3,0.1 0.4,0.3 0.5,0.4 0.1,0.1 0.3,0.4 0.4,0.6 0,0 0.1,0.3 0.3,0.6 0.1,0.1 0.1,0.4 0.3,0.6 0.1,0.3 0.1,0.5 0.3,0.6 0.3,0.9 0.5,1.9 0.5,1.9 0.1,0.5 0,1 -0.3,1.3 -0.3,0.4 -0.6,0.6 -1,0.6 l -2.9,0.4 z"
               id="path830"
               inkscape:connector-curvature="0"
               style="fill:#3d3e3f" /></g><g
             id="g832"><path
               d="m 546.4,194.8 c 0,0 0,-0.1 0.1,-0.3 0,-0.1 0.1,-0.4 0.1,-0.6 0.1,-0.5 0.3,-1.3 0.4,-1.9 0,-0.4 0,-0.8 0,-1 0,-0.1 0,-0.4 0,-0.5 0,-0.1 0,-0.3 0,-0.5 0,-0.1 0,-0.3 0,-0.4 0,-0.1 0,-0.3 0,-0.3 0,-0.1 0,-0.3 0,-0.3 l 2.8,-0.3 c 0.4,0 0.9,0.1 1.1,0.4 0.1,0.1 0.3,0.4 0.4,0.5 0,0.1 0.1,0.3 0.1,0.4 0,0.1 0,0.3 0,0.4 0,0 0,0 0,0.1 0,0.1 0,0.3 0,0.4 0,0.1 0,0.4 0,0.6 0,0.3 0,0.5 0,0.8 -0.1,1 -0.3,1.9 -0.3,1.9 -0.1,0.5 -0.4,0.9 -0.8,1.1 -0.4,0.3 -0.8,0.3 -1.1,0.1 l -2.8,-0.6 z"
               id="path834"
               inkscape:connector-curvature="0"
               style="fill:#3d3e3f" /></g><g
             id="g836"><path
               d="m 543.6,199.8 c 0,0 0,-0.1 0.1,-0.1 0.1,-0.1 0.3,-0.3 0.4,-0.5 0.1,-0.3 0.4,-0.5 0.5,-0.8 0.1,-0.3 0.4,-0.6 0.5,-0.9 0.4,-0.6 0.6,-1.3 0.9,-1.8 0.1,-0.3 0.1,-0.5 0.3,-0.6 0,-0.1 0.1,-0.3 0.1,-0.3 l 2.6,0.9 c 0.4,0.1 0.8,0.4 0.9,0.9 0.1,0.4 0.1,0.9 0,1.3 0,0 -0.1,0.3 -0.3,0.5 -0.1,0.4 -0.4,0.8 -0.6,1.1 -0.2,0.3 -0.5,0.9 -0.8,1.1 -0.3,0.3 -0.4,0.5 -0.4,0.5 -0.1,0.3 -0.4,0.4 -0.5,0.5 -0.3,0.1 -0.4,0.3 -0.6,0.3 -0.4,0 -0.9,-0.1 -1.1,-0.4 l -2,-1.7 z"
               id="path838"
               inkscape:connector-curvature="0"
               style="fill:#3d3e3f" /></g><g
             id="g840"><path
               d="m 538.9,203.2 c 0,0 0.4,-0.1 0.8,-0.4 0.5,-0.3 1.1,-0.6 1.6,-1 0.6,-0.4 1.1,-0.9 1.5,-1.3 0.3,-0.1 0.4,-0.4 0.5,-0.5 0.1,-0.1 0.1,-0.1 0.1,-0.1 l 2,1.9 c 0.4,0.3 0.5,0.6 0.5,1.1 0,0.4 -0.3,0.9 -0.5,1.1 0,0 -0.1,0.1 -0.5,0.4 -0.1,0.1 -0.3,0.3 -0.5,0.4 -0.1,0.1 -0.4,0.3 -0.6,0.4 -0.8,0.6 -1.6,1 -1.6,1 -0.4,0.3 -0.9,0.3 -1.3,0.1 -0.4,-0.1 -0.8,-0.4 -0.9,-0.8 l -1.1,-2.3 z"
               id="path842"
               inkscape:connector-curvature="0"
               style="fill:#3d3e3f" /></g><g
             id="g844"><path
               d="m 533.3,204.5 c 0,0 0.1,0 0.3,0 0.2,0 0.4,0 0.6,0 0.5,0 1.3,-0.1 1.9,-0.3 0.8,-0.1 1.4,-0.4 1.9,-0.5 0.3,-0.1 0.5,-0.1 0.6,-0.3 0.1,0 0.1,0 0.1,-0.1 l 0,0 1.1,2.5 c 0.1,0.4 0.1,0.9 0,1.3 -0.1,0.1 -0.3,0.4 -0.4,0.5 -0.1,0.1 -0.4,0.3 -0.6,0.4 0,0 -0.3,0.1 -0.6,0.1 -0.4,0.1 -0.9,0.3 -1.3,0.4 -0.5,0.1 -1,0.1 -1.4,0.3 -0.1,0 -0.4,0 -0.5,0 -0.1,0 -0.1,0 -0.1,0 -0.5,0 -0.9,-0.1 -1.3,-0.4 -0.4,-0.3 -0.5,-0.6 -0.5,-1.1 v -2.8 h 0.2 z"
               id="path846"
               inkscape:connector-curvature="0"
               style="fill:#3d3e3f" /></g></g><g
           id="fond_rouages"><path
             d="m 139.6,190.7 c 0,8.8 7.2,15.9 15.9,15.9 h 377.7 c 8.8,0 15.9,-7.2 15.9,-15.9 v -0.1 H 139.6 v 0.1 z"
             id="path849"
             inkscape:connector-curvature="0"
             style="fill:#afafaf" /><path
             d="m 139.5,190.4 c 0,-8.8 7.2,-15.9 15.9,-15.9 h 377.7 c 8.8,0 15.9,7.2 15.9,15.9 v 0.1 H 139.5 v -0.1 z"
             id="path851"
             inkscape:connector-curvature="0"
             style="fill:#e4e4e4" /></g><g
           id="rouages_tapis_bleu_x26_rose"><g
             id="g854"><g
               id="g856"><circle
                 cx="283"
                 cy="190.5"
                 r="14.2"
                 id="circle858"
                 d="m 297.2,190.5 c 0,7.84244 -6.35756,14.2 -14.2,14.2 -7.84244,0 -14.2,-6.35756 -14.2,-14.2 0,-7.84244 6.35756,-14.2 14.2,-14.2 7.84244,0 14.2,6.35756 14.2,14.2 z"
                 sodipodi:cx="283"
                 sodipodi:cy="190.5"
                 sodipodi:rx="14.2"
                 sodipodi:ry="14.2"
                 style="fill:#f4adb7" /><path
                 d="m 283,205.5 c -8.3,0 -15.1,-6.8 -15.1,-15.1 0,-8.3 6.8,-15.1 15.1,-15.1 8.3,0 15.1,6.8 15.1,15.1 -0.2,8.4 -6.8,15.1 -15.1,15.1 z m 0,-28.4 c -7.4,0 -13.4,6 -13.4,13.4 0,7.4 6,13.4 13.4,13.4 7.4,0 13.4,-6 13.4,-13.4 0,-7.4 -6,-13.4 -13.4,-13.4 z"
                 id="path860"
                 inkscape:connector-curvature="0"
                 style="fill:#202019" /></g><circle
               enable-background="new    "
               cx="283"
               cy="190.5"
               r="5.5999999"
               id="circle862"
               d="m 288.6,190.5 c 0,3.09279 -2.50721,5.6 -5.6,5.6 -3.09279,0 -5.6,-2.50721 -5.6,-5.6 0,-3.09279 2.50721,-5.6 5.6,-5.6 3.09279,0 5.6,2.50721 5.6,5.6 z"
               sodipodi:cx="283"
               sodipodi:cy="190.5"
               sodipodi:rx="5.5999999"
               sodipodi:ry="5.5999999"
               style="opacity:0.5;fill:#fafafa" /></g><g
             id="g864"><g
               id="g866"><circle
                 cx="160.60001"
                 cy="190.5"
                 r="14.2"
                 id="circle868"
                 d="m 174.80001,190.5 c 0,7.84244 -6.35756,14.2 -14.2,14.2 -7.84245,0 -14.2,-6.35756 -14.2,-14.2 0,-7.84244 6.35755,-14.2 14.2,-14.2 7.84244,0 14.2,6.35756 14.2,14.2 z"
                 sodipodi:cx="160.60001"
                 sodipodi:cy="190.5"
                 sodipodi:rx="14.2"
                 sodipodi:ry="14.2"
                 style="fill:#f4adb7" /><path
                 d="m 160.6,205.5 c -8.3,0 -15.1,-6.8 -15.1,-15.1 0,-8.3 6.8,-15.1 15.1,-15.1 8.3,0 15.1,6.8 15.1,15.1 -0.2,8.4 -6.8,15.1 -15.1,15.1 z m 0,-28.4 c -7.4,0 -13.4,6 -13.4,13.4 0,7.4 6,13.4 13.4,13.4 7.4,0 13.4,-6 13.4,-13.4 0,-7.4 -6,-13.4 -13.4,-13.4 z"
                 id="path870"
                 inkscape:connector-curvature="0"
                 style="fill:#202019" /></g><circle
               enable-background="new    "
               cx="160.60001"
               cy="190.5"
               r="5.5999999"
               id="circle872"
               d="m 166.20001,190.5 c 0,3.09279 -2.50721,5.6 -5.6,5.6 -3.0928,0 -5.6,-2.50721 -5.6,-5.6 0,-3.09279 2.5072,-5.6 5.6,-5.6 3.09279,0 5.6,2.50721 5.6,5.6 z"
               sodipodi:cx="160.60001"
               sodipodi:cy="190.5"
               sodipodi:rx="5.5999999"
               sodipodi:ry="5.5999999"
               style="opacity:0.5;fill:#fafafa" /></g><g
             id="g874"><g
               id="g876"><circle
                 cx="221.8"
                 cy="190.5"
                 r="14.2"
                 id="circle878"
                 d="m 236,190.5 c 0,7.84244 -6.35755,14.2 -14.2,14.2 -7.84244,0 -14.2,-6.35756 -14.2,-14.2 0,-7.84244 6.35756,-14.2 14.2,-14.2 7.84245,0 14.2,6.35756 14.2,14.2 z"
                 sodipodi:cx="221.8"
                 sodipodi:cy="190.5"
                 sodipodi:rx="14.2"
                 sodipodi:ry="14.2"
                 style="fill:#63c4e1" /><path
                 d="m 221.8,205.5 c -8.3,0 -15.1,-6.8 -15.1,-15.1 0,-8.3 6.8,-15.1 15.1,-15.1 8.3,0 15.1,6.8 15.1,15.1 -0.2,8.4 -6.8,15.1 -15.1,15.1 z m 0,-28.4 c -7.4,0 -13.4,6 -13.4,13.4 0,7.4 6,13.4 13.4,13.4 7.4,0 13.4,-6 13.4,-13.4 0,-7.4 -6,-13.4 -13.4,-13.4 z"
                 id="path880"
                 inkscape:connector-curvature="0"
                 style="fill:#202019" /></g><circle
               enable-background="new    "
               cx="221.8"
               cy="190.5"
               r="5.5999999"
               id="circle882"
               d="m 227.4,190.5 c 0,3.09279 -2.5072,5.6 -5.6,5.6 -3.09279,0 -5.6,-2.50721 -5.6,-5.6 0,-3.09279 2.50721,-5.6 5.6,-5.6 3.0928,0 5.6,2.50721 5.6,5.6 z"
               sodipodi:cx="221.8"
               sodipodi:cy="190.5"
               sodipodi:rx="5.5999999"
               sodipodi:ry="5.5999999"
               style="opacity:0.5;fill:#fafafa" /></g><g
             id="g884"><g
               id="g886"><circle
                 cx="405.39999"
                 cy="190.5"
                 r="14.2"
                 id="circle888"
                 d="m 419.59999,190.5 c 0,7.84244 -6.35755,14.2 -14.2,14.2 -7.84244,0 -14.2,-6.35756 -14.2,-14.2 0,-7.84244 6.35756,-14.2 14.2,-14.2 7.84245,0 14.2,6.35756 14.2,14.2 z"
                 sodipodi:cx="405.39999"
                 sodipodi:cy="190.5"
                 sodipodi:rx="14.2"
                 sodipodi:ry="14.2"
                 style="fill:#f4adb7" /><path
                 d="m 405.4,205.5 c -8.3,0 -15.1,-6.8 -15.1,-15.1 0,-8.3 6.8,-15.1 15.1,-15.1 8.3,0 15.1,6.8 15.1,15.1 -0.1,8.4 -6.8,15.1 -15.1,15.1 z m 0,-28.4 c -7.4,0 -13.4,6 -13.4,13.4 0,7.4 6,13.4 13.4,13.4 7.4,0 13.4,-6 13.4,-13.4 0,-7.4 -6,-13.4 -13.4,-13.4 z"
                 id="path890"
                 inkscape:connector-curvature="0"
                 style="fill:#202019" /></g><circle
               enable-background="new    "
               cx="405.39999"
               cy="190.5"
               r="5.5999999"
               id="circle892"
               d="m 410.99999,190.5 c 0,3.09279 -2.5072,5.6 -5.6,5.6 -3.09279,0 -5.6,-2.50721 -5.6,-5.6 0,-3.09279 2.50721,-5.6 5.6,-5.6 3.0928,0 5.6,2.50721 5.6,5.6 z"
               sodipodi:cx="405.39999"
               sodipodi:cy="190.5"
               sodipodi:rx="5.5999999"
               sodipodi:ry="5.5999999"
               style="opacity:0.5;fill:#fafafa" /></g><g
             id="g894"><g
               id="g896"><circle
                 cx="466.70001"
                 cy="190.5"
                 r="14.2"
                 id="circle898"
                 d="m 480.90001,190.5 c 0,7.84244 -6.35755,14.2 -14.2,14.2 -7.84244,0 -14.2,-6.35756 -14.2,-14.2 0,-7.84244 6.35756,-14.2 14.2,-14.2 7.84245,0 14.2,6.35756 14.2,14.2 z"
                 sodipodi:cx="466.70001"
                 sodipodi:cy="190.5"
                 sodipodi:rx="14.2"
                 sodipodi:ry="14.2"
                 style="fill:#63c4e1" /><path
                 d="m 466.7,205.5 c -8.3,0 -15.1,-6.8 -15.1,-15.1 0,-8.3 6.8,-15.1 15.1,-15.1 8.3,0 15.1,6.8 15.1,15.1 -0.2,8.4 -6.9,15.1 -15.1,15.1 z m 0,-28.4 c -7.4,0 -13.4,6 -13.4,13.4 0,7.4 6,13.4 13.4,13.4 7.4,0 13.4,-6 13.4,-13.4 0,-7.4 -6,-13.4 -13.4,-13.4 z"
                 id="path900"
                 inkscape:connector-curvature="0"
                 style="fill:#202019" /></g><circle
               enable-background="new    "
               cx="466.70001"
               cy="190.5"
               r="5.5999999"
               id="circle902"
               d="m 472.30001,190.5 c 0,3.09279 -2.5072,5.6 -5.6,5.6 -3.09279,0 -5.6,-2.50721 -5.6,-5.6 0,-3.09279 2.50721,-5.6 5.6,-5.6 3.0928,0 5.6,2.50721 5.6,5.6 z"
               sodipodi:cx="466.70001"
               sodipodi:cy="190.5"
               sodipodi:rx="5.5999999"
               sodipodi:ry="5.5999999"
               style="opacity:0.5;fill:#fafafa" /></g><g
             id="g904"><g
               id="g906"><circle
                 cx="527.90002"
                 cy="190.5"
                 r="14.2"
                 id="circle908"
                 d="m 542.10002,190.5 c 0,7.84244 -6.35755,14.2 -14.2,14.2 -7.84244,0 -14.2,-6.35756 -14.2,-14.2 0,-7.84244 6.35756,-14.2 14.2,-14.2 7.84245,0 14.2,6.35756 14.2,14.2 z"
                 sodipodi:cx="527.90002"
                 sodipodi:cy="190.5"
                 sodipodi:rx="14.2"
                 sodipodi:ry="14.2"
                 style="fill:#f4adb7" /><path
                 d="m 527.9,205.5 c -8.3,0 -15.1,-6.8 -15.1,-15.1 0,-8.3 6.8,-15.1 15.1,-15.1 8.3,0 15.1,6.8 15.1,15.1 -0.2,8.4 -6.9,15.1 -15.1,15.1 z m 0,-28.4 c -7.4,0 -13.4,6 -13.4,13.4 0,7.4 6,13.4 13.4,13.4 7.4,0 13.4,-6 13.4,-13.4 0,-7.4 -6,-13.4 -13.4,-13.4 z"
                 id="path910"
                 inkscape:connector-curvature="0"
                 style="fill:#202019" /></g><circle
               enable-background="new    "
               cx="527.90002"
               cy="190.5"
               r="5.5999999"
               id="circle912"
               d="m 533.50002,190.5 c 0,3.09279 -2.5072,5.6 -5.6,5.6 -3.09279,0 -5.6,-2.50721 -5.6,-5.6 0,-3.09279 2.50721,-5.6 5.6,-5.6 3.0928,0 5.6,2.50721 5.6,5.6 z"
               sodipodi:cx="527.90002"
               sodipodi:cy="190.5"
               sodipodi:rx="5.5999999"
               sodipodi:ry="5.5999999"
               style="opacity:0.5;fill:#fafafa" /></g></g><g
           id="arrosoir2"><g
             id="g915"><path
               d="m 238.1,147.5 c -0.6,0 -1.1,0.1 -1.8,0.3 l 2.5,14.6 c 3.6,-0.4 6.6,-3.6 6.6,-7.4 0.2,-4.2 -3.2,-7.5 -7.3,-7.5 z"
               id="path917"
               inkscape:connector-curvature="0"
               style="fill:none" /><path
               d="m 238.1,143.4 c -1,0 -2.1,0.1 -3.1,0.4 -0.3,0 -0.4,0 -0.6,-0.1 -0.1,-0.1 -0.3,-0.3 -0.4,-0.5 l -0.4,-1.9 h -21.7 l -1,6 c 0,0.3 -0.1,0.4 -0.4,0.5 -0.3,0.1 -0.5,0.1 -0.6,0 l -12.7,-5.4 c -0.3,-0.1 -0.4,-0.3 -0.4,-0.5 l -1.4,-3.9 -3.8,8.9 3.9,-1.9 c 0.3,-0.1 0.4,-0.1 0.6,0 l 13.5,5.8 c 0.4,0.1 0.5,0.5 0.5,0.9 l -3.3,18.8 h 32.1 l -0.6,-3.4 c 0,-0.3 0,-0.4 0.1,-0.6 0.1,-0.1 0.4,-0.3 0.5,-0.3 6,-0.4 10.7,-5.5 10.7,-11.5 0,-6.2 -5.1,-11.3 -11.5,-11.3 z m 0.3,20.4 0,0 c -0.4,0 -0.8,-0.3 -0.8,-0.6 l -2.8,-15.9 c -0.1,-0.4 0.1,-0.8 0.5,-0.9 0.9,-0.3 1.9,-0.5 2.9,-0.5 4.9,0 9,4 9,9 -0.1,4.8 -4,8.9 -8.8,8.9 z"
               id="path919"
               inkscape:connector-curvature="0"
               style="fill:#e4d4e9" /><path
               d="m 251.3,154.9 c 0,-7.3 -5.9,-13 -13,-13 -0.9,0 -1.8,0.1 -2.6,0.3 l -0.3,-1.8 c -0.1,-0.4 -0.4,-0.6 -0.8,-0.6 h -23.2 c -0.4,0 -0.8,0.3 -0.8,0.6 l -1.3,5.8 -11.4,-4.9 -2,-5.5 c -0.1,-0.3 -0.4,-0.5 -0.8,-0.5 -0.4,0 -0.6,0.1 -0.8,0.5 l -5.4,12.7 c -0.1,0.3 0,0.6 0.1,0.9 0.3,0.3 0.6,0.3 0.9,0.1 l 5.4,-2.6 12.7,5.4 -3.4,19.2 c 0,0.3 0,0.5 0.1,0.6 0.1,0.1 0.4,0.3 0.6,0.3 h 34 c 0.3,0 0.5,-0.1 0.6,-0.3 0.1,-0.1 0.3,-0.4 0.1,-0.6 l -0.6,-3.5 c 7,-1 11.9,-6.6 11.9,-13.1 z M 239,166.5 c -0.3,0 -0.4,0.1 -0.5,0.3 -0.1,0.1 -0.3,0.4 -0.1,0.6 l 0.6,3.4 h -32.1 l 3.3,-18.8 c 0,-0.4 -0.1,-0.8 -0.5,-0.9 l -13.5,-5.8 c -0.3,-0.1 -0.5,-0.1 -0.6,0 l -3.9,1.9 3.8,-8.9 1.4,3.9 c 0.1,0.3 0.3,0.4 0.4,0.5 l 12.7,5.4 c 0.3,0.1 0.5,0.1 0.6,0 0.3,-0.1 0.4,-0.4 0.4,-0.5 l 1,-6 h 22 l 0.4,1.9 c 0,0.3 0.1,0.4 0.4,0.5 0.1,0.1 0.4,0.1 0.6,0.1 1,-0.3 2,-0.4 3.1,-0.4 6.4,0 11.5,5.1 11.5,11.5 -0.4,5.7 -5,10.8 -11,11.3 z"
               id="path921"
               inkscape:connector-curvature="0"
               style="fill:#202019" /><path
               d="m 238.1,145.9 c -1,0 -1.9,0.1 -2.9,0.5 -0.4,0.1 -0.6,0.5 -0.5,0.9 l 2.8,15.9 c 0.1,0.4 0.4,0.6 0.8,0.6 l 0,0 c 4.9,-0.1 8.8,-4.1 8.8,-9 0,-4.9 -4,-8.9 -9,-8.9 z m 0.9,16.4 -2.5,-14.6 c 0.5,-0.1 1.1,-0.3 1.8,-0.3 4.1,0 7.4,3.4 7.4,7.4 -0.1,3.9 -3,7 -6.7,7.5 z"
               id="path923"
               inkscape:connector-curvature="0"
               style="fill:#202019" /></g><g
             id="g925"><g
               id="g927"><path
                 d="m 222.7,147.1 c -0.3,0 -0.4,0.1 -0.5,0.3 0,0 -1.4,1.5 -2.8,3.6 -1.9,2.9 -2.9,5.4 -2.9,7.4 0,1.6 0.6,3.3 1.6,4.4 0.9,1 2.4,2.1 4.9,2.1 4.3,0 6.1,-3.8 6.1,-6.5 0,-4.3 -5.8,-10.8 -6,-11 0,-0.3 -0.3,-0.3 -0.4,-0.3 z m 5,11.2 c 0,2.1 -1.5,5.1 -4.8,5.1 -2.5,0 -5.1,-1.8 -5.1,-5.1 0,-3.6 3.4,-7.9 4.8,-9.5 0.5,0.6 1.5,1.8 2.4,3.1 1.8,2.8 2.7,4.9 2.7,6.4 z m -4.9,1.8 c 0.6,0 1,-0.1 1.3,-0.5 0.4,-0.5 0.4,-1.5 0.3,-1.8 -0.1,-0.4 0.1,-0.8 0.5,-0.9 0.4,-0.1 0.8,0.1 0.9,0.5 0,0.1 0.4,1.9 -0.5,3 -0.5,0.6 -1.3,1 -2.4,1 -0.4,0 -0.8,-0.3 -0.8,-0.8 0,-0.2 0.2,-0.5 0.7,-0.5 z"
                 id="path929"
                 inkscape:connector-curvature="0"
                 style="fill:#fafafa" /></g></g></g><g
           id="arrosoir1"><g
             id="g932"><path
               d="m 315.8,147.5 c -0.6,0 -1.1,0.1 -1.8,0.3 l 2.5,14.6 c 3.6,-0.4 6.6,-3.6 6.6,-7.4 0.2,-4.2 -3.2,-7.5 -7.3,-7.5 z"
               id="path934"
               inkscape:connector-curvature="0"
               style="fill:none" /><path
               d="m 315.8,143.4 c -1,0 -2.1,0.1 -3.1,0.4 -0.3,0 -0.4,0 -0.6,-0.1 -0.1,-0.1 -0.3,-0.3 -0.4,-0.5 l -0.4,-1.9 h -22 l -1,6 c 0,0.3 -0.1,0.4 -0.4,0.5 -0.3,0.1 -0.5,0.1 -0.6,0 l -12.7,-5.4 c -0.3,-0.1 -0.4,-0.3 -0.4,-0.5 l -1.4,-3.9 -3.8,8.9 3.9,-1.9 c 0.3,-0.1 0.4,-0.1 0.6,0 l 13.5,5.8 c 0.4,0.1 0.5,0.5 0.5,0.9 l -3.3,18.8 h 32.1 l -0.6,-3.4 c 0,-0.3 0,-0.4 0.1,-0.6 0.1,-0.1 0.4,-0.3 0.5,-0.3 6,-0.4 10.7,-5.5 10.7,-11.5 0.3,-6.2 -4.8,-11.3 -11.2,-11.3 z m 0.2,20.4 0,0 c -0.4,0 -0.8,-0.3 -0.8,-0.6 l -2.8,-15.9 c -0.1,-0.4 0.1,-0.8 0.5,-0.9 0.9,-0.3 1.9,-0.5 2.9,-0.5 4.9,0 9,4 9,9 0,4.8 -3.9,8.9 -8.8,8.9 z"
               id="path936"
               inkscape:connector-curvature="0"
               style="fill:#e4d4e9" /><path
               d="m 328.9,154.9 c 0,-7.3 -5.9,-13 -13,-13 -0.9,0 -1.8,0.1 -2.6,0.3 l -0.3,-1.8 c -0.1,-0.4 -0.4,-0.6 -0.8,-0.6 H 289 c -0.4,0 -0.8,0.3 -0.8,0.6 l -1,5.6 -11.4,-4.9 -2,-5.5 c -0.1,-0.3 -0.4,-0.5 -0.8,-0.5 -0.4,0 -0.6,0.1 -0.8,0.5 l -5.4,12.7 c -0.1,0.3 0,0.6 0.1,0.9 0.3,0.3 0.6,0.3 0.9,0.1 l 5.4,-2.6 12.8,5.3 -3.4,19.2 c 0,0.3 0,0.5 0.1,0.6 0.1,0.1 0.4,0.3 0.6,0.3 h 34 c 0.3,0 0.5,-0.1 0.6,-0.3 0.1,-0.1 0.3,-0.4 0.1,-0.6 l -0.6,-3.5 c 6.6,-0.7 11.5,-6.3 11.5,-12.8 z m -12.3,11.6 c -0.3,0 -0.4,0.1 -0.5,0.3 -0.1,0.1 -0.3,0.4 -0.1,0.6 l 0.6,3.4 h -32.1 l 3.3,-18.8 c 0,-0.4 -0.1,-0.8 -0.5,-0.9 l -13.5,-5.8 c -0.3,-0.1 -0.5,-0.1 -0.6,0 l -3.9,1.9 3.8,-8.9 1.4,3.9 c 0.1,0.3 0.3,0.4 0.4,0.5 l 12.7,5.4 c 0.3,0.1 0.5,0.1 0.6,0 0.3,-0.1 0.4,-0.4 0.4,-0.5 l 1,-6 h 22 l 0.4,1.9 c 0,0.3 0.1,0.4 0.4,0.5 0.1,0.1 0.4,0.1 0.6,0.1 1,-0.3 2,-0.4 3.1,-0.4 6.4,0 11.5,5.1 11.5,11.5 -0.3,5.7 -4.9,10.8 -11,11.3 z"
               id="path938"
               inkscape:connector-curvature="0"
               style="fill:#202019" /><path
               d="m 315.8,145.9 c -1,0 -1.9,0.1 -2.9,0.5 -0.4,0.1 -0.6,0.5 -0.5,0.9 l 2.8,15.9 c 0.1,0.4 0.4,0.6 0.8,0.6 l 0,0 c 4.9,-0.1 8.8,-4.1 8.8,-9 0,-4.9 -4,-8.9 -9,-8.9 z m 0.8,16.4 -2.5,-14.6 c 0.5,-0.1 1.1,-0.3 1.8,-0.3 4.1,0 7.4,3.4 7.4,7.4 0,3.9 -3,7 -6.7,7.5 z"
               id="path940"
               inkscape:connector-curvature="0"
               style="fill:#202019" /></g><g
             id="g942"><g
               id="g944"><path
                 d="m 300.2,147.1 c -0.3,0 -0.4,0.1 -0.5,0.3 0,0 -1.4,1.5 -2.8,3.6 -1.9,2.9 -2.9,5.4 -2.9,7.4 0,1.6 0.6,3.3 1.6,4.4 0.9,1 2.4,2.1 4.9,2.1 4.3,0 6.1,-3.8 6.1,-6.5 0,-4.3 -5.8,-10.8 -6,-11 0,-0.3 -0.2,-0.3 -0.4,-0.3 z m 5.1,11.2 c 0,2.1 -1.5,5.1 -4.8,5.1 -2.5,0 -5.1,-1.8 -5.1,-5.1 0,-3.6 3.4,-7.9 4.8,-9.5 0.5,0.6 1.5,1.8 2.4,3.1 1.9,2.8 2.7,4.9 2.7,6.4 z m -5,1.8 c 0.6,0 1,-0.1 1.3,-0.5 0.4,-0.5 0.4,-1.5 0.3,-1.8 -0.1,-0.4 0.1,-0.8 0.5,-0.9 0.4,-0.1 0.8,0.1 0.9,0.5 0,0.1 0.4,1.9 -0.5,3 -0.5,0.6 -1.3,1 -2.4,1 -0.4,0 -0.8,-0.3 -0.8,-0.8 0.1,-0.2 0.3,-0.5 0.7,-0.5 z"
                 id="path946"
                 inkscape:connector-curvature="0"
                 style="fill:#fafafa" /></g></g></g><rect
           id="fond_écran"
           x="308.20001"
           y="125.9"
           width="72.5"
           height="40.400002"
           style="fill:#fafafa" /><g
           id="courbe"><path
             d="m 369.4,157.6 0,0 c -0.4,0 -0.6,-0.3 -0.8,-0.6 l -4.6,-18.1 -1.5,6.4 c -0.1,0.4 -0.4,0.6 -0.8,0.6 h -7.3 l -3.6,7.2 c -0.1,0.3 -0.5,0.5 -0.8,0.4 -0.4,0 -0.6,-0.3 -0.6,-0.6 l -2,-10.7 -2.3,7.4 c -0.1,0.4 -0.4,0.6 -0.8,0.5 -0.4,0 -0.6,-0.3 -0.8,-0.6 l -2,-7.9 -1.6,3.8 c -0.1,0.3 -0.4,0.5 -0.8,0.5 h -3.8 l -3.3,11 c -0.1,0.4 -0.4,0.5 -0.8,0.5 l 0,0 c -0.4,0 -0.6,-0.3 -0.8,-0.6 l -4.9,-20.9 -3.8,9.2 c -0.1,0.3 -0.4,0.5 -0.8,0.5 h -15.1 c -0.4,0 -0.8,-0.4 -0.8,-0.8 0,-0.4 0.4,-0.8 0.8,-0.8 h 14.6 l 4.5,-10.8 c 0.1,-0.3 0.5,-0.5 0.8,-0.5 0.4,0 0.6,0.3 0.8,0.6 l 4.8,20.4 2.6,-8.8 c 0.1,-0.4 0.4,-0.5 0.8,-0.5 h 3.8 l 2.4,-5.3 c 0.1,-0.3 0.5,-0.5 0.8,-0.5 0.4,0 0.6,0.3 0.6,0.6 l 1.9,7.4 2.4,-7.8 c 0.1,-0.4 0.4,-0.5 0.8,-0.5 0.4,0 0.6,0.3 0.8,0.6 l 2.1,11.4 2.8,-5.5 c 0.1,-0.3 0.4,-0.4 0.8,-0.4 h 7.2 l 2,-9 c 0.1,-0.4 0.4,-0.6 0.8,-0.6 0.4,0 0.6,0.3 0.8,0.6 l 4.6,18.3 2.3,-8.8 c 0.1,-0.4 0.4,-0.6 0.8,-0.6 h 8 c 0.4,0 0.8,0.4 0.8,0.8 0,0.4 -0.4,0.8 -0.8,0.8 H 373 l -2.9,11 c 0,0.4 -0.3,0.7 -0.7,0.7 z"
             id="path950"
             inkscape:connector-curvature="0"
             style="fill:#7cba52" /></g><g
           id="boîte_de_transformatiiiiiiiiiiiiion"><g
             id="entrées"><g
               id="g954"><path
                 d="m 304.5,172.4 h 2.4 v -40.5 h -2.4 c -2.8,0 -4.9,2.3 -4.9,4.9 v 30.7 c 0,2.6 2.2,4.9 4.9,4.9 z"
                 id="path956"
                 inkscape:connector-curvature="0"
                 style="fill:#90b9e3" /><path
                 d="m 306.8,173.1 h -2.4 c -3.1,0 -5.6,-2.5 -5.6,-5.6 v -30.7 c 0,-3.1 2.5,-5.6 5.6,-5.6 h 2.4 c 0.4,0 0.8,0.4 0.8,0.8 v 40.5 c 0,0.2 -0.4,0.6 -0.8,0.6 z m -2.3,-40.5 c -2.3,0 -4.1,1.9 -4.1,4.1 v 30.7 c 0,2.3 1.9,4.1 4.1,4.1 h 1.5 v -39 c 0,0.1 -1.5,0.1 -1.5,0.1 z"
                 id="path958"
                 inkscape:connector-curvature="0"
                 style="fill:#202019" /></g><g
               id="g960"><path
                 d="m 384.2,172.4 h -2.4 v -40.5 h 2.4 c 2.8,0 4.9,2.3 4.9,4.9 v 30.7 c 0,2.6 -2.2,4.9 -4.9,4.9 z"
                 id="path962"
                 inkscape:connector-curvature="0"
                 style="fill:#90b9e3" /><path
                 d="m 384.2,173.1 h -2.4 c -0.4,0 -0.8,-0.4 -0.8,-0.8 v -40.5 c 0,-0.4 0.4,-0.8 0.8,-0.8 h 2.4 c 3.1,0 5.6,2.5 5.6,5.6 v 30.7 c 0.1,3.3 -2.4,5.8 -5.6,5.8 z m -1.6,-1.5 h 1.5 c 2.3,0 4.1,-1.9 4.1,-4.1 v -30.7 c 0,-2.3 -1.9,-4.1 -4.1,-4.1 h -1.5 v 38.9 z"
                 id="path964"
                 inkscape:connector-curvature="0"
                 style="fill:#202019" /></g></g><g
             id="boîte"><path
               d="m 378,122.9 h -67.4 c -3.1,0 -5.8,2.6 -5.8,5.8 v 88.8 c 0,3.1 2.6,5.8 5.8,5.8 H 378 c 3.1,0 5.8,-2.6 5.8,-5.8 v -88.8 c -0.1,-3.1 -2.6,-5.8 -5.8,-5.8 z m -1.4,32.4 c 0,2.4 -1.9,4.3 -4.3,4.3 h -55.9 c -2.4,0 -4.3,-1.9 -4.3,-4.3 v -21.1 c 0,-2.4 1.9,-4.3 4.3,-4.3 h 55.9 c 2.4,0 4.3,1.9 4.3,4.3 v 21.1 z"
               id="path967"
               inkscape:connector-curvature="0"
               style="fill:#6e93cc" /><path
               d="m 378,224.2 h -67.4 c -3.6,0 -6.5,-2.9 -6.5,-6.5 v -88.8 c 0,-3.6 2.9,-6.5 6.5,-6.5 H 378 c 3.6,0 6.5,2.9 6.5,6.5 v 88.8 c 0.1,3.5 -2.9,6.5 -6.5,6.5 z M 310.7,123.7 c -2.8,0 -5,2.3 -5,5 v 88.8 c 0,2.8 2.3,5 5,5 h 67.4 c 2.8,0 5,-2.3 5,-5 v -88.8 c 0,-2.8 -2.3,-5 -5,-5 h -67.4 z m 61.6,36.6 h -55.9 c -2.8,0 -5,-2.3 -5,-5 v -21.1 c 0,-2.8 2.3,-5 5,-5 h 55.9 c 2.8,0 5,2.3 5,5 v 21.1 c 0,2.8 -2.2,5 -5,5 z m -55.9,-29.5 c -1.9,0 -3.5,1.5 -3.5,3.5 v 21.1 c 0,1.9 1.5,3.5 3.5,3.5 h 55.9 c 1.9,0 3.5,-1.5 3.5,-3.5 v -21.1 c 0,-1.9 -1.5,-3.5 -3.5,-3.5 h -55.9 z"
               id="path969"
               inkscape:connector-curvature="0"
               style="fill:#202019" /></g><g
             id="rond_vert_éclair"><circle
               cx="344.5"
               cy="190.5"
               r="15.6"
               id="circle972"
               d="m 360.1,190.5 c 0,8.61564 -6.98436,15.6 -15.6,15.6 -8.61564,0 -15.6,-6.98436 -15.6,-15.6 0,-8.61564 6.98436,-15.6 15.6,-15.6 8.61564,0 15.6,6.98436 15.6,15.6 z"
               sodipodi:cx="344.5"
               sodipodi:cy="190.5"
               sodipodi:rx="15.6"
               sodipodi:ry="15.6"
               style="fill:#fafafa" /><circle
               cx="344.5"
               cy="190.5"
               r="13.9"
               id="circle974"
               d="m 358.4,190.5 c 0,7.67676 -6.22324,13.9 -13.9,13.9 -7.67676,0 -13.9,-6.22324 -13.9,-13.9 0,-7.67676 6.22324,-13.9 13.9,-13.9 7.67676,0 13.9,6.22324 13.9,13.9 z"
               sodipodi:cx="344.5"
               sodipodi:cy="190.5"
               sodipodi:rx="13.9"
               sodipodi:ry="13.9"
               style="fill:#aace81" /><path
               d="m 346.6,181.1 -7.9,11 h 4.8 l -1.5,7.9 7.9,-11 h -4.8 l 1.5,-7.9 0,0 z"
               id="path976"
               inkscape:connector-curvature="0"
               style="fill:#fafafa" /></g></g><g
           id="bouteille"><path
             d="m 421.2,137.2 c -0.4,0 -0.6,-0.4 -0.6,-0.8 v -3.3 c 0,-0.4 0.4,-0.8 0.8,-0.8 h 0.3 l 0,0 h -3.9 l 0,0 h 0.3 c 0.4,0 0.8,0.4 0.8,0.8 v 3.3 c 0,0.4 -0.3,0.8 -0.6,0.8 -2.6,0.4 -4.6,2.6 -4.6,5.3 v 0.6 c 0,1.6 0.3,3.4 0.9,5.3 0.1,0.5 0.4,1 0.4,1.6 0,0.1 0,0.3 0.1,0.4 0.3,-0.3 0.5,-0.4 0.8,-0.4 l 0,0 c 0.3,0 0.5,-0.1 0.6,-0.4 0.4,-0.5 0.9,-0.9 1.6,-0.9 0.6,0 1.1,0.3 1.4,0.8 0.1,0.3 0.5,0.4 0.8,0.3 0.1,0 0.4,-0.1 0.5,-0.1 0.3,0 0.4,0 0.6,0.1 0.3,0.1 0.6,0 0.8,-0.3 0.4,-0.5 0.9,-0.8 1.5,-0.8 0.5,0 1,0.3 1.4,0.6 0.1,-0.4 0.1,-0.6 0.3,-1 0.6,-1.8 0.9,-3.5 0.9,-5.3 v -0.6 c -0.4,-2.5 -2.4,-4.8 -5.1,-5.2 z"
             id="path979"
             inkscape:connector-curvature="0"
             style="fill:none" /><path
             d="m 423.4,148.9 c -0.6,0 -1.1,0.3 -1.5,0.8 -0.1,0.3 -0.5,0.4 -0.8,0.3 -0.3,-0.1 -0.4,-0.1 -0.6,-0.1 -0.1,0 -0.4,0 -0.5,0.1 -0.3,0.1 -0.5,0 -0.8,-0.3 -0.4,-0.4 -0.9,-0.8 -1.4,-0.8 -0.6,0 -1.3,0.4 -1.6,0.9 -0.1,0.3 -0.4,0.4 -0.6,0.4 l 0,0 c -0.4,0 -0.6,0.1 -0.8,0.4 0.1,0.8 0.1,1.4 0.1,2.1 0,1.4 -0.3,2.8 -0.6,4.1 -0.6,1.8 -0.9,3.5 -0.9,5.3 v 6.8 c 0,1.1 0.9,1.9 1.9,1.9 h 8.7 c 1.1,0 1.9,-0.9 1.9,-1.9 v -6.8 c 0,-1.6 -0.3,-3.4 -0.9,-5.3 -0.5,-1.4 -0.6,-2.8 -0.6,-4.1 0,-0.8 0.1,-1.6 0.3,-2.4 0,-0.3 0.1,-0.5 0.1,-0.8 -0.4,-0.5 -0.9,-0.6 -1.4,-0.6 z"
             id="path981"
             inkscape:connector-curvature="0"
             style="fill:#92cef1" /><path
             d="m 427.5,143.1 v -0.6 c 0,-3.3 -2.3,-6 -5.3,-6.8 V 134 h 0.3 c 0.4,0 0.8,-0.4 0.8,-0.8 v -1.6 c 0,-0.4 -0.4,-0.8 -0.8,-0.8 h -5.4 c -0.4,0 -0.8,0.4 -0.8,0.8 v 1.6 c 0,0.4 0.4,0.8 0.8,0.8 h 0.3 v 1.8 c -3.1,0.8 -5.3,3.5 -5.3,6.8 v 0.6 c 0,1.9 0.4,3.8 1,5.8 0.4,1.1 0.6,2.4 0.6,3.6 0,1.2 -0.3,2.5 -0.6,3.6 -0.6,1.9 -1,3.9 -1,5.8 v 6.8 c 0,1.9 1.5,3.5 3.5,3.5 h 8.7 c 1.9,0 3.5,-1.5 3.5,-3.5 V 162 c 0,-1.9 -0.4,-3.8 -1,-5.8 -0.4,-1.1 -0.6,-2.4 -0.6,-3.6 0,-1.2 0.3,-2.5 0.6,-3.6 0.3,-2 0.7,-4 0.7,-5.9 z m -1.6,0 c 0,1.6 -0.3,3.4 -0.9,5.3 -0.1,0.4 -0.3,0.6 -0.3,1 0,0.3 -0.1,0.5 -0.1,0.8 -0.1,0.8 -0.3,1.6 -0.3,2.4 0,1.4 0.3,2.8 0.6,4.1 0.6,1.8 0.9,3.5 0.9,5.3 v 6.8 c 0,1.1 -0.9,1.9 -1.9,1.9 h -8.7 c -1.1,0 -1.9,-0.9 -1.9,-1.9 V 162 c 0,-1.6 0.3,-3.4 0.9,-5.3 0.5,-1.4 0.6,-2.8 0.6,-4.1 0,-0.8 0,-1.4 -0.1,-2.1 0,-0.1 0,-0.3 -0.1,-0.4 -0.1,-0.5 -0.3,-1.1 -0.4,-1.6 -0.6,-1.8 -0.9,-3.5 -0.9,-5.3 v -0.6 c 0,-2.6 2,-5 4.6,-5.3 0.4,0 0.6,-0.4 0.6,-0.8 v -3.3 c 0,-0.4 -0.4,-0.8 -0.8,-0.8 h -0.3 l 0,0 h 3.9 l 0,0 H 421 c -0.4,0 -0.8,0.4 -0.8,0.8 v 3.3 c 0,0.4 0.3,0.8 0.6,0.8 2.6,0.4 4.6,2.6 4.6,5.3 v 0.5 z"
             id="path983"
             inkscape:connector-curvature="0"
             style="fill:#202019" /></g><g
           id="bouteille_1_"><path
             d="m 460.4,137.2 c -0.4,0 -0.6,-0.4 -0.6,-0.8 v -3.3 c 0,-0.4 0.4,-0.8 0.8,-0.8 h 0.3 l 0,0 H 457 l 0,0 h 0.3 c 0.4,0 0.8,0.4 0.8,0.8 v 3.3 c 0,0.4 -0.3,0.8 -0.6,0.8 -2.6,0.4 -4.6,2.6 -4.6,5.3 v 0.6 c 0,1.6 0.3,3.4 0.9,5.3 0.1,0.5 0.4,1 0.4,1.6 0,0.1 0,0.3 0.1,0.4 0.3,-0.3 0.5,-0.4 0.8,-0.4 l 0,0 c 0.3,0 0.5,-0.1 0.6,-0.4 0.4,-0.5 0.9,-0.9 1.6,-0.9 0.6,0 1.1,0.3 1.4,0.8 0.1,0.3 0.5,0.4 0.8,0.3 0.1,0 0.4,-0.1 0.5,-0.1 0.3,0 0.4,0 0.6,0.1 0.3,0.1 0.6,0 0.8,-0.3 0.4,-0.5 0.9,-0.8 1.5,-0.8 0.5,0 1,0.3 1.4,0.6 0.1,-0.4 0.1,-0.6 0.3,-1 0.6,-1.8 0.9,-3.5 0.9,-5.3 v -0.6 c -0.5,-2.5 -2.5,-4.8 -5.1,-5.2 z"
             id="path986"
             inkscape:connector-curvature="0"
             style="fill:none" /><path
             d="m 462.5,148.9 c -0.6,0 -1.1,0.3 -1.5,0.8 -0.1,0.3 -0.5,0.4 -0.8,0.3 -0.3,-0.1 -0.4,-0.1 -0.6,-0.1 -0.1,0 -0.4,0 -0.5,0.1 -0.3,0.1 -0.5,0 -0.8,-0.3 -0.4,-0.4 -0.9,-0.8 -1.4,-0.8 -0.6,0 -1.3,0.4 -1.6,0.9 -0.1,0.3 -0.4,0.4 -0.6,0.4 l 0,0 c -0.4,0 -0.6,0.1 -0.8,0.4 0.1,0.8 0.1,1.4 0.1,2.1 0,1.4 -0.3,2.8 -0.6,4.1 -0.6,1.8 -0.9,3.5 -0.9,5.3 v 6.8 c 0,1.1 0.9,1.9 1.9,1.9 h 8.7 c 1.1,0 1.9,-0.9 1.9,-1.9 v -6.8 c 0,-1.6 -0.3,-3.4 -0.9,-5.3 -0.5,-1.4 -0.6,-2.8 -0.6,-4.1 0,-0.8 0.1,-1.6 0.3,-2.4 0,-0.3 0.1,-0.5 0.1,-0.8 -0.4,-0.5 -0.9,-0.6 -1.4,-0.6 z"
             id="path988"
             inkscape:connector-curvature="0"
             style="fill:#92cef1" /><path
             d="m 466.7,143.1 v -0.6 c 0,-3.3 -2.3,-6 -5.3,-6.8 V 134 h 0.3 c 0.4,0 0.8,-0.4 0.8,-0.8 v -1.6 c 0,-0.4 -0.4,-0.8 -0.8,-0.8 h -5.4 c -0.4,0 -0.8,0.4 -0.8,0.8 v 1.6 c 0,0.4 0.4,0.8 0.8,0.8 h 0.3 v 1.8 c -3.1,0.8 -5.3,3.5 -5.3,6.8 v 0.6 c 0,1.9 0.4,3.8 1,5.8 0.4,1.1 0.6,2.4 0.6,3.6 0,1.2 -0.3,2.5 -0.6,3.6 -0.6,1.9 -1,3.9 -1,5.8 v 6.8 c 0,1.9 1.5,3.5 3.5,3.5 h 8.7 c 1.9,0 3.5,-1.5 3.5,-3.5 V 162 c 0,-1.9 -0.4,-3.8 -1,-5.8 -0.4,-1.1 -0.6,-2.4 -0.6,-3.6 0,-1.2 0.3,-2.5 0.6,-3.6 0.3,-2 0.7,-4 0.7,-5.9 z m -1.7,0 c 0,1.6 -0.3,3.4 -0.9,5.3 -0.1,0.4 -0.3,0.6 -0.3,1 0,0.3 -0.1,0.5 -0.1,0.8 -0.1,0.8 -0.3,1.6 -0.3,2.4 0,1.4 0.3,2.8 0.6,4.1 0.6,1.8 0.9,3.5 0.9,5.3 v 6.8 c 0,1.1 -0.9,1.9 -1.9,1.9 h -8.7 c -1.1,0 -1.9,-0.9 -1.9,-1.9 V 162 c 0,-1.6 0.3,-3.4 0.9,-5.3 0.5,-1.4 0.6,-2.8 0.6,-4.1 0,-0.8 0,-1.4 -0.1,-2.1 0,-0.1 0,-0.3 -0.1,-0.4 -0.1,-0.5 -0.3,-1.1 -0.4,-1.6 -0.6,-1.8 -0.9,-3.5 -0.9,-5.3 v -0.6 c 0,-2.6 2,-5 4.6,-5.3 0.4,0 0.6,-0.4 0.6,-0.8 v -3.3 c 0,-0.4 -0.4,-0.8 -0.8,-0.8 h -0.3 l 0,0 h 3.9 l 0,0 h -0.3 c -0.4,0 -0.8,0.4 -0.8,0.8 v 3.3 c 0,0.4 0.3,0.8 0.6,0.8 2.6,0.4 4.6,2.6 4.6,5.3 l 0.5,0.5 0,0 z"
             id="path990"
             inkscape:connector-curvature="0"
             style="fill:#202019" /></g><g
           id="bouteille_2_"><path
             d="m 499.5,137.2 c -0.4,0 -0.6,-0.4 -0.6,-0.8 v -3.3 c 0,-0.4 0.4,-0.8 0.8,-0.8 h 0.3 l 0,0 h -4 l 0,0 h 0.3 c 0.4,0 0.8,0.4 0.8,0.8 v 3.3 c 0,0.4 -0.3,0.8 -0.6,0.8 -2.6,0.4 -4.6,2.6 -4.6,5.3 v 0.6 c 0,1.6 0.3,3.4 0.9,5.3 0.1,0.5 0.4,1 0.4,1.6 0,0.1 0,0.3 0.1,0.4 0.3,-0.3 0.5,-0.4 0.8,-0.4 l 0,0 c 0.3,0 0.5,-0.1 0.6,-0.4 0.4,-0.5 0.9,-0.9 1.6,-0.9 0.6,0 1.1,0.3 1.4,0.8 0.1,0.3 0.5,0.4 0.8,0.3 0.1,0 0.4,-0.1 0.5,-0.1 0.3,0 0.4,0 0.6,0.1 0.2,0.1 0.6,0 0.8,-0.3 0.4,-0.5 0.9,-0.8 1.5,-0.8 0.5,0 1,0.3 1.4,0.6 0.1,-0.4 0.1,-0.6 0.3,-1 0.6,-1.8 0.9,-3.5 0.9,-5.3 v -0.6 c -0.3,-2.5 -2.3,-4.8 -5,-5.2 z"
             id="path993"
             inkscape:connector-curvature="0"
             style="fill:none" /><path
             d="m 501.7,148.9 c -0.6,0 -1.1,0.3 -1.5,0.8 -0.1,0.3 -0.5,0.4 -0.8,0.3 -0.3,-0.1 -0.4,-0.1 -0.6,-0.1 -0.1,0 -0.4,0 -0.5,0.1 -0.3,0.1 -0.5,0 -0.8,-0.3 -0.4,-0.4 -0.9,-0.8 -1.4,-0.8 -0.6,0 -1.3,0.4 -1.6,0.9 -0.1,0.3 -0.4,0.4 -0.6,0.4 l 0,0 c -0.4,0 -0.6,0.1 -0.8,0.4 0.1,0.8 0.1,1.4 0.1,2.1 0,1.4 -0.3,2.8 -0.6,4.1 -0.6,1.8 -0.9,3.5 -0.9,5.3 v 6.8 c 0,1.1 0.9,1.9 1.9,1.9 h 8.7 c 1.1,0 1.9,-0.9 1.9,-1.9 v -6.8 c 0,-1.6 -0.3,-3.4 -0.9,-5.3 -0.5,-1.4 -0.6,-2.8 -0.6,-4.1 0,-0.8 0.1,-1.6 0.3,-2.4 0,-0.3 0.1,-0.5 0.1,-0.8 -0.4,-0.5 -0.9,-0.6 -1.4,-0.6 z"
             id="path995"
             inkscape:connector-curvature="0"
             style="fill:#92cef1" /><path
             d="m 505.8,143.1 v -0.6 c 0,-3.3 -2.3,-6 -5.3,-6.8 V 134 h 0.3 c 0.4,0 0.8,-0.4 0.8,-0.8 v -1.6 c 0,-0.4 -0.4,-0.8 -0.8,-0.8 h -5.4 c -0.4,0 -0.8,0.4 -0.8,0.8 v 1.6 c 0,0.4 0.4,0.8 0.8,0.8 h 0.3 v 1.8 c -3.1,0.8 -5.3,3.5 -5.3,6.8 v 0.6 c 0,1.9 0.4,3.8 1,5.8 0.4,1.1 0.6,2.4 0.6,3.6 0,1.2 -0.3,2.5 -0.6,3.6 -0.6,1.9 -1,3.9 -1,5.8 v 6.8 c 0,1.9 1.5,3.5 3.5,3.5 h 8.7 c 1.9,0 3.5,-1.5 3.5,-3.5 V 162 c 0,-1.9 -0.4,-3.8 -1,-5.8 -0.4,-1.1 -0.6,-2.4 -0.6,-3.6 0,-1.2 0.3,-2.5 0.6,-3.6 0.3,-2 0.7,-4 0.7,-5.9 z m -1.6,0 c 0,1.6 -0.3,3.4 -0.9,5.3 -0.1,0.4 -0.3,0.6 -0.3,1 0,0.3 -0.1,0.5 -0.1,0.8 -0.1,0.8 -0.3,1.6 -0.3,2.4 0,1.4 0.3,2.8 0.6,4.1 0.6,1.8 0.9,3.5 0.9,5.3 v 6.8 c 0,1.1 -0.9,1.9 -1.9,1.9 h -8.7 c -1.1,0 -1.9,-0.9 -1.9,-1.9 V 162 c 0,-1.6 0.3,-3.4 0.9,-5.3 0.5,-1.4 0.6,-2.8 0.6,-4.1 0,-0.8 0,-1.4 -0.1,-2.1 0,-0.1 0,-0.3 -0.1,-0.4 -0.1,-0.5 -0.3,-1.1 -0.4,-1.6 -0.6,-1.8 -0.9,-3.5 -0.9,-5.3 v -0.6 c 0,-2.6 2,-5 4.6,-5.3 0.4,0 0.6,-0.4 0.6,-0.8 v -3.3 c 0,-0.4 -0.4,-0.8 -0.8,-0.8 h 0 l 0,0 h 3.9 l 0,0 h -0.3 c -0.4,0 -0.8,0.4 -0.8,0.8 v 3.3 c 0,0.4 0.3,0.8 0.6,0.8 2.6,0.4 4.6,2.6 4.6,5.3 l 0.2,0.5 0,0 z"
             id="path997"
             inkscape:connector-curvature="0"
             style="fill:#202019" /></g><g
           id="arrosoir_qui_arrose"><g
             id="g1000"><g
               id="g1002"><path
                 d="m 157.4,144.3 c -0.5,0.3 -1,0.5 -1.5,0.8 l 7.3,12.9 c 3.4,-1.6 5,-5.6 3.8,-9.2 -1.5,-3.9 -5.8,-5.9 -9.6,-4.5 z"
                 id="path1004"
                 inkscape:connector-curvature="0"
                 style="fill:none" /><path
                 d="m 156.1,140.4 c -1,0.4 -1.9,0.9 -2.8,1.4 -0.1,0.1 -0.4,0.1 -0.6,0.1 -0.3,0 -0.4,-0.1 -0.5,-0.4 l -0.9,-1.6 -20.7,7.3 1,6 c 0,0.3 0,0.5 -0.3,0.6 -0.1,0.1 -0.4,0.3 -0.6,0.3 L 117,153.2 c -0.3,0 -0.4,-0.1 -0.5,-0.3 l -2.6,-3.3 -0.6,9.7 3,-3 c 0.1,-0.1 0.4,-0.3 0.6,-0.3 l 14.8,1 c 0.4,0 0.6,0.3 0.8,0.6 l 3.1,18.9 30.4,-10.5 -1.6,-3 c -0.1,-0.3 -0.1,-0.4 0,-0.6 0.1,-0.3 0.3,-0.4 0.4,-0.5 5.5,-2.4 8.3,-8.8 6.3,-14.4 -2.5,-6.1 -9.1,-9.3 -15,-7.1 z m 7,19.2 c -0.1,0 -0.1,0.1 0,0 -0.4,0.1 -0.8,0 -1,-0.4 l -7.9,-14 c -0.1,-0.4 -0.1,-0.8 0.3,-1 0.8,-0.6 1.6,-1 2.5,-1.4 4.6,-1.6 9.8,0.8 11.4,5.5 1.6,4.5 -0.8,9.6 -5.3,11.3 z"
                 id="path1006"
                 inkscape:connector-curvature="0"
                 style="fill:#e4d4e9" /><path
                 d="m 172.3,146.9 c -2.4,-6.8 -9.9,-10.4 -16.7,-8 -0.9,0.3 -1.6,0.6 -2.4,1.1 l -0.9,-1.5 c -0.1,-0.4 -0.6,-0.5 -0.9,-0.4 l -22,7.8 c -0.4,0.1 -0.6,0.5 -0.5,0.9 l 1,5.6 -12.4,-0.8 -3.6,-4.5 c -0.3,-0.3 -0.5,-0.4 -0.9,-0.3 -0.3,0.1 -0.5,0.4 -0.5,0.6 l -0.9,13.8 c 0,0.4 0.1,0.6 0.5,0.8 0.3,0.1 0.6,0.1 0.9,-0.1 l 4.3,-4.3 13.8,0.9 3.3,19.2 c 0,0.3 0.1,0.4 0.4,0.5 0.3,0.1 0.4,0.1 0.6,0.1 L 167.5,167 c 0.3,-0.1 0.4,-0.3 0.5,-0.5 0.1,-0.3 0.1,-0.5 0,-0.6 l -1.8,-3 c 5.4,-3 8.2,-9.9 6.1,-16 z m -7.8,14.9 c -0.3,0.1 -0.4,0.3 -0.4,0.5 -0.1,0.3 0,0.4 0,0.6 l 1.6,3 -30.4,10.7 -3.1,-18.9 c 0,-0.4 -0.4,-0.6 -0.8,-0.6 l -14.8,-1 c -0.3,0 -0.5,0.1 -0.6,0.3 l -3,3 0.6,-9.7 2.6,3.3 c 0.1,0.1 0.4,0.3 0.5,0.3 l 13.7,0.9 c 0.3,0 0.5,-0.1 0.6,-0.3 0.1,-0.1 0.3,-0.4 0.3,-0.6 l -1,-6 20.7,-7.3 0.9,1.6 c 0.1,0.3 0.3,0.4 0.5,0.4 0.2,0 0.5,0 0.6,-0.1 0.9,-0.6 1.8,-1.1 2.8,-1.4 6,-2.1 12.7,1 14.7,7 2.3,5.5 -0.5,11.9 -6,14.3 z"
                 id="path1008"
                 inkscape:connector-curvature="0"
                 style="fill:#202019" /><path
                 d="m 156.8,142.8 c -0.9,0.4 -1.8,0.8 -2.5,1.4 -0.3,0.3 -0.4,0.6 -0.3,1 l 7.9,14.2 c 0.1,0.4 0.6,0.5 0.9,0.4 l 0,0 c 4.5,-1.8 6.9,-6.8 5.3,-11.4 -1.4,-4.9 -6.5,-7.3 -11.3,-5.6 z m 6.3,15.1 -7.3,-12.9 c 0.5,-0.3 1,-0.6 1.5,-0.8 3.9,-1.4 8.2,0.6 9.5,4.5 1.3,3.6 -0.3,7.6 -3.7,9.2 z"
                 id="path1010"
                 inkscape:connector-curvature="0"
                 style="fill:#202019" /></g><g
               id="g1012"><g
                 id="g1014"><path
                   d="m 142.6,149 c -0.3,0 -0.4,0.3 -0.4,0.4 0,0.1 -0.9,1.9 -1.5,4.3 -0.9,3.3 -0.9,6 -0.3,7.9 0.5,1.5 1.6,2.9 3,3.6 1.1,0.6 3,1.1 5.3,0.4 4,-1.4 4.5,-5.6 3.6,-8.2 -1.4,-4 -9,-8.2 -9.3,-8.4 0,0 -0.2,0 -0.4,0 z m 8.6,8.9 c 0.8,2 0.4,5.4 -2.8,6.4 -2.4,0.9 -5.4,0 -6.5,-3.1 -1.1,-3.4 0.6,-8.7 1.4,-10.5 0.8,0.5 2,1.3 3.3,2.1 2.4,2 4.1,3.8 4.6,5.1 z m -4.2,3.4 c 0.6,-0.3 0.9,-0.5 1,-0.9 0.3,-0.6 -0.1,-1.5 -0.4,-1.8 -0.3,-0.4 -0.1,-0.8 0.3,-1 0.4,-0.3 0.8,-0.1 1,0.3 0.1,0.1 1,1.6 0.5,3 -0.3,0.8 -0.9,1.4 -1.9,1.8 -0.4,0.1 -0.8,-0.1 -0.9,-0.4 -0.1,-0.3 0.1,-0.9 0.4,-1 z"
                   id="path1016"
                   inkscape:connector-curvature="0"
                   style="fill:#fafafa" /></g></g></g><g
             id="g1018"><g
               id="g1020"><path
                 d="m 100.6,155.2 h -0.1 c -0.4,-0.1 -0.6,-0.5 -0.6,-0.9 0.5,-2.3 1.6,-4 3.4,-5 3.3,-1.9 7.5,-0.6 7.7,-0.5 0.4,0.1 0.6,0.6 0.5,1 -0.1,0.4 -0.6,0.6 -1,0.5 0,0 -3.8,-1.1 -6.4,0.4 -1.4,0.8 -2.3,2.1 -2.6,4 -0.2,0.2 -0.5,0.5 -0.9,0.5 z"
                 id="path1022"
                 inkscape:connector-curvature="0"
                 style="fill:#92cef1" /></g><g
               id="g1024"><path
                 d="m 102.4,160.8 0,0 c -0.5,0 -0.9,-0.5 -0.8,-0.9 0.3,-2.3 1.1,-3.9 2.6,-4.9 2.6,-1.9 6.3,-1 6.4,-1 0.4,0.1 0.6,0.5 0.6,0.9 -0.1,0.4 -0.5,0.6 -0.9,0.6 0,0 -3,-0.8 -5.1,0.8 -1.1,0.8 -1.8,2 -2,3.8 -0.1,0.3 -0.4,0.7 -0.8,0.7 z"
                 id="path1026"
                 inkscape:connector-curvature="0"
                 style="fill:#92cef1" /></g><g
               id="g1028"><path
                 d="m 104.3,166.3 c -0.4,0 -0.8,-0.4 -0.8,-0.8 0,-2.1 0.6,-3.8 1.9,-4.9 2,-1.8 4.9,-1.4 5,-1.4 0.4,0 0.8,0.5 0.6,0.9 0,0.4 -0.5,0.8 -0.9,0.6 0,0 -2.4,-0.3 -3.9,1 -0.9,0.8 -1.4,2 -1.4,3.8 0.2,0.5 -0.2,0.8 -0.5,0.8 z"
                 id="path1030"
                 inkscape:connector-curvature="0"
                 style="fill:#92cef1" /></g></g></g><g
           id="pieds_tapis"><g
             id="g1033"><path
               d="m 533.4,257.2 v -66.6 c 0,-3.1 -2.5,-5.5 -5.5,-5.5 h -0.1 c -3.1,0 -5.5,2.5 -5.5,5.5 v 66.6 h -4.9 v 3.5 h 21.1 v -3.5 h -5.1 z m -5.5,-69.4 c 1.5,0 2.8,1.3 2.8,2.8 0,1.5 -1.3,2.8 -2.8,2.8 -1.5,0 -2.8,-1.3 -2.8,-2.8 0,-1.5 1.3,-2.8 2.8,-2.8 z"
               id="path1035"
               inkscape:connector-curvature="0"
               style="fill:#fafafa" /><path
               d="m 538.4,261.4 h -21.1 c -0.4,0 -0.8,-0.4 -0.8,-0.8 v -3.5 c 0,-0.4 0.4,-0.8 0.8,-0.8 h 4.1 v -65.9 c 0,-3.5 2.9,-6.4 6.4,-6.4 h 0.1 c 3.5,0 6.4,2.9 6.4,6.4 v 65.9 h 4.1 c 0.4,0 0.8,0.4 0.8,0.8 v 3.5 c 0,0.4 -0.4,0.8 -0.8,0.8 z m -20.3,-1.6 h 19.6 v -1.9 h -4.1 c -0.4,0 -0.8,-0.4 -0.8,-0.8 v -66.6 c 0,-2.6 -2.1,-4.8 -4.8,-4.8 h -0.1 c -2.6,0 -4.8,2.1 -4.8,4.8 v 66.6 c 0,0.3 -0.1,0.4 -0.3,0.5 -0.1,0.1 -0.4,0.3 -0.5,0.3 h -4.1 v 1.9 h -0.1 z m 9.8,-65.7 c -1.9,0 -3.5,-1.6 -3.5,-3.5 0,-1.9 1.6,-3.5 3.5,-3.5 1.9,0 3.5,1.6 3.5,3.5 0,1.8 -1.6,3.5 -3.5,3.5 z m 0,-5.6 c -1.1,0 -2,0.9 -2,2 0,1.1 0.9,2 2,2 1.1,0 2,-0.9 2,-2 -0.1,-1.1 -1,-2 -2,-2 z"
               id="path1037"
               inkscape:connector-curvature="0"
               style="fill:#202019" /></g><g
             id="g1039"><path
               d="m 166.2,257.2 v -66.6 c 0,-3.1 -2.5,-5.5 -5.5,-5.5 h -0.3 c -3.1,0 -5.5,2.5 -5.5,5.5 v 66.6 H 150 v 3.5 h 21.1 v -3.5 h -4.9 z m -5.6,-69.4 c 1.5,0 2.8,1.3 2.8,2.8 0,1.5 -1.3,2.8 -2.8,2.8 -1.5,0 -2.8,-1.3 -2.8,-2.8 0,-1.5 1.3,-2.8 2.8,-2.8 z"
               id="path1041"
               inkscape:connector-curvature="0"
               style="fill:#fafafa" /><path
               d="M 171.1,261.4 H 150 c -0.4,0 -0.8,-0.4 -0.8,-0.8 v -3.5 c 0,-0.4 0.4,-0.8 0.8,-0.8 h 4.1 v -65.9 c 0,-3.5 2.9,-6.4 6.4,-6.4 h 0.1 c 3.5,0 6.4,2.9 6.4,6.4 v 65.9 h 4.1 c 0.4,0 0.8,0.4 0.8,0.8 v 3.5 c 0,0.4 -0.4,0.8 -0.8,0.8 z m -20.3,-1.6 h 19.6 v -1.9 h -4.1 c -0.4,0 -0.8,-0.4 -0.8,-0.8 v -66.6 c 0,-2.6 -2.1,-4.8 -4.8,-4.8 h -0.3 c -2.6,0 -4.8,2.1 -4.8,4.8 v 66.6 c 0,0.3 -0.1,0.4 -0.3,0.5 -0.1,0.1 -0.4,0.3 -0.5,0.3 h -4.1 v 1.9 z m 9.8,-65.7 c -1.9,0 -3.5,-1.6 -3.5,-3.5 0,-1.9 1.6,-3.5 3.5,-3.5 1.9,0 3.5,1.6 3.5,3.5 0,1.8 -1.6,3.5 -3.5,3.5 z m 0,-5.6 c -1.1,0 -2,0.9 -2,2 0,1.1 0.9,2 2,2 1.1,0 2,-0.9 2,-2 -0.1,-1.1 -1,-2 -2,-2 z"
               id="path1043"
               inkscape:connector-curvature="0"
               style="fill:#202019" /></g></g></g></g></g></svg>