<svg xmlns:svg="http://www.w3.org/2000/svg" xmlns="http://www.w3.org/2000/svg" version="1.1" x="0" y="0" viewBox="-575 -154.5 511.5 169" enable-background="new -575 -154.5 1337.9 438" xml:space="preserve" id="svg2" width="100" height="100">
	<metadata id="metadata1360" />
	<defs id="defs1358" />
	<g id="Calque_3_1_" transform="translate(-644.9,-261.9)">
		<g id="Calque_3">
			<g id="génir_indu">
				<g id="contour_tapis">
					<g id="g340">
						<path d="m526.5 204.5h6.5v2.8c0 0.9-0.8 1.5-1.5 1.5H528c-0.9 0-1.5-0.8-1.5-1.5v-2.8z" id="path342" fill="#3d3e3f" />
					</g>
					<g id="g344">
						<path d="m519.7 204.5h6.5v2.8c0 0.9-0.8 1.5-1.5 1.5h-3.4c-0.9 0-1.5-0.8-1.5-1.5v-2.8h-0.1z" id="path346" fill="#3d3e3f" />
					</g>
					<g id="g348">
						<path d="m512.9 204.5h6.5v2.8c0 0.9-0.8 1.5-1.5 1.5h-3.4c-0.9 0-1.5-0.8-1.5-1.5v-2.8h-0.1z" id="path350" fill="#3d3e3f" />
					</g>
					<g id="g352">
						<path d="m506.3 204.5h6.5v2.8c0 0.9-0.8 1.5-1.5 1.5h-3.4c-0.9 0-1.5-0.8-1.5-1.5v-2.8h-0.1z" id="path354" fill="#3d3e3f" />
					</g>
					<g id="g356">
						<path d="m499.5 204.5h6.5v2.8c0 0.9-0.8 1.5-1.5 1.5h-3.4c-0.9 0-1.5-0.8-1.5-1.5v-2.8h-0.1z" id="path358" fill="#3d3e3f" />
					</g>
					<g id="g360">
						<path d="m492.7 204.5h6.5v2.8c0 0.9-0.8 1.5-1.5 1.5h-3.4c-0.9 0-1.5-0.8-1.5-1.5v-2.8h-0.1z" id="path362" fill="#3d3e3f" />
					</g>
					<g id="g364">
						<path d="m486 204.5h6.5v2.8c0 0.9-0.8 1.5-1.5 1.5h-3.4c-0.9 0-1.5-0.8-1.5-1.5v-2.8H486z" id="path366" fill="#3d3e3f" />
					</g>
					<g id="g368">
						<path d="m479.3 204.5h6.5v2.8c0 0.9-0.8 1.5-1.5 1.5H481c-0.9 0-1.5-0.8-1.5-1.5v-2.8h-0.2z" id="path370" fill="#3d3e3f" />
					</g>
					<g id="g372">
						<path d="m472.6 204.5h6.5v2.8c0 0.9-0.8 1.5-1.5 1.5h-3.5c-0.9 0-1.5-0.8-1.5-1.5v-2.8z" id="path374" fill="#3d3e3f" />
					</g>
					<g id="g376">
						<path d="m465.8 204.5h6.5v2.8c0 0.9-0.8 1.5-1.5 1.5h-3.4c-0.9 0-1.5-0.8-1.5-1.5v-2.8h-0.1z" id="path378" fill="#3d3e3f" />
					</g>
					<g id="g380">
						<path d="m459 204.5h6.5v2.8c0 0.9-0.8 1.5-1.5 1.5h-3.4c-0.9 0-1.5-0.8-1.5-1.5v-2.8H459z" id="path382" fill="#3d3e3f" />
					</g>
					<g id="g384">
						<path d="m452.4 204.5h6.5v2.8c0 0.9-0.8 1.5-1.5 1.5H454c-0.9 0-1.5-0.8-1.5-1.5v-2.8h-0.1z" id="path386" fill="#3d3e3f" />
					</g>
					<g id="g388">
						<path d="m445.6 204.5h6.5v2.8c0 0.9-0.8 1.5-1.5 1.5h-3.4c-0.9 0-1.5-0.8-1.5-1.5v-2.8h-0.1z" id="path390" fill="#3d3e3f" />
					</g>
					<g id="g392">
						<path d="m438.8 204.5h6.5v2.8c0 0.9-0.8 1.5-1.5 1.5h-3.4c-0.9 0-1.5-0.8-1.5-1.5v-2.8h-0.1z" id="path394" fill="#3d3e3f" />
					</g>
					<g id="g396">
						<path d="m432 204.5h6.5v2.8c0 0.9-0.8 1.5-1.5 1.5h-3.4c-0.9 0-1.5-0.8-1.5-1.5v-2.8H432z" id="path398" fill="#3d3e3f" />
					</g>
					<g id="g400">
						<path d="m425.4 204.5h6.5v2.8c0 0.9-0.8 1.5-1.5 1.5H427c-0.9 0-1.5-0.8-1.5-1.5v-2.8h-0.1z" id="path402" fill="#3d3e3f" />
					</g>
					<g id="g404">
						<path d="m418.6 204.5h6.5v2.8c0 0.9-0.8 1.5-1.5 1.5h-3.5c-0.9 0-1.5-0.8-1.5-1.5v-2.8z" id="path406" fill="#3d3e3f" />
					</g>
					<g id="g408">
						<path d="m411.8 204.5h6.5v2.8c0 0.9-0.8 1.5-1.5 1.5h-3.4c-0.9 0-1.5-0.8-1.5-1.5v-2.8h-0.1z" id="path410" fill="#3d3e3f" />
					</g>
					<g id="g412">
						<path d="m405.1 204.5h6.5v2.8c0 0.9-0.8 1.5-1.5 1.5h-3.4c-0.9 0-1.5-0.8-1.5-1.5v-2.8h-0.1z" id="path414" fill="#3d3e3f" />
					</g>
					<g id="g416">
						<path d="m398.4 204.5h6.5v2.8c0 0.9-0.8 1.5-1.5 1.5H400c-0.9 0-1.5-0.8-1.5-1.5v-2.8h-0.1z" id="path418" fill="#3d3e3f" />
					</g>
					<g id="g420">
						<path d="m391.6 204.5h6.5v2.8c0 0.9-0.8 1.5-1.5 1.5h-3.4c-0.9 0-1.5-0.8-1.5-1.5v-2.8h-0.1z" id="path422" fill="#3d3e3f" />
					</g>
					<g id="g424">
						<path d="m384.9 204.5h6.5v2.8c0 0.9-0.8 1.5-1.5 1.5h-3.4c-0.9 0-1.5-0.8-1.5-1.5v-2.8h-0.1z" id="path426" fill="#3d3e3f" />
					</g>
					<g id="g428">
						<path d="m378.1 204.5h6.5v2.8c0 0.9-0.8 1.5-1.5 1.5h-3.4c-0.9 0-1.5-0.8-1.5-1.5v-2.8h-0.1z" id="path430" fill="#3d3e3f" />
					</g>
					<g id="g432">
						<path d="m371.4 204.5h6.5v2.8c0 0.9-0.8 1.5-1.5 1.5H373c-0.9 0-1.5-0.8-1.5-1.5v-2.8h-0.1z" id="path434" fill="#3d3e3f" />
					</g>
					<g id="g436">
						<path d="m364.7 204.5h6.5v2.8c0 0.9-0.8 1.5-1.5 1.5h-3.5c-0.9 0-1.5-0.8-1.5-1.5v-2.8z" id="path438" fill="#3d3e3f" />
					</g>
					<g id="g440">
						<path d="m357.9 204.5h6.5v2.8c0 0.9-0.8 1.5-1.5 1.5h-3.4c-0.9 0-1.5-0.8-1.5-1.5v-2.8h-0.1z" id="path442" fill="#3d3e3f" />
					</g>
					<g id="g444">
						<path d="m351.1 204.5h6.5v2.8c0 0.9-0.8 1.5-1.5 1.5h-3.4c-0.9 0-1.5-0.8-1.5-1.5v-2.8h-0.1z" id="path446" fill="#3d3e3f" />
					</g>
					<g id="g448">
						<path d="m344.5 204.5h6.5v2.8c0 0.9-0.8 1.5-1.5 1.5h-3.4c-0.9 0-1.5-0.8-1.5-1.5v-2.8h-0.1z" id="path450" fill="#3d3e3f" />
					</g>
					<g id="g452">
						<path d="m337.7 204.5h6.5v2.8c0 0.9-0.8 1.5-1.5 1.5h-3.4c-0.9 0-1.5-0.8-1.5-1.5v-2.8h-0.1z" id="path454" fill="#3d3e3f" />
					</g>
					<g id="g456">
						<path d="m330.9 204.5h6.5v2.8c0 0.9-0.8 1.5-1.5 1.5h-3.4c-0.9 0-1.5-0.8-1.5-1.5v-2.8h-0.1z" id="path458" fill="#3d3e3f" />
					</g>
					<g id="g460">
						<path d="m324.2 204.5h6.5v2.8c0 0.9-0.8 1.5-1.5 1.5h-3.4c-0.9 0-1.5-0.8-1.5-1.5v-2.8h-0.1z" id="path462" fill="#3d3e3f" />
					</g>
					<g id="g464">
						<path d="m317.5 204.5h6.5v2.8c0 0.9-0.8 1.5-1.5 1.5h-3.4c-0.9 0-1.5-0.8-1.5-1.5v-2.8h-0.1z" id="path466" fill="#3d3e3f" />
					</g>
					<g id="g468">
						<path d="m310.7 204.5h6.5v2.8c0 0.9-0.8 1.5-1.5 1.5h-3.5c-0.9 0-1.5-0.8-1.5-1.5v-2.8z" id="path470" fill="#3d3e3f" />
					</g>
					<g id="g472">
						<path d="m304 204.5h6.5v2.8c0 0.9-0.8 1.5-1.5 1.5h-3.4c-0.9 0-1.5-0.8-1.5-1.5v-2.8H304z" id="path474" fill="#3d3e3f" />
					</g>
					<g id="g476">
						<path d="m297.2 204.5h6.5v2.8c0 0.9-0.8 1.5-1.5 1.5h-3.4c-0.9 0-1.5-0.8-1.5-1.5v-2.8h-0.1z" id="path478" fill="#3d3e3f" />
					</g>
					<g id="g480">
						<path d="m290.5 204.5h6.5v2.8c0 0.9-0.8 1.5-1.5 1.5h-3.4c-0.9 0-1.5-0.8-1.5-1.5v-2.8h-0.1z" id="path482" fill="#3d3e3f" />
					</g>
					<g id="g484">
						<path d="m283.8 204.5h6.5v2.8c0 0.9-0.8 1.5-1.5 1.5h-3.4c-0.9 0-1.5-0.8-1.5-1.5v-2.8h-0.1z" id="path486" fill="#3d3e3f" />
					</g>
					<g id="g488">
						<path d="m277 204.5h6.5v2.8c0 0.9-0.8 1.5-1.5 1.5h-3.4c-0.9 0-1.5-0.8-1.5-1.5v-2.8H277z" id="path490" fill="#3d3e3f" />
					</g>
					<g id="g492">
						<path d="m270.2 204.5h6.5v2.8c0 0.9-0.8 1.5-1.5 1.5h-3.4c-0.9 0-1.5-0.8-1.5-1.5v-2.8h-0.1z" id="path494" fill="#3d3e3f" />
					</g>
					<g id="g496">
						<path d="m263.6 204.5h6.5v2.8c0 0.9-0.8 1.5-1.5 1.5h-3.4c-0.9 0-1.5-0.8-1.5-1.5v-2.8h-0.1z" id="path498" fill="#3d3e3f" />
					</g>
					<g id="g500">
						<path d="m256.8 204.5h6.5v2.8c0 0.9-0.8 1.5-1.5 1.5h-3.5c-0.9 0-1.5-0.8-1.5-1.5v-2.8z" id="path502" fill="#3d3e3f" />
					</g>
					<g id="g504">
						<path d="m250 204.5h6.5v2.8c0 0.9-0.8 1.5-1.5 1.5h-3.4c-0.9 0-1.5-0.8-1.5-1.5v-2.8H250z" id="path506" fill="#3d3e3f" />
					</g>
					<g id="g508">
						<path d="m243.2 204.5h6.5v2.8c0 0.9-0.8 1.5-1.5 1.5h-3.4c-0.9 0-1.5-0.8-1.5-1.5v-2.8h-0.1z" id="path510" fill="#3d3e3f" />
					</g>
					<g id="g512">
						<path d="m236.6 204.5h6.5v2.8c0 0.9-0.8 1.5-1.5 1.5h-3.4c-0.9 0-1.5-0.8-1.5-1.5v-2.8h-0.1z" id="path514" fill="#3d3e3f" />
					</g>
					<g id="g516">
						<path d="m229.8 204.5h6.5v2.8c0 0.9-0.8 1.5-1.5 1.5h-3.4c-0.9 0-1.5-0.8-1.5-1.5v-2.8h-0.1z" id="path518" fill="#3d3e3f" />
					</g>
					<g id="g520">
						<path d="m223.1 204.5h6.5v2.8c0 0.9-0.8 1.5-1.5 1.5h-3.4c-0.9 0-1.5-0.8-1.5-1.5v-2.8h-0.1z" id="path522" fill="#3d3e3f" />
					</g>
					<g id="g524">
						<path d="m216.3 204.5h6.5v2.8c0 0.9-0.8 1.5-1.5 1.5h-3.4c-0.9 0-1.5-0.8-1.5-1.5v-2.8h-0.1z" id="path526" fill="#3d3e3f" />
					</g>
					<g id="g528">
						<path d="m209.6 204.5h6.5v2.8c0 0.9-0.8 1.5-1.5 1.5h-3.4c-0.9 0-1.5-0.8-1.5-1.5v-2.8h-0.1z" id="path530" fill="#3d3e3f" />
					</g>
					<g id="g532">
						<path d="m202.9 204.5h6.5v2.8c0 0.9-0.8 1.5-1.5 1.5h-3.5c-0.9 0-1.5-0.8-1.5-1.5v-2.8z" id="path534" fill="#3d3e3f" />
					</g>
					<g id="g536">
						<path d="m196.1 204.5h6.5v2.8c0 0.9-0.8 1.5-1.5 1.5h-3.4c-0.9 0-1.5-0.8-1.5-1.5v-2.8h-0.1z" id="path538" fill="#3d3e3f" />
					</g>
					<g id="g540">
						<path d="m189.3 204.5h6.5v2.8c0 0.9-0.8 1.5-1.5 1.5h-3.4c-0.9 0-1.5-0.8-1.5-1.5v-2.8h-0.1z" id="path542" fill="#3d3e3f" />
					</g>
					<g id="g544">
						<path d="m182.7 204.5h6.5v2.8c0 0.9-0.8 1.5-1.5 1.5h-3.4c-0.9 0-1.5-0.8-1.5-1.5v-2.8h-0.1z" id="path546" fill="#3d3e3f" />
					</g>
					<g id="g548">
						<path d="m175.9 204.5h6.5v2.8c0 0.9-0.8 1.5-1.5 1.5h-3.4c-0.9 0-1.5-0.8-1.5-1.5v-2.8h-0.1z" id="path550" fill="#3d3e3f" />
					</g>
					<g id="g552">
						<path d="m169.1 204.5h6.5v2.8c0 0.9-0.8 1.5-1.5 1.5h-3.4c-0.9 0-1.5-0.8-1.5-1.5v-2.8h-0.1z" id="path554" fill="#3d3e3f" />
					</g>
					<g id="g556">
						<path d="m162.3 204.5h6.5v2.8c0 0.9-0.8 1.5-1.5 1.5H164c-0.9 0-1.5-0.8-1.5-1.5v-2.8h-0.2z" id="path558" fill="#3d3e3f" />
					</g>
					<g id="g560">
						<path d="m155.7 204.5h6.5v2.8c0 0.9-0.8 1.5-1.5 1.5h-3.4c-0.9 0-1.5-0.8-1.5-1.5v-2.8h-0.1z" id="path562" fill="#3d3e3f" />
					</g>
					<g id="g564">
						<path d="m149.9 203.3c0 0 0.1 0 0.3 0.1 0.1 0 0.4 0.1 0.6 0.3 0.5 0.1 1.1 0.4 1.9 0.5 0.8 0.1 1.4 0.3 1.9 0.3 0.3 0 0.5 0 0.6 0 0.1 0 0.3 0 0.3 0v2.8c0 0.4-0.1 0.8-0.5 1.1-0.4 0.3-0.8 0.4-1.3 0.4 0 0-1-0.1-1.9-0.3-0.3 0-0.5-0.1-0.8-0.1-0.3 0-0.4-0.1-0.6-0.1-0.4-0.1-0.6-0.1-0.6-0.1-0.3-0.1-0.4-0.3-0.6-0.4-0.1-0.1-0.3-0.4-0.4-0.5-0.1-0.4-0.3-0.8 0-1.3l1.1-2.7z" id="path566" fill="#3d3e3f" />
					</g>
					<g id="g568">
						<path d="m145.3 200c0 0 0 0.1 0.1 0.1 0.1 0.1 0.3 0.3 0.5 0.5 0.4 0.4 0.9 0.9 1.5 1.3 0.6 0.4 1.1 0.8 1.6 1 0.3 0.1 0.4 0.3 0.6 0.3 0.1 0.1 0.3 0.1 0.3 0.1l-1.1 2.5c-0.1 0.4-0.5 0.6-0.9 0.8-0.4 0.1-0.9 0.1-1.3-0.1 0 0-0.9-0.5-1.6-1.1-0.3-0.1-0.4-0.3-0.6-0.4-0.1-0.1-0.4-0.3-0.5-0.4-0.3-0.3-0.5-0.4-0.5-0.4-0.4-0.4-0.5-0.8-0.5-1.1 0-0.4 0.1-0.8 0.5-1.1l1.9-2z" id="path570" fill="#3d3e3f" />
					</g>
					<g id="g572">
						<path d="m142.4 194.9c0 0 0 0.1 0.1 0.3 0 0.1 0 0.1 0.1 0.3 0 0.1 0.1 0.3 0.1 0.4 0.1 0.5 0.5 1.1 0.9 1.8 0.1 0.3 0.4 0.6 0.5 0.9 0.3 0.3 0.4 0.5 0.5 0.8 0.1 0.3 0.3 0.4 0.4 0.5 0.1 0.1 0.1 0.1 0.1 0.1l-2.1 1.9c-0.4 0.3-0.8 0.4-1.1 0.4-0.3 0-0.4-0.1-0.6-0.3-0.3-0.1-0.4-0.3-0.5-0.5 0 0-0.1-0.3-0.4-0.5-0.3-0.3-0.5-0.8-0.8-1.1-0.1-0.3-0.3-0.4-0.4-0.6-0.1-0.3-0.3-0.4-0.3-0.5-0.1-0.4-0.3-0.5-0.3-0.5-0.3-0.5-0.3-0.9 0-1.3 0.1-0.4 0.5-0.6 0.9-0.8l2.9-1.3z" id="path574" fill="#3d3e3f" />
					</g>
					<g id="g576">
						<path d="m141.8 189.2c0 0 0 0.1 0 0.3 0 0.2 0 0.1 0 0.3 0 0.2 0 0.3 0 0.4 0 0.1 0 0.3 0 0.4 0 0.1 0 0.1 0 0.3 0 0.2 0 0.1 0 0.3 0 0.1 0 0.4 0 0.5 0 0.1 0 0.4 0 0.5 0.1 0.8 0.1 1.4 0.4 1.9 0 0.3 0.1 0.5 0.1 0.6 0 0.1 0.1 0.3 0.1 0.3l-2.6 0.9c-0.4 0.1-0.9 0.1-1.1-0.1-0.4-0.3-0.6-0.6-0.8-1.1 0 0 0-0.3-0.1-0.6 0-0.1-0.1-0.4-0.1-0.6 0-0.3-0.1-0.5-0.1-0.8 0-0.3 0-0.5 0-0.8 0-0.3 0-0.5 0-0.6 0-0.4 0-0.6 0-0.6 0-0.3 0-0.5 0.1-0.6 0.1-0.3 0.3-0.4 0.4-0.5 0.3-0.3 0.8-0.5 1.1-0.4l2.6 0z" id="path578" fill="#3d3e3f" />
					</g>
					<g id="g580">
						<path d="m143.5 183.6c0 0 0 0.1-0.1 0.3-0.1 0.1-0.1 0.4-0.3 0.6-0.3 0.5-0.5 1.1-0.8 1.8-0.3 0.6-0.4 1.4-0.5 1.9 0 0.3-0.1 0.5-0.1 0.6 0 0.1 0 0.3 0 0.3l-2.8-0.3c-0.4 0-0.8-0.3-1-0.6-0.3-0.4-0.4-0.8-0.3-1.3 0 0 0.3-1 0.5-1.9 0.1-0.3 0.1-0.5 0.3-0.6 0.1-0.3 0.1-0.4 0.3-0.6 0.1-0.4 0.3-0.5 0.3-0.5 0.3-0.5 0.5-0.8 1-0.9 0.4-0.1 0.9-0.1 1.3 0.1l2.2 1.1z" id="path582" fill="#3d3e3f" />
					</g>
					<g id="g584">
						<path d="m147.3 179.3c0 0-0.1 0-0.3 0.1-0.1 0.1-0.3 0.3-0.5 0.4-0.4 0.4-0.9 0.9-1.4 1.4-0.5 0.5-0.9 1.1-1.3 1.5-0.1 0.3-0.3 0.4-0.4 0.5-0.1 0.1-0.1 0.3-0.1 0.3L141 182c-0.4-0.3-0.6-0.6-0.8-1-0.1-0.4 0-0.9 0.3-1.3 0 0 0.6-0.8 1.3-1.5 0.4-0.4 0.6-0.8 0.9-1 0.1-0.1 0.3-0.3 0.4-0.3 0.1-0.1 0.1-0.1 0.1-0.1 0.1-0.1 0.4-0.3 0.6-0.4 0.2-0.1 0.4-0.1 0.6-0.1 0.4 0 0.8 0.3 1 0.6l1.9 2.4z" id="path586" fill="#3d3e3f" />
					</g>
					<g id="g588">
						<path d="m152.6 176.9c0 0-0.1 0-0.3 0-0.1 0-0.4 0.1-0.6 0.1-0.5 0.1-1.1 0.4-1.9 0.6-0.6 0.3-1.3 0.6-1.8 0.9-0.5 0.3-0.8 0.5-0.8 0.5l-1.6-2.3c-0.3-0.4-0.4-0.8-0.3-1.1 0.1-0.4 0.4-0.8 0.8-1 0 0 0.9-0.5 1.8-0.9 0.3-0.1 0.5-0.3 0.6-0.3 0.3-0.1 0.4-0.1 0.6-0.3 0.4-0.1 0.6-0.3 0.6-0.3 0.5-0.1 0.9-0.1 1.3 0.1 0.4 0.3 0.6 0.5 0.8 1l0.8 3z" id="path590" fill="#3d3e3f" />
					</g>
					<g id="g592">
						<path d="m158.8 176.6c0 0-1.6 0-3.3 0-0.3 0-0.4 0-0.5 0-0.1 0-0.4 0-0.5 0-0.1 0-0.4 0-0.5 0-0.1 0-0.3 0-0.4 0-0.3 0-0.5 0.1-0.6 0.1-0.1 0-0.3 0-0.3 0l-0.5-2.8c-0.1-0.4 0-0.9 0.3-1.1 0.3-0.4 0.6-0.5 1.1-0.6 0 0 0.3 0 0.6 0 0.1 0 0.4 0 0.6 0 0.3 0 0.5 0 0.8 0 0.9 0 1.8 0 1.8 0 0.9 0 1.5 0.8 1.5 1.5v2.9h-0.1z" id="path594" fill="#3d3e3f" />
					</g>
					<g id="g596">
						<path d="m165.6 176.6h-6.5v-2.8c0-0.9 0.8-1.5 1.5-1.5h3.4c0.9 0 1.5 0.8 1.5 1.5v2.8h0.1z" id="path598" fill="#3d3e3f" />
					</g>
					<g id="g600">
						<path d="m172.4 176.6h-6.5v-2.8c0-0.9 0.8-1.5 1.5-1.5h3.4c0.9 0 1.5 0.8 1.5 1.5v2.8h0.1z" id="path602" fill="#3d3e3f" />
					</g>
					<g id="g604">
						<path d="m179 176.6h-6.5v-2.8c0-0.9 0.8-1.5 1.5-1.5h3.4c0.9 0 1.5 0.8 1.5 1.5v2.8h0.1z" id="path606" fill="#3d3e3f" />
					</g>
					<g id="g608">
						<path d="m185.8 176.6h-6.5v-2.8c0-0.9 0.8-1.5 1.5-1.5h3.4c0.9 0 1.5 0.8 1.5 1.5v2.8h0.1z" id="path610" fill="#3d3e3f" />
					</g>
					<g id="g612">
						<path d="M192.6 176.6H186v-2.8c0-0.9 0.8-1.5 1.5-1.5h3.4c0.9 0 1.5 0.8 1.5 1.5v2.8h0.2z" id="path614" fill="#3d3e3f" />
					</g>
					<g id="g616">
						<path d="m199.3 176.6h-6.5v-2.8c0-0.9 0.8-1.5 1.5-1.5h3.4c0.9 0 1.5 0.8 1.5 1.5v2.8h0.1z" id="path618" fill="#3d3e3f" />
					</g>
					<g id="g620">
						<path d="m206 176.6h-6.5v-2.8c0-0.9 0.8-1.5 1.5-1.5h3.4c0.9 0 1.5 0.8 1.5 1.5v2.8h0.1z" id="path622" fill="#3d3e3f" />
					</g>
					<g id="g624">
						<path d="m212.8 176.6h-6.5v-2.8c0-0.9 0.8-1.5 1.5-1.5h3.4c0.9 0 1.5 0.8 1.5 1.5v2.8h0.1z" id="path626" fill="#3d3e3f" />
					</g>
					<g id="g628">
						<path d="M219.5 176.6H213v-2.8c0-0.9 0.8-1.5 1.5-1.5h3.4c0.9 0 1.5 0.8 1.5 1.5v2.8h0.1z" id="path630" fill="#3d3e3f" />
					</g>
					<g id="g632">
						<path d="m226.3 176.6h-6.5v-2.8c0-0.9 0.8-1.5 1.5-1.5h3.4c0.9 0 1.5 0.8 1.5 1.5v2.8h0.1z" id="path634" fill="#3d3e3f" />
					</g>
					<g id="g636">
						<path d="m233 176.6h-6.5v-2.8c0-0.9 0.8-1.5 1.5-1.5h3.4c0.9 0 1.5 0.8 1.5 1.5v2.8h0.1z" id="path638" fill="#3d3e3f" />
					</g>
					<g id="g640">
						<path d="m239.7 176.6h-6.5v-2.8c0-0.9 0.8-1.5 1.5-1.5h3.4c0.9 0 1.5 0.8 1.5 1.5v2.8h0.1z" id="path642" fill="#3d3e3f" />
					</g>
					<g id="g644">
						<path d="M246.5 176.6H240v-2.8c0-0.9 0.8-1.5 1.5-1.5h3.4c0.9 0 1.5 0.8 1.5 1.5v2.8h0.1z" id="path646" fill="#3d3e3f" />
					</g>
					<g id="g648">
						<path d="m253.3 176.6h-6.5v-2.8c0-0.9 0.8-1.5 1.5-1.5h3.4c0.9 0 1.5 0.8 1.5 1.5v2.8h0.1z" id="path650" fill="#3d3e3f" />
					</g>
					<g id="g652">
						<path d="m259.9 176.6h-6.5v-2.8c0-0.9 0.8-1.5 1.5-1.5h3.4c0.9 0 1.5 0.8 1.5 1.5v2.8h0.1z" id="path654" fill="#3d3e3f" />
					</g>
					<g id="g656">
						<path d="m266.7 176.6h-6.5v-2.8c0-0.9 0.8-1.5 1.5-1.5h3.4c0.9 0 1.5 0.8 1.5 1.5v2.8h0.1z" id="path658" fill="#3d3e3f" />
					</g>
					<g id="g660">
						<path d="M273.5 176.6H267v-2.8c0-0.9 0.8-1.5 1.5-1.5h3.4c0.9 0 1.5 0.8 1.5 1.5v2.8h0.1z" id="path662" fill="#3d3e3f" />
					</g>
					<g id="g664">
						<path d="m280.3 176.6h-6.5v-2.8c0-0.9 0.8-1.5 1.5-1.5h3.4c0.9 0 1.5 0.8 1.5 1.5v2.8h0.1z" id="path666" fill="#3d3e3f" />
					</g>
					<g id="g668">
						<path d="m286.9 176.6h-6.5v-2.8c0-0.9 0.8-1.5 1.5-1.5h3.4c0.9 0 1.5 0.8 1.5 1.5v2.8h0.1z" id="path670" fill="#3d3e3f" />
					</g>
					<g id="g672">
						<path d="m293.7 176.6h-6.5v-2.8c0-0.9 0.8-1.5 1.5-1.5h3.4c0.9 0 1.5 0.8 1.5 1.5v2.8h0.1z" id="path674" fill="#3d3e3f" />
					</g>
					<g id="g676">
						<path d="m300.4 176.6h-6.5v-2.8c0-0.9 0.8-1.5 1.5-1.5h3.4c0.9 0 1.5 0.8 1.5 1.5v2.8h0.1z" id="path678" fill="#3d3e3f" />
					</g>
					<g id="g680">
						<path d="m307.2 176.6h-6.5v-2.8c0-0.9 0.8-1.5 1.5-1.5h3.4c0.9 0 1.5 0.8 1.5 1.5v2.8h0.1z" id="path682" fill="#3d3e3f" />
					</g>
					<g id="g684">
						<path d="m313.9 176.6h-6.5v-2.8c0-0.9 0.8-1.5 1.5-1.5h3.4c0.9 0 1.5 0.8 1.5 1.5v2.8h0.1z" id="path686" fill="#3d3e3f" />
					</g>
					<g id="g688">
						<path d="m320.6 176.6h-6.5v-2.8c0-0.9 0.8-1.5 1.5-1.5h3.4c0.9 0 1.5 0.8 1.5 1.5v2.8h0.1z" id="path690" fill="#3d3e3f" />
					</g>
					<g id="g692">
						<path d="m327.4 176.6h-6.5v-2.8c0-0.9 0.8-1.5 1.5-1.5h3.4c0.9 0 1.5 0.8 1.5 1.5v2.8h0.1z" id="path694" fill="#3d3e3f" />
					</g>
					<g id="g696">
						<path d="m334.2 176.6h-6.5v-2.8c0-0.9 0.8-1.5 1.5-1.5h3.4c0.9 0 1.5 0.8 1.5 1.5v2.8h0.1z" id="path698" fill="#3d3e3f" />
					</g>
					<g id="g700">
						<path d="m340.8 176.6h-6.5v-2.8c0-0.9 0.8-1.5 1.5-1.5h3.4c0.9 0 1.5 0.8 1.5 1.5v2.8h0.1z" id="path702" fill="#3d3e3f" />
					</g>
					<g id="g704">
						<path d="m347.6 176.6h-6.5v-2.8c0-0.9 0.8-1.5 1.5-1.5h3.4c0.9 0 1.5 0.8 1.5 1.5v2.8h0.1z" id="path706" fill="#3d3e3f" />
					</g>
					<g id="g708">
						<path d="m354.4 176.6h-6.5v-2.8c0-0.9 0.8-1.5 1.5-1.5h3.4c0.9 0 1.5 0.8 1.5 1.5v2.8h0.1z" id="path710" fill="#3d3e3f" />
					</g>
					<g id="g712">
						<path d="m361.2 176.6h-6.5v-2.8c0-0.9 0.8-1.5 1.5-1.5h3.4c0.9 0 1.5 0.8 1.5 1.5v2.8h0.1z" id="path714" fill="#3d3e3f" />
					</g>
					<g id="g716">
						<path d="m367.8 176.6h-6.5v-2.8c0-0.9 0.8-1.5 1.5-1.5h3.4c0.9 0 1.5 0.8 1.5 1.5v2.8h0.1z" id="path718" fill="#3d3e3f" />
					</g>
					<g id="g720">
						<path d="m374.6 176.6h-6.5v-2.8c0-0.9 0.8-1.5 1.5-1.5h3.4c0.9 0 1.5 0.8 1.5 1.5v2.8h0.1z" id="path722" fill="#3d3e3f" />
					</g>
					<g id="g724">
						<path d="m381.4 176.6h-6.5v-2.8c0-0.9 0.8-1.5 1.5-1.5h3.4c0.9 0 1.5 0.8 1.5 1.5v2.8h0.1z" id="path726" fill="#3d3e3f" />
					</g>
					<g id="g728">
						<path d="m388.1 176.6h-6.5v-2.8c0-0.9 0.8-1.5 1.5-1.5h3.4c0.9 0 1.5 0.8 1.5 1.5v2.8h0.1z" id="path730" fill="#3d3e3f" />
					</g>
					<g id="g732">
						<path d="m394.8 176.6h-6.5v-2.8c0-0.9 0.8-1.5 1.5-1.5h3.4c0.9 0 1.5 0.8 1.5 1.5v2.8h0.1z" id="path734" fill="#3d3e3f" />
					</g>
					<g id="g736">
						<path d="M401.6 176.6H395v-2.8c0-0.9 0.8-1.5 1.5-1.5h3.4c0.9 0 1.5 0.8 1.5 1.5v2.8h0.2z" id="path738" fill="#3d3e3f" />
					</g>
					<g id="g740">
						<path d="m408.3 176.6h-6.5v-2.8c0-0.9 0.8-1.5 1.5-1.5h3.4c0.9 0 1.5 0.8 1.5 1.5v2.8h0.1z" id="path742" fill="#3d3e3f" />
					</g>
					<g id="g744">
						<path d="m415.1 176.6h-6.5v-2.8c0-0.9 0.8-1.5 1.5-1.5h3.4c0.9 0 1.5 0.8 1.5 1.5v2.8h0.1z" id="path746" fill="#3d3e3f" />
					</g>
					<g id="g748">
						<path d="m421.7 176.6h-6.5v-2.8c0-0.9 0.8-1.5 1.5-1.5h3.4c0.9 0 1.5 0.8 1.5 1.5v2.8h0.1z" id="path750" fill="#3d3e3f" />
					</g>
					<g id="g752">
						<path d="M428.5 176.6H422v-2.8c0-0.9 0.8-1.5 1.5-1.5h3.4c0.9 0 1.5 0.8 1.5 1.5v2.8h0.1z" id="path754" fill="#3d3e3f" />
					</g>
					<g id="g756">
						<path d="m435.3 176.6h-6.5v-2.8c0-0.9 0.8-1.5 1.5-1.5h3.4c0.9 0 1.5 0.8 1.5 1.5v2.8h0.1z" id="path758" fill="#3d3e3f" />
					</g>
					<g id="g760">
						<path d="m442.1 176.6h-6.5v-2.8c0-0.9 0.8-1.5 1.5-1.5h3.4c0.9 0 1.5 0.8 1.5 1.5v2.8h0.1z" id="path762" fill="#3d3e3f" />
					</g>
					<g id="g764">
						<path d="m448.7 176.6h-6.5v-2.8c0-0.9 0.8-1.5 1.5-1.5h3.4c0.9 0 1.5 0.8 1.5 1.5v2.8h0.1z" id="path766" fill="#3d3e3f" />
					</g>
					<g id="g768">
						<path d="M455.5 176.6H449v-2.8c0-0.9 0.8-1.5 1.5-1.5h3.4c0.9 0 1.5 0.8 1.5 1.5v2.8h0.1z" id="path770" fill="#3d3e3f" />
					</g>
					<g id="g772">
						<path d="m462.3 176.6h-6.5v-2.8c0-0.9 0.8-1.5 1.5-1.5h3.4c0.9 0 1.5 0.8 1.5 1.5v2.8h0.1z" id="path774" fill="#3d3e3f" />
					</g>
					<g id="g776">
						<path d="m469 176.6h-6.5v-2.8c0-0.9 0.8-1.5 1.5-1.5h3.4c0.9 0 1.5 0.8 1.5 1.5v2.8h0.1z" id="path778" fill="#3d3e3f" />
					</g>
					<g id="g780">
						<path d="m475.8 176.6h-6.5v-2.8c0-0.9 0.8-1.5 1.5-1.5h3.4c0.9 0 1.5 0.8 1.5 1.5v2.8h0.1z" id="path782" fill="#3d3e3f" />
					</g>
					<g id="g784">
						<path d="M482.5 176.6H476v-2.8c0-0.9 0.8-1.5 1.5-1.5h3.4c0.9 0 1.5 0.8 1.5 1.5v2.8h0.1z" id="path786" fill="#3d3e3f" />
					</g>
					<g id="g788">
						<path d="m489.2 176.6h-6.5v-2.8c0-0.9 0.8-1.5 1.5-1.5h3.4c0.9 0 1.5 0.8 1.5 1.5v2.8h0.1z" id="path790" fill="#3d3e3f" />
					</g>
					<g id="g792">
						<path d="m496 176.6h-6.5v-2.8c0-0.9 0.8-1.5 1.5-1.5h3.4c0.9 0 1.5 0.8 1.5 1.5v2.8h0.1z" id="path794" fill="#3d3e3f" />
					</g>
					<g id="g796">
						<path d="m502.8 176.6h-6.5v-2.8c0-0.9 0.8-1.5 1.5-1.5h3.4c0.9 0 1.5 0.8 1.5 1.5v2.8h0.1z" id="path798" fill="#3d3e3f" />
					</g>
					<g id="g800">
						<path d="m509.4 176.6h-6.5v-2.8c0-0.9 0.8-1.5 1.5-1.5h3.4c0.9 0 1.5 0.8 1.5 1.5v2.8h0.1z" id="path802" fill="#3d3e3f" />
					</g>
					<g id="g804">
						<path d="m516.2 176.6h-6.5v-2.8c0-0.9 0.8-1.5 1.5-1.5h3.4c0.9 0 1.5 0.8 1.5 1.5v2.8h0.1z" id="path806" fill="#3d3e3f" />
					</g>
					<g id="g808">
						<path d="m523 176.6h-6.5v-2.8c0-0.9 0.8-1.5 1.5-1.5h3.4c0.9 0 1.5 0.8 1.5 1.5v2.8h0.1z" id="path810" fill="#3d3e3f" />
					</g>
					<g id="g812">
						<path d="m529.8 176.6h-6.5v-2.8c0-0.9 0.8-1.5 1.5-1.5h3.4c0.9 0 1.5 0.8 1.5 1.5v2.8h0.1z" id="path814" fill="#3d3e3f" />
					</g>
					<g id="g816">
						<path d="m536 176.9c0 0-0.1 0-0.3 0-0.1 0-0.4-0.1-0.6-0.1-0.5-0.1-1.3-0.1-2-0.1-1.6 0-3.3 0-3.3 0v-2.8c0-0.9 0.8-1.5 1.5-1.5 0 0 0.9 0 1.8 0 0.5 0 1 0 1.4 0 0.4 0 0.6 0 0.6 0 0.5 0 0.9 0.3 1.1 0.6 0.3 0.4 0.4 0.8 0.3 1.1l-0.5 2.8z" id="path818" fill="#3d3e3f" />
					</g>
					<g id="g820">
						<path d="m541.3 179.3c0 0-0.1 0-0.3-0.1-0.1-0.1-0.3-0.3-0.5-0.4-0.3-0.1-0.5-0.3-0.8-0.5-0.3-0.1-0.6-0.4-0.9-0.5-0.6-0.3-1.3-0.5-1.9-0.6-0.1 0-0.3-0.1-0.4-0.1-0.1 0-0.3 0-0.3 0-0.1 0-0.3 0-0.3 0l0.6-2.8c0.1-0.4 0.4-0.8 0.8-1 0.4-0.3 0.9-0.3 1.3-0.1 0 0 0.3 0.1 0.6 0.3 0.1 0 0.4 0.1 0.6 0.3 0.3 0.1 0.5 0.1 0.6 0.3 0.5 0.3 0.9 0.4 1.3 0.6 0.4 0.1 0.5 0.3 0.5 0.3 0.3 0.1 0.4 0.3 0.5 0.5 0.1 0.1 0.3 0.4 0.3 0.6 0.1 0.4 0 0.9-0.3 1.1l-1.4 2.1z" id="path822" fill="#3d3e3f" />
					</g>
					<g id="g824">
						<path d="m545.2 183.5c0 0 0-0.1-0.1-0.3-0.1-0.1-0.3-0.4-0.4-0.5-0.3-0.4-0.8-1-1.1-1.5-0.5-0.5-1-1-1.4-1.4-0.3-0.1-0.4-0.3-0.5-0.4-0.1-0.1-0.3-0.1-0.3-0.1L543 177c0.3-0.4 0.6-0.5 1-0.6 0.4 0 0.9 0.1 1.3 0.5 0 0 0.8 0.6 1.4 1.4 0.1 0.1 0.4 0.4 0.5 0.5 0.1 0.1 0.3 0.4 0.4 0.5 0.1 0.1 0.3 0.3 0.3 0.4 0 0.1 0.1 0.1 0.1 0.1 0.3 0.4 0.4 0.9 0.3 1.3-0.1 0.4-0.4 0.8-0.8 1l-2.3 1.4z" id="path826" fill="#3d3e3f" />
					</g>
					<g id="g828">
						<path d="m546.9 189c0 0 0-0.1 0-0.3 0-0.2 0-0.4-0.1-0.6-0.1-0.5-0.3-1.3-0.5-1.9-0.3-0.6-0.5-1.4-0.8-1.8-0.1-0.3-0.3-0.4-0.3-0.6-0.1-0.1-0.1-0.3-0.1-0.3l2.4-1.4c0.4-0.3 0.8-0.3 1.3-0.1 0.3 0.1 0.4 0.3 0.5 0.4 0.1 0.1 0.3 0.4 0.4 0.6 0 0 0.1 0.3 0.3 0.6 0.1 0.1 0.1 0.4 0.3 0.6 0.1 0.3 0.1 0.5 0.3 0.6 0.3 0.9 0.5 1.9 0.5 1.9 0.1 0.5 0 1-0.3 1.3-0.3 0.4-0.6 0.6-1 0.6l-2.9 0.4z" id="path830" fill="#3d3e3f" />
					</g>
					<g id="g832">
						<path d="m546.4 194.8c0 0 0-0.1 0.1-0.3 0-0.1 0.1-0.4 0.1-0.6 0.1-0.5 0.3-1.3 0.4-1.9 0-0.4 0-0.8 0-1 0-0.1 0-0.4 0-0.5 0-0.1 0-0.3 0-0.5 0-0.1 0-0.3 0-0.4 0-0.1 0-0.3 0-0.3 0-0.1 0-0.3 0-0.3l2.8-0.3c0.4 0 0.9 0.1 1.1 0.4 0.1 0.1 0.3 0.4 0.4 0.5 0 0.1 0.1 0.3 0.1 0.4 0 0.1 0 0.3 0 0.4 0 0 0 0 0 0.1 0 0.1 0 0.3 0 0.4 0 0.1 0 0.4 0 0.6 0 0.3 0 0.5 0 0.8-0.1 1-0.3 1.9-0.3 1.9-0.1 0.5-0.4 0.9-0.8 1.1-0.4 0.3-0.8 0.3-1.1 0.1l-2.8-0.6z" id="path834" fill="#3d3e3f" />
					</g>
					<g id="g836">
						<path d="m543.6 199.8c0 0 0-0.1 0.1-0.1 0.1-0.1 0.3-0.3 0.4-0.5 0.1-0.3 0.4-0.5 0.5-0.8 0.1-0.3 0.4-0.6 0.5-0.9 0.4-0.6 0.6-1.3 0.9-1.8 0.1-0.3 0.1-0.5 0.3-0.6 0-0.1 0.1-0.3 0.1-0.3l2.6 0.9c0.4 0.1 0.8 0.4 0.9 0.9 0.1 0.4 0.1 0.9 0 1.3 0 0-0.1 0.3-0.3 0.5-0.1 0.4-0.4 0.8-0.6 1.1-0.2 0.3-0.5 0.9-0.8 1.1-0.3 0.3-0.4 0.5-0.4 0.5-0.1 0.3-0.4 0.4-0.5 0.5-0.3 0.1-0.4 0.3-0.6 0.3-0.4 0-0.9-0.1-1.1-0.4l-2-1.7z" id="path838" fill="#3d3e3f" />
					</g>
					<g id="g840">
						<path d="m538.9 203.2c0 0 0.4-0.1 0.8-0.4 0.5-0.3 1.1-0.6 1.6-1 0.6-0.4 1.1-0.9 1.5-1.3 0.3-0.1 0.4-0.4 0.5-0.5 0.1-0.1 0.1-0.1 0.1-0.1l2 1.9c0.4 0.3 0.5 0.6 0.5 1.1 0 0.4-0.3 0.9-0.5 1.1 0 0-0.1 0.1-0.5 0.4-0.1 0.1-0.3 0.3-0.5 0.4-0.1 0.1-0.4 0.3-0.6 0.4-0.8 0.6-1.6 1-1.6 1-0.4 0.3-0.9 0.3-1.3 0.1-0.4-0.1-0.8-0.4-0.9-0.8l-1.1-2.3z" id="path842" fill="#3d3e3f" />
					</g>
					<g id="g844">
						<path d="m533.3 204.5c0 0 0.1 0 0.3 0 0.2 0 0.4 0 0.6 0 0.5 0 1.3-0.1 1.9-0.3 0.8-0.1 1.4-0.4 1.9-0.5 0.3-0.1 0.5-0.1 0.6-0.3 0.1 0 0.1 0 0.1-0.1l0 0 1.1 2.5c0.1 0.4 0.1 0.9 0 1.3-0.1 0.1-0.3 0.4-0.4 0.5-0.1 0.1-0.4 0.3-0.6 0.4 0 0-0.3 0.1-0.6 0.1-0.4 0.1-0.9 0.3-1.3 0.4-0.5 0.1-1 0.1-1.4 0.3-0.1 0-0.4 0-0.5 0-0.1 0-0.1 0-0.1 0-0.5 0-0.9-0.1-1.3-0.4-0.4-0.3-0.5-0.6-0.5-1.1v-2.8h0.2z" id="path846" fill="#3d3e3f" />
					</g>
				</g>
				<g id="fond_rouages">
					<path d="m139.6 190.7c0 8.8 7.2 15.9 15.9 15.9h377.7c8.8 0 15.9-7.2 15.9-15.9v-0.1H139.6v0.1z" id="path849" fill="#afafaf" />
					<path d="m139.5 190.4c0-8.8 7.2-15.9 15.9-15.9h377.7c8.8 0 15.9 7.2 15.9 15.9v0.1H139.5v-0.1z" id="path851" fill="#e4e4e4" />
				</g>
				<g id="rouages_tapis_bleu_x26_rose">
					<g id="g854">
						<g id="g856">
							<circle cx="283" cy="190.5" r="14.2" id="circle858" d="m 297.2,190.5 c 0,7.84244 -6.35756,14.2 -14.2,14.2 -7.84244,0 -14.2,-6.35756 -14.2,-14.2 0,-7.84244 6.35756,-14.2 14.2,-14.2 7.84244,0 14.2,6.35756 14.2,14.2 z" fill="#f4adb7" />
							<path d="m283 205.5c-8.3 0-15.1-6.8-15.1-15.1 0-8.3 6.8-15.1 15.1-15.1 8.3 0 15.1 6.8 15.1 15.1-0.2 8.4-6.8 15.1-15.1 15.1zm0-28.4c-7.4 0-13.4 6-13.4 13.4 0 7.4 6 13.4 13.4 13.4 7.4 0 13.4-6 13.4-13.4 0-7.4-6-13.4-13.4-13.4z" id="path860" fill="#202019" />
						</g>
						<circle enable-background="new    " cx="283" cy="190.5" r="5.6" id="circle862" d="m 288.6,190.5 c 0,3.09279 -2.50721,5.6 -5.6,5.6 -3.09279,0 -5.6,-2.50721 -5.6,-5.6 0,-3.09279 2.50721,-5.6 5.6,-5.6 3.09279,0 5.6,2.50721 5.6,5.6 z" style="fill:#fafafa;opacity:0.5" />
					</g>
					<g id="g864">
						<g id="g866">
							<circle cx="160.6" cy="190.5" r="14.2" id="circle868" d="m 174.80001,190.5 c 0,7.84244 -6.35756,14.2 -14.2,14.2 -7.84245,0 -14.2,-6.35756 -14.2,-14.2 0,-7.84244 6.35755,-14.2 14.2,-14.2 7.84244,0 14.2,6.35756 14.2,14.2 z" fill="#f4adb7" />
							<path d="m160.6 205.5c-8.3 0-15.1-6.8-15.1-15.1 0-8.3 6.8-15.1 15.1-15.1 8.3 0 15.1 6.8 15.1 15.1-0.2 8.4-6.8 15.1-15.1 15.1zm0-28.4c-7.4 0-13.4 6-13.4 13.4 0 7.4 6 13.4 13.4 13.4 7.4 0 13.4-6 13.4-13.4 0-7.4-6-13.4-13.4-13.4z" id="path870" fill="#202019" />
						</g>
						<circle enable-background="new    " cx="160.6" cy="190.5" r="5.6" id="circle872" d="m 166.20001,190.5 c 0,3.09279 -2.50721,5.6 -5.6,5.6 -3.0928,0 -5.6,-2.50721 -5.6,-5.6 0,-3.09279 2.5072,-5.6 5.6,-5.6 3.09279,0 5.6,2.50721 5.6,5.6 z" style="fill:#fafafa;opacity:0.5" />
					</g>
					<g id="g874">
						<g id="g876">
							<circle cx="221.8" cy="190.5" r="14.2" id="circle878" d="m 236,190.5 c 0,7.84244 -6.35755,14.2 -14.2,14.2 -7.84244,0 -14.2,-6.35756 -14.2,-14.2 0,-7.84244 6.35756,-14.2 14.2,-14.2 7.84245,0 14.2,6.35756 14.2,14.2 z" fill="#63c4e1" />
							<path d="m221.8 205.5c-8.3 0-15.1-6.8-15.1-15.1 0-8.3 6.8-15.1 15.1-15.1 8.3 0 15.1 6.8 15.1 15.1-0.2 8.4-6.8 15.1-15.1 15.1zm0-28.4c-7.4 0-13.4 6-13.4 13.4 0 7.4 6 13.4 13.4 13.4 7.4 0 13.4-6 13.4-13.4 0-7.4-6-13.4-13.4-13.4z" id="path880" fill="#202019" />
						</g>
						<circle enable-background="new    " cx="221.8" cy="190.5" r="5.6" id="circle882" d="m 227.4,190.5 c 0,3.09279 -2.5072,5.6 -5.6,5.6 -3.09279,0 -5.6,-2.50721 -5.6,-5.6 0,-3.09279 2.50721,-5.6 5.6,-5.6 3.0928,0 5.6,2.50721 5.6,5.6 z" style="fill:#fafafa;opacity:0.5" />
					</g>
					<g id="g884">
						<g id="g886">
							<circle cx="405.4" cy="190.5" r="14.2" id="circle888" d="m 419.59999,190.5 c 0,7.84244 -6.35755,14.2 -14.2,14.2 -7.84244,0 -14.2,-6.35756 -14.2,-14.2 0,-7.84244 6.35756,-14.2 14.2,-14.2 7.84245,0 14.2,6.35756 14.2,14.2 z" fill="#f4adb7" />
							<path d="m405.4 205.5c-8.3 0-15.1-6.8-15.1-15.1 0-8.3 6.8-15.1 15.1-15.1 8.3 0 15.1 6.8 15.1 15.1-0.1 8.4-6.8 15.1-15.1 15.1zm0-28.4c-7.4 0-13.4 6-13.4 13.4 0 7.4 6 13.4 13.4 13.4 7.4 0 13.4-6 13.4-13.4 0-7.4-6-13.4-13.4-13.4z" id="path890" fill="#202019" />
						</g>
						<circle enable-background="new    " cx="405.4" cy="190.5" r="5.6" id="circle892" d="m 410.99999,190.5 c 0,3.09279 -2.5072,5.6 -5.6,5.6 -3.09279,0 -5.6,-2.50721 -5.6,-5.6 0,-3.09279 2.50721,-5.6 5.6,-5.6 3.0928,0 5.6,2.50721 5.6,5.6 z" style="fill:#fafafa;opacity:0.5" />
					</g>
					<g id="g894">
						<g id="g896">
							<circle cx="466.7" cy="190.5" r="14.2" id="circle898" d="m 480.90001,190.5 c 0,7.84244 -6.35755,14.2 -14.2,14.2 -7.84244,0 -14.2,-6.35756 -14.2,-14.2 0,-7.84244 6.35756,-14.2 14.2,-14.2 7.84245,0 14.2,6.35756 14.2,14.2 z" fill="#63c4e1" />
							<path d="m466.7 205.5c-8.3 0-15.1-6.8-15.1-15.1 0-8.3 6.8-15.1 15.1-15.1 8.3 0 15.1 6.8 15.1 15.1-0.2 8.4-6.9 15.1-15.1 15.1zm0-28.4c-7.4 0-13.4 6-13.4 13.4 0 7.4 6 13.4 13.4 13.4 7.4 0 13.4-6 13.4-13.4 0-7.4-6-13.4-13.4-13.4z" id="path900" fill="#202019" />
						</g>
						<circle enable-background="new    " cx="466.7" cy="190.5" r="5.6" id="circle902" d="m 472.30001,190.5 c 0,3.09279 -2.5072,5.6 -5.6,5.6 -3.09279,0 -5.6,-2.50721 -5.6,-5.6 0,-3.09279 2.50721,-5.6 5.6,-5.6 3.0928,0 5.6,2.50721 5.6,5.6 z" style="fill:#fafafa;opacity:0.5" />
					</g>
					<g id="g904">
						<g id="g906">
							<circle cx="527.9" cy="190.5" r="14.2" id="circle908" d="m 542.10002,190.5 c 0,7.84244 -6.35755,14.2 -14.2,14.2 -7.84244,0 -14.2,-6.35756 -14.2,-14.2 0,-7.84244 6.35756,-14.2 14.2,-14.2 7.84245,0 14.2,6.35756 14.2,14.2 z" fill="#f4adb7" />
							<path d="m527.9 205.5c-8.3 0-15.1-6.8-15.1-15.1 0-8.3 6.8-15.1 15.1-15.1 8.3 0 15.1 6.8 15.1 15.1-0.2 8.4-6.9 15.1-15.1 15.1zm0-28.4c-7.4 0-13.4 6-13.4 13.4 0 7.4 6 13.4 13.4 13.4 7.4 0 13.4-6 13.4-13.4 0-7.4-6-13.4-13.4-13.4z" id="path910" fill="#202019" />
						</g>
						<circle enable-background="new    " cx="527.9" cy="190.5" r="5.6" id="circle912" d="m 533.50002,190.5 c 0,3.09279 -2.5072,5.6 -5.6,5.6 -3.09279,0 -5.6,-2.50721 -5.6,-5.6 0,-3.09279 2.50721,-5.6 5.6,-5.6 3.0928,0 5.6,2.50721 5.6,5.6 z" style="fill:#fafafa;opacity:0.5" />
					</g>
				</g>
				<g id="arrosoir2">
					<g id="g915">
						<path d="m238.1 147.5c-0.6 0-1.1 0.1-1.8 0.3l2.5 14.6c3.6-0.4 6.6-3.6 6.6-7.4 0.2-4.2-3.2-7.5-7.3-7.5z" id="path917" fill="none" />
						<path d="m238.1 143.4c-1 0-2.1 0.1-3.1 0.4-0.3 0-0.4 0-0.6-0.1-0.1-0.1-0.3-0.3-0.4-0.5l-0.4-1.9h-21.7l-1 6c0 0.3-0.1 0.4-0.4 0.5-0.3 0.1-0.5 0.1-0.6 0l-12.7-5.4c-0.3-0.1-0.4-0.3-0.4-0.5l-1.4-3.9-3.8 8.9 3.9-1.9c0.3-0.1 0.4-0.1 0.6 0l13.5 5.8c0.4 0.1 0.5 0.5 0.5 0.9l-3.3 18.8h32.1l-0.6-3.4c0-0.3 0-0.4 0.1-0.6 0.1-0.1 0.4-0.3 0.5-0.3 6-0.4 10.7-5.5 10.7-11.5 0-6.2-5.1-11.3-11.5-11.3zm0.3 20.4 0 0c-0.4 0-0.8-0.3-0.8-0.6l-2.8-15.9c-0.1-0.4 0.1-0.8 0.5-0.9 0.9-0.3 1.9-0.5 2.9-0.5 4.9 0 9 4 9 9-0.1 4.8-4 8.9-8.8 8.9z" id="path919" fill="#e4d4e9" />
						<path d="m251.3 154.9c0-7.3-5.9-13-13-13-0.9 0-1.8 0.1-2.6 0.3l-0.3-1.8c-0.1-0.4-0.4-0.6-0.8-0.6h-23.2c-0.4 0-0.8 0.3-0.8 0.6l-1.3 5.8-11.4-4.9-2-5.5c-0.1-0.3-0.4-0.5-0.8-0.5-0.4 0-0.6 0.1-0.8 0.5l-5.4 12.7c-0.1 0.3 0 0.6 0.1 0.9 0.3 0.3 0.6 0.3 0.9 0.1l5.4-2.6 12.7 5.4-3.4 19.2c0 0.3 0 0.5 0.1 0.6 0.1 0.1 0.4 0.3 0.6 0.3h34c0.3 0 0.5-0.1 0.6-0.3 0.1-0.1 0.3-0.4 0.1-0.6l-0.6-3.5c7-1 11.9-6.6 11.9-13.1zM239 166.5c-0.3 0-0.4 0.1-0.5 0.3-0.1 0.1-0.3 0.4-0.1 0.6l0.6 3.4h-32.1l3.3-18.8c0-0.4-0.1-0.8-0.5-0.9l-13.5-5.8c-0.3-0.1-0.5-0.1-0.6 0l-3.9 1.9 3.8-8.9 1.4 3.9c0.1 0.3 0.3 0.4 0.4 0.5l12.7 5.4c0.3 0.1 0.5 0.1 0.6 0 0.3-0.1 0.4-0.4 0.4-0.5l1-6h22l0.4 1.9c0 0.3 0.1 0.4 0.4 0.5 0.1 0.1 0.4 0.1 0.6 0.1 1-0.3 2-0.4 3.1-0.4 6.4 0 11.5 5.1 11.5 11.5-0.4 5.7-5 10.8-11 11.3z" id="path921" fill="#202019" />
						<path d="m238.1 145.9c-1 0-1.9 0.1-2.9 0.5-0.4 0.1-0.6 0.5-0.5 0.9l2.8 15.9c0.1 0.4 0.4 0.6 0.8 0.6l0 0c4.9-0.1 8.8-4.1 8.8-9 0-4.9-4-8.9-9-8.9zm0.9 16.4-2.5-14.6c0.5-0.1 1.1-0.3 1.8-0.3 4.1 0 7.4 3.4 7.4 7.4-0.1 3.9-3 7-6.7 7.5z" id="path923" fill="#202019" />
					</g>
					<g id="g925">
						<g id="g927">
							<path d="m222.7 147.1c-0.3 0-0.4 0.1-0.5 0.3 0 0-1.4 1.5-2.8 3.6-1.9 2.9-2.9 5.4-2.9 7.4 0 1.6 0.6 3.3 1.6 4.4 0.9 1 2.4 2.1 4.9 2.1 4.3 0 6.1-3.8 6.1-6.5 0-4.3-5.8-10.8-6-11 0-0.3-0.3-0.3-0.4-0.3zm5 11.2c0 2.1-1.5 5.1-4.8 5.1-2.5 0-5.1-1.8-5.1-5.1 0-3.6 3.4-7.9 4.8-9.5 0.5 0.6 1.5 1.8 2.4 3.1 1.8 2.8 2.7 4.9 2.7 6.4zm-4.9 1.8c0.6 0 1-0.1 1.3-0.5 0.4-0.5 0.4-1.5 0.3-1.8-0.1-0.4 0.1-0.8 0.5-0.9 0.4-0.1 0.8 0.1 0.9 0.5 0 0.1 0.4 1.9-0.5 3-0.5 0.6-1.3 1-2.4 1-0.4 0-0.8-0.3-0.8-0.8 0-0.2 0.2-0.5 0.7-0.5z" id="path929" fill="#fafafa" />
						</g>
					</g>
				</g>
				<g id="arrosoir1">
					<g id="g932">
						<path d="m315.8 147.5c-0.6 0-1.1 0.1-1.8 0.3l2.5 14.6c3.6-0.4 6.6-3.6 6.6-7.4 0.2-4.2-3.2-7.5-7.3-7.5z" id="path934" fill="none" />
						<path d="m315.8 143.4c-1 0-2.1 0.1-3.1 0.4-0.3 0-0.4 0-0.6-0.1-0.1-0.1-0.3-0.3-0.4-0.5l-0.4-1.9h-22l-1 6c0 0.3-0.1 0.4-0.4 0.5-0.3 0.1-0.5 0.1-0.6 0l-12.7-5.4c-0.3-0.1-0.4-0.3-0.4-0.5l-1.4-3.9-3.8 8.9 3.9-1.9c0.3-0.1 0.4-0.1 0.6 0l13.5 5.8c0.4 0.1 0.5 0.5 0.5 0.9l-3.3 18.8h32.1l-0.6-3.4c0-0.3 0-0.4 0.1-0.6 0.1-0.1 0.4-0.3 0.5-0.3 6-0.4 10.7-5.5 10.7-11.5 0.3-6.2-4.8-11.3-11.2-11.3zm0.2 20.4 0 0c-0.4 0-0.8-0.3-0.8-0.6l-2.8-15.9c-0.1-0.4 0.1-0.8 0.5-0.9 0.9-0.3 1.9-0.5 2.9-0.5 4.9 0 9 4 9 9 0 4.8-3.9 8.9-8.8 8.9z" id="path936" fill="#e4d4e9" />
						<path d="m328.9 154.9c0-7.3-5.9-13-13-13-0.9 0-1.8 0.1-2.6 0.3l-0.3-1.8c-0.1-0.4-0.4-0.6-0.8-0.6H289c-0.4 0-0.8 0.3-0.8 0.6l-1 5.6-11.4-4.9-2-5.5c-0.1-0.3-0.4-0.5-0.8-0.5-0.4 0-0.6 0.1-0.8 0.5l-5.4 12.7c-0.1 0.3 0 0.6 0.1 0.9 0.3 0.3 0.6 0.3 0.9 0.1l5.4-2.6 12.8 5.3-3.4 19.2c0 0.3 0 0.5 0.1 0.6 0.1 0.1 0.4 0.3 0.6 0.3h34c0.3 0 0.5-0.1 0.6-0.3 0.1-0.1 0.3-0.4 0.1-0.6l-0.6-3.5c6.6-0.7 11.5-6.3 11.5-12.8zm-12.3 11.6c-0.3 0-0.4 0.1-0.5 0.3-0.1 0.1-0.3 0.4-0.1 0.6l0.6 3.4h-32.1l3.3-18.8c0-0.4-0.1-0.8-0.5-0.9l-13.5-5.8c-0.3-0.1-0.5-0.1-0.6 0l-3.9 1.9 3.8-8.9 1.4 3.9c0.1 0.3 0.3 0.4 0.4 0.5l12.7 5.4c0.3 0.1 0.5 0.1 0.6 0 0.3-0.1 0.4-0.4 0.4-0.5l1-6h22l0.4 1.9c0 0.3 0.1 0.4 0.4 0.5 0.1 0.1 0.4 0.1 0.6 0.1 1-0.3 2-0.4 3.1-0.4 6.4 0 11.5 5.1 11.5 11.5-0.3 5.7-4.9 10.8-11 11.3z" id="path938" fill="#202019" />
						<path d="m315.8 145.9c-1 0-1.9 0.1-2.9 0.5-0.4 0.1-0.6 0.5-0.5 0.9l2.8 15.9c0.1 0.4 0.4 0.6 0.8 0.6l0 0c4.9-0.1 8.8-4.1 8.8-9 0-4.9-4-8.9-9-8.9zm0.8 16.4-2.5-14.6c0.5-0.1 1.1-0.3 1.8-0.3 4.1 0 7.4 3.4 7.4 7.4 0 3.9-3 7-6.7 7.5z" id="path940" fill="#202019" />
					</g>
					<g id="g942">
						<g id="g944">
							<path d="m300.2 147.1c-0.3 0-0.4 0.1-0.5 0.3 0 0-1.4 1.5-2.8 3.6-1.9 2.9-2.9 5.4-2.9 7.4 0 1.6 0.6 3.3 1.6 4.4 0.9 1 2.4 2.1 4.9 2.1 4.3 0 6.1-3.8 6.1-6.5 0-4.3-5.8-10.8-6-11 0-0.3-0.2-0.3-0.4-0.3zm5.1 11.2c0 2.1-1.5 5.1-4.8 5.1-2.5 0-5.1-1.8-5.1-5.1 0-3.6 3.4-7.9 4.8-9.5 0.5 0.6 1.5 1.8 2.4 3.1 1.9 2.8 2.7 4.9 2.7 6.4zm-5 1.8c0.6 0 1-0.1 1.3-0.5 0.4-0.5 0.4-1.5 0.3-1.8-0.1-0.4 0.1-0.8 0.5-0.9 0.4-0.1 0.8 0.1 0.9 0.5 0 0.1 0.4 1.9-0.5 3-0.5 0.6-1.3 1-2.4 1-0.4 0-0.8-0.3-0.8-0.8 0.1-0.2 0.3-0.5 0.7-0.5z" id="path946" fill="#fafafa" />
						</g>
					</g>
				</g>
				<rect id="fond_écran" x="308.2" y="125.9" width="72.5" height="40.4" fill="#fafafa" />
				<g id="courbe">
					<path d="m369.4 157.6 0 0c-0.4 0-0.6-0.3-0.8-0.6l-4.6-18.1-1.5 6.4c-0.1 0.4-0.4 0.6-0.8 0.6h-7.3l-3.6 7.2c-0.1 0.3-0.5 0.5-0.8 0.4-0.4 0-0.6-0.3-0.6-0.6l-2-10.7-2.3 7.4c-0.1 0.4-0.4 0.6-0.8 0.5-0.4 0-0.6-0.3-0.8-0.6l-2-7.9-1.6 3.8c-0.1 0.3-0.4 0.5-0.8 0.5h-3.8l-3.3 11c-0.1 0.4-0.4 0.5-0.8 0.5l0 0c-0.4 0-0.6-0.3-0.8-0.6l-4.9-20.9-3.8 9.2c-0.1 0.3-0.4 0.5-0.8 0.5h-15.1c-0.4 0-0.8-0.4-0.8-0.8 0-0.4 0.4-0.8 0.8-0.8h14.6l4.5-10.8c0.1-0.3 0.5-0.5 0.8-0.5 0.4 0 0.6 0.3 0.8 0.6l4.8 20.4 2.6-8.8c0.1-0.4 0.4-0.5 0.8-0.5h3.8l2.4-5.3c0.1-0.3 0.5-0.5 0.8-0.5 0.4 0 0.6 0.3 0.6 0.6l1.9 7.4 2.4-7.8c0.1-0.4 0.4-0.5 0.8-0.5 0.4 0 0.6 0.3 0.8 0.6l2.1 11.4 2.8-5.5c0.1-0.3 0.4-0.4 0.8-0.4h7.2l2-9c0.1-0.4 0.4-0.6 0.8-0.6 0.4 0 0.6 0.3 0.8 0.6l4.6 18.3 2.3-8.8c0.1-0.4 0.4-0.6 0.8-0.6h8c0.4 0 0.8 0.4 0.8 0.8 0 0.4-0.4 0.8-0.8 0.8H373l-2.9 11c0 0.4-0.3 0.7-0.7 0.7z" id="path950" fill="#7cba52" />
				</g>
				<g id="boîte_de_transformatiiiiiiiiiiiiion">
					<g id="entrées">
						<g id="g954">
							<path d="m304.5 172.4h2.4v-40.5h-2.4c-2.8 0-4.9 2.3-4.9 4.9v30.7c0 2.6 2.2 4.9 4.9 4.9z" id="path956" fill="#90b9e3" />
							<path d="m306.8 173.1h-2.4c-3.1 0-5.6-2.5-5.6-5.6v-30.7c0-3.1 2.5-5.6 5.6-5.6h2.4c0.4 0 0.8 0.4 0.8 0.8v40.5c0 0.2-0.4 0.6-0.8 0.6zm-2.3-40.5c-2.3 0-4.1 1.9-4.1 4.1v30.7c0 2.3 1.9 4.1 4.1 4.1h1.5v-39c0 0.1-1.5 0.1-1.5 0.1z" id="path958" fill="#202019" />
						</g>
						<g id="g960">
							<path d="m384.2 172.4h-2.4v-40.5h2.4c2.8 0 4.9 2.3 4.9 4.9v30.7c0 2.6-2.2 4.9-4.9 4.9z" id="path962" fill="#90b9e3" />
							<path d="m384.2 173.1h-2.4c-0.4 0-0.8-0.4-0.8-0.8v-40.5c0-0.4 0.4-0.8 0.8-0.8h2.4c3.1 0 5.6 2.5 5.6 5.6v30.7c0.1 3.3-2.4 5.8-5.6 5.8zm-1.6-1.5h1.5c2.3 0 4.1-1.9 4.1-4.1v-30.7c0-2.3-1.9-4.1-4.1-4.1h-1.5v38.9z" id="path964" fill="#202019" />
						</g>
					</g>
					<g id="boîte">
						<path d="m378 122.9h-67.4c-3.1 0-5.8 2.6-5.8 5.8v88.8c0 3.1 2.6 5.8 5.8 5.8H378c3.1 0 5.8-2.6 5.8-5.8v-88.8c-0.1-3.1-2.6-5.8-5.8-5.8zm-1.4 32.4c0 2.4-1.9 4.3-4.3 4.3h-55.9c-2.4 0-4.3-1.9-4.3-4.3v-21.1c0-2.4 1.9-4.3 4.3-4.3h55.9c2.4 0 4.3 1.9 4.3 4.3v21.1z" id="path967" fill="#6e93cc" />
						<path d="m378 224.2h-67.4c-3.6 0-6.5-2.9-6.5-6.5v-88.8c0-3.6 2.9-6.5 6.5-6.5H378c3.6 0 6.5 2.9 6.5 6.5v88.8c0.1 3.5-2.9 6.5-6.5 6.5zM310.7 123.7c-2.8 0-5 2.3-5 5v88.8c0 2.8 2.3 5 5 5h67.4c2.8 0 5-2.3 5-5v-88.8c0-2.8-2.3-5-5-5h-67.4zm61.6 36.6h-55.9c-2.8 0-5-2.3-5-5v-21.1c0-2.8 2.3-5 5-5h55.9c2.8 0 5 2.3 5 5v21.1c0 2.8-2.2 5-5 5zm-55.9-29.5c-1.9 0-3.5 1.5-3.5 3.5v21.1c0 1.9 1.5 3.5 3.5 3.5h55.9c1.9 0 3.5-1.5 3.5-3.5v-21.1c0-1.9-1.5-3.5-3.5-3.5h-55.9z" id="path969" fill="#202019" />
					</g>
					<g id="rond_vert_éclair">
						<circle cx="344.5" cy="190.5" r="15.6" id="circle972" d="m 360.1,190.5 c 0,8.61564 -6.98436,15.6 -15.6,15.6 -8.61564,0 -15.6,-6.98436 -15.6,-15.6 0,-8.61564 6.98436,-15.6 15.6,-15.6 8.61564,0 15.6,6.98436 15.6,15.6 z" fill="#fafafa" />
						<circle cx="344.5" cy="190.5" r="13.9" id="circle974" d="m 358.4,190.5 c 0,7.67676 -6.22324,13.9 -13.9,13.9 -7.67676,0 -13.9,-6.22324 -13.9,-13.9 0,-7.67676 6.22324,-13.9 13.9,-13.9 7.67676,0 13.9,6.22324 13.9,13.9 z" fill="#aace81" />
						<path d="m346.6 181.1-7.9 11h4.8l-1.5 7.9 7.9-11h-4.8l1.5-7.9 0 0z" id="path976" fill="#fafafa" />
					</g>
				</g>
				<g id="bouteille">
					<path d="m421.2 137.2c-0.4 0-0.6-0.4-0.6-0.8v-3.3c0-0.4 0.4-0.8 0.8-0.8h0.3l0 0h-3.9l0 0h0.3c0.4 0 0.8 0.4 0.8 0.8v3.3c0 0.4-0.3 0.8-0.6 0.8-2.6 0.4-4.6 2.6-4.6 5.3v0.6c0 1.6 0.3 3.4 0.9 5.3 0.1 0.5 0.4 1 0.4 1.6 0 0.1 0 0.3 0.1 0.4 0.3-0.3 0.5-0.4 0.8-0.4l0 0c0.3 0 0.5-0.1 0.6-0.4 0.4-0.5 0.9-0.9 1.6-0.9 0.6 0 1.1 0.3 1.4 0.8 0.1 0.3 0.5 0.4 0.8 0.3 0.1 0 0.4-0.1 0.5-0.1 0.3 0 0.4 0 0.6 0.1 0.3 0.1 0.6 0 0.8-0.3 0.4-0.5 0.9-0.8 1.5-0.8 0.5 0 1 0.3 1.4 0.6 0.1-0.4 0.1-0.6 0.3-1 0.6-1.8 0.9-3.5 0.9-5.3v-0.6c-0.4-2.5-2.4-4.8-5.1-5.2z" id="path979" fill="none" />
					<path d="m423.4 148.9c-0.6 0-1.1 0.3-1.5 0.8-0.1 0.3-0.5 0.4-0.8 0.3-0.3-0.1-0.4-0.1-0.6-0.1-0.1 0-0.4 0-0.5 0.1-0.3 0.1-0.5 0-0.8-0.3-0.4-0.4-0.9-0.8-1.4-0.8-0.6 0-1.3 0.4-1.6 0.9-0.1 0.3-0.4 0.4-0.6 0.4l0 0c-0.4 0-0.6 0.1-0.8 0.4 0.1 0.8 0.1 1.4 0.1 2.1 0 1.4-0.3 2.8-0.6 4.1-0.6 1.8-0.9 3.5-0.9 5.3v6.8c0 1.1 0.9 1.9 1.9 1.9h8.7c1.1 0 1.9-0.9 1.9-1.9v-6.8c0-1.6-0.3-3.4-0.9-5.3-0.5-1.4-0.6-2.8-0.6-4.1 0-0.8 0.1-1.6 0.3-2.4 0-0.3 0.1-0.5 0.1-0.8-0.4-0.5-0.9-0.6-1.4-0.6z" id="path981" fill="#92cef1" />
					<path d="m427.5 143.1v-0.6c0-3.3-2.3-6-5.3-6.8V134h0.3c0.4 0 0.8-0.4 0.8-0.8v-1.6c0-0.4-0.4-0.8-0.8-0.8h-5.4c-0.4 0-0.8 0.4-0.8 0.8v1.6c0 0.4 0.4 0.8 0.8 0.8h0.3v1.8c-3.1 0.8-5.3 3.5-5.3 6.8v0.6c0 1.9 0.4 3.8 1 5.8 0.4 1.1 0.6 2.4 0.6 3.6 0 1.2-0.3 2.5-0.6 3.6-0.6 1.9-1 3.9-1 5.8v6.8c0 1.9 1.5 3.5 3.5 3.5h8.7c1.9 0 3.5-1.5 3.5-3.5V162c0-1.9-0.4-3.8-1-5.8-0.4-1.1-0.6-2.4-0.6-3.6 0-1.2 0.3-2.5 0.6-3.6 0.3-2 0.7-4 0.7-5.9zm-1.6 0c0 1.6-0.3 3.4-0.9 5.3-0.1 0.4-0.3 0.6-0.3 1 0 0.3-0.1 0.5-0.1 0.8-0.1 0.8-0.3 1.6-0.3 2.4 0 1.4 0.3 2.8 0.6 4.1 0.6 1.8 0.9 3.5 0.9 5.3v6.8c0 1.1-0.9 1.9-1.9 1.9h-8.7c-1.1 0-1.9-0.9-1.9-1.9V162c0-1.6 0.3-3.4 0.9-5.3 0.5-1.4 0.6-2.8 0.6-4.1 0-0.8 0-1.4-0.1-2.1 0-0.1 0-0.3-0.1-0.4-0.1-0.5-0.3-1.1-0.4-1.6-0.6-1.8-0.9-3.5-0.9-5.3v-0.6c0-2.6 2-5 4.6-5.3 0.4 0 0.6-0.4 0.6-0.8v-3.3c0-0.4-0.4-0.8-0.8-0.8h-0.3l0 0h3.9l0 0H421c-0.4 0-0.8 0.4-0.8 0.8v3.3c0 0.4 0.3 0.8 0.6 0.8 2.6 0.4 4.6 2.6 4.6 5.3v0.5z" id="path983" fill="#202019" />
				</g>
				<g id="bouteille_1_">
					<path d="m460.4 137.2c-0.4 0-0.6-0.4-0.6-0.8v-3.3c0-0.4 0.4-0.8 0.8-0.8h0.3l0 0H457l0 0h0.3c0.4 0 0.8 0.4 0.8 0.8v3.3c0 0.4-0.3 0.8-0.6 0.8-2.6 0.4-4.6 2.6-4.6 5.3v0.6c0 1.6 0.3 3.4 0.9 5.3 0.1 0.5 0.4 1 0.4 1.6 0 0.1 0 0.3 0.1 0.4 0.3-0.3 0.5-0.4 0.8-0.4l0 0c0.3 0 0.5-0.1 0.6-0.4 0.4-0.5 0.9-0.9 1.6-0.9 0.6 0 1.1 0.3 1.4 0.8 0.1 0.3 0.5 0.4 0.8 0.3 0.1 0 0.4-0.1 0.5-0.1 0.3 0 0.4 0 0.6 0.1 0.3 0.1 0.6 0 0.8-0.3 0.4-0.5 0.9-0.8 1.5-0.8 0.5 0 1 0.3 1.4 0.6 0.1-0.4 0.1-0.6 0.3-1 0.6-1.8 0.9-3.5 0.9-5.3v-0.6c-0.5-2.5-2.5-4.8-5.1-5.2z" id="path986" fill="none" />
					<path d="m462.5 148.9c-0.6 0-1.1 0.3-1.5 0.8-0.1 0.3-0.5 0.4-0.8 0.3-0.3-0.1-0.4-0.1-0.6-0.1-0.1 0-0.4 0-0.5 0.1-0.3 0.1-0.5 0-0.8-0.3-0.4-0.4-0.9-0.8-1.4-0.8-0.6 0-1.3 0.4-1.6 0.9-0.1 0.3-0.4 0.4-0.6 0.4l0 0c-0.4 0-0.6 0.1-0.8 0.4 0.1 0.8 0.1 1.4 0.1 2.1 0 1.4-0.3 2.8-0.6 4.1-0.6 1.8-0.9 3.5-0.9 5.3v6.8c0 1.1 0.9 1.9 1.9 1.9h8.7c1.1 0 1.9-0.9 1.9-1.9v-6.8c0-1.6-0.3-3.4-0.9-5.3-0.5-1.4-0.6-2.8-0.6-4.1 0-0.8 0.1-1.6 0.3-2.4 0-0.3 0.1-0.5 0.1-0.8-0.4-0.5-0.9-0.6-1.4-0.6z" id="path988" fill="#92cef1" />
					<path d="m466.7 143.1v-0.6c0-3.3-2.3-6-5.3-6.8V134h0.3c0.4 0 0.8-0.4 0.8-0.8v-1.6c0-0.4-0.4-0.8-0.8-0.8h-5.4c-0.4 0-0.8 0.4-0.8 0.8v1.6c0 0.4 0.4 0.8 0.8 0.8h0.3v1.8c-3.1 0.8-5.3 3.5-5.3 6.8v0.6c0 1.9 0.4 3.8 1 5.8 0.4 1.1 0.6 2.4 0.6 3.6 0 1.2-0.3 2.5-0.6 3.6-0.6 1.9-1 3.9-1 5.8v6.8c0 1.9 1.5 3.5 3.5 3.5h8.7c1.9 0 3.5-1.5 3.5-3.5V162c0-1.9-0.4-3.8-1-5.8-0.4-1.1-0.6-2.4-0.6-3.6 0-1.2 0.3-2.5 0.6-3.6 0.3-2 0.7-4 0.7-5.9zm-1.7 0c0 1.6-0.3 3.4-0.9 5.3-0.1 0.4-0.3 0.6-0.3 1 0 0.3-0.1 0.5-0.1 0.8-0.1 0.8-0.3 1.6-0.3 2.4 0 1.4 0.3 2.8 0.6 4.1 0.6 1.8 0.9 3.5 0.9 5.3v6.8c0 1.1-0.9 1.9-1.9 1.9h-8.7c-1.1 0-1.9-0.9-1.9-1.9V162c0-1.6 0.3-3.4 0.9-5.3 0.5-1.4 0.6-2.8 0.6-4.1 0-0.8 0-1.4-0.1-2.1 0-0.1 0-0.3-0.1-0.4-0.1-0.5-0.3-1.1-0.4-1.6-0.6-1.8-0.9-3.5-0.9-5.3v-0.6c0-2.6 2-5 4.6-5.3 0.4 0 0.6-0.4 0.6-0.8v-3.3c0-0.4-0.4-0.8-0.8-0.8h-0.3l0 0h3.9l0 0h-0.3c-0.4 0-0.8 0.4-0.8 0.8v3.3c0 0.4 0.3 0.8 0.6 0.8 2.6 0.4 4.6 2.6 4.6 5.3l0.5 0.5 0 0z" id="path990" fill="#202019" />
				</g>
				<g id="bouteille_2_">
					<path d="m499.5 137.2c-0.4 0-0.6-0.4-0.6-0.8v-3.3c0-0.4 0.4-0.8 0.8-0.8h0.3l0 0h-4l0 0h0.3c0.4 0 0.8 0.4 0.8 0.8v3.3c0 0.4-0.3 0.8-0.6 0.8-2.6 0.4-4.6 2.6-4.6 5.3v0.6c0 1.6 0.3 3.4 0.9 5.3 0.1 0.5 0.4 1 0.4 1.6 0 0.1 0 0.3 0.1 0.4 0.3-0.3 0.5-0.4 0.8-0.4l0 0c0.3 0 0.5-0.1 0.6-0.4 0.4-0.5 0.9-0.9 1.6-0.9 0.6 0 1.1 0.3 1.4 0.8 0.1 0.3 0.5 0.4 0.8 0.3 0.1 0 0.4-0.1 0.5-0.1 0.3 0 0.4 0 0.6 0.1 0.2 0.1 0.6 0 0.8-0.3 0.4-0.5 0.9-0.8 1.5-0.8 0.5 0 1 0.3 1.4 0.6 0.1-0.4 0.1-0.6 0.3-1 0.6-1.8 0.9-3.5 0.9-5.3v-0.6c-0.3-2.5-2.3-4.8-5-5.2z" id="path993" fill="none" />
					<path d="m501.7 148.9c-0.6 0-1.1 0.3-1.5 0.8-0.1 0.3-0.5 0.4-0.8 0.3-0.3-0.1-0.4-0.1-0.6-0.1-0.1 0-0.4 0-0.5 0.1-0.3 0.1-0.5 0-0.8-0.3-0.4-0.4-0.9-0.8-1.4-0.8-0.6 0-1.3 0.4-1.6 0.9-0.1 0.3-0.4 0.4-0.6 0.4l0 0c-0.4 0-0.6 0.1-0.8 0.4 0.1 0.8 0.1 1.4 0.1 2.1 0 1.4-0.3 2.8-0.6 4.1-0.6 1.8-0.9 3.5-0.9 5.3v6.8c0 1.1 0.9 1.9 1.9 1.9h8.7c1.1 0 1.9-0.9 1.9-1.9v-6.8c0-1.6-0.3-3.4-0.9-5.3-0.5-1.4-0.6-2.8-0.6-4.1 0-0.8 0.1-1.6 0.3-2.4 0-0.3 0.1-0.5 0.1-0.8-0.4-0.5-0.9-0.6-1.4-0.6z" id="path995" fill="#92cef1" />
					<path d="m505.8 143.1v-0.6c0-3.3-2.3-6-5.3-6.8V134h0.3c0.4 0 0.8-0.4 0.8-0.8v-1.6c0-0.4-0.4-0.8-0.8-0.8h-5.4c-0.4 0-0.8 0.4-0.8 0.8v1.6c0 0.4 0.4 0.8 0.8 0.8h0.3v1.8c-3.1 0.8-5.3 3.5-5.3 6.8v0.6c0 1.9 0.4 3.8 1 5.8 0.4 1.1 0.6 2.4 0.6 3.6 0 1.2-0.3 2.5-0.6 3.6-0.6 1.9-1 3.9-1 5.8v6.8c0 1.9 1.5 3.5 3.5 3.5h8.7c1.9 0 3.5-1.5 3.5-3.5V162c0-1.9-0.4-3.8-1-5.8-0.4-1.1-0.6-2.4-0.6-3.6 0-1.2 0.3-2.5 0.6-3.6 0.3-2 0.7-4 0.7-5.9zm-1.6 0c0 1.6-0.3 3.4-0.9 5.3-0.1 0.4-0.3 0.6-0.3 1 0 0.3-0.1 0.5-0.1 0.8-0.1 0.8-0.3 1.6-0.3 2.4 0 1.4 0.3 2.8 0.6 4.1 0.6 1.8 0.9 3.5 0.9 5.3v6.8c0 1.1-0.9 1.9-1.9 1.9h-8.7c-1.1 0-1.9-0.9-1.9-1.9V162c0-1.6 0.3-3.4 0.9-5.3 0.5-1.4 0.6-2.8 0.6-4.1 0-0.8 0-1.4-0.1-2.1 0-0.1 0-0.3-0.1-0.4-0.1-0.5-0.3-1.1-0.4-1.6-0.6-1.8-0.9-3.5-0.9-5.3v-0.6c0-2.6 2-5 4.6-5.3 0.4 0 0.6-0.4 0.6-0.8v-3.3c0-0.4-0.4-0.8-0.8-0.8h0l0 0h3.9l0 0h-0.3c-0.4 0-0.8 0.4-0.8 0.8v3.3c0 0.4 0.3 0.8 0.6 0.8 2.6 0.4 4.6 2.6 4.6 5.3l0.2 0.5 0 0z" id="path997" fill="#202019" />
				</g>
				<g id="arrosoir_qui_arrose">
					<g id="g1000">
						<g id="g1002">
							<path d="m157.4 144.3c-0.5 0.3-1 0.5-1.5 0.8l7.3 12.9c3.4-1.6 5-5.6 3.8-9.2-1.5-3.9-5.8-5.9-9.6-4.5z" id="path1004" fill="none" />
							<path d="m156.1 140.4c-1 0.4-1.9 0.9-2.8 1.4-0.1 0.1-0.4 0.1-0.6 0.1-0.3 0-0.4-0.1-0.5-0.4l-0.9-1.6-20.7 7.3 1 6c0 0.3 0 0.5-0.3 0.6-0.1 0.1-0.4 0.3-0.6 0.3L117 153.2c-0.3 0-0.4-0.1-0.5-0.3l-2.6-3.3-0.6 9.7 3-3c0.1-0.1 0.4-0.3 0.6-0.3l14.8 1c0.4 0 0.6 0.3 0.8 0.6l3.1 18.9 30.4-10.5-1.6-3c-0.1-0.3-0.1-0.4 0-0.6 0.1-0.3 0.3-0.4 0.4-0.5 5.5-2.4 8.3-8.8 6.3-14.4-2.5-6.1-9.1-9.3-15-7.1zm7 19.2c-0.1 0-0.1 0.1 0 0-0.4 0.1-0.8 0-1-0.4l-7.9-14c-0.1-0.4-0.1-0.8 0.3-1 0.8-0.6 1.6-1 2.5-1.4 4.6-1.6 9.8 0.8 11.4 5.5 1.6 4.5-0.8 9.6-5.3 11.3z" id="path1006" fill="#e4d4e9" />
							<path d="m172.3 146.9c-2.4-6.8-9.9-10.4-16.7-8-0.9 0.3-1.6 0.6-2.4 1.1l-0.9-1.5c-0.1-0.4-0.6-0.5-0.9-0.4l-22 7.8c-0.4 0.1-0.6 0.5-0.5 0.9l1 5.6-12.4-0.8-3.6-4.5c-0.3-0.3-0.5-0.4-0.9-0.3-0.3 0.1-0.5 0.4-0.5 0.6l-0.9 13.8c0 0.4 0.1 0.6 0.5 0.8 0.3 0.1 0.6 0.1 0.9-0.1l4.3-4.3 13.8 0.9 3.3 19.2c0 0.3 0.1 0.4 0.4 0.5 0.3 0.1 0.4 0.1 0.6 0.1L167.5 167c0.3-0.1 0.4-0.3 0.5-0.5 0.1-0.3 0.1-0.5 0-0.6l-1.8-3c5.4-3 8.2-9.9 6.1-16zm-7.8 14.9c-0.3 0.1-0.4 0.3-0.4 0.5-0.1 0.3 0 0.4 0 0.6l1.6 3-30.4 10.7-3.1-18.9c0-0.4-0.4-0.6-0.8-0.6l-14.8-1c-0.3 0-0.5 0.1-0.6 0.3l-3 3 0.6-9.7 2.6 3.3c0.1 0.1 0.4 0.3 0.5 0.3l13.7 0.9c0.3 0 0.5-0.1 0.6-0.3 0.1-0.1 0.3-0.4 0.3-0.6l-1-6 20.7-7.3 0.9 1.6c0.1 0.3 0.3 0.4 0.5 0.4 0.2 0 0.5 0 0.6-0.1 0.9-0.6 1.8-1.1 2.8-1.4 6-2.1 12.7 1 14.7 7 2.3 5.5-0.5 11.9-6 14.3z" id="path1008" fill="#202019" />
							<path d="m156.8 142.8c-0.9 0.4-1.8 0.8-2.5 1.4-0.3 0.3-0.4 0.6-0.3 1l7.9 14.2c0.1 0.4 0.6 0.5 0.9 0.4l0 0c4.5-1.8 6.9-6.8 5.3-11.4-1.4-4.9-6.5-7.3-11.3-5.6zm6.3 15.1-7.3-12.9c0.5-0.3 1-0.6 1.5-0.8 3.9-1.4 8.2 0.6 9.5 4.5 1.3 3.6-0.3 7.6-3.7 9.2z" id="path1010" fill="#202019" />
						</g>
						<g id="g1012">
							<g id="g1014">
								<path d="m142.6 149c-0.3 0-0.4 0.3-0.4 0.4 0 0.1-0.9 1.9-1.5 4.3-0.9 3.3-0.9 6-0.3 7.9 0.5 1.5 1.6 2.9 3 3.6 1.1 0.6 3 1.1 5.3 0.4 4-1.4 4.5-5.6 3.6-8.2-1.4-4-9-8.2-9.3-8.4 0 0-0.2 0-0.4 0zm8.6 8.9c0.8 2 0.4 5.4-2.8 6.4-2.4 0.9-5.4 0-6.5-3.1-1.1-3.4 0.6-8.7 1.4-10.5 0.8 0.5 2 1.3 3.3 2.1 2.4 2 4.1 3.8 4.6 5.1zm-4.2 3.4c0.6-0.3 0.9-0.5 1-0.9 0.3-0.6-0.1-1.5-0.4-1.8-0.3-0.4-0.1-0.8 0.3-1 0.4-0.3 0.8-0.1 1 0.3 0.1 0.1 1 1.6 0.5 3-0.3 0.8-0.9 1.4-1.9 1.8-0.4 0.1-0.8-0.1-0.9-0.4-0.1-0.3 0.1-0.9 0.4-1z" id="path1016" fill="#fafafa" />
							</g>
						</g>
					</g>
					<g id="g1018">
						<g id="g1020">
							<path d="m100.6 155.2h-0.1c-0.4-0.1-0.6-0.5-0.6-0.9 0.5-2.3 1.6-4 3.4-5 3.3-1.9 7.5-0.6 7.7-0.5 0.4 0.1 0.6 0.6 0.5 1-0.1 0.4-0.6 0.6-1 0.5 0 0-3.8-1.1-6.4 0.4-1.4 0.8-2.3 2.1-2.6 4-0.2 0.2-0.5 0.5-0.9 0.5z" id="path1022" fill="#92cef1" />
						</g>
						<g id="g1024">
							<path d="m102.4 160.8 0 0c-0.5 0-0.9-0.5-0.8-0.9 0.3-2.3 1.1-3.9 2.6-4.9 2.6-1.9 6.3-1 6.4-1 0.4 0.1 0.6 0.5 0.6 0.9-0.1 0.4-0.5 0.6-0.9 0.6 0 0-3-0.8-5.1 0.8-1.1 0.8-1.8 2-2 3.8-0.1 0.3-0.4 0.7-0.8 0.7z" id="path1026" fill="#92cef1" />
						</g>
						<g id="g1028">
							<path d="m104.3 166.3c-0.4 0-0.8-0.4-0.8-0.8 0-2.1 0.6-3.8 1.9-4.9 2-1.8 4.9-1.4 5-1.4 0.4 0 0.8 0.5 0.6 0.9 0 0.4-0.5 0.8-0.9 0.6 0 0-2.4-0.3-3.9 1-0.9 0.8-1.4 2-1.4 3.8 0.2 0.5-0.2 0.8-0.5 0.8z" id="path1030" fill="#92cef1" />
						</g>
					</g>
				</g>
				<g id="pieds_tapis">
					<g id="g1033">
						<path d="m533.4 257.2v-66.6c0-3.1-2.5-5.5-5.5-5.5h-0.1c-3.1 0-5.5 2.5-5.5 5.5v66.6h-4.9v3.5h21.1v-3.5h-5.1zm-5.5-69.4c1.5 0 2.8 1.3 2.8 2.8 0 1.5-1.3 2.8-2.8 2.8-1.5 0-2.8-1.3-2.8-2.8 0-1.5 1.3-2.8 2.8-2.8z" id="path1035" fill="#fafafa" />
						<path d="m538.4 261.4h-21.1c-0.4 0-0.8-0.4-0.8-0.8v-3.5c0-0.4 0.4-0.8 0.8-0.8h4.1v-65.9c0-3.5 2.9-6.4 6.4-6.4h0.1c3.5 0 6.4 2.9 6.4 6.4v65.9h4.1c0.4 0 0.8 0.4 0.8 0.8v3.5c0 0.4-0.4 0.8-0.8 0.8zm-20.3-1.6h19.6v-1.9h-4.1c-0.4 0-0.8-0.4-0.8-0.8v-66.6c0-2.6-2.1-4.8-4.8-4.8h-0.1c-2.6 0-4.8 2.1-4.8 4.8v66.6c0 0.3-0.1 0.4-0.3 0.5-0.1 0.1-0.4 0.3-0.5 0.3h-4.1v1.9h-0.1zm9.8-65.7c-1.9 0-3.5-1.6-3.5-3.5 0-1.9 1.6-3.5 3.5-3.5 1.9 0 3.5 1.6 3.5 3.5 0 1.8-1.6 3.5-3.5 3.5zm0-5.6c-1.1 0-2 0.9-2 2 0 1.1 0.9 2 2 2 1.1 0 2-0.9 2-2-0.1-1.1-1-2-2-2z" id="path1037" fill="#202019" />
					</g>
					<g id="g1039">
						<path d="m166.2 257.2v-66.6c0-3.1-2.5-5.5-5.5-5.5h-0.3c-3.1 0-5.5 2.5-5.5 5.5v66.6H150v3.5h21.1v-3.5h-4.9zm-5.6-69.4c1.5 0 2.8 1.3 2.8 2.8 0 1.5-1.3 2.8-2.8 2.8-1.5 0-2.8-1.3-2.8-2.8 0-1.5 1.3-2.8 2.8-2.8z" id="path1041" fill="#fafafa" />
						<path d="M171.1 261.4H150c-0.4 0-0.8-0.4-0.8-0.8v-3.5c0-0.4 0.4-0.8 0.8-0.8h4.1v-65.9c0-3.5 2.9-6.4 6.4-6.4h0.1c3.5 0 6.4 2.9 6.4 6.4v65.9h4.1c0.4 0 0.8 0.4 0.8 0.8v3.5c0 0.4-0.4 0.8-0.8 0.8zm-20.3-1.6h19.6v-1.9h-4.1c-0.4 0-0.8-0.4-0.8-0.8v-66.6c0-2.6-2.1-4.8-4.8-4.8h-0.3c-2.6 0-4.8 2.1-4.8 4.8v66.6c0 0.3-0.1 0.4-0.3 0.5-0.1 0.1-0.4 0.3-0.5 0.3h-4.1v1.9zm9.8-65.7c-1.9 0-3.5-1.6-3.5-3.5 0-1.9 1.6-3.5 3.5-3.5 1.9 0 3.5 1.6 3.5 3.5 0 1.8-1.6 3.5-3.5 3.5zm0-5.6c-1.1 0-2 0.9-2 2 0 1.1 0.9 2 2 2 1.1 0 2-0.9 2-2-0.1-1.1-1-2-2-2z" id="path1043" fill="#202019" />
					</g>
				</g>
			</g>
		</g>
	</g>
</svg>