<svg version="1.1" id="Calque_1" xmlns="http://www.w3.org/2000/svg" xmlns:xlink="http://www.w3.org/1999/xlink" x="0" y="0" viewBox="0 0 595.8 363.1" enable-background="new 0 0 595.8 363.1" xml:space="preserve"><g id="XMLID_1_"><g id="XMLID_2_"><path fill="#212119" d="M595.5 275.5v35.7c0 1-0.8 1.8-1.8 1.8H349.3v33.9h18.6c0.9 0 1.7 0.7 1.8 1.6 0 0.1 0 0.1 0 0.2V361c0 1-0.8 1.8-1.8 1.8h-70 -70c-1 0-1.8-0.8-1.8-1.8v-12.4c0-0.1 0-0.1 0-0.2 0.1-0.9 0.9-1.6 1.8-1.6h18.6V313H2.1c-1 0-1.8-0.8-1.8-1.8v-37.4 -0.1 -1V2c0-1 0.8-1.8 1.8-1.8h295.8 295.8c1 0 1.8 0.8 1.8 1.8v271.6 0.1V275.5zM591.9 309.4v-33.9h-294H3.9v33.9h244.5 99.1H591.9zM591.9 271.9V3.8h-294H3.9v268h294H591.9zM366.1 359.2v-8.8h-18.6 -49.6 -49.6 -18.6v8.8h68.2H366.1zM345.6 346.8V313h-95.5v33.9h47.8H345.6z"/><path fill="#303849" d="M591.9 3.8v268h-294V3.8H591.9zM547.5 169.9v-10.2H377.7v10.2H547.5zM543.6 260.2V250h-108v10.2H543.6zM539.5 76.9V66.7h-45.1v10.2H539.5zM524.5 191.2V181h-26.3v10.2H524.5zM489.6 191.2V181h-52.4v10.2H489.6zM486.9 76.4V66.2h-32.4v10.2H486.9zM479.2 52.7V42.5H338v10.2H479.2zM470.8 99V88.8H456V99H470.8zM470.7 214.6v-10.2H356.3v10.2H470.7zM441.9 75.9V65.6H338v10.2H441.9zM440 147.9v-10.2H317.5v10.2H440zM425.5 260.2V250h-108v10.2H425.5zM425.5 122.1v-10.2H338v10.2H425.5zM424 191.2V181h-67.7v10.2H424zM415.6 240.1v-10.2h-98v10.2H415.6zM415.6 99V88.8H338V99H415.6zM377.7 25.7V15.5h-60.1v10.2H377.7zM361.5 169.9v-10.2H338v10.2H361.5z"/><path fill="#A591C5" d="M575.5 300.2c-4.3 0-7.8-3.5-7.8-7.8 0-2.1 0.9-4.1 2.3-5.5 0.3-0.3 0.5-0.5 0.8-0.7s0.6-0.4 0.9-0.6c1.1-0.6 2.4-0.9 3.7-0.9 1.3 0 2.6 0.3 3.7 0.9 0.5 0.3 1 0.6 1.4 0.9 0.7 0.6 1.3 1.3 1.7 2.1 0.6 1.1 0.9 2.4 0.9 3.7s-0.3 2.6-0.9 3.7c-0.1 0.2-0.2 0.3-0.3 0.5 -0.1 0.1-0.2 0.3-0.3 0.4 0 0 0 0 0 0 -0.1 0.1-0.2 0.3-0.3 0.4 0 0 0 0 0 0 -0.1 0.1-0.3 0.3-0.4 0.4C579.6 299.3 577.7 300.2 575.5 300.2z"/><path fill="#92ABD9" d="M549.2 300.2c-4.3 0-7.8-3.5-7.8-7.8 0-2.1 0.9-4.1 2.3-5.5 0.4-0.4 0.8-0.7 1.3-1 0.2-0.1 0.3-0.2 0.5-0.3 1.1-0.6 2.4-0.9 3.7-0.9 1.3 0 2.6 0.3 3.7 0.9 0.5 0.3 1 0.6 1.4 0.9 0.7 0.6 1.3 1.3 1.7 2.1 0.6 1.1 0.9 2.4 0.9 3.7s-0.3 2.6-0.9 3.7c-0.1 0.2-0.2 0.3-0.3 0.5 -0.1 0.1-0.2 0.3-0.3 0.4 0 0 0 0 0 0 -0.1 0.1-0.2 0.3-0.3 0.4 0 0 0 0 0 0 -0.1 0.1-0.3 0.3-0.4 0.4C553.2 299.3 551.3 300.2 549.2 300.2z"/><rect x="377.7" y="159.7" fill="#BEE2E8" width="169.9" height="10.2"/><rect x="435.6" y="250" fill="#F6B7B7" width="108" height="10.2"/><rect x="437.2" y="181" fill="#F6B7B7" width="52.4" height="10.2"/><rect x="454.5" y="66.2" fill="#F6B7B7" width="32.4" height="10.2"/><rect x="338" y="42.5" fill="#BEE2E8" width="141.3" height="10.2"/><rect x="338" y="111.9" fill="#BEE2E8" width="87.6" height="10.2"/><rect x="317.5" y="229.9" fill="#BEE2E8" width="98" height="10.2"/><rect x="338" y="88.8" fill="#F6B7B7" width="77.6" height="10.2"/><rect x="317.5" y="15.5" fill="#F6B7B7" width="60.1" height="10.2"/><rect x="338" y="159.7" fill="#F6B7B7" width="23.5" height="10.2"/><polygon fill="#FFFFFF" points="345.6 313 345.6 346.8 297.9 346.8 250.1 346.8 250.1 313 "/><path fill="#303849" d="M297.9 303.9c-5.6 0-10.3-4-11.3-9.3 -0.1-0.4-0.1-0.7-0.2-1.1 0-0.4-0.1-0.8-0.1-1.2 0-0.4 0-0.8 0.1-1.1 0-0.2 0-0.4 0.1-0.6 0.1-0.4 0.1-0.7 0.2-1v0c0-0.2 0.1-0.3 0.1-0.5v0c0.1-0.2 0.1-0.3 0.2-0.5v0c0.1-0.2 0.1-0.3 0.2-0.5 0 0 0 0 0 0 0.1-0.2 0.1-0.3 0.2-0.5 0 0 0 0 0 0 0-0.1 0.1-0.1 0.1-0.2 0.1-0.2 0.2-0.5 0.4-0.7 2-3.5 5.7-5.9 10.1-5.9 1 0 1.9 0.1 2.8 0.4 4.7 1.2 8.3 5.2 8.7 10.2 0 0.3 0 0.6 0 0.9 0 0.3 0 0.7 0 1 -0.4 5-4 9-8.7 10.2C299.8 303.8 298.9 303.9 297.9 303.9z"/><path fill="#232937" d="M297.9 3.8v268H3.9V3.8H297.9zM274.8 191.7v-10.2H173.3v10.2H274.8zM255.6 99.5V89.3h-215v10.2H255.6zM250.1 170.4v-10.2H138.9v10.2H250.1zM230.1 215.2v-10.2h-45.7v10.2H230.1zM212.9 240.7v-10.2H20.1v10.2H212.9zM212.9 26.2V16H20.1v10.2H212.9zM203.9 53.3V43.1h-43.6v10.2H203.9zM192.2 122.7v-10.2h-75.7v10.2H192.2zM173.3 76.4V66.2h-68.8v10.2H173.3zM167.3 215.2v-10.2h-45.7v10.2H167.3zM160.4 191.7v-10.2H58.9v10.2H160.4zM144.5 53.3V43.1H40.6v10.2H144.5zM104.5 260.8v-10.2H20.1v10.2H104.5zM104.5 215.2v-10.2H58.9v10.2H104.5zM99.2 170.4v-10.2H40.6v10.2H99.2zM96.7 76.4V66.2H40.6v10.2H96.7zM91 148.5v-10.2H20.1v10.2H91zM91 122.7v-10.2H40.6v10.2H91z"/><rect x="173.3" y="181.5" fill="#FCCA77" width="101.5" height="10.2"/><rect x="20.1" y="230.5" fill="#FCCA77" width="192.8" height="10.2"/><rect x="20.1" y="16" fill="#9BCD9E" width="192.8" height="10.2"/><rect x="116.5" y="112.4" fill="#FCCA77" width="75.7" height="10.2"/><rect x="104.5" y="66.2" fill="#9BCD9E" width="68.8" height="10.2"/><rect x="121.7" y="204.9" fill="#9BCD9E" width="45.7" height="10.2"/><rect x="40.6" y="43.1" fill="#FCCA77" width="103.9" height="10.2"/><rect x="40.6" y="160.2" fill="#FCCA77" width="58.7" height="10.2"/><rect x="20.1" y="138.3" fill="#9BCD9E" width="70.9" height="10.2"/></g></g></svg>