<svg xmlns="http://www.w3.org/2000/svg" viewBox="585.4 260.9 590.4 570.6"><path fill="#3A3A3A" d="M637.4 625h17.3V278.2h329.4v365.3c0 8.9-7.3 16.1-16.1 16.1H618.9c-8.9 0-16.1-7.3-16.1-16.1V330.2h17.3v-17.3h-34.7v330.6c0 18.4 15 33.5 33.5 33.5h349.3c18.4 0 33.5-15 33.5-33.5V260.9H637.5V625h-.1z"/><path fill="#36C" d="M689.4 399.6h260.1v17.3H689.4z"/><path fill="#F36" d="M689.4 486.3h208.1v17.3H689.4z"/><g fill="#6C6"><path d="M689.4 312.9h138.7v17.3H689.4zM689.4 573h260.1v17.3H689.4z"/></g><g><path fill="#11162D" d="M1175.8 808.2l-80.5-80.6-32.8-32.8c20.8-26 33.3-59.1 33.3-95.1 0-84.1-68.1-152.2-152-152.2-84 0-152 68.2-152 152.2s68.1 152.2 152 152.2c36.2 0 69.4-12.7 95.5-33.8l32 32 81.2 81.4 23.3-23.3zm-232-72.3c-36.3.1-70.5-14.1-96.2-39.8s-39.8-59.9-39.8-96.3 14.2-70.6 39.8-96.3c25.6-25.7 59.9-40 96.2-40s70.5 14.2 96.2 39.9c25.7 25.7 39.8 59.9 39.8 96.3s-14.2 70.6-39.8 96.3c-25.7 25.7-59.9 39.9-96.2 39.9z"/><path opacity=".2" fill="#939393" d="M1040 503.4c-25.7-25.7-59.9-39.9-96.2-39.9s-70.6 14.3-96.2 40c-25.6 25.7-39.8 59.9-39.8 96.3s14.1 70.6 39.8 96.3 59.9 39.9 96.2 39.8c36.3 0 70.5-14.2 96.2-39.9 25.6-25.7 39.8-59.9 39.8-96.3s-14.1-70.6-39.8-96.3z"/></g></svg>