<svg xmlns="http://www.w3.org/2000/svg" viewBox="106.2 184.3 978.6 473.8"><path fill="#B8DFE0" d="M570.1 386.1L559 397.2l50.7 50.6-51 50.9 11.4 11.3 61.9-61.9"/><g fill="#3B3A3A"><path d="M349.8 223.8H330v98.7h98.7v-19.8h-78.9"/><path d="M376 184.3H172v59.2h-59.2v414.6H409v-59.2h59.2V276.8L376 184.3zm13.3 454.1H132.6V263.3h39.5V599h217.2v39.4zm59.2-59.2H191.8V204h176.1l80.6 81v294.2z"/></g><g fill="#71BA67"><path d="M330.2 364.3c14.2 1.2 27.4 7.2 37.6 17.4 11.4 11.4 17.6 26.5 17.6 42.5 0 8.1-1.6 16-4.7 23.4-3 7.2-7.4 13.6-12.9 19.1-5.5 5.5-12 9.9-19.1 12.9-7.4 3.1-15.3 4.7-23.4 4.7-12.9 0-25.2-4-35.6-11.6-5-3.7-9.4-8.1-13.1-13.1-2.6-3.6-4.8-7.4-6.6-11.5l56.5-14.1 3.8-.9v-3.9l-.1-64.9m-5-5.2v70.2l-62 15.5c8.6 26 33.1 44.7 62 44.7 36 0 65.2-29.2 65.2-65.2s-29.2-65.2-65.2-65.2z"/><path d="M315.1 354.1v67.4l-56.5 14.3c-2.9-7.4-3.5-17.9-3.5-21.8 0-14.8 5.2-29.4 14.2-39.9 5.2-6.2 11.8-11 19.3-14.3 7.7-3.5 16.7-5.4 26.5-5.7m5-5.1h-1.7c-50.2 0-68.5 36.4-68.5 65 0 0 .1 17.8 5.9 27.7l64.3-16.3V349z"/></g><path fill="#3D64AD" d="M410.4 522.2v-7.1H229.9v14.2h180.5"/><path fill="#E83B68" d="M410.4 544.9v-7.1H229.9V552h180.5"/><g><path fill="#D9A2C9" d="M945.8 413.6c9.5 0 17.4 7.8 17.4 17.3s-7.6 17.3-17.2 17.3h-69.4c-9.5 0-17.3-7.8-17.3-17.3s7.8-17.3 17.3-17.3H945m1.1-17.4h-69.4c-19.1 0-34.7 15.6-34.7 34.7s15.6 34.7 34.7 34.7h69.4c19.1 0 34.7-15.6 34.7-34.7-.1-19.1-15.7-34.7-34.7-34.7z"/><path fill="#3B3A3A" d="M1084.8 274.9H738v86.7h17.3V587h312.1V361.6h17.3l.1-86.7zm-34.7 294.7H772.6v-208H1050l.1 208zm17.3-225.4H755.3v-52h312.1v52z"/></g><g><g fill="#FFF"><path d="M189.3 457.4c5.3 14.8 13.8 28.4 25.3 39.9 20.3 20.3 47.4 31.5 76.1 31.5 26 0 50.5-9.1 70-25.9l-72-72-99.4 26.5zM312 315.5c-6.9-1.4-14-2.1-21.2-2.1-28.8 0-55.8 11.2-76.1 31.5s-31.5 47.4-31.5 76.1c0 7.2.7 14.2 2.1 21.1l100.1-26.8 26.6-99.8z"/><path d="M423.2 379.1l25.2-18.9-2.7-6.4-31.2 4.4-17.7-26 16-26.9-4.9-4.9-27.1 15.6-26.1-17.4 4.8-31.8-6.3-2.7-19.3 25.8-30.5-6.1-8-31.7h-6.9L280 284l-30.3 5.9-19.5-26.3-6.4 2.7 4.3 32.5-26.8 17.5-8.8-5.3-19.8-11.8-4.8 4.8 17.3 28.8-17.2 25.7-32.4-4.6-2.6 6.3 26.2 19.7-6.1 30.4-31.7 8.1v6.9l31.7 8.2 6 30.6-25.9 19.4 2.6 6.3 31.9-4.5 17.4 26.5-16.3 28 4.9 4.9 27.7-16.8 26.4 17.6-4.2 31.2 6.4 2.7 18.7-25.4 31.3 6.2 8.1 30.1h6.9l7.5-30 31.6-6.2 18.8 24.6 6.4-2.7-4.6-30.6 25.6-17.5 26.2 15.3 5-5-15.1-26.1 18.2-26.7 30.7 4.3 2.7-6.4-25-19 6.2-31.4 30.2-7.8v-6.9l-30.1-7.8-6.1-31.3zM290.8 544.2c-68 0-123-55.1-123-123 0-68 55.1-123 123-123s123 55.1 123 123-55.1 123-123 123z"/><path d="M326.6 319.5l-27 100.5 72 72.1c17.3-19.7 26.8-44.6 26.8-71 0-28.8-11.2-55.8-31.5-76.1-11.6-11.6-25.3-20.2-40.3-25.5z"/></g><g fill="#14182D"><path d="M440.6 385.5l26.5-20.1-11.7-28.5-33.1 4.6-7.2-10.2 17-28.6-21.7-21.7-29 16.7-10.3-7 5.1-33.7-28.3-11.8-20.8 27.2-11.8-2.5-8.4-33.4h-30.8l-8.8 33.6-11.6 2.3-20.7-27.8-28.4 11.8 4.6 34.3-11.2 6.9-30.1-18-21.7 21.7 18.1 30.3-6.4 10.1-34.1-4.8-11.7 28.5 27.8 20.9-2.3 11.7-33.4 8.6v30.8l33.3 8.6 2.3 12-27.3 20.5 11.8 28.4 33.6-4.8 6.8 10.9-17.2 29.4 21.7 21.7 29-17.5 10.8 7-4.3 33 28.4 11.7 19.8-26.7 12.9 2.4 8.5 31.8h30.8l8-31.8 13.1-2.5 19.9 26.1 28.4-11.7-4.8-32.4 9.8-7.1 27.9 16.2 21.7-21.7-16.4-27.9 7.6-11 32.5 4.6 11.8-28.4-26.1-19.7 2.6-13 32-8.3v-30.8l-32-8.4-2.5-12.5zm18.7 39.7l-30.2 7.8-6.2 31.4 25 19-2.7 6.4-30.7-4.3-18.2 26.7 15.1 26.1-5 5-26.2-15.3-25.6 17.5 4.6 30.6-6.4 2.7-18.8-24.6-31.6 6.2-7.5 30H288l-8.1-30.1-31.3-6.2-18.7 25.4-6.4-2.7 4.2-31.2-26.5-17.6-27.7 16.8-4.9-4.9 16.3-28-17.4-26.5-31.9 4.5-2.6-6.3 25.9-19.4-6-30.6-31.7-8.2v-6.9l31.7-8.1L159 380l-26.2-19.7 2.6-6.3 32.4 4.6 17.1-25.8-17.3-28.8 4.8-4.8 19.8 11.8 8.8 5.3 26.8-17.5-4.3-32.5 6.4-2.7 19.5 26.3 30.3-5.9 8.5-31.9h6.9l8 31.7 30.5 6.1 19.3-25.8 6.3 2.7-4.8 31.8 26.1 17.4 27.2-15.6 4.9 4.9-16 26.9 17.7 26 31.2-4.4 2.7 6.4-25.2 19 6.2 31.2 30.1 7.8v7z"/><path d="M290.5 298.2c-68 0-123 55.1-123 123 0 68 55.1 123 123 123s123-55.1 123-123c.1-67.9-55-123-123-123zm-107.6 123c0-28.8 11.2-55.8 31.5-76.1 20.3-20.3 47.4-31.5 76.1-31.5 7.2 0 14.3.7 21.2 2.1L285 415.5l-100.1 26.8c-1.3-6.8-2-13.9-2-21.1zm107.6 107.7c-28.8 0-55.8-11.2-76.1-31.5-11.5-11.5-20-25.1-25.3-39.9l99.4-26.4 72 72c-19.5 16.6-44 25.8-70 25.8zm80.9-36.6l-72-72.1 27-100.5c15 5.3 28.7 13.9 40.3 25.5 20.3 20.3 31.5 47.4 31.5 76.1 0 26.3-9.5 51.3-26.8 71z"/></g></g></svg>