<svg xmlns="http://www.w3.org/2000/svg" viewBox="318.4 382.5 1160.6 547.5"><path fill="#3A3A3A" d="M707.9 849.9c-14-5-34-6.7-46.7-9.5-7.4-1.6-18.1-5.7-21.6-10-3.6-4.4-1.4-44.3-1.4-44.3s6.6-10.4 10.2-19.5c3.6-9.1 7.4-34 7.4-34s7.4 0 10-12.9c2.8-14.1 7.1-19.9 6.6-30.4-.5-9.7-5.6-10.3-6.2-10.3 0 0 5.3-14.7 6-45.9.8-36.9-27.4-73.2-80.4-73.2-53 0-81.1 36.2-80.4 73.1.7 31 6 45.9 6 45.9-.5 0-5.6.5-6.2 10.3-.5 10.5 3.9 16.1 6.6 30.2 2.6 12.9 10 13 10 13s3.9 25 7.4 34.1c3.6 9.2 10.2 19.5 10.2 19.5s2.2 39.9-1.4 44.3c-3.6 4.4-14.3 8.3-21.6 10-12.9 2.8-32.8 4.7-46.7 9.6-14 5-57 21.8-57 56.3h346c.2-34.6-42.8-51.3-56.8-56.3zM591.8 889H443.3c2.2-3.3 5.1-5.5 8.9-8.2 7.6-5.5 17.4-10.6 29.3-14.7 7.4-2.6 18.1-4.4 27.4-5.7 6.2-1 12-1.8 17.2-3 3.7-.8 22.5-5.4 31.1-15.8 4.9-5.9 6.3-13.7 6-34.9-.1-10.8-.7-20.9-.7-21.3l-.2-4.5-2.3-3.9c-1.6-2.5-6.3-10.3-8.6-16.6-1.9-5.1-5-20.7-6.5-30.4 0 0 .4 1.1-.5-4-1-5.1-9.1-4.7-10.2-8.6-1-3.9-1.9-7.4-4.7-19.7-2.7-12.2 3-12.1 4.2-17.5.7-3.3 0-6.2 0-6.3-.3-1.1-4.4-14.5-5.1-40.8-.3-14.3 5-27.7 14.9-37.7 11.5-11.7 28.1-17.8 48.1-17.8 20.6 0 36.8 6.2 48.2 17.8 10 10 15.2 23.5 14.9 37.7-.5 26.2-4.7 39.6-5.1 40.8 0 .1-.7 1.8-.4 5.6.2 5.9 7.4 5.9 4.7 18.2-2.7 12.2-3.7 15.8-4.7 19.7-1 3.9-9.2 3.6-10.2 8.6-1 5.1-.5 4-.5 4-1.5 9.6-4.5 25.3-6.5 30.4-2.5 6.3-7.1 14.1-8.6 16.6l-2.5 3.8-.2 4.5c0 .4-.5 10.5-.7 21.3-.2 21.2 1.2 29.1 6 34.9 8.6 10.3 27.4 14.9 31.1 15.8 5.2 1.2 11 2.1 17.2 3 9.4 1.4 20.1 3.1 27.4 5.7 11.9 4.2 21.8 9.3 29.3 14.8 3.8 2.7 6.7 5 8.9 8.2H591.8zM1253.6 849.9c-14-5-34-6.7-46.7-9.5-7.4-1.6-18.1-5.7-21.6-10-3.6-4.4-1.4-44.3-1.4-44.3s6.6-10.4 10.2-19.5c3.6-9.1 7.4-34 7.4-34s7.4 0 10-12.9c2.8-14.1 7.1-19.9 6.6-30.4-.5-9.7-5.6-10.3-6.2-10.3 0 0 5.3-14.7 6-45.9.8-36.9-27.4-73.2-80.4-73.2-53 0-81.1 36.2-80.4 73.1.7 31 6 45.9 6 45.9-.5 0-5.6.5-6.2 10.3-.5 10.5 3.9 16.1 6.6 30.2 2.6 12.9 10 13 10 13s3.9 25 7.4 34.1c3.6 9.2 10.2 19.5 10.2 19.5s2.2 39.9-1.4 44.3c-3.6 4.4-14.3 8.3-21.6 10-12.9 2.8-32.8 4.7-46.7 9.6-14 5-57 21.8-57 56.3h346c.2-34.6-42.8-51.3-56.8-56.3zM1137.5 889H989c2.2-3.3 5.1-5.5 8.9-8.2 7.6-5.5 17.4-10.6 29.3-14.7 7.4-2.6 18.1-4.4 27.4-5.7 6.2-1 12-1.8 17.2-3 3.7-.8 22.5-5.4 31.1-15.8 4.9-5.9 6.3-13.7 6-34.9-.1-10.8-.7-20.9-.7-21.3l-.2-4.5-2.5-3.8c-1.6-2.5-6.3-10.3-8.6-16.6-1.9-5.1-5-20.7-6.5-30.4 0 0 .4 1.1-.5-4-1-5.1-9.1-4.7-10.2-8.6-1-3.9-1.9-7.4-4.7-19.7-2.7-12.2 3-12.1 4.2-17.5.7-3.3 0-6.2 0-6.3-.3-1.1-4.4-14.5-5.1-40.8-.3-14.3 5-27.7 14.9-37.7 11.5-11.7 28.1-17.8 48.1-17.8 20.6 0 36.8 6.2 48.2 17.8 10 10 15.2 23.5 14.9 37.7-.5 26.2-4.7 39.6-5.1 40.8 0 .1-.7 1.8-.4 5.6.2 5.9 7.4 5.9 4.7 18.2-2.7 12.2-3.7 15.8-4.7 19.7-1 3.9-9.2 3.6-10.2 8.6s-.5 4-.5 4c-1.5 9.6-4.5 25.3-6.5 30.4-2.5 6.3-7.1 14.1-8.6 16.6l-2.5 3.8-.2 4.5c0 .4-.5 10.5-.7 21.3-.2 21.2 1.2 29.1 6 34.9 8.6 10.3 27.4 14.9 31.1 15.8 5.2 1.2 11 2.1 17.2 3 9.4 1.4 20.1 3.1 27.4 5.7 11.9 4.2 21.8 9.3 29.3 14.8 3.8 2.7 6.7 5 8.9 8.2l-147.9-.1z"/><path fill="#36C" d="M860.1 382.5c-39.8 0-77.3 12.5-105.6 35.2-28.7 23.1-44.6 53.9-44.6 86.8 0 22.2 7.4 43.9 21.3 62.8 3.9 5.3 5.9 12.1 5.5 18.9-.6 8.9-3.2 23.3-11.9 41.2-1.4 2.8-.9 6.1 1.3 8.4 1.4 1.5 3.4 2.4 5.5 2.4 1 0 1.9-.2 2.8-.6l46.2-18.8c4.2-1.7 8.8-2.6 13.3-2.6 3.7 0 7.2.6 10.7 1.7 17.7 5.8 36.4 8.7 55.6 8.7 39.8 0 77.3-12.5 105.6-35.2 28.7-23.1 44.6-53.9 44.6-86.8 0-67.4-67.4-122.1-150.3-122.1zm.2 229.1c-17.7 0-34.8-2.7-51-7.9-4.9-1.6-10.1-2.5-15.4-2.5-6.4 0-13 1.3-18.9 3.7l-29.6 12c4.2-12.4 5.8-22.6 6.3-29.8.6-10.4-2.3-20.6-8.4-28.8-12-16.3-18.4-34.9-18.4-53.9 0-59 60.6-107.1 135.2-107.1s135.3 48.1 135.3 107.1c0 59.2-60.6 107.2-135.1 107.2z"/><path fill="#FFF" d="M1003.9 624.1l13.1 5.3c-1.5-5.5-2.1-10.1-2.3-13.6-.4-7.2 1.6-14.3 5.8-19.9 7.2-9.7 11-20.8 11-32.1 0-35.4-36.7-64.2-81.8-64.2-45.2 0-81.9 28.8-81.9 64.3 0 35.4 36.7 64.2 81.8 64.2 10.8 0 21.2-1.6 31.1-4.8 3.3-1.1 6.8-1.7 10.5-1.7 4.3 0 8.6.8 12.7 2.5z"/><path fill="#6C6" d="M1029.6 614.9c-.2-3.6.8-7.2 2.9-10 9.1-12.3 13.9-26.5 13.9-41 0-43.7-43.4-79.2-96.8-79.2s-96.9 35.6-96.9 79.3c0 43.7 43.4 79.2 96.8 79.2 12.3 0 24.4-1.9 35.8-5.6 4.1-1.4 8.9-1.2 13 .5l28.9 11.8c.9.4 1.9.6 2.8.6h.1c4.1 0 7.4-3.4 7.4-7.5 0-1.4-.4-2.6-1-3.7-5-10.8-6.5-19.2-6.9-24.4zm-80.1 13.2c-45.1 0-81.8-28.8-81.8-64.2 0-35.4 36.7-64.3 81.9-64.3 45.1 0 81.8 28.8 81.8 64.2 0 11.3-3.8 22.4-11 32.1-4.2 5.6-6.2 12.7-5.8 19.9.2 3.5.9 8.1 2.3 13.6l-13.1-5.3c-4.1-1.7-8.4-2.5-12.9-2.5-3.6 0-7.1.6-10.5 1.7-9.7 3.2-20.1 4.8-30.9 4.8z"/><path fill="#8896D3" d="M422.26 777.128L553.073 907.94l-7.424 7.426-130.815-130.814z"/><path fill="#11162D" d="M567.7 907.9L427.5 767.6l-26-26-22.1 22.1 27.1 27.1L545.7 930l22-22.1zM422.3 777.1l130.8 130.8-7.4 7.4-130.8-130.8 7.4-7.4z"/><g fill="#F36"><path d="M396.3 686h10.4v26h-10.4zM396.3 818.5h10.4v26h-10.4zM458.6 758.7h26v10.4h-26zM318.4 758.7h26v10.4h-26z"/></g><g fill="#F7CF6D"><path d="M360.155 731.416L341.77 713.03l7.354-7.353 18.385 18.385zM349.166 825.024l-7.354-7.354 18.385-18.385 7.354 7.354zM453.77 705.686l7.355 7.354-18.385 18.385-7.353-7.354z"/></g><g><path fill="none" d="M1393.6 734.6c0-6.2-4-10.7-10.2-10.7h-57.6c-6.4 0-8.1 4.7-8.1 10.7v11h75.9v-11z"/><path fill="#FFF" d="M1279.7 771.3h-19v-9.5h-19v28.5h227.8v-28.5h-19v9.5h-19v-9.5h-151.8M1241.7 799.8h227.8v116.4h-227.8z"/><path fill="#685942" d="M1232.2 752.3v173.4H1479V752.3h-28.5v-9.5h-19v9.5H1403v-19c-.3-10.8-8.1-19-19.1-19h-58.8c-11 0-17 8.1-17 19v19h-28.5v-9.5h-19v9.5h-28.4zm237.3 163.9h-227.8V799.8h227.8v116.4zm-151.8-181.6c0-6 1.7-10.7 8.1-10.7h57.6c6.2 0 10.2 4.6 10.2 10.7v17.8h-75.9v-17.8zm113.8 27.2v9.5h19v-9.5h19v28.5h-227.8v-28.5h19v9.5h19v-9.5h151.8z"/></g></svg>