<svg xmlns="http://www.w3.org/2000/svg" viewBox="419.4 209.9 610 520.6"><g fill="#3A3A3A"><path d="M679.7 253.3H658v108.4h108.5v-21.6h-86.8"/><path d="M708.6 209.9H484.5V275h-65.1v455.5h325.4v-65.1h65.1V311.6L708.6 209.9zm14.5 498.9h-282V296.7h43.4v368.7h238.6v43.4zm65.1-65.1h-282V231.6h193.5l88.5 88.9v323.2z"/></g><path fill="#B5EAE6" d="M770 514.3L981.3 303l-12-11.9L758 502.4"/><path fill="#11162D" d="M995.2 316.9L981.3 303 770 514.3l-12-11.9 211.3-211.3-14-14-6.5 6.5-211.3 211.3-4.1 4.1v39.9h39.8l4.9-5 215.3-215.2"/><path fill="#EAA0E0" d="M983.8 276.7l25.9 25.9 15-15c2.9-3.2 4.7-7.5 4.7-12.2 0-4.7-1.7-9.1-4.7-12.3l-15.4-15.4c-3.3-2.9-7.6-4.7-12.3-4.7-4.7 0-9 1.8-12.2 4.7l-15 15 .1.1 13.9 13.9z"/><g fill="#6C6"><path d="M658.2 407.7c15.6 1.3 30.1 7.9 41.3 19.1 12.5 12.5 19.4 29.1 19.4 46.7 0 8.9-1.7 17.6-5.2 25.7-3.3 7.9-8.1 14.9-14.2 21s-13.2 10.8-21 14.2c-8.2 3.4-16.8 5.2-25.7 5.2-14.2 0-27.7-4.4-39.1-12.8-5.5-4-10.3-8.9-14.3-14.4-2.9-3.9-5.3-8.2-7.2-12.6l62.1-15.5 4.2-1v-75.6m-5.8-5.8V479l-68.1 17c9.4 28.5 36.4 49.1 68.1 49.1 39.6 0 71.7-32.1 71.7-71.6s-32.1-71.6-71.7-71.6z"/><path d="M641.7 396.5v74l-62.1 15.7c-3.1-8.1-3.9-19.6-3.8-23.9 0-16.3 5.7-32.3 15.6-43.9 5.8-6.8 12.9-12 21.3-15.7 8.3-3.8 18.1-5.9 29-6.2m5.5-5.6h-1.9c-55.1 0-75.2 40-75.2 71.4 0 0 .1 19.5 6.5 30.4l70.6-17.9v-83.9z"/></g><g><path fill="#36C" d="M746.3 581.1v-7.8H548v15.6h198.3"/><path fill="#F36" d="M746.3 606.1v-7.8H548v15.6h198.3"/></g></svg>