<svg xmlns="http://www.w3.org/2000/svg" viewBox="398.6 155.5 352 477.5"><path fill="#3A3A3A" d="M687.1 377h-225l-63.5 96v160h352V473l-63.5-96zm44.9 96h-45.4v-68l45.4 68zm-253.4-80h192v80h-48c0 26.5-21.5 48-48 48s-48-21.5-48-48h-48v-80zm-16 12v68h-45.4l45.4-68zm272 212h-320V489h98c7.1 27.6 32.2 48 62 48s54.9-20.4 62-48h98v128z"/><path fill="#FFF" d="M567 346.4l7.6-6.7 7.5 6.7c1.3 1.2 32.5 29.3 32.5 65.5 0 11-2.9 21.2-6.9 30.2-.3.7-.6 1.3-.9 2-.1.2-.2.3-.2.5-1.7 3.5-3.6 6.9-5.5 9.9 4.6-2.6 9.4-5.8 14.1-9.8 9.7-8.3 17.8-18.8 24-31.1 7.7-15.2 12.6-33.4 14.6-54C657 326.3 647 289 624.7 252c-15.4-25.5-35.8-49.9-59-70.4.3 40.9-17.7 64.2-35.2 87-18.4 23.9-35.9 46.6-35.6 92.1.1 17.9 3.8 34.3 11 48.7 5.9 12 14.3 22.6 24.7 31.6 5.5 4.8 11.1 8.6 16.4 11.7-.1-.1-.1-.2-.2-.4-6.6-11-12.3-24.9-12.3-40.3-.2-36.3 31.2-64.5 32.5-65.6z"/><path fill="#FFF" d="M574.6 354.9s-28.9 25.5-28.9 57 29 57 29 57 28.6-25.5 28.6-57-28.7-57-28.7-57z"/><path fill="#F7CF6D" d="M551.7 155.5c18.3 103.3-68.9 101.1-68.3 205.1.5 85.1 74.8 113.9 91.2 113.9-16.1-7.8-24.3-16.8-28-22.3.1.1.1.2.2.4-5.3-3.1-10.8-6.9-16.4-11.7-10.5-9-18.8-19.7-24.7-31.6-7.2-14.4-10.9-30.8-11-48.7-.3-45.6 17.2-68.2 35.6-92.1 17.5-22.7 35.5-46.1 35.2-87 23.2 20.5 43.6 44.9 59 70.4 22.3 37.1 32.4 74.3 29.1 107.6-2 20.6-6.9 38.8-14.6 54-6.2 12.4-14.3 22.9-24 31.1-4.6 4-9.4 7.2-14.1 9.8 1.9-3.1 3.8-6.4 5.5-9.9-12.6 25.8-31.9 30-31.9 30 16.5 0 81.1-18.5 90.4-113.9 7.7-77.8-51.5-159.5-113.2-205.1z"/><path fill="#F36" d="M606.6 444.5c.1-.2.2-.3.2-.5.3-.6.6-1.3.9-2 4-9 6.9-19.2 6.9-30.2 0-36.2-31.2-64.3-32.5-65.5l-7.5-6.7-7.6 6.7c-1.3 1.2-32.7 29.3-32.7 65.5 0 15.4 5.7 29.3 12.3 40.3 3.8 5.5 11.9 14.6 28 22.3.1.1 19.4-4.1 32-29.9zm-31.9 24.3s-29-25.5-29-57 28.9-57 28.9-57 28.7 25.5 28.7 57-28.6 57-28.6 57z"/><g><path opacity=".8" fill="#FFF" d="M574.6 314.2c-81.1 0-147 65.9-147 147s65.9 147 147 147 147-65.9 147-147-66-147-147-147z"/><path fill="#36C" d="M574.6 300.2c-88.8 0-161 72.2-161 161s72.2 161 161 161 161-72.2 161-161-72.3-161-161-161zm0 308c-81.1 0-147-65.9-147-147s65.9-147 147-147 147 65.9 147 147-66 147-147 147z"/><path fill="#6C6" d="M549 524.4c-2 2-5 3.8-7.5 3.8s-5.5-1.8-7.6-3.8l-47.8-47.8 15.2-15.2 40.3 40.3 106.5-107.3 14.9 15.5-114 114.5z"/></g></svg>