<svg xmlns="http://www.w3.org/2000/svg" viewBox="-575 -154.5 1337.9 438"><g fill="#7A797A"><path d="M-109.1 259.2h-11.3c-.6 0-1-.5-1-1v-2.5h13.3v2.5c0 .5-.5 1-1 1zM37.9 259.2H26.6c-.6 0-1-.5-1-1v-2.5h13.3v2.5c0 .5-.4 1-1 1z"/></g><path fill="#FAFAFA" d="M-143.2 177H60.9v78.7h-204.1z"/><path fill="#202019" d="M60.7 256.4h-204c-.4 0-.8-.4-.8-.8V177c0-.4.4-.8.8-.8h204c.4 0 .8.4.8.8v78.7c.1.3-.3.7-.8.7zm-203.2-1.6H60v-77.1h-202.5v77.1z"/><path fill="#95D4EE" d="M-58.9 234.1h-73c-1.3 0-2.1-1-2.1-2.1v-46c0-1.3 1-2.1 2.1-2.1h73c1.3 0 2.1 1 2.1 2.1v45.9c0 1.3-.9 2.2-2.1 2.2z"/><path fill="#FFF" d="M-132.4 185.3h74v47.4h-74z"/><path fill="none" d="M-112.1 194.9h8.2v9.2h-8.2zM-112.1 185.4h8.2v9.2h-8.2zM-112.1 204.3h8.2v9.2h-8.2zM-103.7 223.3h8.2v9.2h-8.2zM-112.1 213.9h8.2v9.2h-8.2zM-103.7 194.9h8.2v9.2h-8.2zM-95.3 223.3h8.2v9.2h-8.2zM-112.1 223.3h8.2v9.2h-8.2zM-103.7 185.4h8.2v9.2h-8.2zM-103.7 204.3h8.2v9.2h-8.2zM-103.7 213.9h8.2v9.2h-8.2zM-129.1 204.3h8.2v9.2h-8.2zM-129.1 213.9h8.2v9.2h-8.2zM-129.1 185.4h8.2v9.2h-8.2zM-129.1 223.3h8.2v9.2h-8.2zM-120.5 223.3h8.2v9.2h-8.2zM-120.5 204.3h8.2v9.2h-8.2zM-120.5 194.9h8.2v9.2h-8.2zM-120.5 185.4h8.2v9.2h-8.2zM-120.5 213.9h8.2v9.2h-8.2zM-129.1 194.9h8.2v9.2h-8.2zM-78.5 185.4h8.2v9.2h-8.2zM-95.3 213.9h8.2v9.2h-8.2zM-70 223.3h8.2v9.2H-70zM-78.5 194.9h8.2v9.2h-8.2zM-78.5 204.3h8.2v9.2h-8.2zM-70 194.9h8.2v9.2H-70zM-70 185.4h8.2v9.2H-70zM-70 204.3h8.2v9.2H-70zM-78.5 213.9h8.2v9.2h-8.2zM-70 213.9h8.2v9.2H-70zM-95.3 185.4h8.2v9.2h-8.2zM-95.3 194.9h8.2v9.2h-8.2zM-95.3 204.3h8.2v9.2h-8.2zM-86.9 223.3h8.2v9.2h-8.2zM-86.9 194.9h8.2v9.2h-8.2zM-86.9 185.4h8.2v9.2h-8.2zM-78.5 223.3h8.2v9.2h-8.2zM-86.9 213.9h8.2v9.2h-8.2zM-86.9 204.3h8.2v9.2h-8.2z"/><path fill="#FAFAFA" d="M-58.4 185.4v-.3h-74v.3h3.1v9.2h-3.1v.3h3.1v9.2h-3.1v.3h3.1v9.2h-3.1v.3h3.1v9.2h-3.1v.3h3.1v9.2h-3.1v.3h74v-.3h-3.1V223h3.1v-.3h-3.1v-8.9h3.1v-.3h-3.1v-9.2h3.1v-.3h-3.1v-9.2h3.1v-.3h-3.1v-9.2h3.1v.1zm-62.4 47.2h-8.2v-9.2h8.2v9.2zm0-9.6h-8.2v-9.2h8.2v9.2zm0-9.4h-8.2v-9.2h8.2v9.2zm0-9.5h-8.2v-9.2h8.2v9.2zm0-9.4h-8.2v-9.2h8.2v9.2zm8.4 37.9h-8.2v-9.2h8.2v9.2zm0-9.6h-8.2v-9.2h8.2v9.2zm0-9.4h-8.2v-9.2h8.2v9.2zm0-9.5h-8.2v-9.2h8.2v9.2zm0-9.4h-8.2v-9.2h8.2v9.2zm8.4 37.9h-8.2v-9.2h8.2v9.2zm0-9.6h-8.2v-9.2h8.2v9.2zm0-9.4h-8.2v-9.2h8.2v9.2zm0-9.5h-8.2v-9.2h8.2v9.2zm0-9.4h-8.2v-9.2h8.2v9.2zm8.4 37.9h-8.2v-9.2h8.2v9.2zm0-9.6h-8.2v-9.2h8.2v9.2zm0-9.4h-8.2v-9.2h8.2v9.2zm0-9.5h-8.2v-9.2h8.2v9.2zm0-9.4h-8.2v-9.2h8.2v9.2zm8.4 37.9h-8.2v-9.2h8.2v9.2zm0-9.6h-8.2v-9.2h8.2v9.2zm0-9.4h-8.2v-9.2h8.2v9.2zm0-9.5h-8.2v-9.2h8.2v9.2zm0-9.4h-8.2v-9.2h8.2v9.2zm8.4 37.9H-87v-9.2h8.2v9.2zm0-9.6H-87v-9.2h8.2v9.2zm0-9.4H-87v-9.2h8.2v9.2zm0-9.5H-87v-9.2h8.2v9.2zm0-9.4H-87v-9.2h8.2v9.2zm8.6 37.9h-8.2v-9.2h8.2v9.2zm0-9.6h-8.2v-9.2h8.2v9.2zm0-9.4h-8.2v-9.2h8.2v9.2zm0-9.5h-8.2v-9.2h8.2v9.2zm0-9.4h-8.2v-9.2h8.2v9.2zm8.4 37.9H-70v-9.2h8.2v9.2zm0-9.6H-70v-9.2h8.2v9.2zm0-9.4H-70v-9.2h8.2v9.2zm0-9.5H-70v-9.2h8.2v9.2zm0-9.4H-70v-9.2h8.2v9.2z"/><g><path fill="#CED5D6" d="M49.4 239.6h-90.2c-1.3 0-2.1-1-2.1-2.1V186c0-1.3 1-2.1 2.1-2.1h90.2c1.3 0 2.1 1 2.1 2.1v51.4c.1 1.2-.9 2.2-2.1 2.2z"/><path fill="#FFF" d="M-41.2 185.3H50v52.8h-91.2z"/></g><path fill="#FFF" d="M-60.8 251.6H-130c-.9 0-1.5-.6-1.5-1.5v-10.7c0-.9.6-1.5 1.5-1.5h69.2c.9 0 1.5.6 1.5 1.5v10.7c0 .9-.6 1.5-1.5 1.5z"/><g><circle fill="#F4CD7D" cx="-122.9" cy="244.9" r="4.6"/><circle opacity=".5" fill="#FAFAFA" cx="-121" cy="242.5" r="1.1"/></g><g><circle fill="#F4CD7D" cx="-106.2" cy="244.9" r="4.6"/><circle opacity=".5" fill="#FAFAFA" cx="-103.7" cy="246.5" r="1.1"/></g><circle fill="#E48976" cx="-65.5" cy="244.9" r="2.1"/><circle fill="#C2D780" cx="-72.6" cy="244.9" r="2.1"/><g><circle fill="#C6C5C6" cx="-31.8" cy="246.7" r="3.9"/><circle fill="#FAFAFA" cx="-31.8" cy="246.7" r="2.6"/><circle fill="#C6C5C6" cx="-7.8" cy="246.7" r="3.9"/><circle fill="#FAFAFA" cx="-7.8" cy="246.7" r="2.6"/><circle fill="#C6C5C6" cx="16.3" cy="246.7" r="3.9"/><circle fill="#FAFAFA" cx="16.3" cy="246.7" r="2.6"/><circle fill="#C6C5C6" cx="40.4" cy="246.7" r="3.9"/><circle fill="#FAFAFA" cx="40.4" cy="246.7" r="2.6"/></g><g><path fill="#63C4E1" d="M-58.4 206.5c-2 0-2.9-3.8-3.8-7.7-.8-3.4-1.6-7.2-3-7.2s-2.3 3.8-3 7.2c-.9 4-1.8 7.7-3.8 7.7s-2.9-3.8-3.8-7.7c-.8-3.4-1.6-7.2-3-7.2s-2.3 3.8-3 7.2c-.9 4-1.8 7.7-3.8 7.7s-2.9-3.8-3.8-7.7c-.8-3.4-1.6-7.2-3-7.2s-2.3 3.8-3 7.2c-.9 4-1.8 7.7-3.8 7.7s-2.9-3.8-3.8-7.7c-.8-3.4-1.6-7.2-3-7.2s-2.3 3.8-3 7.2c-.9 4-1.8 7.7-3.8 7.7s-2.9-3.8-3.8-7.7c-.8-3.4-1.6-7.2-3-7.2s-2.3 3.8-3 7.2c-.9 4-1.8 7.7-3.8 7.7s-2.9-3.8-3.8-7.7c-.8-3.4-1.6-7.2-3-7.2v-.8c2 0 2.9 3.8 3.8 7.7.8 3.4 1.6 7.2 3 7.2s2.3-3.8 3-7.2c.9-4 1.8-7.7 3.8-7.7s2.9 3.8 3.8 7.7c.8 3.4 1.6 7.2 3 7.2s2.3-3.8 3-7.2c.9-4 1.8-7.7 3.8-7.7s2.9 3.8 3.8 7.7c.8 3.4 1.6 7.2 3 7.2s2.3-3.8 3-7.2c.9-4 1.8-7.7 3.8-7.7s2.9 3.8 3.8 7.7c.8 3.4 1.6 7.2 3 7.2s2.3-3.8 3-7.2c.9-4 1.8-7.7 3.8-7.7 2 0 2.9 3.8 3.8 7.7.8 3.4 1.6 7.2 3 7.2s2.3-3.8 3-7.2c.9-4 1.8-7.7 3.8-7.7 2 0 2.9 3.8 3.8 7.7.8 3.4 1.6 7.2 3 7.2v.8z"/><path fill="#96C991" d="M-63.7 228.7c-1.6 0-2.1-3.5-3-9.2-.5-3.4-1.3-8.5-2.3-8.5s-1.8 5.1-2.3 8.5c-.9 5.8-1.5 9.2-3 9.2-1.6 0-2.1-3.5-3-9.2-.5-3.4-1.3-8.5-2.3-8.5s-1.8 5.1-2.3 8.5c-.9 5.8-1.5 9.2-3 9.2s-2.1-3.5-3-9.2c-.5-3.4-1.3-8.5-2.3-8.5s-1.8 5.1-2.3 8.5c-.9 5.8-1.5 9.2-3 9.2-1.6 0-2.1-3.5-3-9.2-.5-3.4-1.3-8.5-2.3-8.5s-1.8 5.1-2.3 8.5c-.9 5.8-1.5 9.2-3 9.2-1.6 0-2.1-3.5-3-9.2-.5-3.4-1.3-8.5-2.3-8.5s-1.8 5.1-2.3 8.5c-.9 5.8-1.5 9.2-3 9.2-1.6 0-2.1-3.5-3-9.2-.5-3.4-1.3-8.5-2.3-8.5s-1.8 5.1-2.3 8.5c-.9 5.8-1.5 9.2-3 9.2-1.6 0-2.1-3.5-3-9.2-.5-3.4-1.3-8.5-2.3-8.5v-.9c1.6 0 2.1 3.5 3 9.2.5 3.4 1.3 8.5 2.3 8.5 1 0 1.8-5.1 2.3-8.5.9-5.8 1.5-9.2 3-9.2s2.1 3.5 3 9.2c.5 3.4 1.3 8.5 2.3 8.5 1 0 1.8-5.1 2.3-8.5.9-5.8 1.5-9.2 3-9.2 1.6 0 2.1 3.5 3 9.2.5 3.4 1.3 8.5 2.3 8.5 1 0 1.8-5.1 2.3-8.5.9-5.8 1.5-9.2 3-9.2 1.6 0 2.1 3.5 3 9.2.5 3.4 1.3 8.5 2.3 8.5 1 0 1.8-5.1 2.3-8.5.9-5.8 1.5-9.2 3-9.2 1.6 0 2.1 3.5 3 9.2.5 3.4 1.3 8.5 2.3 8.5s1.8-5.1 2.3-8.5c.9-5.8 1.5-9.2 3-9.2s2.1 3.5 3 9.2c.5 3.4 1.3 8.5 2.3 8.5s1.8-5.1 2.3-8.5c.9-5.8 1.5-9.2 3-9.2s2.1 3.5 3 9.2c.5 3.4 1.3 8.5 2.3 8.5s1.8-5.1 2.3-8.5c.9-5.8 1.5-9.2 3-9.2v.8c-1 0-1.8 5.1-2.3 8.5-.9 5.8-1.4 9.3-3 9.3z"/></g><g><path fill="#D5D786" d="M-38.2 226.9H-.8v9.7h-37.4z"/><path fill="#FAFAFA" d="M-36.5 228.6h20.7v1.8h-20.7zM-36.5 233.2h31v1.8h-31z"/></g><path fill="#CED5D6" d="M46.1 212.5h-83.5c-.4 0-.8-.4-.8-.8s.4-.8.8-.8h83.5c.4 0 .8.4.8.8s-.3.8-.8.8z"/><g fill="#395377"><path d="M-9.4 190.3h-28c-.5 0-.9-.4-.9-.9s.4-.9.9-.9h28c.5 0 .9.4.9.9-.1.5-.5.9-.9.9zM18.1 190.3H3.8c-.5 0-.9-.4-.9-.9s.4-.9.9-.9h14.3c.5 0 .9.4.9.9s-.4.9-.9.9zM46.1 190.3H27.7c-.5 0-.9-.4-.9-.9s.4-.9.9-.9H46c.5 0 .9.4.9.9s-.3.9-.8.9z"/></g><g><path fill="#C6C5C6" d="M-35.2 208.6h-.4c-.1 0-.3-.1-.3-.3v-15.6c0-.1.1-.3.3-.3h.4c.1 0 .3.1.3.3v15.6c-.1.2-.2.3-.3.3z"/><path fill="#95D4EE" d="M-33.8 197.7h-3.3c-.3 0-.4-.1-.4-.4v-1.8c0-.3.1-.4.4-.4h3.3c.3 0 .4.1.4.4v1.8c-.1.3-.2.4-.4.4z"/></g><g><path fill="#C6C5C6" d="M-11.1 208.6h-.4c-.1 0-.3-.1-.3-.3v-15.6c0-.1.1-.3.3-.3h.4c.1 0 .3.1.3.3v15.6c-.1.2-.2.3-.3.3z"/><path fill="#95D4EE" d="M-9.8 205.5H-13c-.3 0-.4-.1-.4-.4v-1.8c0-.3.1-.4.4-.4h3.3c.3 0 .4.1.4.4v1.8c-.1.2-.2.4-.5.4z"/></g><g><circle fill="#C2D780" cx="-24.6" cy="197.9" r="3.4"/><circle opacity=".5" fill="#FAFAFA" cx="-26.6" cy="197.1" r=".9"/></g><g fill="#575655"><path d="M-30.7 204h12.3v.5h-12.3zM-30.7 206h12.3v.5h-12.3z"/></g><g><circle fill="#C2D780" cx="34" cy="197.9" r="3.4"/><circle opacity=".5" fill="#FAFAFA" cx="35.5" cy="199.5" r=".9"/></g><g><path fill="#C6C5C6" d="M45.6 208.6h-.4c-.1 0-.3-.1-.3-.3v-15.6c0-.1.1-.3.3-.3h.4c.1 0 .3.1.3.3v15.6c-.1.2-.2.3-.3.3z"/><path fill="#95D4EE" d="M46.9 200.3h-3.1c-.3 0-.4-.1-.4-.4v-1.8c0-.3.1-.4.4-.4h3.3c.3 0 .4.1.4.4v1.8c-.2.2-.3.4-.6.4z"/></g><g fill="#575655"><path d="M27.9 203.7h12.3v.5H27.9zM27.9 205.9h12.3v.5H27.9z"/></g><g><path fill="#C6C5C6" d="M4.5 208.6h-.3c-.1 0-.3-.1-.3-.3v-15.6c0-.1.1-.3.3-.3h.4c.1 0 .3.1.3.3v15.6c-.1.2-.2.3-.4.3z"/><path fill="#95D4EE" d="M5.9 202.8H2.7c-.3 0-.4-.1-.4-.4v-1.8c0-.3.1-.4.4-.4H6c.3 0 .4.1.4.4v1.8c-.1.3-.2.4-.5.4z"/></g><g><circle fill="#C2D780" cx="13.6" cy="197.9" r="3.4"/><circle opacity=".5" fill="#FAFAFA" cx="12.2" cy="196.3" r=".9"/></g><path fill="#575655" d="M9.7 204.7h7.8v.5H9.7z"/><g fill="#575655"><path d="M4.8 227.7h12.3v.5H4.8zM4.8 230.3h7.7v.5H4.8z"/></g><g fill="#575655"><path d="M32 227.7h9.8v.5H32zM32 230.3h8.8v.5H32z"/></g><g><path fill="#F4CD7D" d="M8.6 236.2H6.7c-.6 0-1.3-.5-1.3-1.3 0-.6.5-1.3 1.3-1.3h1.9c.6 0 1.3.5 1.3 1.3-.1.8-.7 1.3-1.3 1.3z"/><path fill="#E48976" d="M15.2 236.2h-1.9c-.6 0-1.3-.5-1.3-1.3 0-.6.5-1.3 1.3-1.3h1.9c.6 0 1.3.5 1.3 1.3s-.5 1.3-1.3 1.3z"/></g><g><path fill="#F4CD7D" d="M34.5 236.2h-1.9c-.6 0-1.3-.5-1.3-1.3 0-.6.5-1.3 1.3-1.3h1.9c.6 0 1.3.5 1.3 1.3-.2.8-.7 1.3-1.3 1.3z"/><path fill="#E48976" d="M41.2 236.2h-1.9c-.6 0-1.3-.5-1.3-1.3 0-.6.5-1.3 1.3-1.3h1.9c.6 0 1.3.5 1.3 1.3-.2.8-.7 1.3-1.3 1.3z"/></g><g><path fill="#F4CD7D" d="M-35.1 217.6H-37c-.6 0-1.3-.5-1.3-1.3 0-.6.5-1.3 1.3-1.3h1.9c.6 0 1.3.5 1.3 1.3-.2.8-.7 1.3-1.3 1.3z"/><path fill="#C2D780" d="M-35.1 222.9H-37c-.6 0-1.3-.5-1.3-1.3 0-.6.5-1.3 1.3-1.3h1.9c.6 0 1.3.5 1.3 1.3-.2.7-.7 1.3-1.3 1.3z"/><path fill="#E48976" d="M-24.1 217.6H-26c-.6 0-1.3-.5-1.3-1.3 0-.6.5-1.3 1.3-1.3h1.9c.6 0 1.3.5 1.3 1.3-.1.8-.6 1.3-1.3 1.3z"/><path fill="#6083AD" d="M-24.1 222.9H-26c-.6 0-1.3-.5-1.3-1.3 0-.6.5-1.3 1.3-1.3h1.9c.6 0 1.3.5 1.3 1.3-.1.7-.6 1.3-1.3 1.3z"/><path fill="#FAFAFA" d="M-13 217.6h-1.9c-.6 0-1.3-.5-1.3-1.3 0-.6.5-1.3 1.3-1.3h1.9c.6 0 1.3.5 1.3 1.3-.2.8-.7 1.3-1.3 1.3z"/><path fill="#C2D780" d="M-13 222.9h-1.9c-.6 0-1.3-.5-1.3-1.3 0-.6.5-1.3 1.3-1.3h1.9c.6 0 1.3.5 1.3 1.3-.2.7-.7 1.3-1.3 1.3z"/><path fill="#6083AD" d="M-2 217.6h-1.9c-.6 0-1.3-.5-1.3-1.3 0-.6.5-1.3 1.3-1.3H-2c.6 0 1.3.5 1.3 1.3-.2.8-.7 1.3-1.3 1.3z"/><path fill="#F4CD7D" d="M-2 222.9h-1.9c-.6 0-1.3-.5-1.3-1.3 0-.6.5-1.3 1.3-1.3H-2c.6 0 1.3.5 1.3 1.3-.2.7-.7 1.3-1.3 1.3z"/></g><g><circle fill="#95D4EE" cx="10.9" cy="219.4" r="5.4"/><circle opacity=".5" fill="#FAFAFA" cx="13.2" cy="216.6" r="1.4"/></g><g><circle fill="#6083AD" cx="36.9" cy="219.4" r="5.4"/><circle opacity=".5" fill="#FAFAFA" cx="34.5" cy="216.9" r="1.4"/></g><path fill="#CED5D6" d="M24 236.2c-.3 0-.4-.1-.4-.4V214c0-.3.1-.4.4-.4.3 0 .4.1.4.4v21.8c0 .3-.3.4-.4.4z"/><g><g opacity=".3"><path fill="none" d="M420.7-43h59.4"/><path fill="#FAFAFA" d="M480.1-42.3h-59.3c-.4 0-.8-.4-.8-.8s.4-.8.8-.8h59.3c.4 0 .8.4.8.8s-.4.8-.8.8z"/></g><g opacity=".3"><path fill="none" d="M426.8-26h74.1"/><path fill="#FAFAFA" d="M500.9-25.2h-74.1c-.4 0-.8-.4-.8-.8s.4-.8.8-.8h74.1c.4 0 .8.4.8.8 0 .5-.4.8-.8.8z"/></g><g opacity=".3"><path fill="none" d="M406.6-34.7h54.3"/><path fill="#FAFAFA" d="M460.9-33.9h-54.2c-.4 0-.8-.4-.8-.8s.4-.8.8-.8h54.2c.4 0 .8.4.8.8s-.4.8-.8.8z"/></g><g opacity=".3"><path fill="none" d="M471.2-34.7h17.9"/><path fill="#FAFAFA" d="M489.1-33.9h-17.9c-.4 0-.8-.4-.8-.8s.4-.8.8-.8h17.9c.4 0 .8.4.8.8s-.4.8-.8.8z"/></g><g opacity=".3"><path fill="none" d="M492.5-43.8h22.3"/><path fill="#FAFAFA" d="M514.8-43h-22.2c-.4 0-.8-.4-.8-.8s.4-.8.8-.8h22.2c.4 0 .8.4.8.8s-.4.8-.8.8z"/></g><path opacity=".3" fill="#FAFAFA" d="M569.3-43.3c-.4-4.1-3.6-7.4-7.8-7.8-3-.3-5.6 1-7.4 3-.3.4-.3.9.1 1.1.4.3.8.1 1-.1 1.5-1.8 3.8-2.8 6.3-2.5 3.3.4 5.8 3 6.1 6.1.5 4.3-2.9 7.9-7 7.9H540c2.4-1.8 4-4.6 3.6-7.9-.4-4.1-3.6-7.4-7.8-7.8-3-.3-5.6 1-7.4 3-.3.4-.3.9.1 1.1.4.3.8.1 1-.1 1.5-1.8 3.8-2.8 6.3-2.5 3.3.4 5.8 3 6.1 6.1.5 4.3-2.9 7.9-7 7.9H510.2c-.4 0-.8.4-.9.8 0 .5.4.9.8.9h51.1c5.1-.3 8.6-4.3 8.1-9.2zM555.2-17.8c-.4 4.1-3.6 7.4-7.8 7.8-3 .3-5.6-1-7.4-3-.3-.4-.3-.9.1-1.1.4-.3.8-.1 1 .1 1.5 1.8 3.8 2.8 6.3 2.5 3.3-.4 5.8-3 6.1-6.1.5-4.3-2.9-7.9-7-7.9h-36c-.4 0-.8-.4-.9-.8 0-.5.4-.9.8-.9h37c4.7.5 8.2 4.6 7.8 9.4z"/><g><path fill="#F4CD7D" d="M632.5 231.2c-.5-.4-1.1-.6-1.9-.6-1 0-1.9.5-2.5 1.3l-15.2 20.6c-.1.3-.4.4-.6.4H348.4c-.4 0-.8-.4-.8-.8v-40.5c0-1.8-1.4-3.1-3.1-3.1s-3.1 1.4-3.1 3.1V256c0 1.8 1.4 3.1 3.1 3.1h269.8c1 0 1.9-.5 2.5-1.3l16.3-22.2c1-1.4.8-3.3-.6-4.4z"/><path fill="#202019" d="M633.4 229.9c-.8-.6-1.8-.9-2.8-.9-1.5 0-2.9.8-3.8 1.9L612 251.3H349.1v-39.8c0-2.5-2.1-4.6-4.6-4.6-2.5 0-4.6 2.1-4.6 4.6v44.4c0 2.5 2.1 4.6 4.6 4.6h269.8c1.5 0 2.9-.8 3.8-1.9l16.3-22.2c1.5-1.9 1.1-4.8-1-6.5zm-.3 5.7l-16.3 22.2c-.6.8-1.5 1.3-2.5 1.3H344.5c-1.8 0-3.1-1.4-3.1-3.1v-44.4c0-1.8 1.4-3.1 3.1-3.1s3.1 1.4 3.1 3.1V252c0 .4.4.8.8.8h263.9c.3 0 .5-.1.6-.4l15.2-20.6c.6-.8 1.5-1.3 2.5-1.3.6 0 1.3.3 1.9.6 1.4 1.2 1.6 3.1.6 4.5z"/></g><g><linearGradient id="a" gradientUnits="userSpaceOnUse" x1="632.65" y1="-57.421" x2="632.65" y2="78.724"><stop offset="0" stop-opacity=".15"/><stop offset=".007" stop-color="#090909" stop-opacity=".156"/><stop offset=".048" stop-color="#373737" stop-opacity=".191"/><stop offset=".093" stop-color="#626262" stop-opacity=".229"/><stop offset=".142" stop-color="#888" stop-opacity=".271"/><stop offset=".195" stop-color="#A8A8A8" stop-opacity=".316"/><stop offset=".254" stop-color="#C4C4C4" stop-opacity=".366"/><stop offset=".32" stop-color="#DADADA" stop-opacity=".422"/><stop offset=".397" stop-color="#EBEBEB" stop-opacity=".488"/><stop offset=".493" stop-color="#F6F6F6" stop-opacity=".569"/><stop offset=".627" stop-color="#FDFDFD" stop-opacity=".683"/><stop offset="1" stop-color="#FFF"/></linearGradient><path fill="url(#a)" d="M639.8 258.7l-4.3-278.6c-.6.2-1.2.3-1.8.3l-3.9 4.5-4.3 273.8h14.3z"/><path fill="#151515" d="M635.5-19.9l4.3 278.6h-14.3l4.3-273.8-1.8 2-4.2 272.6c0 .2.1.5.3.6.2.2.4.3.6.3h16c.5 0 .9-.4.9-.9v-.1l-4.3-280.1c-.7.4-1.2.6-1.8.8z"/><g><path fill="none" d="M635-32.8c-.7-.6-1.5-.9-2.4-.9-1.1 0-2.1.5-2.8 1.3-.6.8-.9 1.7-.9 2.7.1 1 .6 1.9 1.3 2.5.7.6 1.5.9 2.4.9 1.1 0 2.1-.5 2.8-1.3 1.4-1.5 1.2-3.9-.4-5.2z"/><path fill="#FAFAFA" d="M758.6-11.2L640.5-34.6c-.2 0-.4-.2-.5-.3-.5-.7-1-1.3-1.7-1.8-.6-.5-1.3-1-2.1-1.3-.2-.1-.3-.2-.4-.4l-43.6-112.3c-.5-1.3-1.8-2.2-3.2-2.2-.4 0-.8.1-1.1.2h-.1c-1.7.6-2.6 2.6-2 4.3l38.8 114c.1.2.1.4 0 .6-.7 1.5-1 3.2-.9 4.8 0 .2 0 .4-.2.6l-75.4 93.9c-1.2 1.4-1 3.5.4 4.7l.1.1c.6.5 1.4.8 2.2.8 1 0 1.9-.4 2.6-1.2l79.4-90.6c.1-.1.3-.2.5-.3 1.7-.1 3.3-.7 4.6-1.7.2-.1.4-.2.6-.1l119 18.4c.2 0 .4.1.6.1 1.6 0 3-1.2 3.3-2.8v-.1c.2-.9 0-1.8-.6-2.5-.5-.8-1.3-1.3-2.2-1.5zm-122-15.4c-1 1.2-2.5 1.9-4 1.9-1.2 0-2.4-.4-3.4-1.2-1.1-.9-1.7-2.2-1.8-3.5-.1-1.4.3-2.7 1.2-3.8 1-1.2 2.5-1.9 4-1.9 1.2 0 2.4.4 3.4 1.2 2.2 1.8 2.5 5.1.6 7.3z"/><path fill="#202019" d="M762-10.6c-.7-1.1-1.9-1.8-3.1-2L641.1-36c-.5-.7-1.1-1.3-1.8-1.9-.7-.6-1.4-1-2.2-1.4l-43.5-112c-.7-1.9-2.5-3.2-4.6-3.2-.6 0-1.1.1-1.7.3h-.1c-2.5.9-3.8 3.7-2.9 6.2L623-34.3c-.7 1.6-1 3.3-.9 5.1L547 64.5c-1.7 2.1-1.5 5.1.6 6.8l.1.1c.9.7 2 1.1 3.1 1.1 1.4 0 2.8-.6 3.7-1.7L628-13.1l1.8-2 3.9-4.5 1.8-.3c.6-.2 1.2-.4 1.7-.7.5-.2.9-.5 1.3-.8L757.2-3c.3 0 .6.1.8.1 2.4 0 4.4-1.7 4.8-4V-7c.3-1.3 0-2.6-.8-3.6zm-.6 3.3c-.3 1.7-1.7 2.9-3.3 2.9-.2 0-.4 0-.6-.1l-119-18.4c-.2 0-.4 0-.6.1-1.3 1-2.9 1.6-4.6 1.7-.2 0-.4.1-.5.3l-79.4 90.6c-.6.8-1.6 1.2-2.6 1.2-.8 0-1.5-.3-2.2-.8l-.1-.1c-1.4-1.2-1.6-3.3-.4-4.7l75.4-93.9c.1-.2.2-.4.2-.6-.2-1.7.1-3.3.9-4.8.1-.2.1-.4 0-.6l-38.8-114c-.6-1.7.3-3.7 2-4.3h.1c.4-.1.8-.2 1.1-.2 1.4 0 2.7.9 3.2 2.2l43.6 112.3c.1.2.2.3.4.4.8.3 1.5.8 2.1 1.3.6.5 1.2 1.2 1.7 1.8.1.2.3.3.5.3l118.1 23.4c.9.2 1.6.6 2.2 1.4.5.9.7 1.7.6 2.6z"/><path fill="#202019" d="M636-33.9c-.9-.8-2.1-1.2-3.4-1.2-1.5 0-3 .7-4 1.9-.9 1.1-1.3 2.4-1.2 3.8.1 1.4.8 2.6 1.8 3.5.9.8 2.1 1.2 3.4 1.2 1.5 0 3-.7 4-1.9 1.9-2.2 1.6-5.5-.6-7.3zm-3.4 7.7c-.9 0-1.7-.3-2.4-.9-.8-.6-1.2-1.5-1.3-2.5-.1-1 .2-1.9.9-2.7.7-.8 1.7-1.3 2.8-1.3.9 0 1.7.3 2.4.9 1.6 1.3 1.8 3.7.5 5.2-.7.8-1.8 1.3-2.9 1.3z"/></g></g></g><g><path fill="#3D3E3F" d="M526.5 204.5h6.5v2.8c0 .9-.8 1.5-1.5 1.5H528c-.9 0-1.5-.8-1.5-1.5v-2.8zM519.7 204.5h6.5v2.8c0 .9-.8 1.5-1.5 1.5h-3.4c-.9 0-1.5-.8-1.5-1.5v-2.8h-.1zM512.9 204.5h6.5v2.8c0 .9-.8 1.5-1.5 1.5h-3.4c-.9 0-1.5-.8-1.5-1.5v-2.8h-.1zM506.3 204.5h6.5v2.8c0 .9-.8 1.5-1.5 1.5h-3.4c-.9 0-1.5-.8-1.5-1.5v-2.8h-.1zM499.5 204.5h6.5v2.8c0 .9-.8 1.5-1.5 1.5h-3.4c-.9 0-1.5-.8-1.5-1.5v-2.8h-.1zM492.7 204.5h6.5v2.8c0 .9-.8 1.5-1.5 1.5h-3.4c-.9 0-1.5-.8-1.5-1.5v-2.8h-.1zM486 204.5h6.5v2.8c0 .9-.8 1.5-1.5 1.5h-3.4c-.9 0-1.5-.8-1.5-1.5v-2.8h-.1zM479.3 204.5h6.5v2.8c0 .9-.8 1.5-1.5 1.5H481c-.9 0-1.5-.8-1.5-1.5v-2.8h-.2zM472.6 204.5h6.5v2.8c0 .9-.8 1.5-1.5 1.5h-3.5c-.9 0-1.5-.8-1.5-1.5v-2.8zM465.8 204.5h6.5v2.8c0 .9-.8 1.5-1.5 1.5h-3.4c-.9 0-1.5-.8-1.5-1.5v-2.8h-.1zM459 204.5h6.5v2.8c0 .9-.8 1.5-1.5 1.5h-3.4c-.9 0-1.5-.8-1.5-1.5v-2.8h-.1zM452.4 204.5h6.5v2.8c0 .9-.8 1.5-1.5 1.5H454c-.9 0-1.5-.8-1.5-1.5v-2.8h-.1zM445.6 204.5h6.5v2.8c0 .9-.8 1.5-1.5 1.5h-3.4c-.9 0-1.5-.8-1.5-1.5v-2.8h-.1zM438.8 204.5h6.5v2.8c0 .9-.8 1.5-1.5 1.5h-3.4c-.9 0-1.5-.8-1.5-1.5v-2.8h-.1zM432 204.5h6.5v2.8c0 .9-.8 1.5-1.5 1.5h-3.4c-.9 0-1.5-.8-1.5-1.5v-2.8h-.1zM425.4 204.5h6.5v2.8c0 .9-.8 1.5-1.5 1.5H427c-.9 0-1.5-.8-1.5-1.5v-2.8h-.1zM418.6 204.5h6.5v2.8c0 .9-.8 1.5-1.5 1.5h-3.5c-.9 0-1.5-.8-1.5-1.5v-2.8zM411.8 204.5h6.5v2.8c0 .9-.8 1.5-1.5 1.5h-3.4c-.9 0-1.5-.8-1.5-1.5v-2.8h-.1zM405.1 204.5h6.5v2.8c0 .9-.8 1.5-1.5 1.5h-3.4c-.9 0-1.5-.8-1.5-1.5v-2.8h-.1zM398.4 204.5h6.5v2.8c0 .9-.8 1.5-1.5 1.5H400c-.9 0-1.5-.8-1.5-1.5v-2.8h-.1zM391.6 204.5h6.5v2.8c0 .9-.8 1.5-1.5 1.5h-3.4c-.9 0-1.5-.8-1.5-1.5v-2.8h-.1zM384.9 204.5h6.5v2.8c0 .9-.8 1.5-1.5 1.5h-3.4c-.9 0-1.5-.8-1.5-1.5v-2.8h-.1zM378.1 204.5h6.5v2.8c0 .9-.8 1.5-1.5 1.5h-3.4c-.9 0-1.5-.8-1.5-1.5v-2.8h-.1zM371.4 204.5h6.5v2.8c0 .9-.8 1.5-1.5 1.5H373c-.9 0-1.5-.8-1.5-1.5v-2.8h-.1zM364.7 204.5h6.5v2.8c0 .9-.8 1.5-1.5 1.5h-3.5c-.9 0-1.5-.8-1.5-1.5v-2.8zM357.9 204.5h6.5v2.8c0 .9-.8 1.5-1.5 1.5h-3.4c-.9 0-1.5-.8-1.5-1.5v-2.8h-.1zM351.1 204.5h6.5v2.8c0 .9-.8 1.5-1.5 1.5h-3.4c-.9 0-1.5-.8-1.5-1.5v-2.8h-.1zM344.5 204.5h6.5v2.8c0 .9-.8 1.5-1.5 1.5h-3.4c-.9 0-1.5-.8-1.5-1.5v-2.8h-.1zM337.7 204.5h6.5v2.8c0 .9-.8 1.5-1.5 1.5h-3.4c-.9 0-1.5-.8-1.5-1.5v-2.8h-.1zM330.9 204.5h6.5v2.8c0 .9-.8 1.5-1.5 1.5h-3.4c-.9 0-1.5-.8-1.5-1.5v-2.8h-.1zM324.2 204.5h6.5v2.8c0 .9-.8 1.5-1.5 1.5h-3.4c-.9 0-1.5-.8-1.5-1.5v-2.8h-.1zM317.5 204.5h6.5v2.8c0 .9-.8 1.5-1.5 1.5h-3.4c-.9 0-1.5-.8-1.5-1.5v-2.8h-.1zM310.7 204.5h6.5v2.8c0 .9-.8 1.5-1.5 1.5h-3.5c-.9 0-1.5-.8-1.5-1.5v-2.8zM304 204.5h6.5v2.8c0 .9-.8 1.5-1.5 1.5h-3.4c-.9 0-1.5-.8-1.5-1.5v-2.8h-.1zM297.2 204.5h6.5v2.8c0 .9-.8 1.5-1.5 1.5h-3.4c-.9 0-1.5-.8-1.5-1.5v-2.8h-.1zM290.5 204.5h6.5v2.8c0 .9-.8 1.5-1.5 1.5h-3.4c-.9 0-1.5-.8-1.5-1.5v-2.8h-.1zM283.8 204.5h6.5v2.8c0 .9-.8 1.5-1.5 1.5h-3.4c-.9 0-1.5-.8-1.5-1.5v-2.8h-.1zM277 204.5h6.5v2.8c0 .9-.8 1.5-1.5 1.5h-3.4c-.9 0-1.5-.8-1.5-1.5v-2.8h-.1zM270.2 204.5h6.5v2.8c0 .9-.8 1.5-1.5 1.5h-3.4c-.9 0-1.5-.8-1.5-1.5v-2.8h-.1zM263.6 204.5h6.5v2.8c0 .9-.8 1.5-1.5 1.5h-3.4c-.9 0-1.5-.8-1.5-1.5v-2.8h-.1zM256.8 204.5h6.5v2.8c0 .9-.8 1.5-1.5 1.5h-3.5c-.9 0-1.5-.8-1.5-1.5v-2.8zM250 204.5h6.5v2.8c0 .9-.8 1.5-1.5 1.5h-3.4c-.9 0-1.5-.8-1.5-1.5v-2.8h-.1zM243.2 204.5h6.5v2.8c0 .9-.8 1.5-1.5 1.5h-3.4c-.9 0-1.5-.8-1.5-1.5v-2.8h-.1zM236.6 204.5h6.5v2.8c0 .9-.8 1.5-1.5 1.5h-3.4c-.9 0-1.5-.8-1.5-1.5v-2.8h-.1zM229.8 204.5h6.5v2.8c0 .9-.8 1.5-1.5 1.5h-3.4c-.9 0-1.5-.8-1.5-1.5v-2.8h-.1zM223.1 204.5h6.5v2.8c0 .9-.8 1.5-1.5 1.5h-3.4c-.9 0-1.5-.8-1.5-1.5v-2.8h-.1zM216.3 204.5h6.5v2.8c0 .9-.8 1.5-1.5 1.5h-3.4c-.9 0-1.5-.8-1.5-1.5v-2.8h-.1zM209.6 204.5h6.5v2.8c0 .9-.8 1.5-1.5 1.5h-3.4c-.9 0-1.5-.8-1.5-1.5v-2.8h-.1zM202.9 204.5h6.5v2.8c0 .9-.8 1.5-1.5 1.5h-3.5c-.9 0-1.5-.8-1.5-1.5v-2.8zM196.1 204.5h6.5v2.8c0 .9-.8 1.5-1.5 1.5h-3.4c-.9 0-1.5-.8-1.5-1.5v-2.8h-.1zM189.3 204.5h6.5v2.8c0 .9-.8 1.5-1.5 1.5h-3.4c-.9 0-1.5-.8-1.5-1.5v-2.8h-.1zM182.7 204.5h6.5v2.8c0 .9-.8 1.5-1.5 1.5h-3.4c-.9 0-1.5-.8-1.5-1.5v-2.8h-.1zM175.9 204.5h6.5v2.8c0 .9-.8 1.5-1.5 1.5h-3.4c-.9 0-1.5-.8-1.5-1.5v-2.8h-.1zM169.1 204.5h6.5v2.8c0 .9-.8 1.5-1.5 1.5h-3.4c-.9 0-1.5-.8-1.5-1.5v-2.8h-.1zM162.3 204.5h6.5v2.8c0 .9-.8 1.5-1.5 1.5H164c-.9 0-1.5-.8-1.5-1.5v-2.8h-.2zM155.7 204.5h6.5v2.8c0 .9-.8 1.5-1.5 1.5h-3.4c-.9 0-1.5-.8-1.5-1.5v-2.8h-.1zM149.9 203.3s.1 0 .3.1c.1 0 .4.1.6.3.5.1 1.1.4 1.9.5s1.4.3 1.9.3H155.5v2.8c0 .4-.1.8-.5 1.1-.4.3-.8.4-1.3.4 0 0-1-.1-1.9-.3-.3 0-.5-.1-.8-.1-.3 0-.4-.1-.6-.1-.4-.1-.6-.1-.6-.1-.3-.1-.4-.3-.6-.4-.1-.1-.3-.4-.4-.5-.1-.4-.3-.8 0-1.3l1.1-2.7z"/><path fill="#3D3E3F" d="M145.3 200s0 .1.1.1l.5.5c.4.4.9.9 1.5 1.3s1.1.8 1.6 1c.3.1.4.3.6.3.1.1.3.1.3.1l-1.1 2.5c-.1.4-.5.6-.9.8-.4.1-.9.1-1.3-.1 0 0-.9-.5-1.6-1.1-.3-.1-.4-.3-.6-.4-.1-.1-.4-.3-.5-.4-.3-.3-.5-.4-.5-.4-.4-.4-.5-.8-.5-1.1 0-.4.1-.8.5-1.1l1.9-2zM142.4 194.9s0 .1.1.3c0 .1 0 .1.1.3 0 .1.1.3.1.4.1.5.5 1.1.9 1.8.1.3.4.6.5.9.3.3.4.5.5.8.1.3.3.4.4.5l.1.1-2.1 1.9c-.4.3-.8.4-1.1.4-.3 0-.4-.1-.6-.3-.3-.1-.4-.3-.5-.5 0 0-.1-.3-.4-.5-.3-.3-.5-.8-.8-1.1-.1-.3-.3-.4-.4-.6-.1-.3-.3-.4-.3-.5-.1-.4-.3-.5-.3-.5-.3-.5-.3-.9 0-1.3.1-.4.5-.6.9-.8l2.9-1.3z"/><path fill="#3D3E3F" d="M141.8 189.2v3c.1.8.1 1.4.4 1.9 0 .3.1.5.1.6s.1.3.1.3l-2.6.9c-.4.1-.9.1-1.1-.1-.4-.3-.6-.6-.8-1.1 0 0 0-.3-.1-.6 0-.1-.1-.4-.1-.6 0-.3-.1-.5-.1-.8v-.8-.6-.6c0-.3 0-.5.1-.6.1-.3.3-.4.4-.5.3-.3.8-.5 1.1-.4h2.6zM143.5 183.6s0 .1-.1.3c-.1.1-.1.4-.3.6-.3.5-.5 1.1-.8 1.8-.3.6-.4 1.4-.5 1.9 0 .3-.1.5-.1.6v.3l-2.8-.3c-.4 0-.8-.3-1-.6-.3-.4-.4-.8-.3-1.3 0 0 .3-1 .5-1.9.1-.3.1-.5.3-.6.1-.3.1-.4.3-.6.1-.4.3-.5.3-.5.3-.5.5-.8 1-.9.4-.1.9-.1 1.3.1l2.2 1.1z"/><path fill="#3D3E3F" d="M147.3 179.3s-.1 0-.3.1c-.1.1-.3.3-.5.4l-1.4 1.4c-.5.5-.9 1.1-1.3 1.5-.1.3-.3.4-.4.5-.1.1-.1.3-.1.3L141 182c-.4-.3-.6-.6-.8-1-.1-.4 0-.9.3-1.3 0 0 .6-.8 1.3-1.5.4-.4.6-.8.9-1 .1-.1.3-.3.4-.3l.1-.1c.1-.1.4-.3.6-.4s.4-.1.6-.1c.4 0 .8.3 1 .6l1.9 2.4zM152.6 176.9h-.3c-.1 0-.4.1-.6.1-.5.1-1.1.4-1.9.6-.6.3-1.3.6-1.8.9-.5.3-.8.5-.8.5l-1.6-2.3c-.3-.4-.4-.8-.3-1.1.1-.4.4-.8.8-1 0 0 .9-.5 1.8-.9.3-.1.5-.3.6-.3.3-.1.4-.1.6-.3.4-.1.6-.3.6-.3.5-.1.9-.1 1.3.1.4.3.6.5.8 1l.8 3zM158.8 176.6h-5.2c-.3 0-.5.1-.6.1h-.3l-.5-2.8c-.1-.4 0-.9.3-1.1.3-.4.6-.5 1.1-.6h3.8c.9 0 1.5.8 1.5 1.5v2.9h-.1zM165.6 176.6h-6.5v-2.8c0-.9.8-1.5 1.5-1.5h3.4c.9 0 1.5.8 1.5 1.5v2.8h.1zM172.4 176.6h-6.5v-2.8c0-.9.8-1.5 1.5-1.5h3.4c.9 0 1.5.8 1.5 1.5v2.8h.1zM179 176.6h-6.5v-2.8c0-.9.8-1.5 1.5-1.5h3.4c.9 0 1.5.8 1.5 1.5v2.8h.1zM185.8 176.6h-6.5v-2.8c0-.9.8-1.5 1.5-1.5h3.4c.9 0 1.5.8 1.5 1.5v2.8h.1zM192.6 176.6H186v-2.8c0-.9.8-1.5 1.5-1.5h3.4c.9 0 1.5.8 1.5 1.5v2.8h.2zM199.3 176.6h-6.5v-2.8c0-.9.8-1.5 1.5-1.5h3.4c.9 0 1.5.8 1.5 1.5v2.8h.1zM206 176.6h-6.5v-2.8c0-.9.8-1.5 1.5-1.5h3.4c.9 0 1.5.8 1.5 1.5v2.8h.1zM212.8 176.6h-6.5v-2.8c0-.9.8-1.5 1.5-1.5h3.4c.9 0 1.5.8 1.5 1.5v2.8h.1zM219.5 176.6H213v-2.8c0-.9.8-1.5 1.5-1.5h3.4c.9 0 1.5.8 1.5 1.5v2.8h.1zM226.3 176.6h-6.5v-2.8c0-.9.8-1.5 1.5-1.5h3.4c.9 0 1.5.8 1.5 1.5v2.8h.1zM233 176.6h-6.5v-2.8c0-.9.8-1.5 1.5-1.5h3.4c.9 0 1.5.8 1.5 1.5v2.8h.1zM239.7 176.6h-6.5v-2.8c0-.9.8-1.5 1.5-1.5h3.4c.9 0 1.5.8 1.5 1.5v2.8h.1zM246.5 176.6H240v-2.8c0-.9.8-1.5 1.5-1.5h3.4c.9 0 1.5.8 1.5 1.5v2.8h.1zM253.3 176.6h-6.5v-2.8c0-.9.8-1.5 1.5-1.5h3.4c.9 0 1.5.8 1.5 1.5v2.8h.1zM259.9 176.6h-6.5v-2.8c0-.9.8-1.5 1.5-1.5h3.4c.9 0 1.5.8 1.5 1.5v2.8h.1zM266.7 176.6h-6.5v-2.8c0-.9.8-1.5 1.5-1.5h3.4c.9 0 1.5.8 1.5 1.5v2.8h.1zM273.5 176.6H267v-2.8c0-.9.8-1.5 1.5-1.5h3.4c.9 0 1.5.8 1.5 1.5v2.8h.1zM280.3 176.6h-6.5v-2.8c0-.9.8-1.5 1.5-1.5h3.4c.9 0 1.5.8 1.5 1.5v2.8h.1zM286.9 176.6h-6.5v-2.8c0-.9.8-1.5 1.5-1.5h3.4c.9 0 1.5.8 1.5 1.5v2.8h.1zM293.7 176.6h-6.5v-2.8c0-.9.8-1.5 1.5-1.5h3.4c.9 0 1.5.8 1.5 1.5v2.8h.1zM300.4 176.6h-6.5v-2.8c0-.9.8-1.5 1.5-1.5h3.4c.9 0 1.5.8 1.5 1.5v2.8h.1zM307.2 176.6h-6.5v-2.8c0-.9.8-1.5 1.5-1.5h3.4c.9 0 1.5.8 1.5 1.5v2.8h.1zM313.9 176.6h-6.5v-2.8c0-.9.8-1.5 1.5-1.5h3.4c.9 0 1.5.8 1.5 1.5v2.8h.1zM320.6 176.6h-6.5v-2.8c0-.9.8-1.5 1.5-1.5h3.4c.9 0 1.5.8 1.5 1.5v2.8h.1zM327.4 176.6h-6.5v-2.8c0-.9.8-1.5 1.5-1.5h3.4c.9 0 1.5.8 1.5 1.5v2.8h.1zM334.2 176.6h-6.5v-2.8c0-.9.8-1.5 1.5-1.5h3.4c.9 0 1.5.8 1.5 1.5v2.8h.1zM340.8 176.6h-6.5v-2.8c0-.9.8-1.5 1.5-1.5h3.4c.9 0 1.5.8 1.5 1.5v2.8h.1zM347.6 176.6h-6.5v-2.8c0-.9.8-1.5 1.5-1.5h3.4c.9 0 1.5.8 1.5 1.5v2.8h.1zM354.4 176.6h-6.5v-2.8c0-.9.8-1.5 1.5-1.5h3.4c.9 0 1.5.8 1.5 1.5v2.8h.1zM361.2 176.6h-6.5v-2.8c0-.9.8-1.5 1.5-1.5h3.4c.9 0 1.5.8 1.5 1.5v2.8h.1zM367.8 176.6h-6.5v-2.8c0-.9.8-1.5 1.5-1.5h3.4c.9 0 1.5.8 1.5 1.5v2.8h.1zM374.6 176.6h-6.5v-2.8c0-.9.8-1.5 1.5-1.5h3.4c.9 0 1.5.8 1.5 1.5v2.8h.1zM381.4 176.6h-6.5v-2.8c0-.9.8-1.5 1.5-1.5h3.4c.9 0 1.5.8 1.5 1.5v2.8h.1zM388.1 176.6h-6.5v-2.8c0-.9.8-1.5 1.5-1.5h3.4c.9 0 1.5.8 1.5 1.5v2.8h.1zM394.8 176.6h-6.5v-2.8c0-.9.8-1.5 1.5-1.5h3.4c.9 0 1.5.8 1.5 1.5v2.8h.1zM401.6 176.6H395v-2.8c0-.9.8-1.5 1.5-1.5h3.4c.9 0 1.5.8 1.5 1.5v2.8h.2zM408.3 176.6h-6.5v-2.8c0-.9.8-1.5 1.5-1.5h3.4c.9 0 1.5.8 1.5 1.5v2.8h.1zM415.1 176.6h-6.5v-2.8c0-.9.8-1.5 1.5-1.5h3.4c.9 0 1.5.8 1.5 1.5v2.8h.1zM421.7 176.6h-6.5v-2.8c0-.9.8-1.5 1.5-1.5h3.4c.9 0 1.5.8 1.5 1.5v2.8h.1zM428.5 176.6H422v-2.8c0-.9.8-1.5 1.5-1.5h3.4c.9 0 1.5.8 1.5 1.5v2.8h.1zM435.3 176.6h-6.5v-2.8c0-.9.8-1.5 1.5-1.5h3.4c.9 0 1.5.8 1.5 1.5v2.8h.1zM442.1 176.6h-6.5v-2.8c0-.9.8-1.5 1.5-1.5h3.4c.9 0 1.5.8 1.5 1.5v2.8h.1zM448.7 176.6h-6.5v-2.8c0-.9.8-1.5 1.5-1.5h3.4c.9 0 1.5.8 1.5 1.5v2.8h.1zM455.5 176.6H449v-2.8c0-.9.8-1.5 1.5-1.5h3.4c.9 0 1.5.8 1.5 1.5v2.8h.1zM462.3 176.6h-6.5v-2.8c0-.9.8-1.5 1.5-1.5h3.4c.9 0 1.5.8 1.5 1.5v2.8h.1zM469 176.6h-6.5v-2.8c0-.9.8-1.5 1.5-1.5h3.4c.9 0 1.5.8 1.5 1.5v2.8h.1zM475.8 176.6h-6.5v-2.8c0-.9.8-1.5 1.5-1.5h3.4c.9 0 1.5.8 1.5 1.5v2.8h.1zM482.5 176.6H476v-2.8c0-.9.8-1.5 1.5-1.5h3.4c.9 0 1.5.8 1.5 1.5v2.8h.1zM489.2 176.6h-6.5v-2.8c0-.9.8-1.5 1.5-1.5h3.4c.9 0 1.5.8 1.5 1.5v2.8h.1zM496 176.6h-6.5v-2.8c0-.9.8-1.5 1.5-1.5h3.4c.9 0 1.5.8 1.5 1.5v2.8h.1zM502.8 176.6h-6.5v-2.8c0-.9.8-1.5 1.5-1.5h3.4c.9 0 1.5.8 1.5 1.5v2.8h.1zM509.4 176.6h-6.5v-2.8c0-.9.8-1.5 1.5-1.5h3.4c.9 0 1.5.8 1.5 1.5v2.8h.1zM516.2 176.6h-6.5v-2.8c0-.9.8-1.5 1.5-1.5h3.4c.9 0 1.5.8 1.5 1.5v2.8h.1zM523 176.6h-6.5v-2.8c0-.9.8-1.5 1.5-1.5h3.4c.9 0 1.5.8 1.5 1.5v2.8h.1zM529.8 176.6h-6.5v-2.8c0-.9.8-1.5 1.5-1.5h3.4c.9 0 1.5.8 1.5 1.5v2.8h.1zM536 176.9h-.3c-.1 0-.4-.1-.6-.1-.5-.1-1.3-.1-2-.1h-3.3v-2.8c0-.9.8-1.5 1.5-1.5H535.1c.5 0 .9.3 1.1.6.3.4.4.8.3 1.1l-.5 2.8z"/><path fill="#3D3E3F" d="M541.3 179.3s-.1 0-.3-.1c-.1-.1-.3-.3-.5-.4-.3-.1-.5-.3-.8-.5-.3-.1-.6-.4-.9-.5-.6-.3-1.3-.5-1.9-.6-.1 0-.3-.1-.4-.1h-.6l.6-2.8c.1-.4.4-.8.8-1 .4-.3.9-.3 1.3-.1 0 0 .3.1.6.3.1 0 .4.1.6.3.3.1.5.1.6.3.5.3.9.4 1.3.6.4.1.5.3.5.3.3.1.4.3.5.5.1.1.3.4.3.6.1.4 0 .9-.3 1.1l-1.4 2.1zM545.2 183.5s0-.1-.1-.3c-.1-.1-.3-.4-.4-.5-.3-.4-.8-1-1.1-1.5l-1.4-1.4c-.3-.1-.4-.3-.5-.4-.1-.1-.3-.1-.3-.1l1.6-2.3c.3-.4.6-.5 1-.6.4 0 .9.1 1.3.5 0 0 .8.6 1.4 1.4l.5.5s.3.4.4.5c.1.1.3.3.3.4 0 .1.1.1.1.1.3.4.4.9.3 1.3-.1.4-.4.8-.8 1l-2.3 1.4z"/><path fill="#3D3E3F" d="M546.9 189v-.3s0-.4-.1-.6c-.1-.5-.3-1.3-.5-1.9-.3-.6-.5-1.4-.8-1.8-.1-.3-.3-.4-.3-.6-.1-.1-.1-.3-.1-.3l2.4-1.4c.4-.3.8-.3 1.3-.1.3.1.4.3.5.4.1.1.3.4.4.6 0 0 .1.3.3.6.1.1.1.4.3.6.1.3.1.5.3.6.3.9.5 1.9.5 1.9.1.5 0 1-.3 1.3-.3.4-.6.6-1 .6l-2.9.4zM546.4 194.8s0-.1.1-.3c0-.1.1-.4.1-.6.1-.5.3-1.3.4-1.9v-1-.5-.5-.4-.3-.3l2.8-.3c.4 0 .9.1 1.1.4.1.1.3.4.4.5 0 .1.1.3.1.4v2.3c-.1 1-.3 1.9-.3 1.9-.1.5-.4.9-.8 1.1-.4.3-.8.3-1.1.1l-2.8-.6z"/><path fill="#3D3E3F" d="M543.6 199.8s0-.1.1-.1c.1-.1.3-.3.4-.5.1-.3.4-.5.5-.8.1-.3.4-.6.5-.9.4-.6.6-1.3.9-1.8.1-.3.1-.5.3-.6 0-.1.1-.3.1-.3l2.6.9c.4.1.8.4.9.9.1.4.1.9 0 1.3 0 0-.1.3-.3.5-.1.4-.4.8-.6 1.1s-.5.9-.8 1.1c-.3.3-.4.5-.4.5-.1.3-.4.4-.5.5-.3.1-.4.3-.6.3-.4 0-.9-.1-1.1-.4l-2-1.7zM538.9 203.2s.4-.1.8-.4c.5-.3 1.1-.6 1.6-1 .6-.4 1.1-.9 1.5-1.3.3-.1.4-.4.5-.5l.1-.1 2 1.9c.4.3.5.6.5 1.1 0 .4-.3.9-.5 1.1 0 0-.1.1-.5.4-.1.1-.3.3-.5.4-.1.1-.4.3-.6.4-.8.6-1.6 1-1.6 1-.4.3-.9.3-1.3.1-.4-.1-.8-.4-.9-.8l-1.1-2.3zM533.3 204.5H534.2c.5 0 1.3-.1 1.9-.3.8-.1 1.4-.4 1.9-.5.3-.1.5-.1.6-.3.1 0 .1 0 .1-.1l1.1 2.5c.1.4.1.9 0 1.3-.1.1-.3.4-.4.5-.1.1-.4.3-.6.4 0 0-.3.1-.6.1-.4.1-.9.3-1.3.4-.5.1-1 .1-1.4.3h-.6c-.5 0-.9-.1-1.3-.4-.4-.3-.5-.6-.5-1.1v-2.8h.2z"/><g><path fill="#AFAFAF" d="M139.6 190.7c0 8.8 7.2 15.9 15.9 15.9h377.7c8.8 0 15.9-7.2 15.9-15.9v-.1H139.6v.1z"/><path fill="#E4E4E4" d="M139.5 190.4c0-8.8 7.2-15.9 15.9-15.9h377.7c8.8 0 15.9 7.2 15.9 15.9v.1H139.5v-.1z"/></g><g><circle fill="#F4ADB7" cx="283" cy="190.5" r="14.2"/><path fill="#202019" d="M283 205.5c-8.3 0-15.1-6.8-15.1-15.1s6.8-15.1 15.1-15.1 15.1 6.8 15.1 15.1c-.2 8.4-6.8 15.1-15.1 15.1zm0-28.4c-7.4 0-13.4 6-13.4 13.4s6 13.4 13.4 13.4 13.4-6 13.4-13.4-6-13.4-13.4-13.4z"/><circle opacity=".5" fill="#FAFAFA" cx="283" cy="190.5" r="5.6"/><circle fill="#F4ADB7" cx="160.6" cy="190.5" r="14.2"/><path fill="#202019" d="M160.6 205.5c-8.3 0-15.1-6.8-15.1-15.1s6.8-15.1 15.1-15.1 15.1 6.8 15.1 15.1c-.2 8.4-6.8 15.1-15.1 15.1zm0-28.4c-7.4 0-13.4 6-13.4 13.4s6 13.4 13.4 13.4 13.4-6 13.4-13.4-6-13.4-13.4-13.4z"/><circle opacity=".5" fill="#FAFAFA" cx="160.6" cy="190.5" r="5.6"/><g><circle fill="#63C4E1" cx="221.8" cy="190.5" r="14.2"/><path fill="#202019" d="M221.8 205.5c-8.3 0-15.1-6.8-15.1-15.1s6.8-15.1 15.1-15.1 15.1 6.8 15.1 15.1c-.2 8.4-6.8 15.1-15.1 15.1zm0-28.4c-7.4 0-13.4 6-13.4 13.4s6 13.4 13.4 13.4 13.4-6 13.4-13.4-6-13.4-13.4-13.4z"/><circle opacity=".5" fill="#FAFAFA" cx="221.8" cy="190.5" r="5.6"/></g><g><circle fill="#F4ADB7" cx="405.4" cy="190.5" r="14.2"/><path fill="#202019" d="M405.4 205.5c-8.3 0-15.1-6.8-15.1-15.1s6.8-15.1 15.1-15.1 15.1 6.8 15.1 15.1c-.1 8.4-6.8 15.1-15.1 15.1zm0-28.4c-7.4 0-13.4 6-13.4 13.4s6 13.4 13.4 13.4 13.4-6 13.4-13.4-6-13.4-13.4-13.4z"/><circle opacity=".5" fill="#FAFAFA" cx="405.4" cy="190.5" r="5.6"/></g><g><circle fill="#63C4E1" cx="466.7" cy="190.5" r="14.2"/><path fill="#202019" d="M466.7 205.5c-8.3 0-15.1-6.8-15.1-15.1s6.8-15.1 15.1-15.1 15.1 6.8 15.1 15.1c-.2 8.4-6.9 15.1-15.1 15.1zm0-28.4c-7.4 0-13.4 6-13.4 13.4s6 13.4 13.4 13.4 13.4-6 13.4-13.4-6-13.4-13.4-13.4z"/><circle opacity=".5" fill="#FAFAFA" cx="466.7" cy="190.5" r="5.6"/></g><g><circle fill="#F4ADB7" cx="527.9" cy="190.5" r="14.2"/><path fill="#202019" d="M527.9 205.5c-8.3 0-15.1-6.8-15.1-15.1s6.8-15.1 15.1-15.1 15.1 6.8 15.1 15.1c-.2 8.4-6.9 15.1-15.1 15.1zm0-28.4c-7.4 0-13.4 6-13.4 13.4s6 13.4 13.4 13.4 13.4-6 13.4-13.4-6-13.4-13.4-13.4z"/><circle opacity=".5" fill="#FAFAFA" cx="527.9" cy="190.5" r="5.6"/></g></g><g><path fill="none" d="M238.1 147.5c-.6 0-1.1.1-1.8.3l2.5 14.6c3.6-.4 6.6-3.6 6.6-7.4.2-4.2-3.2-7.5-7.3-7.5z"/><path fill="#E4D4E9" d="M238.1 143.4c-1 0-2.1.1-3.1.4-.3 0-.4 0-.6-.1-.1-.1-.3-.3-.4-.5l-.4-1.9h-21.7l-1 6c0 .3-.1.4-.4.5-.3.1-.5.1-.6 0l-12.7-5.4c-.3-.1-.4-.3-.4-.5l-1.4-3.9-3.8 8.9 3.9-1.9c.3-.1.4-.1.6 0l13.5 5.8c.4.1.5.5.5.9l-3.3 18.8h32.1l-.6-3.4c0-.3 0-.4.1-.6.1-.1.4-.3.5-.3 6-.4 10.7-5.5 10.7-11.5 0-6.2-5.1-11.3-11.5-11.3zm.3 20.4c-.4 0-.8-.3-.8-.6l-2.8-15.9c-.1-.4.1-.8.5-.9.9-.3 1.9-.5 2.9-.5 4.9 0 9 4 9 9-.1 4.8-4 8.9-8.8 8.9z"/><path fill="#202019" d="M251.3 154.9c0-7.3-5.9-13-13-13-.9 0-1.8.1-2.6.3l-.3-1.8c-.1-.4-.4-.6-.8-.6h-23.2c-.4 0-.8.3-.8.6l-1.3 5.8-11.4-4.9-2-5.5c-.1-.3-.4-.5-.8-.5s-.6.1-.8.5l-5.4 12.7c-.1.3 0 .6.1.9.3.3.6.3.9.1l5.4-2.6 12.7 5.4-3.4 19.2c0 .3 0 .5.1.6.1.1.4.3.6.3h34c.3 0 .5-.1.6-.3.1-.1.3-.4.1-.6l-.6-3.5c7-1 11.9-6.6 11.9-13.1zM239 166.5c-.3 0-.4.1-.5.3-.1.1-.3.4-.1.6l.6 3.4h-32.1l3.3-18.8c0-.4-.1-.8-.5-.9l-13.5-5.8c-.3-.1-.5-.1-.6 0l-3.9 1.9 3.8-8.9 1.4 3.9c.1.3.3.4.4.5l12.7 5.4c.3.1.5.1.6 0 .3-.1.4-.4.4-.5l1-6h22l.4 1.9c0 .3.1.4.4.5.1.1.4.1.6.1 1-.3 2-.4 3.1-.4 6.4 0 11.5 5.1 11.5 11.5-.4 5.7-5 10.8-11 11.3z"/><path fill="#202019" d="M238.1 145.9c-1 0-1.9.1-2.9.5-.4.1-.6.5-.5.9l2.8 15.9c.1.4.4.6.8.6 4.9-.1 8.8-4.1 8.8-9s-4-8.9-9-8.9zm.9 16.4l-2.5-14.6c.5-.1 1.1-.3 1.8-.3 4.1 0 7.4 3.4 7.4 7.4-.1 3.9-3 7-6.7 7.5z"/><g><path fill="#FAFAFA" d="M222.7 147.1c-.3 0-.4.1-.5.3 0 0-1.4 1.5-2.8 3.6-1.9 2.9-2.9 5.4-2.9 7.4 0 1.6.6 3.3 1.6 4.4.9 1 2.4 2.1 4.9 2.1 4.3 0 6.1-3.8 6.1-6.5 0-4.3-5.8-10.8-6-11 0-.3-.3-.3-.4-.3zm5 11.2c0 2.1-1.5 5.1-4.8 5.1-2.5 0-5.1-1.8-5.1-5.1 0-3.6 3.4-7.9 4.8-9.5.5.6 1.5 1.8 2.4 3.1 1.8 2.8 2.7 4.9 2.7 6.4zm-4.9 1.8c.6 0 1-.1 1.3-.5.4-.5.4-1.5.3-1.8-.1-.4.1-.8.5-.9.4-.1.8.1.9.5 0 .1.4 1.9-.5 3-.5.6-1.3 1-2.4 1-.4 0-.8-.3-.8-.8 0-.2.2-.5.7-.5z"/></g></g><g><path fill="none" d="M315.8 147.5c-.6 0-1.1.1-1.8.3l2.5 14.6c3.6-.4 6.6-3.6 6.6-7.4.2-4.2-3.2-7.5-7.3-7.5z"/><path fill="#E4D4E9" d="M315.8 143.4c-1 0-2.1.1-3.1.4-.3 0-.4 0-.6-.1-.1-.1-.3-.3-.4-.5l-.4-1.9h-22l-1 6c0 .3-.1.4-.4.5-.3.1-.5.1-.6 0l-12.7-5.4c-.3-.1-.4-.3-.4-.5l-1.4-3.9-3.8 8.9 3.9-1.9c.3-.1.4-.1.6 0l13.5 5.8c.4.1.5.5.5.9l-3.3 18.8h32.1l-.6-3.4c0-.3 0-.4.1-.6.1-.1.4-.3.5-.3 6-.4 10.7-5.5 10.7-11.5.3-6.2-4.8-11.3-11.2-11.3zm.2 20.4c-.4 0-.8-.3-.8-.6l-2.8-15.9c-.1-.4.1-.8.5-.9.9-.3 1.9-.5 2.9-.5 4.9 0 9 4 9 9 0 4.8-3.9 8.9-8.8 8.9z"/><path fill="#202019" d="M328.9 154.9c0-7.3-5.9-13-13-13-.9 0-1.8.1-2.6.3l-.3-1.8c-.1-.4-.4-.6-.8-.6H289c-.4 0-.8.3-.8.6l-1 5.6-11.4-4.9-2-5.5c-.1-.3-.4-.5-.8-.5s-.6.1-.8.5l-5.4 12.7c-.1.3 0 .6.1.9.3.3.6.3.9.1l5.4-2.6L286 152l-3.4 19.2c0 .3 0 .5.1.6.1.1.4.3.6.3h34c.3 0 .5-.1.6-.3.1-.1.3-.4.1-.6l-.6-3.5c6.6-.7 11.5-6.3 11.5-12.8zm-12.3 11.6c-.3 0-.4.1-.5.3-.1.1-.3.4-.1.6l.6 3.4h-32.1l3.3-18.8c0-.4-.1-.8-.5-.9l-13.5-5.8c-.3-.1-.5-.1-.6 0l-3.9 1.9 3.8-8.9 1.4 3.9c.1.3.3.4.4.5l12.7 5.4c.3.1.5.1.6 0 .3-.1.4-.4.4-.5l1-6h22l.4 1.9c0 .3.1.4.4.5.1.1.4.1.6.1 1-.3 2-.4 3.1-.4 6.4 0 11.5 5.1 11.5 11.5-.3 5.7-4.9 10.8-11 11.3z"/><path fill="#202019" d="M315.8 145.9c-1 0-1.9.1-2.9.5-.4.1-.6.5-.5.9l2.8 15.9c.1.4.4.6.8.6 4.9-.1 8.8-4.1 8.8-9s-4-8.9-9-8.9zm.8 16.4l-2.5-14.6c.5-.1 1.1-.3 1.8-.3 4.1 0 7.4 3.4 7.4 7.4 0 3.9-3 7-6.7 7.5z"/><g><path fill="#FAFAFA" d="M300.2 147.1c-.3 0-.4.1-.5.3 0 0-1.4 1.5-2.8 3.6-1.9 2.9-2.9 5.4-2.9 7.4 0 1.6.6 3.3 1.6 4.4.9 1 2.4 2.1 4.9 2.1 4.3 0 6.1-3.8 6.1-6.5 0-4.3-5.8-10.8-6-11 0-.3-.2-.3-.4-.3zm5.1 11.2c0 2.1-1.5 5.1-4.8 5.1-2.5 0-5.1-1.8-5.1-5.1 0-3.6 3.4-7.9 4.8-9.5.5.6 1.5 1.8 2.4 3.1 1.9 2.8 2.7 4.9 2.7 6.4zm-5 1.8c.6 0 1-.1 1.3-.5.4-.5.4-1.5.3-1.8-.1-.4.1-.8.5-.9.4-.1.8.1.9.5 0 .1.4 1.9-.5 3-.5.6-1.3 1-2.4 1-.4 0-.8-.3-.8-.8.1-.2.3-.5.7-.5z"/></g></g><path fill="#FAFAFA" d="M308.2 125.9h72.5v40.4h-72.5z"/><g><path fill="#7CBA52" d="M369.4 157.6c-.4 0-.6-.3-.8-.6l-4.6-18.1-1.5 6.4c-.1.4-.4.6-.8.6h-7.3l-3.6 7.2c-.1.3-.5.5-.8.4-.4 0-.6-.3-.6-.6l-2-10.7-2.3 7.4c-.1.4-.4.6-.8.5-.4 0-.6-.3-.8-.6l-2-7.9-1.6 3.8c-.1.3-.4.5-.8.5h-3.8l-3.3 11c-.1.4-.4.5-.8.5s-.6-.3-.8-.6l-4.9-20.9-3.8 9.2c-.1.3-.4.5-.8.5h-15.1c-.4 0-.8-.4-.8-.8s.4-.8.8-.8h14.6l4.5-10.8c.1-.3.5-.5.8-.5.4 0 .6.3.8.6l4.8 20.4 2.6-8.8c.1-.4.4-.5.8-.5h3.8l2.4-5.3c.1-.3.5-.5.8-.5.4 0 .6.3.6.6l1.9 7.4 2.4-7.8c.1-.4.4-.5.8-.5s.6.3.8.6l2.1 11.4 2.8-5.5c.1-.3.4-.4.8-.4h7.2l2-9c.1-.4.4-.6.8-.6s.6.3.8.6l4.6 18.3 2.3-8.8c.1-.4.4-.6.8-.6h8c.4 0 .8.4.8.8s-.4.8-.8.8H373l-2.9 11c0 .4-.3.7-.7.7z"/></g><g><path fill="#90B9E3" d="M304.5 172.4h2.4v-40.5h-2.4c-2.8 0-4.9 2.3-4.9 4.9v30.7c0 2.6 2.2 4.9 4.9 4.9z"/><path fill="#202019" d="M306.8 173.1h-2.4c-3.1 0-5.6-2.5-5.6-5.6v-30.7c0-3.1 2.5-5.6 5.6-5.6h2.4c.4 0 .8.4.8.8v40.5c0 .2-.4.6-.8.6zm-2.3-40.5c-2.3 0-4.1 1.9-4.1 4.1v30.7c0 2.3 1.9 4.1 4.1 4.1h1.5v-39c0 .1-1.5.1-1.5.1z"/><path fill="#90B9E3" d="M384.2 172.4h-2.4v-40.5h2.4c2.8 0 4.9 2.3 4.9 4.9v30.7c0 2.6-2.2 4.9-4.9 4.9z"/><path fill="#202019" d="M384.2 173.1h-2.4c-.4 0-.8-.4-.8-.8v-40.5c0-.4.4-.8.8-.8h2.4c3.1 0 5.6 2.5 5.6 5.6v30.7c.1 3.3-2.4 5.8-5.6 5.8zm-1.6-1.5h1.5c2.3 0 4.1-1.9 4.1-4.1v-30.7c0-2.3-1.9-4.1-4.1-4.1h-1.5v38.9z"/><g><path fill="#6E93CC" d="M378 122.9h-67.4c-3.1 0-5.8 2.6-5.8 5.8v88.8c0 3.1 2.6 5.8 5.8 5.8H378c3.1 0 5.8-2.6 5.8-5.8v-88.8c-.1-3.1-2.6-5.8-5.8-5.8zm-1.4 32.4c0 2.4-1.9 4.3-4.3 4.3h-55.9c-2.4 0-4.3-1.9-4.3-4.3v-21.1c0-2.4 1.9-4.3 4.3-4.3h55.9c2.4 0 4.3 1.9 4.3 4.3v21.1z"/><path fill="#202019" d="M378 224.2h-67.4c-3.6 0-6.5-2.9-6.5-6.5v-88.8c0-3.6 2.9-6.5 6.5-6.5H378c3.6 0 6.5 2.9 6.5 6.5v88.8c.1 3.5-2.9 6.5-6.5 6.5zm-67.3-100.5c-2.8 0-5 2.3-5 5v88.8c0 2.8 2.3 5 5 5h67.4c2.8 0 5-2.3 5-5v-88.8c0-2.8-2.3-5-5-5h-67.4zm61.6 36.6h-55.9c-2.8 0-5-2.3-5-5v-21.1c0-2.8 2.3-5 5-5h55.9c2.8 0 5 2.3 5 5v21.1c0 2.8-2.2 5-5 5zm-55.9-29.5c-1.9 0-3.5 1.5-3.5 3.5v21.1c0 1.9 1.5 3.5 3.5 3.5h55.9c1.9 0 3.5-1.5 3.5-3.5v-21.1c0-1.9-1.5-3.5-3.5-3.5h-55.9z"/></g><g><circle fill="#FAFAFA" cx="344.5" cy="190.5" r="15.6"/><circle fill="#AACE81" cx="344.5" cy="190.5" r="13.9"/><path fill="#FAFAFA" d="M346.6 181.1l-7.9 11h4.8L342 200l7.9-11h-4.8l1.5-7.9z"/></g></g><g><path fill="none" d="M421.2 137.2c-.4 0-.6-.4-.6-.8v-3.3c0-.4.4-.8.8-.8h.3-3.9.3c.4 0 .8.4.8.8v3.3c0 .4-.3.8-.6.8-2.6.4-4.6 2.6-4.6 5.3v.6c0 1.6.3 3.4.9 5.3.1.5.4 1 .4 1.6 0 .1 0 .3.1.4.3-.3.5-.4.8-.4.3 0 .5-.1.6-.4.4-.5.9-.9 1.6-.9.6 0 1.1.3 1.4.8.1.3.5.4.8.3.1 0 .4-.1.5-.1.3 0 .4 0 .6.1.3.1.6 0 .8-.3.4-.5.9-.8 1.5-.8.5 0 1 .3 1.4.6.1-.4.1-.6.3-1 .6-1.8.9-3.5.9-5.3v-.6c-.4-2.5-2.4-4.8-5.1-5.2z"/><path fill="#92CEF1" d="M423.4 148.9c-.6 0-1.1.3-1.5.8-.1.3-.5.4-.8.3s-.4-.1-.6-.1c-.1 0-.4 0-.5.1-.3.1-.5 0-.8-.3-.4-.4-.9-.8-1.4-.8-.6 0-1.3.4-1.6.9-.1.3-.4.4-.6.4-.4 0-.6.1-.8.4.1.8.1 1.4.1 2.1 0 1.4-.3 2.8-.6 4.1-.6 1.8-.9 3.5-.9 5.3v6.8c0 1.1.9 1.9 1.9 1.9h8.7c1.1 0 1.9-.9 1.9-1.9v-6.8c0-1.6-.3-3.4-.9-5.3-.5-1.4-.6-2.8-.6-4.1 0-.8.1-1.6.3-2.4 0-.3.1-.5.1-.8-.4-.5-.9-.6-1.4-.6z"/><path fill="#202019" d="M427.5 143.1v-.6c0-3.3-2.3-6-5.3-6.8V134h.3c.4 0 .8-.4.8-.8v-1.6c0-.4-.4-.8-.8-.8h-5.4c-.4 0-.8.4-.8.8v1.6c0 .4.4.8.8.8h.3v1.8c-3.1.8-5.3 3.5-5.3 6.8v.6c0 1.9.4 3.8 1 5.8.4 1.1.6 2.4.6 3.6s-.3 2.5-.6 3.6c-.6 1.9-1 3.9-1 5.8v6.8c0 1.9 1.5 3.5 3.5 3.5h8.7c1.9 0 3.5-1.5 3.5-3.5V162c0-1.9-.4-3.8-1-5.8-.4-1.1-.6-2.4-.6-3.6s.3-2.5.6-3.6c.3-2 .7-4 .7-5.9zm-1.6 0c0 1.6-.3 3.4-.9 5.3-.1.4-.3.6-.3 1 0 .3-.1.5-.1.8-.1.8-.3 1.6-.3 2.4 0 1.4.3 2.8.6 4.1.6 1.8.9 3.5.9 5.3v6.8c0 1.1-.9 1.9-1.9 1.9h-8.7c-1.1 0-1.9-.9-1.9-1.9V162c0-1.6.3-3.4.9-5.3.5-1.4.6-2.8.6-4.1 0-.8 0-1.4-.1-2.1 0-.1 0-.3-.1-.4-.1-.5-.3-1.1-.4-1.6-.6-1.8-.9-3.5-.9-5.3v-.6c0-2.6 2-5 4.6-5.3.4 0 .6-.4.6-.8v-3.3c0-.4-.4-.8-.8-.8h-.3 3.9-.3c-.4 0-.8.4-.8.8v3.3c0 .4.3.8.6.8 2.6.4 4.6 2.6 4.6 5.3v.5z"/></g><g><path fill="none" d="M460.4 137.2c-.4 0-.6-.4-.6-.8v-3.3c0-.4.4-.8.8-.8h.3-3.9.3c.4 0 .8.4.8.8v3.3c0 .4-.3.8-.6.8-2.6.4-4.6 2.6-4.6 5.3v.6c0 1.6.3 3.4.9 5.3.1.5.4 1 .4 1.6 0 .1 0 .3.1.4.3-.3.5-.4.8-.4.3 0 .5-.1.6-.4.4-.5.9-.9 1.6-.9.6 0 1.1.3 1.4.8.1.3.5.4.8.3.1 0 .4-.1.5-.1.3 0 .4 0 .6.1.3.1.6 0 .8-.3.4-.5.9-.8 1.5-.8.5 0 1 .3 1.4.6.1-.4.1-.6.3-1 .6-1.8.9-3.5.9-5.3v-.6c-.5-2.5-2.5-4.8-5.1-5.2z"/><path fill="#92CEF1" d="M462.5 148.9c-.6 0-1.1.3-1.5.8-.1.3-.5.4-.8.3s-.4-.1-.6-.1c-.1 0-.4 0-.5.1-.3.1-.5 0-.8-.3-.4-.4-.9-.8-1.4-.8-.6 0-1.3.4-1.6.9-.1.3-.4.4-.6.4-.4 0-.6.1-.8.4.1.8.1 1.4.1 2.1 0 1.4-.3 2.8-.6 4.1-.6 1.8-.9 3.5-.9 5.3v6.8c0 1.1.9 1.9 1.9 1.9h8.7c1.1 0 1.9-.9 1.9-1.9v-6.8c0-1.6-.3-3.4-.9-5.3-.5-1.4-.6-2.8-.6-4.1 0-.8.1-1.6.3-2.4 0-.3.1-.5.1-.8-.4-.5-.9-.6-1.4-.6z"/><path fill="#202019" d="M466.7 143.1v-.6c0-3.3-2.3-6-5.3-6.8V134h.3c.4 0 .8-.4.8-.8v-1.6c0-.4-.4-.8-.8-.8h-5.4c-.4 0-.8.4-.8.8v1.6c0 .4.4.8.8.8h.3v1.8c-3.1.8-5.3 3.5-5.3 6.8v.6c0 1.9.4 3.8 1 5.8.4 1.1.6 2.4.6 3.6s-.3 2.5-.6 3.6c-.6 1.9-1 3.9-1 5.8v6.8c0 1.9 1.5 3.5 3.5 3.5h8.7c1.9 0 3.5-1.5 3.5-3.5V162c0-1.9-.4-3.8-1-5.8-.4-1.1-.6-2.4-.6-3.6s.3-2.5.6-3.6c.3-2 .7-4 .7-5.9zm-1.7 0c0 1.6-.3 3.4-.9 5.3-.1.4-.3.6-.3 1 0 .3-.1.5-.1.8-.1.8-.3 1.6-.3 2.4 0 1.4.3 2.8.6 4.1.6 1.8.9 3.5.9 5.3v6.8c0 1.1-.9 1.9-1.9 1.9h-8.7c-1.1 0-1.9-.9-1.9-1.9V162c0-1.6.3-3.4.9-5.3.5-1.4.6-2.8.6-4.1 0-.8 0-1.4-.1-2.1 0-.1 0-.3-.1-.4-.1-.5-.3-1.1-.4-1.6-.6-1.8-.9-3.5-.9-5.3v-.6c0-2.6 2-5 4.6-5.3.4 0 .6-.4.6-.8v-3.3c0-.4-.4-.8-.8-.8h-.3 3.9-.3c-.4 0-.8.4-.8.8v3.3c0 .4.3.8.6.8 2.6.4 4.6 2.6 4.6 5.3l.5.5z"/></g><g><path fill="none" d="M499.5 137.2c-.4 0-.6-.4-.6-.8v-3.3c0-.4.4-.8.8-.8h.3-4 .3c.4 0 .8.4.8.8v3.3c0 .4-.3.8-.6.8-2.6.4-4.6 2.6-4.6 5.3v.6c0 1.6.3 3.4.9 5.3.1.5.4 1 .4 1.6 0 .1 0 .3.1.4.3-.3.5-.4.8-.4.3 0 .5-.1.6-.4.4-.5.9-.9 1.6-.9.6 0 1.1.3 1.4.8.1.3.5.4.8.3.1 0 .4-.1.5-.1.3 0 .4 0 .6.1s.6 0 .8-.3c.4-.5.9-.8 1.5-.8.5 0 1 .3 1.4.6.1-.4.1-.6.3-1 .6-1.8.9-3.5.9-5.3v-.6c-.3-2.5-2.3-4.8-5-5.2z"/><path fill="#92CEF1" d="M501.7 148.9c-.6 0-1.1.3-1.5.8-.1.3-.5.4-.8.3s-.4-.1-.6-.1c-.1 0-.4 0-.5.1-.3.1-.5 0-.8-.3-.4-.4-.9-.8-1.4-.8-.6 0-1.3.4-1.6.9-.1.3-.4.4-.6.4-.4 0-.6.1-.8.4.1.8.1 1.4.1 2.1 0 1.4-.3 2.8-.6 4.1-.6 1.8-.9 3.5-.9 5.3v6.8c0 1.1.9 1.9 1.9 1.9h8.7c1.1 0 1.9-.9 1.9-1.9v-6.8c0-1.6-.3-3.4-.9-5.3-.5-1.4-.6-2.8-.6-4.1 0-.8.1-1.6.3-2.4 0-.3.1-.5.1-.8-.4-.5-.9-.6-1.4-.6z"/><path fill="#202019" d="M505.8 143.1v-.6c0-3.3-2.3-6-5.3-6.8V134h.3c.4 0 .8-.4.8-.8v-1.6c0-.4-.4-.8-.8-.8h-5.4c-.4 0-.8.4-.8.8v1.6c0 .4.4.8.8.8h.3v1.8c-3.1.8-5.3 3.5-5.3 6.8v.6c0 1.9.4 3.8 1 5.8.4 1.1.6 2.4.6 3.6s-.3 2.5-.6 3.6c-.6 1.9-1 3.9-1 5.8v6.8c0 1.9 1.5 3.5 3.5 3.5h8.7c1.9 0 3.5-1.5 3.5-3.5V162c0-1.9-.4-3.8-1-5.8-.4-1.1-.6-2.4-.6-3.6s.3-2.5.6-3.6c.3-2 .7-4 .7-5.9zm-1.6 0c0 1.6-.3 3.4-.9 5.3-.1.4-.3.6-.3 1 0 .3-.1.5-.1.8-.1.8-.3 1.6-.3 2.4 0 1.4.3 2.8.6 4.1.6 1.8.9 3.5.9 5.3v6.8c0 1.1-.9 1.9-1.9 1.9h-8.7c-1.1 0-1.9-.9-1.9-1.9V162c0-1.6.3-3.4.9-5.3.5-1.4.6-2.8.6-4.1 0-.8 0-1.4-.1-2.1 0-.1 0-.3-.1-.4-.1-.5-.3-1.1-.4-1.6-.6-1.8-.9-3.5-.9-5.3v-.6c0-2.6 2-5 4.6-5.3.4 0 .6-.4.6-.8v-3.3c0-.4-.4-.8-.8-.8h3.9-.3c-.4 0-.8.4-.8.8v3.3c0 .4.3.8.6.8 2.6.4 4.6 2.6 4.6 5.3l.2.5z"/></g><g><path fill="none" d="M157.4 144.3c-.5.3-1 .5-1.5.8l7.3 12.9c3.4-1.6 5-5.6 3.8-9.2-1.5-3.9-5.8-5.9-9.6-4.5z"/><path fill="#E4D4E9" d="M156.1 140.4c-1 .4-1.9.9-2.8 1.4-.1.1-.4.1-.6.1-.3 0-.4-.1-.5-.4l-.9-1.6-20.7 7.3 1 6c0 .3 0 .5-.3.6-.1.1-.4.3-.6.3l-13.7-.9c-.3 0-.4-.1-.5-.3l-2.6-3.3-.6 9.7 3-3c.1-.1.4-.3.6-.3l14.8 1c.4 0 .6.3.8.6l3.1 18.9L166 166l-1.6-3c-.1-.3-.1-.4 0-.6.1-.3.3-.4.4-.5 5.5-2.4 8.3-8.8 6.3-14.4-2.5-6.1-9.1-9.3-15-7.1zm7 19.2c-.1 0-.1.1 0 0-.4.1-.8 0-1-.4l-7.9-14c-.1-.4-.1-.8.3-1 .8-.6 1.6-1 2.5-1.4 4.6-1.6 9.8.8 11.4 5.5 1.6 4.5-.8 9.6-5.3 11.3z"/><path fill="#202019" d="M172.3 146.9c-2.4-6.8-9.9-10.4-16.7-8-.9.3-1.6.6-2.4 1.1l-.9-1.5c-.1-.4-.6-.5-.9-.4l-22 7.8c-.4.1-.6.5-.5.9l1 5.6-12.4-.8-3.6-4.5c-.3-.3-.5-.4-.9-.3-.3.1-.5.4-.5.6l-.9 13.8c0 .4.1.6.5.8.3.1.6.1.9-.1l4.3-4.3 13.8.9 3.3 19.2c0 .3.1.4.4.5.3.1.4.1.6.1l32.1-11.3c.3-.1.4-.3.5-.5.1-.3.1-.5 0-.6l-1.8-3c5.4-3 8.2-9.9 6.1-16zm-7.8 14.9c-.3.1-.4.3-.4.5-.1.3 0 .4 0 .6l1.6 3-30.4 10.7-3.1-18.9c0-.4-.4-.6-.8-.6l-14.8-1c-.3 0-.5.1-.6.3l-3 3 .6-9.7 2.6 3.3c.1.1.4.3.5.3l13.7.9c.3 0 .5-.1.6-.3.1-.1.3-.4.3-.6l-1-6L151 140l.9 1.6c.1.3.3.4.5.4s.5 0 .6-.1c.9-.6 1.8-1.1 2.8-1.4 6-2.1 12.7 1 14.7 7 2.3 5.5-.5 11.9-6 14.3z"/><path fill="#202019" d="M156.8 142.8c-.9.4-1.8.8-2.5 1.4-.3.3-.4.6-.3 1l7.9 14.2c.1.4.6.5.9.4 4.5-1.8 6.9-6.8 5.3-11.4-1.4-4.9-6.5-7.3-11.3-5.6zm6.3 15.1l-7.3-12.9c.5-.3 1-.6 1.5-.8 3.9-1.4 8.2.6 9.5 4.5 1.3 3.6-.3 7.6-3.7 9.2z"/><g><path fill="#FAFAFA" d="M142.6 149c-.3 0-.4.3-.4.4 0 .1-.9 1.9-1.5 4.3-.9 3.3-.9 6-.3 7.9.5 1.5 1.6 2.9 3 3.6 1.1.6 3 1.1 5.3.4 4-1.4 4.5-5.6 3.6-8.2-1.4-4-9-8.2-9.3-8.4h-.4zm8.6 8.9c.8 2 .4 5.4-2.8 6.4-2.4.9-5.4 0-6.5-3.1-1.1-3.4.6-8.7 1.4-10.5.8.5 2 1.3 3.3 2.1 2.4 2 4.1 3.8 4.6 5.1zm-4.2 3.4c.6-.3.9-.5 1-.9.3-.6-.1-1.5-.4-1.8-.3-.4-.1-.8.3-1 .4-.3.8-.1 1 .3.1.1 1 1.6.5 3-.3.8-.9 1.4-1.9 1.8-.4.1-.8-.1-.9-.4s.1-.9.4-1z"/></g><g><path fill="#92CEF1" d="M100.6 155.2h-.1c-.4-.1-.6-.5-.6-.9.5-2.3 1.6-4 3.4-5 3.3-1.9 7.5-.6 7.7-.5.4.1.6.6.5 1-.1.4-.6.6-1 .5 0 0-3.8-1.1-6.4.4-1.4.8-2.3 2.1-2.6 4-.2.2-.5.5-.9.5zM102.4 160.8c-.5 0-.9-.5-.8-.9.3-2.3 1.1-3.9 2.6-4.9 2.6-1.9 6.3-1 6.4-1 .4.1.6.5.6.9-.1.4-.5.6-.9.6 0 0-3-.8-5.1.8-1.1.8-1.8 2-2 3.8-.1.3-.4.7-.8.7zM104.3 166.3c-.4 0-.8-.4-.8-.8 0-2.1.6-3.8 1.9-4.9 2-1.8 4.9-1.4 5-1.4.4 0 .8.5.6.9 0 .4-.5.8-.9.6 0 0-2.4-.3-3.9 1-.9.8-1.4 2-1.4 3.8.2.5-.2.8-.5.8z"/></g></g><g><path fill="#FAFAFA" d="M533.4 257.2v-66.6c0-3.1-2.5-5.5-5.5-5.5h-.1c-3.1 0-5.5 2.5-5.5 5.5v66.6h-4.9v3.5h21.1v-3.5h-5.1zm-5.5-69.4c1.5 0 2.8 1.3 2.8 2.8s-1.3 2.8-2.8 2.8c-1.5 0-2.8-1.3-2.8-2.8s1.3-2.8 2.8-2.8z"/><path fill="#202019" d="M538.4 261.4h-21.1c-.4 0-.8-.4-.8-.8v-3.5c0-.4.4-.8.8-.8h4.1v-65.9c0-3.5 2.9-6.4 6.4-6.4h.1c3.5 0 6.4 2.9 6.4 6.4v65.9h4.1c.4 0 .8.4.8.8v3.5c0 .4-.4.8-.8.8zm-20.3-1.6h19.6v-1.9h-4.1c-.4 0-.8-.4-.8-.8v-66.6c0-2.6-2.1-4.8-4.8-4.8h-.1c-2.6 0-4.8 2.1-4.8 4.8v66.6c0 .3-.1.4-.3.5-.1.1-.4.3-.5.3h-4.1v1.9h-.1zm9.8-65.7c-1.9 0-3.5-1.6-3.5-3.5s1.6-3.5 3.5-3.5 3.5 1.6 3.5 3.5c0 1.8-1.6 3.5-3.5 3.5zm0-5.6c-1.1 0-2 .9-2 2s.9 2 2 2 2-.9 2-2c-.1-1.1-1-2-2-2z"/><g><path fill="#FAFAFA" d="M166.2 257.2v-66.6c0-3.1-2.5-5.5-5.5-5.5h-.3c-3.1 0-5.5 2.5-5.5 5.5v66.6H150v3.5h21.1v-3.5h-4.9zm-5.6-69.4c1.5 0 2.8 1.3 2.8 2.8s-1.3 2.8-2.8 2.8c-1.5 0-2.8-1.3-2.8-2.8s1.3-2.8 2.8-2.8z"/><path fill="#202019" d="M171.1 261.4H150c-.4 0-.8-.4-.8-.8v-3.5c0-.4.4-.8.8-.8h4.1v-65.9c0-3.5 2.9-6.4 6.4-6.4h.1c3.5 0 6.4 2.9 6.4 6.4v65.9h4.1c.4 0 .8.4.8.8v3.5c0 .4-.4.8-.8.8zm-20.3-1.6h19.6v-1.9h-4.1c-.4 0-.8-.4-.8-.8v-66.6c0-2.6-2.1-4.8-4.8-4.8h-.3c-2.6 0-4.8 2.1-4.8 4.8v66.6c0 .3-.1.4-.3.5-.1.1-.4.3-.5.3h-4.1v1.9zm9.8-65.7c-1.9 0-3.5-1.6-3.5-3.5s1.6-3.5 3.5-3.5 3.5 1.6 3.5 3.5c0 1.8-1.6 3.5-3.5 3.5zm0-5.6c-1.1 0-2 .9-2 2s.9 2 2 2 2-.9 2-2c-.1-1.1-1-2-2-2z"/></g></g></g><g><g fill="#FAFAFA"><path d="M-262.7 252h21.4v-15.2h-42.9V252M-240.5 235.2h109.8V220h-264v15.2h154.2zm102.5-11.1c1.9 0 3.5 1.6 3.5 3.5s-1.6 3.5-3.5 3.5-3.5-1.6-3.5-3.5c0-2 1.5-3.5 3.5-3.5zm-11.9 0c1.9 0 3.5 1.6 3.5 3.5s-1.6 3.5-3.5 3.5-3.5-1.6-3.5-3.5c0-2 1.6-3.5 3.5-3.5zm-112.8-1.7c.4 0 .8.1 1.2.2 2.3.6 3.9 2.6 3.9 5s-1.7 4.4-3.9 5c-.4.1-.8.2-1.2.2-2.9 0-5.2-2.3-5.2-5.2 0-2.9 2.3-5.2 5.2-5.2z"/></g><path fill="#95D4EE" d="M-394.8 98h132v120.4h-132z"/><path fill="#757576" d="M-262.7 98h132v120.4h-132z"/><path fill="#95D4EE" d="M-285 253.6h-8.3v3.9h30.6v-3.9"/><path fill="#757576" d="M-262.7 253.6v3.9h30.6v-3.9h-8.4"/><path fill="#202019" d="M-231.3 252h-8.4v-15.2h109.8c.4 0 .8-.4.8-.8V97.2c0-.4-.4-.8-.8-.8h-265.6c-.4 0-.8.4-.8.8V236c0 .4.4.8.8.8h109.8V252h-8.4c-.4 0-.8.3-.8.7V258.4c0 .4.4.8.8.8h62.8c.4 0 .8-.4.8-.8v-5.6-.1c0-.4-.4-.7-.8-.7zM-394.8 98h264v120.4h-264V98zm162.7 159.5h-61.2v-3.9h61.4v3.9zm-162.7-22.3V220h264v15.2h-264zm153.5 1.6V252h-42.8v-15.2h42.8z"/><circle fill="#757576" cx="-138" cy="227.5" r="3.5"/><circle fill="#95D4EE" cx="-149.9" cy="227.5" r="3.5"/><path fill="#202019" d="M-262.7 232.7c.4 0 .8-.1 1.2-.2 2.3-.6 3.9-2.6 3.9-5s-1.7-4.4-3.9-5c-.4-.1-.8-.2-1.2-.2-2.9 0-5.2 2.3-5.2 5.2 0 2.9 2.3 5.2 5.2 5.2z"/><g><path fill="#DFC778" d="M-387.5 103.4h86.6v4.6h-86.6z"/><path opacity=".7" fill="#FFF" d="M-387.5 158.3h31.8v4.6h-31.8zM-387.5 199.7h86.6v4.6h-86.6z"/><path fill="#C2D780" d="M-387.5 208.7h37.9v4.6h-37.9z"/><path opacity=".7" fill="#FFF" d="M-378.3 115.6h46.7v4.6h-46.7z"/><path fill="#DFC778" d="M-378.3 126h25.2v4.6h-25.2z"/><path opacity=".7" fill="#FFF" d="M-349.6 126h30.9v4.6h-30.9z"/><path fill="#C2D780" d="M-324.5 115.6h19.6v4.6h-19.6z"/><path opacity=".7" fill="#FFF" d="M-378.3 136.4h96.6v4.6h-96.6zM-378.3 146.7h22.7v4.6h-22.7z"/><path fill="#DFC778" d="M-344.2 146.7h34v4.6h-34z"/><path fill="#C2D780" d="M-378.3 168.2h26.3v4.6h-26.3z"/><path opacity=".7" fill="#FFF" d="M-334.1 168.2h49.9v4.6h-49.9zM-370.1 177.7h45.6v4.6h-45.6zM-318.7 177.7h45.6v4.6h-45.6z"/><path fill="#DFC778" d="M-370.1 188.3h20.5v4.6h-20.5z"/><path opacity=".7" fill="#FFF" d="M-341.9 188.3h20.5v4.6h-20.5z"/><path fill="#C2D780" d="M-313.7 188.3h20.5v4.6h-20.5z"/></g><g><path fill="#95D4EE" d="M-253.9 103.2h27v4.6h-27z"/><path fill="#395377" d="M-253.9 158.1h55v4.6h-55z"/><path opacity=".7" fill="#FFF" d="M-253.9 199.5h44v4.6h-44zM-253.9 208.5h48.5v4.6h-48.5z"/><path fill="#395377" d="M-200.9 208.5h48.5v4.6h-48.5z"/><path opacity=".7" fill="#FFF" d="M-244.7 115.3h63.4v4.6h-63.4zM-244.7 125.7h46.7v4.6h-46.7z"/><path fill="#395377" d="M-192.4 126h14.6v4.6h-14.6z"/><path opacity=".7" fill="#FFF" d="M-174.4 126.2h20.2v4.6h-20.2z"/><path fill="#95D4EE" d="M-244.7 136.1h34.8v4.6h-34.8z"/><path opacity=".7" fill="#FFF" d="M-191.7 136.1h6.6v4.6h-6.6zM-244.7 146.5h39.3v4.6h-39.3zM-244.7 167.9h10.6v4.6h-10.6z"/><path fill="#95D4EE" d="M-226.9 167.9h76.3v4.6h-76.3zM-236.5 177.5h30.4v4.6h-30.4z"/><path opacity=".7" fill="#FFF" d="M-200.2 177.5h23.6v4.6h-23.6zM-172.7 177.5h11.8v4.6h-11.8zM-236.5 188h51.4v4.6h-51.4z"/></g></g><g><path fill="#FFF" d="M-398.1 153v-21.3H-470v125.8h94V153.7h-21.3c-.4.1-.8-.3-.8-.7z"/><path fill="#202019" d="M-375.2 152.2h-21.3v-21.3c0-.4-.4-.8-.8-.8h-73.4c-.4 0-.8.4-.8.8v127.6c0 .4.4.8.8.8h95.6c.4 0 .8-.4.8-.8V153c-.1-.5-.5-.8-.9-.8zm-.7 105.3h-94V131.6h71.9v21.3c0 .4.4.8.8.8h21.3v103.8z"/><path fill="#6E93CC" d="M-392.7 197.2l9.8-3.9c-1.8-3.6-5.5-6.3-9.8-6.5v10.4z"/><path fill="#96B3DE" d="M-381.8 197.7c0-1.1-.3-2.1-.6-3.1l-8 3.1h8.6z"/><path fill="#466DB3" d="M-392.7 199h-1.2v-12.2c-6.1.4-10.9 5.4-10.9 11.5 0 6.4 5.1 11.5 11.5 11.5 6.1 0 11.2-4.9 11.5-10.9 0 .1-10.9.1-10.9.1z"/><path fill="#D3EAFA" d="M-398.1 153v-15.4h-67v43h83.3v-27h-15.6c-.3.2-.7-.2-.7-.6z"/><g fill="#FFF"><path opacity=".9" d="M-450.9 163.3h8.8v10.9h-8.8zM-435.6 150h8.8v24.2h-8.8zM-404.8 144h8.8v30.2h-8.8zM-420.2 160.2h8.8v14h-8.8z"/></g><g><path fill="#D3EAFA" d="M-465.1 215.8v35.9h19.1v-35.9h-19.1zm5.3 24.7h8.8v2h-8.8v-2zm0-1.8v-7.4h8.8v7.4h-8.8zm8.7-9.1h-8.8v-1.9h8.8v1.9zm0-9.4v5.8h-8.8v-5.8h8.8zm-8.7 28.6v-4.5h8.8v4.5h-8.8z"/><path fill="#D3EAFA" d="M-459.8 220.2h8.8v5.8h-8.8z"/><path opacity=".9" fill="#FFF" d="M-459.8 220.2h8.8v5.8h-8.8z"/><path fill="#D3EAFA" d="M-459.8 227.7h8.8v1.9h-8.8z"/><path opacity=".9" fill="#FFF" d="M-459.8 227.7h8.8v1.9h-8.8z"/><path fill="#D3EAFA" d="M-459.8 231.3h8.8v7.4h-8.8z"/><path opacity=".9" fill="#FFF" d="M-459.8 231.3h8.8v7.4h-8.8z"/><path fill="#D3EAFA" d="M-459.8 240.5h8.8v2h-8.8z"/><path opacity=".9" fill="#FFF" d="M-459.8 240.5h8.8v2h-8.8z"/><path fill="#D3EAFA" d="M-459.8 244.2h8.8v4.5h-8.8z"/><path opacity=".9" fill="#FFF" d="M-459.8 244.2h8.8v4.5h-8.8z"/></g><g><path fill="#F4ADB7" d="M-417.7 201.8v-15h-39.5l-7.9 7.9v15.2h39.4"/><g fill="#FFF"><path opacity=".75" d="M-453.2 190h30.2v1.9h-30.2zM-461.5 196.8h13.4v1.9h-13.4zM-443.4 196.8h20.4v1.9h-20.4zM-461.5 200.7h28.6v1.9h-28.6zM-461.5 204.7h12.8v1.9h-12.8zM-446.5 204.7h7.4v1.9h-7.4zM-437.6 204.7h8.8v1.9h-8.8z"/></g></g><g><path fill="#EFD1E6" d="M-441.4 215.8h59.6v35.9h-59.6z"/><path fill="#FFF" d="M-434.1 245.1c-.1 0-.3 0-.3-.1-.1-.1-.1-.4 0-.5l11.2-11.9c.1-.1.4-.1.5 0l11 8.9 3.5-4.3c.1-.1.1-.1.3-.1.1 0 .3 0 .3.1l3.8 3.4 15.4-15.7c.1-.1.4-.1.5 0 .1.1.1.4 0 .5l-15.7 15.9c-.1.1-.4.1-.5 0l-3.8-3.4-3.5 4.3c-.1.1-.4.3-.5 0l-11-8.9-10.9 11.7c-.1.1-.2.1-.3.1z"/><circle fill="#EFD1E6" cx="-434.1" cy="244.7" r="1.1"/><path fill="#FFF" d="M-434.1 246.2c-.9 0-1.5-.8-1.5-1.5 0-.8.8-1.5 1.5-1.5.8 0 1.5.8 1.5 1.5 0 .8-.6 1.5-1.5 1.5zm0-2.2c-.4 0-.8.4-.8.8s.4.8.8.8.8-.4.8-.8c-.1-.4-.4-.8-.8-.8z"/><circle fill="#EFD1E6" cx="-411.7" cy="241.7" r="1.1"/><path fill="#FFF" d="M-411.7 243.2c-.9 0-1.5-.8-1.5-1.5 0-.9.8-1.5 1.5-1.5.9 0 1.5.8 1.5 1.5.2.8-.6 1.5-1.5 1.5zm0-2.2c-.4 0-.8.4-.8.8s.4.8.8.8.8-.4.8-.8c.1-.6-.3-.8-.8-.8z"/><circle fill="#EFD1E6" cx="-423" cy="232.8" r="1.1"/><path fill="#FFF" d="M-423 234.5c-.9 0-1.5-.8-1.5-1.5 0-.9.8-1.5 1.5-1.5.8 0 1.5.8 1.5 1.5s-.6 1.5-1.5 1.5zm0-2.4c-.4 0-.8.4-.8.8s.4.8.8.8.8-.4.8-.8c0-.5-.4-.8-.8-.8z"/><g><circle fill="#EFD1E6" cx="-403.8" cy="240.8" r="1.1"/><path fill="#FFF" d="M-403.8 242.5c-.9 0-1.5-.8-1.5-1.5 0-.8.8-1.5 1.5-1.5.9 0 1.5.8 1.5 1.5s-.6 1.5-1.5 1.5zm0-2.4c-.4 0-.8.4-.8.8s.4.8.8.8.8-.4.8-.8-.4-.8-.8-.8z"/></g><g><circle fill="#EFD1E6" cx="-407.8" cy="237.6" r="1.1"/><path fill="#FFF" d="M-407.8 239.1c-.9 0-1.5-.8-1.5-1.5s.8-1.5 1.5-1.5c.9 0 1.5.8 1.5 1.5s-.6 1.5-1.5 1.5zm0-2.4c-.4 0-.8.4-.8.8s.4.8.8.8.8-.4.8-.8-.4-.8-.8-.8z"/></g><g><circle fill="#EFD1E6" cx="-388.1" cy="225.2" r="1.1"/><path fill="#FFF" d="M-388.1 226.7c-.9 0-1.5-.8-1.5-1.5 0-.9.8-1.5 1.5-1.5.9 0 1.5.8 1.5 1.5 0 .8-.6 1.5-1.5 1.5zm0-2.3c-.4 0-.8.4-.8.8s.4.8.8.8.8-.4.8-.8-.4-.8-.8-.8z"/></g></g><g><path fill="#FFF" d="M-396.6 152.2h19.6l-19.6-19.5"/><path fill="#202019" d="M-374.7 152.4l-7.2-7.2-10-10-4.9-4.9c-.3-.3-.5-.3-.9-.1-.3.1-.5.4-.5.8V153.2c0 .4.4.8.8.8h22.2c.4 0 .6-.3.8-.5 0-.5 0-.8-.3-1.1zm-21.9-.2v-19.4l19.4 19.4h-19.4z"/></g><g><g opacity=".7"><path fill="#FAFAFA" d="M-380.3 213.9c-10-10-26.2-10-36.1 0-10 10-10 26.2 0 36.1 10 10 26.2 10 36.1 0 9.9-10 10-26.1 0-36.1z"/><circle fill="#95D4EE" cx="-398.4" cy="232.1" r="20.6"/><circle fill="#202019" cx="-398.4" cy="232.1" r="10.5"/><circle fill="#FFF" cx="-389.8" cy="230.3" r="6.8" opacity=".5"/></g><path fill="none" d="M-380.3 213.9c-10-10-26.2-10-36.1 0-9.9 10-10 26.2 0 36.1 10 10 26.2 10 36.1 0 10-9.9 10-26.1 0-36.1zM-374.788 259.28l-6.222-6.223 3.818-3.818 6.223 6.222z"/><path fill="#BBB7A9" d="M-368.63 255.212l19.87 19.87-6.576 6.576-19.87-19.87z"/><path fill="none" d="M-368.63 255.212l19.87 19.87-6.576 6.576-19.87-19.87zM-380.3 213.9c-10-10-26.2-10-36.1 0-9.9 10-10 26.2 0 36.1 10 10 26.2 10 36.1 0 10-9.9 10-26.1 0-36.1z"/><path fill="#FFF" d="M-374.788 259.28l-6.222-6.223 3.818-3.818 6.223 6.222z"/><path fill="#202019" d="M-347.1 274.5l-20.8-20.8-.1-.1c-.3-.3-.8-.3-1.1 0l-.4.4-.5.5-6.4-6.4c.3-.4.5-.6.8-1 6.9-10.5 5.8-24.8-3.5-34.1-10.5-10.5-27.8-10.5-38.4 0-10.5 10.5-10.5 27.8 0 38.4 8.9 8.9 22.5 10.3 32.7 4.3.8-.5 1.5-1 2.3-1.5l6.4 6.4-.9.9c-.3.3-.3.6-.1.9 0 0 0 .1.1.1 0 0 0 .1.1.1l20.9 20.9c.3.3.8.3 1.1 0l7.7-7.7c.4-.5.4-1 .1-1.3zm-69.3-24.4c-10-10-10-26.2 0-36.1 10-9.9 26.2-10 36.1 0 10 10 10 26.2 0 36.1-9.9 9.9-26.2 9.9-36.1 0zm35.3 3l3.9-3.9 6.1 6.1-3.9 3.9-6.1-6.1zm25.8 28.5l-19.8-19.8 6.6-6.6 19.8 19.8-6.6 6.6z"/></g></g><g><path fill="#F9F9F9" d="M-565.8 242.2s-3.4-.1-5.6 2c-1.4 1.3-2 3.3-2 5.6 0 2.5.8 4.4 2.1 5.6 2.3 2.1 5.5 2 5.6 2h62.1V242l-62.2.2z"/><path fill="#202019" d="M-499.8 257.5h-65.9s-3.4.1-5.6-2c-1.4-1.3-2.1-3.3-2.1-5.6 0-2.5.8-4.4 2-5.6 2.3-2.1 5.5-2 5.6-2h65.9c.4 0 .8-.4.8-.8s-.4-.8-.8-.8h-65.9c-.4 0-4-.1-6.6 2.4-1.8 1.6-2.5 3.9-2.5 6.8s.9 5.1 2.5 6.8c.9.8 1.8 1.4 2.8 1.8 1.6.6 3.3.8 3.8.8h66.2c.4 0 .8-.4.8-.8-.3-.6-.7-1-1-1z"/><path fill="#C2D780" d="M-524.4 242.2v15.1l3.6-2.9 3.5 2.9v-15.1"/></g><g><path fill="#AACE81" d="M103.8 170.7c-.8 0-1.5 0-2.3.1.5.3.8.8.8 1.4 0 .9-.8 1.5-1.6 1.5h-.1l-.1 6h.1c.9 0 1.5.8 1.5 1.6 0 .9-.8 1.5-1.6 1.5h-.1l-.1 6h.1c.9 0 1.5.8 1.5 1.6 0 .9-.8 1.5-1.6 1.5h-.3l-.1 6h.1c.9 0 1.5.8 1.5 1.6 0 .9-.8 1.5-1.6 1.5h-.1l-.1 6h.1c.9 0 1.5.8 1.5 1.6s-.6 1.5-1.5 1.5c.3.1.4.4.4.6H123l.6-20.3c.1-5.3-1.8-10.3-5.5-14.2-3.6-3.8-8.7-5.9-13.9-5.9h-.4v.4z"/><path fill="#CED5D6" d="M80.1 257.5h29.6l14.6-33.8H65.4"/><path fill="#AACE81" d="M67.6 203.1h1.3c1.5-5.1 6.3-8.7 11.5-8.7 6.5 0 11.8 5.1 12 11.5 2.3.8 3.8 2.8 4 5.1h1.3l1.3-40c.3-4.5-1.3-8.7-4.4-11.9-3-3.3-7.2-5-11.7-5h-.3c-4.4 0-8.5 1.8-11.7 5-3 3.3-4.6 7.5-4.4 11.9l1.1 32.1z"/><path fill="#8E775B" d="M95 211.1c-.3-1.9-1.6-3.4-3.4-3.8l-.6-.1v-.8c0-5.8-4.6-10.4-10.4-10.4-4.9 0-9.2 3.4-10.2 8.2l-.3.6-.8-.1c-.4-.1-.8-.1-1.3-.1-3 0-5.5 2.5-5.5 5.5 0 .4 0 .8.1 1H95z"/><path fill="#FAFAFA" d="M60 212.7v9.3h69.7v-9.3"/><path fill="#202019" d="M130.5 211.1H126c-.3-.5-.8-.9-1.4-.9h-.1l.3-6h.1c.9 0 1.5-.6 1.6-1.5 0-.9-.6-1.5-1.5-1.6h-.1l.3-6h.1c.9 0 1.5-.6 1.6-1.5 0-.9-.6-1.5-1.5-1.6h-.1v-1c0-1.8-.1-3.5-.5-5.1.8-.1 1.4-.9 1.3-1.8-.1-.9-.9-1.4-1.8-1.4h-.4c-.8-2-1.9-4-3.3-5.6.6-.6.6-1.5 0-2.1-.6-.6-1.5-.6-2.1-.1-1.6-1.5-3.4-2.6-5.3-3.5.3-.8 0-1.6-.8-2-.8-.4-1.6-.1-2.1.6l-.1.3c-1.9-.6-4-.9-6-.9h-.4v-.1c-.1-.9-.9-1.4-1.8-1.3-.8.1-1.4.9-1.3 1.6-.1-1.8-.4-3.5-1-5.1.8-.4 1-1.3.8-2-.4-.8-1.3-1.1-2-.8-.6-1.1-1.5-2.3-2.5-3.4-.5-.6-1.1-1.1-1.8-1.6l.1-.1c.4-.8.1-1.6-.6-2.1-.8-.4-1.6-.1-2 .5-1.9-1-3.9-1.6-6-2 .1-.8-.5-1.5-1.3-1.6-.9-.1-1.6.4-1.8 1.3v.3c-2.3 0-4.4.5-6.4 1.4-.4-.8-1.4-1-2-.6-.8.4-1 1.3-.6 2-1.1.8-2.3 1.6-3.3 2.6-.5.6-1 1.3-1.5 1.9h-.6c-.8-.4-1.6 0-2 .8-.4.8 0 1.6.6 2-.9 1.9-1.5 4-1.6 6.1-.8 0-1.5.5-1.6 1.4-.1.9.5 1.6 1.4 1.8h.3l.3 6.1h-.1c-.9 0-1.5.8-1.5 1.6 0 .9.8 1.5 1.6 1.5h.1l.1 6h-.1c-.9 0-1.5.8-1.5 1.6 0 .9.8 1.5 1.6 1.5h.1l.1 6h-.1c-.9 0-1.5.8-1.5 1.6 0 .9.8 1.5 1.6 1.5h.1l.1 3.8c-2.9.9-5 3.6-5 6.8 0 .4 0 .8.1 1h-2c-.4 0-.8.4-.8.8v10.9c0 .4.4.8.8.8h4.5L78.7 259c.1.3.4.5.8.5h30.6c.3 0 .6-.1.8-.5l15.2-35h4.5c.4 0 .8-.4.8-.8V212c-.2-.5-.4-.9-.9-.9zm-6.2 12.6l-14.7 33.9H80.1l-14.7-33.9h58.9zm5.4-1.7H60v-9.4h69.7v9.4zm-67-11.9c0-3 2.5-5.5 5.5-5.5.4 0 .8 0 1.3.1l.8.1.1-.8c1-4.8 5.4-8.2 10.2-8.2 5.8 0 10.4 4.6 10.4 10.4v.8l.6.1c1.9.5 3.1 2 3.4 3.8H62.9c-.2-.2-.2-.4-.2-.8zm4.1-39c-.3-4.4 1.3-8.7 4.4-11.9 3-3.3 7.2-5 11.7-5h.4c4.4 0 8.5 1.8 11.7 5 3 3.3 4.6 7.5 4.4 11.9l-1.3 40h-1.3c-.3-2.4-1.8-4.4-4-5.1-.3-6.4-5.5-11.5-12-11.5-5.4 0-10 3.6-11.5 8.7H68l-1.2-32.1zm51.4 5.5c3.6 3.8 5.6 8.8 5.5 14.2l-.6 20.3h-23c-.1-.3-.3-.5-.4-.6.8 0 1.4-.6 1.5-1.5 0-.9-.6-1.5-1.5-1.6h-.1l.1-6h.1c.9 0 1.5-.6 1.6-1.5 0-.9-.6-1.5-1.5-1.6h-.1l.1-6h.1c.9 0 1.5-.6 1.6-1.5 0-.9-.6-1.5-1.5-1.6h-.1l.1-6h.1c.9 0 1.5-.6 1.6-1.5 0-.9-.6-1.5-1.5-1.6h-.1l.1-6h.1c.9 0 1.5-.6 1.6-1.5 0-.6-.3-1.1-.8-1.4.8-.1 1.5-.1 2.3-.1h.4c5.6-.4 10.5 1.8 14.3 5.5z"/><g><circle fill="#EB6092" cx="111.5" cy="170.7" r="3.6"/><path fill="#0E0E0E" d="M111.5 165.6c-2.9 0-5.1 2.3-5.1 5.1 0 2.9 2.3 5.1 5.1 5.1 2.9 0 5.1-2.3 5.1-5.1.2-2.9-2.2-5.1-5.1-5.1zm-3.5 5.1c0-2 1.6-3.6 3.6-3.6s3.6 1.6 3.6 3.6-1.6 3.6-3.6 3.6c-1.9.1-3.6-1.6-3.6-3.6z"/></g><g fill="#202019"><circle cx="78.4" cy="162.7" r="1.5"/><circle cx="84.4" cy="178.5" r="1.5"/><circle cx="111" cy="189.4" r="1.5"/><circle cx="107.1" cy="179.3" r="1.5"/><circle cx="119.1" cy="195.4" r="1.5"/><circle cx="115.9" cy="206.4" r="1.5"/><circle cx="108" cy="200.5" r="1.5"/><circle cx="92.1" cy="169.2" r="1.5"/><circle cx="73.8" cy="173.6" r="1.5"/><circle cx="75.3" cy="183.9" r="1.5"/><circle cx="89.8" cy="191.8" r="1.5"/><circle cx="76.5" cy="194.6" r="1.5"/></g></g></svg>