<svg xmlns="http://www.w3.org/2000/svg" viewBox="0 0 991 603.6"><g fill="#FBFBFB"><path d="M495.5 577H575v-56.4H416V577M578 514.6h407v-56.4H6v56.4h572zm379.7-41.1c7.1 0 12.9 5.8 12.9 12.9 0 7.1-5.8 12.9-12.9 12.9-7.1 0-12.9-5.8-12.9-12.9 0-7.1 5.8-12.9 12.9-12.9zm-43.9 0c7.1 0 12.9 5.8 12.9 12.9 0 7.1-5.8 12.9-12.9 12.9-7.1 0-12.9-5.8-12.9-12.9 0-7.1 5.8-12.9 12.9-12.9zm-418.3-6.2c1.6 0 3.1.2 4.6.6 8.4 2.1 14.6 9.6 14.6 18.6 0 9-6.2 16.5-14.6 18.6-1.5.4-3 .6-4.6.6-10.6 0-19.2-8.6-19.2-19.2 0-10.7 8.6-19.2 19.2-19.2z"/></g><path fill="#95D5EE" d="M6 6h489.5v446.2H6z"/><path fill="#E58A76" d="M495.5 6H985v446.2H495.5z"/><path fill="#95D5EE" d="M413 583h-31v14.6h113.5V583"/><path fill="#E58A76" d="M495.5 583v14.6H609V583h-31"/><path fill="#202019" d="M612 577h-31v-56.4h407c1.7 0 3-1.3 3-3V3c0-1.7-1.3-3-3-3H3C1.3 0 0 1.3 0 3v514.7c0 1.7 1.3 3 3 3h407V577h-31c-1.5 0-2.8 1.2-3 2.7V600.6c0 1.7 1.3 3 3 3h233c1.7 0 3-1.3 3-3V580v-.3c-.2-1.5-1.5-2.7-3-2.7zM6 6h979v446.2H6V6zm603 591.6H382V583h227v14.6zm-603-83v-56.4h979v56.4H6zm569 6V577H416v-56.4h159z"/><circle fill="#E58A76" cx="957.7" cy="486.4" r="12.9"/><circle fill="#95D5EE" cx="913.8" cy="486.4" r="12.9"/><path fill="#212119" d="M495.5 505.6c1.6 0 3.1-.2 4.6-.6 8.4-2.1 14.6-9.6 14.6-18.6 0-9-6.2-16.5-14.6-18.6-1.5-.4-3-.6-4.6-.6-10.6 0-19.2 8.6-19.2 19.2s8.6 19.2 19.2 19.2z"/><g><path fill="#E0C879" d="M33.1 26.3h321v17h-321z"/><path opacity=".7" fill="#FFF" d="M33.1 229.8h118v17h-118zM33.1 383.3h321v17h-321z"/><path fill="#C3D880" d="M33.1 416.7h140.5v17H33.1z"/><path opacity=".7" fill="#FFF" d="M67.1 71.3h173v17h-173z"/><path fill="#E0C879" d="M67.1 109.8h93.5v17H67.1z"/><path opacity=".7" fill="#FFF" d="M173.6 109.8h114.5v17H173.6z"/><path fill="#C3D880" d="M266.6 71.3h72.5v17h-72.5z"/><path opacity=".7" fill="#FFF" d="M67.1 148.3h358v17h-358zM67.1 186.8h84v17h-84z"/><path fill="#E0C879" d="M193.6 186.8h126v17h-126z"/><path fill="#C3D880" d="M67.1 266.3h97.7v17H67.1z"/><path opacity=".7" fill="#FFF" d="M230.8 266.3H416v17H230.8zM97.6 301.8h169v17h-169zM288.1 301.8h169v17h-169z"/><path fill="#E0C879" d="M97.6 340.8h76v17h-76z"/><path opacity=".7" fill="#FFF" d="M202.1 340.8h76v17h-76z"/><path fill="#C3D880" d="M306.6 340.8h76v17h-76z"/></g><g><path fill="#95D5EE" d="M528.2 25.4h100.1v17H528.2z"/><path fill="#395377" d="M528.2 228.9H732v17H528.2z"/><path opacity=".7" fill="#FFF" d="M528.2 382.4h163.2v17H528.2zM528.2 415.8H708v17H528.2z"/><path fill="#395377" d="M724.8 415.8h179.8v17H724.8z"/><path opacity=".7" fill="#FFF" d="M562.2 70.4h235.2v17H562.2zM562.2 108.9h173v17h-173z"/><path fill="#395377" d="M756.2 109.8h54v17h-54z"/><path opacity=".7" fill="#FFF" d="M822.7 110.7h75v17h-75z"/><path fill="#95D5EE" d="M562.2 147.4h129.2v17H562.2z"/><path opacity=".7" fill="#FFF" d="M758.7 147.4h24.6v17h-24.6zM562.2 185.9H708v17H562.2zM562.2 265.4h39.2v17h-39.2z"/><path fill="#95D5EE" d="M628.3 265.4h282.8v17H628.3zM592.7 300.9h112.7v17H592.7z"/><path opacity=".7" fill="#FFF" d="M727.4 300.9h87.3v17h-87.3zM829.1 300.9h43.7v17h-43.7zM592.7 339.9h190.5v17H592.7z"/></g></svg>