<svg xmlns="http://www.w3.org/2000/svg" width="264.645" height="28.816"><defs><clipPath id="a"><path d="M84.92 102.52h75.144v14.44H84.92v-14.44z"/></clipPath></defs><path d="M27.804 18.51l4.522-2.422 3.36 6.984h-5c0 .006-.963.006-1.347-.863-.356-.956-1.533-3.7-1.536-3.7M.38 25.3h36.38v3.262H.38v-3.26z" fill="#43494d"/><g clip-path="url(#a)" transform="matrix(3.52186 0 0 -3.52186 -299.077 411.913)"><path d="M93.526 113.706l-1.07 2.364h-1.55l-2.178-4.066c.002-.002 1.07.033 1.757.548.175.103.624 1.312 1.072 2.174.035.107.072.003.072 0l.664-1.668c-1.055-.54-2.055-1.014-2.593-1.165-1.422-.41-3.154-.656-3.776-.104-.584.517.767 2.693 3.32 3.177.412.102.66.07.66.07s-.207.795-.314.897c-.205.214-.376.282-.656.246-.555-.032-2.904-.66-3.835-2.622-.517-1.114.204-2.287.655-2.59.138-.113 1.52-1.318 4.595-.115 3.044 1.184 5.772 3.045 5.774 3.045v1.244s-1.203-.688-2.598-1.436" fill="#43494d"/></g><path d="M39.458 4.69c-.006 0-5.723 3.283-7.062 3.784-1.23.486-1.71-.134-1.824-.38-.246-.24-.968-2.417-.96-2.424-.007.008.347.008 1.073-.12.866-.243 8.766-4.63 8.773-4.624V4.69M60.71 3.832s-.024 1.803.005 2.78c-2.786-.963-7.115-1.935-9.407.625-1.092 1.28-1.335 3.307-.673 4.854.79 1.97 2.892 2.645 4.885 2.656 1.796.05 3.51-.324 5.124-.803l.006 2.694c-3.74 1.26-9.136 1.733-12.228-1.327-1.23-1.226-1.94-2.78-2.106-4.5-.098-1.03.06-2.048.303-2.967.08-.23.12-.43.253-.637l.102-.222c1.792-3.28 5.36-4.434 9.002-4.177 1.662.12 3.23.503 4.73 1.025M94.275 5.617H84.147v9.108s10.35.003 10.63-.014l-1.11 2.53-13.113.005v-14.1h12.86l.86 2.47" fill="#277656"/><path d="M92.377 8.956c-.595.83-.958 1.916-2.04 2.2l-.876.068h-5.134c.412-.68.79-1.327 1.23-1.94.443-.52 1.098-.497 1.743-.514l5.158.003-.08.183M72.028 3.13c2.007.103 4.265.5 5.163 2.52.607 1.175.515 2.866-.196 3.958-.58.877-2.448 1.6-2.448 1.6l3.867 6.028-4.064.003-3.266-4.995-.113-.063h-3.4s.71-1.81 1.528-2.395c1.676-.314 4.31.384 4.694-1.892.02-.623-.102-1.246-.634-1.63-.764-.58-1.83-.44-2.796-.54l-3.596.018v11.492c-1.278.003-2.437.003-3.694.003V3.128h8.956M87.887 0l-1.853 2.59h2.695L91.256 0h-3.37M106.532 6.4c-1.723-.93-3.853-.73-5.92-.716v9.094c2.898-.012 6.332.387 7.568-2.63.602-1.438.493-3.4-.42-4.636-.352-.444-.767-.842-1.228-1.113m5.2.823c1.08 2.374.76 5.62-1.038 7.544-1.785 2.036-4.265 2.444-6.885 2.487h-6.833L96.98 3.13h4.233c4.04-.027 8.74-.084 10.52 4.093M115.17 17.254h3.766V3.124h-3.765v14.13zM135.612 3.13c-.296.652-.416 1.42-.87 2.033-.31.35-.78.38-1.2.433h-3.636v11.65h-3.65V5.597h-5.493s.73-1.634 1.11-2.465h13.74M151.393 3.13c.588 1.34 6.642 14.11 6.642 14.11h-3.958l-5.255-11.594c-.41.81-2.617 5.888-2.617 5.888h4.906c-.506.91-.9 2.41-2.16 2.53l-3.977.018c-.543 1.025-.99 2.152-1.5 3.163l-3.695-.006 6.72-14.11h4.895M173.28 3.85v2.736c-2.844-.817-6.7-1.645-9.39.03-1.607 1.153-2.153 3.122-1.706 5.002.23 1 .842 1.994 1.775 2.57 1.982 1.276 4.65.92 6.902.51l-.01-3.065h-4.502c.246-.75.538-1.497 1.03-2.13.234-.25.55-.304.86-.367 2.054.01 3.9.01 5.963.01v7.428c-4.124 1.036-9.847 1.976-13.527-.753-2.085-1.71-2.747-4.2-2.48-6.818.282-2.426 2.43-4.64 4.702-5.363 3.237-1.132 7.18-.815 10.383.21M186.347 3.13c2.018.103 4.272.5 5.17 2.52.613 1.175.525 2.866-.193 3.958-.585.877-2.458 1.6-2.458 1.6l3.877 6.028-4.075.003-3.26-4.995-.11-.063h-3.405s.704-1.81 1.514-2.395c1.69-.314 4.325.384 4.702-1.892.027-.623-.1-1.246-.628-1.63-.765-.58-1.825-.44-2.797-.54l-3.62.018c-.006 1.25 0 11.492 0 11.492-1.275.003-2.434.003-3.687.003V3.128h8.97M195.16 17.254h3.76V3.124h-3.76v14.13zM215.917 3.832s-.025 1.803.003 2.78c-2.786-.963-7.104-1.935-9.396.625-1.085 1.28-1.325 3.307-.666 4.854.782 1.97 2.89 2.645 4.87 2.656 1.804.05 3.52-.324 5.125-.803l.01 2.694c-3.742 1.26-9.13 1.733-12.21-1.327-1.232-1.226-1.947-2.78-2.11-4.5-.104-1.03.054-2.048.297-2.967.092-.23.127-.43.26-.637l.103-.222c1.785-3.28 5.353-4.434 8.984-4.177 1.662.12 3.233.503 4.73 1.025M264.145 5.617H254.02v9.108s10.354.003 10.625-.014l-1.102 2.53-13.122.005v-14.1h12.873l.852 2.47" fill="#277656"/><path d="M262.247 8.956c-.595.83-.958 1.916-2.036 2.2l-.872.068h-5.142c.416-.68.792-1.327 1.24-1.94.433-.52 1.08-.497 1.73-.514l5.17.003-.09.183M240.683 14.707h8.206s-.776 1.733-1.143 2.54h-10.8V3.13c1.25-.01 2.46.015 3.736.004v11.573M227.94 5.65c-1.757-.677-4.004-.47-5.39.862-1.445 1.44-1.727 3.814-1.07 5.734.403 1.36 1.822 2.405 3.164 2.73 1.796.337 3.804-.047 4.994-1.59 1.205-1.665 1.324-4.352.254-6.106-.448-.726-1.194-1.325-1.95-1.63m5.92 1.292c1.158 2.352.883 5.684-.8 7.705-2.283 2.762-5.808 3.223-9.22 2.818-2.473-.444-5.115-1.842-6.122-4.36-1-2.26-.69-5.336.83-7.28 2.305-2.87 6-3.398 9.59-2.87 2.294.42 4.685 1.694 5.72 3.987" fill="#277656"/><path d="M51.763 28.79c-2.574 0-4.592-1.467-4.592-3.827 0-2.38 2.1-3.842 4.526-3.842 1.148 0 1.972.237 2.98.5v1.575c-.853-.366-1.72-.574-2.63-.574-1.62 0-2.77.913-2.77 2.343 0 1.458 1.057 2.398 2.892 2.398.962 0 1.486-.23 2.448-.386v1.324c-.986.35-1.765.493-2.853.493M57.493 24.917c-.017 1.384.842 2.65 2.532 2.65 1.53 0 2.427-1.29 2.4-2.696-.036-1.348-.95-2.496-2.4-2.496-1.57 0-2.518 1.16-2.532 2.543m-2.088.06c0-2.324 1.73-3.877 4.62-3.877 2.483 0 4.473 1.472 4.473 3.92 0 1.986-1.476 3.796-4.473 3.796-3.053 0-4.62-1.884-4.62-3.84M68.126 25.88c.105-.28.345-.716.542-.99.172-.25.335-.325.733-.325.286 0 .663.014 1.082-.056.694-.135.912-.505.912-1.026 0-1.113-1.543-1.022-2.504-1.022h-1.138v6.135h-1.958V21.21h4.635c1.936 0 2.943.897 2.943 2.274 0 .958-.598 1.62-1.574 1.91l2 3.203h-2.15l-1.728-2.718h-1.796M77.427 25.946c.116-.264.426-.814.61-1.09.168-.245.362-.22.763-.22.275 0 .57.025.99-.06.697-.134.912-.49.912-1.022 0-1.113-1.553-1.018-2.497-1.018H77.06v6.062h-1.968v-7.39h4.638c1.94.064 2.952.966 2.952 2.346 0 .97-.997 2.096-2.16 2.296-1.2.215-3.095.095-3.095.095M85.446 24.917c-.014 1.384.838 2.65 2.532 2.65 1.532 0 2.434-1.29 2.406-2.696-.046-1.348-.958-2.496-2.406-2.496-1.574 0-2.51 1.16-2.532 2.543m-2.092.06c0-2.324 1.733-3.877 4.624-3.877 2.48 0 4.473 1.472 4.473 3.92 0 1.986-1.475 3.796-4.472 3.796-3.053 0-4.624-1.884-4.624-3.84M96.08 25.88c.1-.28.35-.716.534-.99.176-.25.338-.325.743-.325.282 0 .655.014 1.074-.056.7-.135.913-.505.913-1.026 0-1.113-1.54-1.022-2.5-1.022h-1.14v6.135h-1.96V21.21h4.64c1.94 0 2.94.897 2.94 2.274 0 .958-.603 1.62-1.578 1.91l2.014 3.203h-2.156l-1.73-2.718H96.08M109.423 28.597l-2.627-6.004-1.448 3.08h2.582c-.493 1.213-.888 1.287-1.6 1.287h-1.573l-.74 1.637h-1.972l3.557-7.424h2.507l3.412 7.424h-2.1M113.614 22.49h-2.867l.662-1.317h7.272s-.17.54-.483.98c-.25.338-.807.338-1.314.338h-1.31v6.107h-1.962V22.49M122.13 24.748c.39-.613.458-.52 1.796-.525l2.032-.006-.62.88c-.222.297-.458.34-.803.34h-2.852l.447-.688zm-2.483-3.575h6.8l.473 1.335h-5.37v4.815h5.553l-.57 1.274h-6.886v-7.424M140.908 21.166h1.952v7.428h-1.952v-7.428zM144.95 21.173h2.35l3.396 5.09v-5.09h1.673v7.424h-2.157l-3.684-5.38v5.38h-1.58v-7.424M153.4 21.173h2.177l2.338 5.495 2.416-5.495h1.92l-3.377 7.424h-2.123l-3.35-7.424M165.85 24.748c.388-.613.458-.52 1.796-.525l2.032-.006-.623.88c-.215.297-.46.34-.8.34h-2.86l.455-.688zm-2.48-3.575h6.798l.472 1.335h-5.367v4.815h5.554l-.57 1.274h-6.886v-7.424M174.377 27.36c.92.068 2.37.013 2.37-.75 0-1.094-1.948-.925-2.61-1.045-.81-.155-2.39-.574-2.39-2.2 0-1.642 1.908-2.3 3.566-2.3 1.01 0 2.11.285 2.913.647v1.413c-.976-.296-1.993-.62-3.222-.62-.592 0-1.388.183-1.388.74 0 1.098 2.543.84 3.49 1.098.83.233 1.574.898 1.574 1.958 0 1.576-1.55 2.347-3.176 2.47-1.35.106-2.163-.204-3.424-.528l-.242-1.416c1.024.29 1.605.46 2.54.535M181.72 22.49h-2.864l.663-1.317h7.26s-.158.54-.478.98c-.247.338-.803.338-1.307.338h-1.31v6.107h-1.965V22.49M187.503 21.173h2.687l2.102 5.065 2.128-5.065H197v7.424h-1.675v-5.645l-2.29 5.645h-1.51l-2.44-5.472v5.472h-1.582v-7.424M201.597 24.748c.395-.613.465-.52 1.807-.525l2.028-.006-.627.88c-.21.297-.457.34-.795.34h-2.857l.444-.688zm-2.476-3.575h6.798l.472 1.335h-5.363v4.815h5.553l-.574 1.274h-6.885v-7.424M207.824 21.173h2.352l3.395 5.09v-5.09h1.67v7.424h-2.155l-3.68-5.38v5.38h-1.58v-7.424M218.717 22.49h-2.863l.662-1.317h7.265s-.16.54-.48.98c-.244.338-.804.338-1.31.338h-1.312v6.107h-1.96V22.49M232.68 27.34c.73.003 1.582-.285 1.582-1.004 0-.736-.856-1-1.6-1h-1.78c.257-.803.644-1.17 1.126-1.17h.56c.613 0 1.236-.344 1.236-.876 0-.687-.83-.94-1.532-.94h-2.042v4.973l2.45.016zm-4.313-6.167h4.694c2.71-.014 3.29 2.624 1.678 3.346.8.193 1.377.89 1.377 1.87 0 1.218-1.06 2.207-2.744 2.207h-5.003v-7.424M243.898 28.597l-2.634-6.004-1.448 3.08h2.582c-.493 1.213-.884 1.287-1.596 1.287h-1.574l-.747 1.637h-1.97l3.563-7.424h2.5l3.414 7.424h-2.09M246.82 21.173h2.35l3.395 5.09v-5.09h1.67v7.424h-2.156l-3.677-5.38v5.38h-1.582v-7.424M259.394 25.33l-1.148.85v2.417h-1.95v-7.43h1.95v3.194l3.716-3.194h2.27l-3.323 3.02 3.323 4.41h-2.243l-2.596-3.267M132.748 23.54c.342-.29.662-.574.662-1.042 0-.377-.288-.61-.62-.61-.288 0-.588.222-.588.596 0 .376.29.74.546 1.056m-.43 1.948c-.433.303-.63.627-.63 1 0 .486.426.94.965.94.31 0 .61-.148.807-.387l-1.14-1.552zm2.188.443c.214-.308.27-.66.306-1.013h1.518c-.06.867-.27 1.634-.895 2.28l1.05 1.4h-1.89l-.343-.468c-.556.383-1.11.622-1.895.622-1.75 0-2.33-1.165-2.33-2.127 0-1.11.594-1.62 1.475-2.264-.314-.4-.747-1.11-.747-1.686 0-1.19.933-1.78 2.074-1.78 1.102 0 2.035.55 2.035 1.71 0 .936-.638 1.447-1.338 1.996l.98 1.33" fill="#43494d"/></svg>