<!DOCTYPE svg PUBLIC "-//W3C//DTD SVG 1.1//EN" "http://www.w3.org/Graphics/SVG/1.1/DTD/svg11.dtd" [
	<!ENTITY ns_flows "http://ns.adobe.com/Flows/1.0/">
]><svg xmlns="http://www.w3.org/2000/svg" xmlns:xlink="http://www.w3.org/1999/xlink" width="17" height="13" viewBox="-0.587 -0.755 17 13"><defs><path id="a" d="M0 0h16.346v11.485H0z"/></defs><clipPath id="b"><use xlink:href="#a" overflow="visible"/></clipPath><path clip-path="url(#b)" fill="#006F4E" d="M10.753 5.35L9.74 2.747 8.42 5.622c-.445.905-1.904 1.168-2.925 1.313l.185-.385L8.634.884h2.303l1.65 3.436.723 1.63 1.49 3.27-1.027-.002-.8-.005c-.338.005-.667-.02-.807-.38l-.284-.7-.476-1.18-.653-1.602"/><path clip-path="url(#b)" fill="#009B9D" d="M11.418 6.964c-1.57.81-3.164 1.61-4.99 2.03-1.7.39-3.573.44-4.88-.317C.374 7.997-.01 6.664.012 5.685.027 5.045.34 4.147.95 3.4 2.093 2.008 4.245.803 5.96.748c.61-.02 1 .183 1.23 1.692-.637-.002-1.19.08-1.86.32-.425.154-1.234.507-2.158 1.158-1.208.85-1.897 1.702-1.97 2.51-.062.708.597 1.128 1.69 1.22 2.588.22 5.58-1.015 7.875-2.286l1.833-1.03 3.748-2.037-.012 1.91-3.012 1.756-1.904 1.004"/><path fill="#006F4E" d="M0 10.157h15.207v1.328H0z"/><path fill="#ED1C24" d="M15.717.33l-2.163 1.155s-.744.408-1.22.51l.336.78c.1.325.467.434.753.288l2.905-1.586V0l-.61.33"/><path fill="#009B9D" d="M5.423 1.392c.575.03 1.544-.375 1.766 1.094-.27-.083-.794-.012-1.093.05"/></svg>