<svg xmlns="http://www.w3.org/2000/svg" version="1" width="56.28" height="24.51"><path d="M10.94 16.553c-.19.2-.707.274-.852.504-.22.347-.73 1.137-1.127 1.513-1.28 1.217-4.026 1.83-5.38.667-.088.006-.037.057.07.39.098.63.605 2.107.418 2.484.122.42.25.267.48.5.157.158.22.57.4.68.207-.014.414-.03.62-.043.037.115.076.23.113.347.264-.02.53-.04.795-.058.15.035.6.266.73.303.296-.022.59-.042.883-.062.674.18 1.262-.102 1.83-.486.317-.213.663-.18.945-.42.408-.35.963-1.032 1.223-1.506.638-1.158.42-3.933-.157-4.618-.227-.248-.494-.252-.99-.195m5.332-.76c-.478.365-.678.275-.958.84-.03 0 .042.084.014.084.285.57.937.798 1.418 1.198.148.126.554.83.746.88.217.258.358.97.5.97.146.202-.013.674.13.858.01.846-.107.905-.255 1.068 0 .06.08.213.08.27.04.04.38.284.53.255.46.012 2.346 1.485 2.496 1.77 1.353.1 1.255-.313 2.19-.71.25-.108.453-.004.618-.177.174-.177.188-.526.355-.708.022-3.33-4.507-6.482-7.863-6.597m3.677-7.035c-1.68.25-2.704.787-3.338 1.226-.443.31-.572.515-.666.645-.097.13-.16.416-.114.72.05.3.172.62.433.8 2.06-.153 5.636-.283 6.332 1.447.036.24.092.386.096.444.682-.168.183-.108 1.188.05.23.035.798-.093 1.175-.185.17-.04.268-.195.268-.195s-.033-.165-.024-.255c0 0 .352.027.496-.085.953-.153.453-.6.9-1.106-.268-3.234-3.587-3.986-6.747-3.506M7.177 14.655c.37-.095.998-.145 1.327-.308.525-.263 2.327-1.523 1.753-2.55-.176-2.162-2.786-.335-3.898-1.093-1.123-.145-2.387-2.27-2.726-3.183-.13-.36-.077-.236-.257-.52 0-.03-.115.098-.114.07-.328.38-.272.716-.323 1.65l-.442-.03c-.028.34-.062.523-.22.698-.032.058-.066.113-.1.17-.28-.093-.138.04-.252-.195-1.035.053-.96 1.094-1.434 1.684.02 1.944 3.864 4.34 6.686 3.608m7.49-10.56c.088-.735-.02-1.808.558-2.312.17-.783 1.403-.6 1.21-1.1-.12-.312-.698-.163-.932-.105-.18.042-1.87.576-2.518.65l-.825-.23c-1.06.142-1.672.986-2.262 1.656-.494.562-1.165 1.94-.63 2.763l-.09.54 1.204 1.76c.416.3.472.52.92.815l.276.415c.365.24 1.446.244 1.626.087 1.738.162 1.55-3.355 2.1-4.094-.07-.332-.36-.677-.637-.846" fill="#f1471c" fill-rule="evenodd"/><path d="M42.62 17.126c1.54 0 2.79-.508 2.79-3.226 0-2.312-1.25-3.08-2.79-3.08h-.807v6.306h.807zm.816-8.14c2.785 0 4.67 1.76 4.67 4.914 0 3.96-2.588 5.134-5.302 5.134h-3.632c.013-.22 0-.806 0-1.54v-6.968c0-.734.013-1.202 0-1.54M52.056 17.493c0 .735.037 1.54.037 1.54h-2.695s.018-.805.018-1.54v-6.968c0-.734-.018-1.54-.018-1.54h6.37v1.945s-1.424-.036-1.907-.036h-1.804v2.024l1.805.018c.34 0 1.5-.018 1.5-.018v1.852s-1.03-.03-1.5-.03l-1.804.012M31.553 12.783c.04-.58.247-1.93 1.715-1.93 1.505 0 1.587 1.267 1.587 1.938v.136s-1.005.028-1.605.028c-.6 0-1.707-.028-1.707-.028l.01-.143zm2.24 4.22c-1.265 0-2.24-.853-2.24-2.186v-.113s2.354-.058 3.152-.058c1.357 0 1.917-.012 2.987-.027v-.76c0-3.422-1.452-5.088-4.442-5.088-1.38 0-4.584.518-4.584 5.312 0 3.2 1.615 5.11 4.438 5.11 2.216 0 3.577-.566 4.563-1.285-.112-.167-.937-1.65-1.045-1.813-.592.45-1.568.906-2.828.906" fill="#13356d"/></svg>