<svg xmlns="http://www.w3.org/2000/svg" width="192.756" height="101" viewBox="0 0 192.756 101"><g fill="#00427A"><path d="M79.934 85.35h-2.26v4.42h-2.29V78.03h4.55c2.425 0 3.876 1.668 3.876 3.66 0 2-1.45 3.663-3.876 3.663zm-.116-5.276h-2.143v3.217h2.143c1.042 0 1.698-.642 1.698-1.602 0-.953-.657-1.614-1.698-1.614zM96.54 89.77l-.693-2.074h-4.174l-.708 2.075h-2.392l4.272-11.74h1.796l4.292 11.74H96.54zM93.8 81.494l-1.485 4.268h2.92L93.8 81.494zM111.562 89.77l-2.293-4.682h-1.65v4.683h-2.293V78.03h4.6c2.392 0 3.812 1.637 3.812 3.597 0 1.647-1.008 2.67-2.146 3.083l2.62 5.062h-2.652zm-1.78-9.696h-2.163v3.1h2.16c1.006 0 1.665-.642 1.665-1.55 0-.905-.66-1.55-1.664-1.55zM121.06 78.028h2.294V89.77h-2.293V78.03M134.272 89.87c-1.785 0-3.138-.38-4.29-1.55l1.482-1.483c.742.743 1.747.988 2.84.988 1.352 0 2.075-.51 2.075-1.45 0-.415-.116-.758-.362-.992-.23-.214-.497-.328-1.04-.41l-1.42-.198c-1.007-.15-1.747-.462-2.274-.972-.56-.562-.843-1.317-.843-2.31 0-2.097 1.554-3.562 4.093-3.562 1.618 0 2.788.4 3.79 1.372l-1.448 1.434c-.74-.707-1.632-.81-2.406-.81-1.224 0-1.817.68-1.817 1.484 0 .3.1.608.346.842.23.218.608.396 1.088.46l1.384.2c1.075.147 1.752.44 2.245.906.627.593.907 1.452.907 2.49 0 2.274-1.896 3.563-4.352 3.563zM93.44 11.88c1.114.825 1.705 2.02 1.705 3.5v49.293c0 1.834-.822 2.835-1.806 3.498h32.412c.07-.338 1.09-5.456 1.455-7.323-2.912 4.13-6.273 4.17-14.213 4.24h-.562c-4.19 0-8.338-.372-9.718-.487l-.235-.034V38.35h13.877c.98 0 2.022.812 2.655 1.66v-6.243c-.633.86-1.677 1.666-2.655 1.666H102.48V14.788h.258c.136 0 12.8.17 14.362.17 3.46 0 5.244.946 6.75 2.51-.022-1.052-.13-5.172-.144-5.59H93.44zM139.88 20.378c-5.083 5.27-7.98 12.486-7.98 19.815 0 8.144 3.293 15.552 9.256 20.853 5.715 5.077 13.378 7.874 21.566 7.874 4.29 0 12.688-.722 20.8-5.582.273-3.41.61-8.142.73-10.246-6.565 12.658-16.65 12.675-20.028 12.675-16.792 0-24.315-13.39-24.315-26.646 0-6.957 2.187-13.215 6.153-17.618 4.344-4.836 10.648-7.378 18.236-7.378 4.11 0 14.03 1.296 19.533 12.712-.11-2.236-.463-7.328-.724-11.027-7.45-3.235-13.472-4.682-19.48-4.682-9.708 0-17.932 3.202-23.75 9.25zM65.608 15.38v17.005c2.607.28 5.103.627 7.503 1.045V15.38c0-1.582.507-2.727 1.528-3.5h-10.58c1.023.796 1.55 1.972 1.55 3.5zM84.86 44.452l.07-6.156c-8.6-2.852-20.12-4.58-32.834-4.6-5.634 0-11.04.344-16.07.973V15.38c0-1.48.55-2.682 1.59-3.5H26.968c1.02.796 1.552 1.972 1.552 3.5v20.48c-8.616 1.692-15.628 4.286-20.018 7.427l.69 1.012c4.478-2.62 11.216-4.596 19.327-5.697v26.07c0 1.476-.548 2.644-1.605 3.498h10.732c-1.07-.876-1.622-2.06-1.622-3.497V37.85c5.096-.315 10.563-.326 16.247.02 4.634.288 9.11.806 13.335 1.498v25.305c0 1.476-.54 2.644-1.6 3.498h10.676c-1.04-.822-1.573-1.966-1.573-3.497v-23.81c4.332 1.015 8.3 2.215 11.75 3.59z"/></g></svg>