<svg xmlns="http://www.w3.org/2000/svg" width="240" height="44.955" viewBox="0 0 240 44.955002"><path d="M41.95 22.824c0 10.742-8.71 19.453-19.455 19.453-10.744 0-19.453-8.71-19.453-19.453 0-10.746 8.71-19.454 19.453-19.454 10.744 0 19.454 8.708 19.454 19.454" fill="#FFF"/><path d="M22.474 0c12.58 0 22.48 10.134 22.48 22.477 0 12.416-10.066 22.478-22.48 22.478C10.062 44.955 0 34.893 0 22.478 0 10.06 10.062 0 22.474 0m-.05 27.19L16.137 6.33l-8.14 26.71h1.526s1.027-4.647 2.697-7.422c.91-1.507 2.31-2.74 4.183-2.705 1.32.026 2.462.747 3.89 2.743.857 1.195 2.178 4.244 2.178 4.244s1.323-3.045 2.184-4.244c1.423-1.996 2.566-2.717 3.89-2.743 1.87-.034 3.274 1.198 4.18 2.708 1.67 2.772 2.696 7.42 2.696 7.42h1.53L28.806 6.33 22.52 27.19l-.046.038-.05-.037zM73.86 21.453l5.5-6.427h8.045l-4.183 14.987-6.084.02 2.223-7.73-7.056 7.73h-2.99l-2.175-8.27-2.452 8.27-4.72-.005 4.4-14.974h7.58M124.65 19.89l-2.636 10.138-5.91.006 2.458-10.103h-6.315l1.26-4.908 18.68.032-1.127 4.836M163.593 15.052v3.477h.01l-.73 2.9h6.404s1.555-.27 1.64-1.693c.075-1.252-1.09-1.167-1.09-1.167l-6.234-.022v-3.494l9.646-.002s4.13.31 3.724 3.884c-.414 3.567-4.21 4.707-4.21 4.707s-.228.227-.05.364c.182.13 1.596.395 1.772 1.734.18 1.337-.462 2.31-.462 2.717 0 .4.04 1.2.547 1.556h-6.092s-1.09-.167-.993-1.29c.09-1.11.14-2.087.14-2.087s-.09-1.162-1.726-1.025l-4.454-.045-1.272 4.463h-5.587l4.253-14.976h4.763zM218.28 25.91l-1.092 4.13H202.01l3.91-14.988h5.72l-2.77 10.86M233.416 27.435l-.017-.05h-7.212l-.025.025-1.743 2.618-5.035.006 10.173-14.995 1.974 4.42-2.953 4.365.085.035h3.825l.07-.006-1.028-4.394-1.974-4.42h7.01L240 30.033h-5.95M100.736 18.37c1.814 0 3.602.896 3.883 2.2.863 4.17-3.58 5.956-3.062 5.69-2.557 1.27-6.44.864-6.9-1.763-.43-2.528 1.52-5.016 3.16-5.61 1.124-.402 2.054-.576 2.918-.517l.013-.038.022-3.888c-1.177.022-2.5.17-3.546.374-4.48.858-10.13 4.932-9.132 10.087.836 4.354 6.747 6.695 13.373 5.415 6.21-1.19 10.278-5.98 9.403-10.224-.844-4.104-5.704-5.65-10.1-5.65v3.36l-.034.564zM144.17 18.37c1.814 0 3.61.896 3.873 2.2.875 4.17-3.568 5.956-3.044 5.69-2.56 1.27-6.45.864-6.904-1.763-.438-2.528 1.512-5.016 3.157-5.61 1.123-.402 2.06-.576 2.918-.517l.016-.038.022-3.888c-1.17.022-2.5.17-3.548.374-4.48.858-10.135 4.932-9.14 10.087.84 4.354 6.76 6.695 13.376 5.415 6.216-1.19 10.288-5.98 9.41-10.224-.84-4.104-5.7-5.65-10.1-5.65v3.36l-.035.564zM191.39 18.332c1.813.1 3.593.934 3.865 2.24.867 4.168-3.583 5.954-3.046 5.69-2.564 1.27-6.45.862-6.906-1.765-.438-2.528 1.512-5.016 3.157-5.61 1.352-.488 1.877-.624 2.93-.555l.025-3.888c-1.172.022-2.49.17-3.55.374-4.472.858-10.123 4.932-9.135 10.087.84 4.354 6.758 6.695 13.375 5.415 6.213-1.19 10.285-5.98 9.404-10.224-.84-4.104-5.7-5.65-10.096-5.65v3.36l-.024.526z" fill="#005DAA"/></svg>