<svg xmlns="http://www.w3.org/2000/svg" width="200" height="29.763"><g fill="#6b0e89"><path d="M.5 28.46V1.335h7.363l12.4 16.664V1.334h7.365V28.46h-7.364l-12.4-16.784V28.46zM36.347 28.46V1.335h18.02V7.34H43.71v4.554h10.27v5.91H43.71v4.65h10.658v6.007zM74.132 28.46h-7.557V7.34h-7.17V1.334h21.896V7.34h-7.168zM99.225 13.347h14.532c0 10.397-5.467 15.916-14.347 15.916-8.595 0-15.047-5.25-15.047-14.055C84.363 6.12 90.216.5 99.24.5c10.203 0 12.99 7.596 12.99 7.596l-6.99 2.782s-1.638-4.282-6.242-4.282c-3.37 0-6.942 2.544-6.942 8.49 0 4.98 3.194 8.42 7.305 8.42 3.678 0 5.49-2.1 5.775-4.733h-5.91zM152.608 1.336l-9.93 27.128h7.605l1.695-5.038h9.834l1.696 5.038h7.653L161.135 1.336h-8.526zm4.263 7.024l3.247 9.737h-6.42l3.174-9.737zM175.667 1.336v27.128h7.363V18h.58l6.783 10.464h9.107l-8.55-11.154c2.953-.465 6.188-2.72 6.188-7.57 0-4.76-3-8.404-10.306-8.404h-11.165zm7.363 5.426h1.937c3.814 0 4.748 1.39 4.748 3.39 0 2.408-1.54 3.392-4.748 3.392h-1.937V6.762zM120.25 28.46V1.335h18.02V7.34H127.61v4.554h10.27v5.91h-10.27v4.65h10.657v6.007z"/></g></svg>