<svg xmlns="http://www.w3.org/2000/svg" width="350" height="350"><path d="M350 350H0V0h350v350z" fill="#F60"/><path d="M43.078 321.775c-12.674 0-24.107-8.07-24.107-25.704 0-17.633 11.434-25.703 24.108-25.703 12.673 0 24.09 8.07 24.09 25.704 0 17.635-11.417 25.705-24.09 25.705m0-40.57c-9.582 0-11.332 8.63-11.332 14.866 0 6.236 1.75 14.883 11.332 14.883 9.58 0 11.33-8.647 11.33-14.882 0-6.234-1.75-14.864-11.33-14.864M75.96 271.652h12.197v5.725c2.328-3.092 8.053-6.728 13.42-6.728.51 0 1.14 0 1.666.067v12.045h-.628c-5.573 0-11.67.867-13.642 5.2v32.396H75.96v-48.706zM137.304 316.118c-4.96 3.262-10.33 4.842-16.105 4.842-9.09 0-14.476-6.048-14.476-14.17 0-10.906 10.024-16.665 30.682-18.992v-2.72c0-3.532-2.684-5.605-7.645-5.605-4.96 0-8.986 1.97-11.89 5.606l-8.648-4.927c4.536-6.354 11.45-9.53 20.743-9.53 12.707 0 19.843 5.503 19.843 14.456 0 0-.017 35.217 0 35.302h-11.366l-1.138-4.264zm-17.957-10.26c0 3.277 2.055 6.335 5.776 6.335 4.026 0 7.95-1.665 11.875-5.13v-11.535c-11.977 1.478-17.65 4.57-17.65 10.33M159.938 272.95l10.618-1.46 1.172 5.775c5.98-4.383 10.737-6.71 16.717-6.71 10.023 0 15.205 5.317 15.205 15.85v33.91h-12.827V288.63c0-5.963-1.546-8.647-6.184-8.647-3.823 0-7.646 1.733-12.012 5.402v34.93h-12.69V272.95zM235.023 309.89c9.717-.068 10.55-9.973 10.55-16.412 0-7.644-3.72-13.81-10.635-13.81-4.604 0-9.752 3.362-9.752 14.337 0 5.997.425 15.97 9.837 15.885m22.866-38.412v46.124c0 8.12-.646 21.56-23.836 21.678-9.58.068-18.466-3.772-20.233-12.13l12.64-2.04c.527 2.397 2.005 4.775 9.174 4.775 6.643 0 9.837-3.177 9.837-10.788v-5.674l-.17-.17c-2.038 3.653-5.13 7.102-12.57 7.102-11.366 0-20.302-7.883-20.302-24.345 0-16.292 9.224-25.415 19.57-25.432 9.735-.017 13.32 4.417 14.17 6.744l-.17-.017 1.07-5.827h10.82zM288.54 321.246c-14.355 0-22.918-9.24-22.918-25.262 0-16.207 8.665-25.432 22.714-25.432 14.05 0 22.408 8.953 22.408 24.787 0 .848-.102 1.68-.102 2.513h-32.43c.084 9.242 3.923 13.897 11.466 13.897 4.842 0 8.053-1.954 11.06-6.235l9.378 5.198c-4.13 6.915-11.57 10.533-21.576 10.533m9.616-31.7c0-6.507-3.738-10.346-9.82-10.346-5.793 0-9.41 3.754-9.92 10.346h19.74zM332.69 253.17l-4.723 12.215-4.807-12.215h-4.112v16.105h2.668v-13.438h.068l5.283 13.438h1.7l5.248-13.438h.085v13.438h2.65V253.17h-4.06zm-29.645 0v2.14h5.03v13.965h2.666V255.31h5.047v-2.14h-12.742z" fill="#FFF"/></svg>