<svg xmlns="http://www.w3.org/2000/svg" width="192.756" height="192.756" viewBox="0 0 192.756 192.756" overflow="visible"><path clip-rule="evenodd" fill="#4caa83" fill-rule="evenodd" d="M106.618 29.632l-9.86-18.582L80.45 29.632h2.654l3.793-4.172h11.377l2.276 4.172h6.068M67.556 20.53h-5.31l7.585 9.103h7.207L69.83 21.67c9.86 0 9.48-5.69 9.48-5.69 0-4.55-7.583-4.55-7.583-4.55h-13.65l-3.414 18.204h6.067l2.655-16.687h5.688s3.792 0 3.792 3.414c0 0 0 4.17-5.31 4.17zM122.545 13.325h9.86V11.43h-25.408v1.895h9.48l-3.033 16.307h6.068l3.033-16.307M139.61 29.632l1.14-7.584h7.962c10.24 0 9.48-6.068 9.48-6.068 0-4.55-7.584-4.55-7.584-4.55h-13.65l-3.035 18.203h5.688zM72.107 69.832c7.964-8.343 19.34-14.41 31.856-14.41 24.27 0 43.612 19.34 43.612 43.61 0 15.93-8.723 32.236-21.617 39.82-1.896 6.068-3.413 10.62-3.792 18.583 25.41-7.585 43.612-30.718 43.612-58.402 0-34.13-27.305-60.677-61.815-60.677-19.34 0-36.407 8.722-47.784 22.754 0 0 9.1 2.654 15.927 8.722zM61.868 87.276c-1.138 4.172-1.517 7.206-1.517 11.756 0 25.03 19.72 43.99 43.993 43.99-1.52 5.69-2.276 9.86-2.655 16.31-4.55 0-9.102-.38-13.652-1.52-26.547-6.445-46.267-29.958-45.888-58.78 0-7.206.758-13.652 3.413-20.1 0 0 9.482.76 16.308 8.344z"/><path d="M105.48 85.38s.758 4.17 1.138 7.206c0 0 0 .758 1.137 1.138l3.413 1.138s2.655.76 2.276 3.413l-.38 4.172s1.138-2.275 3.413-1.896c0 0 2.654.38 2.654 3.035 0 0 0 3.034.76 3.793 0 0 .76 1.517 5.31 1.896 1.896.38 3.413 1.517 3.413 1.517 3.413 2.656 1.138 6.827 1.138 6.827s-6.446 14.032-9.48 27.306c0 0-5.688 21.237-.38 36.785h-7.584c-8.722-26.166 8.344-61.814 8.344-61.814s2.275-3.413-.38-4.172c-1.138 0-1.138 0-2.275-.38 0 0-4.17 0-3.413-5.31.76-3.79-2.275-1.895-2.275-1.895-3.413 1.896-3.792-1.138-3.792-1.138 0-1.14-.38-3.414-.38-3.414 0-1.517-1.137-1.517-1.137-1.517l-3.793-1.14c-2.654-.38-2.654-3.033-2.654-3.033l-.758-6.826c0-3.033-3.033-1.895-3.033-1.895-1.52.38-7.207 1.138-7.207 1.138s-3.034.758-7.964-.38c-3.793-.758-8.344-3.413-14.033-7.963-5.31-4.93-12.136-7.206-12.136-7.206-14.03-4.93-28.44 1.138-28.44 1.138v-7.964s12.134-6.447 29.2-1.517c0 0 8.343 2.276 17.825 10.24 0 0 3.033 2.655 6.826 4.55 0 0 3.414 2.277 9.103 1.518 6.826-1.137 10.618-1.137 10.618-1.137s4.93-.76 4.93 3.79z" clip-rule="evenodd" fill="#040480" fill-rule="evenodd"/><path clip-rule="evenodd" fill="#fff" fill-rule="evenodd" d="M97.136 23.564l-3.412-6.067-5.31 6.067h8.722M142.645 12.946l-1.517 7.585h5.31c5.688 0 5.31-4.17 5.31-4.17 0-3.414-3.414-3.414-3.414-3.414h-5.69z"/></svg>