<svg xmlns="http://www.w3.org/2000/svg" version="1" width="468" height="60"><g overflow="visible"><path d="M379.538 1.51v11.05h1.555c1.3-2.578 3.855-4.178 6.988-4.178h11.03v50.643h16.647V8.38h11.03c3.136 0 5.685 1.6 6.987 4.178h1.562V1.506h-55.798v.003zM381.383 52.092h-17.79V1.51H343.44v1.546c2.18 1.41 3.518 3.876 3.518 6.93v49.04h42.91V47.972h-1.493c-1.31 2.58-3.855 4.12-6.992 4.12zM322.412 3.056c2.186 1.41 3.46 3.876 3.46 6.93v22.08c0 11.14-3.864 17.223-14.09 17.223-10.24 0-14.04-6.085-14.04-17.224V1.51h-20.16v1.546c2.186 1.41 3.525 3.876 3.525 6.93v25.06c0 13.982 8.816 25.115 26.105 25.115 19.116 0 27.035-8.53 27.035-27.23V1.514H322.41v1.543h.002zM275.39 53.185L253.038 1.51h-12.935l-25.24 57.515h9.76l5.433-13.164h24.493l5.136 13.165h20.04V57.47c-1.828-.697-3.48-2.314-4.333-4.285zm-42.454-14.25l9.645-22.364 9.192 22.365h-18.836zM197.934 3.056c2.196 1.41 3.467 3.876 3.467 6.93V43.91l-26.28-42.4h-22.413v1.546c2.188 1.41 3.52 3.876 3.52 6.93v49.04h8.32V16.677l26.338 42.347h18.894V1.51h-11.846v1.546zM137.226 52.092h-19.518v-19.28h22.064v-6.923h-22.064V8.38h18.827c3.076 0 5.57 1.323 6.99 3.49h1.502V1.51h-47.42v1.546c2.193 1.41 3.464 3.876 3.464 6.93v49.04h44.706V48.38h-1.555c-1.304 2.402-3.557 3.712-6.994 3.712zM90.043 53.98L75.776 32.75c7.096-2.224 12.65-8.114 12.65-15.672 0-9.966-7.635-15.57-19.41-15.57H32.165v1.548c2.19 1.41 3.525 3.876 3.525 6.93v49.04h16.633V34.588h6.236l13.75 24.435h22.178V57.47c-1.774-.64-3.322-1.813-4.445-3.49zM59.54 28.234h-7.217V7.924h7.217c6.044 0 11.268 3.14 11.268 9.953 0 6.87-4.816 10.357-11.268 10.357z"/></g></svg>