<svg xmlns="http://www.w3.org/2000/svg" width="708.659" height="149.355"><defs><clipPath id="a"><path d="M0 0h697v259H0V0z"/></clipPath></defs><g clip-path="url(#a)" transform="matrix(1.25 0 0 -1.25 -74.87 235.89)"><path d="M205.658 85.113h-.056l-2.814-8.027h5.687l-2.817 8.027zm-2.147 3.9h4.406l7.637-19.454h-4.32l-1.672 4.462h-7.888l-1.7-4.463h-4.04l7.58 19.452M217.554 89.012h11.483V85.95h-7.583v-4.794h6.942v-3.068h-6.942v-5.46h7.637v-3.07h-11.536v19.454M237.256 80.71h1.282c1.923 0 4.127.276 4.127 2.7 0 2.342-2.177 2.54-4.127 2.54h-1.282v-5.24zm-3.902 8.302h4.21c4.178 0 9.168.144 9.168-5.266 0-2.283-1.53-4.183-4.013-4.517v-.054c1.06-.084 1.67-1.14 2.062-2.008l3.12-7.61h-4.347l-2.34 6.075c-.56 1.453-1.06 2.008-2.703 2.008h-1.256v-8.08h-3.902V89.01M258.966 72.29c3.987 0 5.465 3.542 5.465 7.052 0 3.43-1.588 6.94-5.464 6.94-3.874 0-5.462-3.51-5.462-6.94 0-3.51 1.477-7.053 5.462-7.053zm0 17.058c6.104 0 9.532-4.12 9.532-10.006 0-5.877-3.37-10.115-9.532-10.115-6.242 0-9.53 4.156-9.53 10.115 0 5.967 3.345 10.006 9.53 10.006M282.188 85.445c-1.225.534-2.59.838-3.958.838-1.337 0-3.066-.584-3.066-2.705 0-3.37 8.528-1.95 8.528-8.47 0-4.264-3.372-5.88-7.3-5.88-2.12 0-3.066.28-4.99.75l.363 3.51c1.338-.722 2.87-1.2 4.402-1.2 1.478 0 3.458.755 3.458 2.51 0 3.708-8.53 2.175-8.53 8.612 0 4.348 3.373 5.938 6.8 5.938 1.673 0 3.236-.223 4.657-.696l-.364-3.207M290.813 80.012h1.368c1.952 0 3.706.64 3.706 2.902 0 2.252-1.7 3.035-3.705 3.035h-1.367V80.01zm-3.9 9h4.933c4.235 0 8.11-1.223 8.11-5.877 0-4.545-3.316-6.188-7.498-6.188h-1.645V69.56h-3.9V89.01M308.952 85.113h-.055l-2.816-8.027h5.69l-2.818 8.027zm-2.144 3.9h4.402l7.637-19.454h-4.32l-1.673 4.462h-7.886l-1.703-4.463h-4.04l7.583 19.452M334.675 69.84c-1.42-.332-2.953-.613-4.43-.613-6.297 0-10.676 3.152-10.676 9.728 0 6.658 4.07 10.393 10.675 10.393 1.28 0 2.98-.25 4.402-.807l-.277-3.29c-1.478.836-2.816 1.033-4.21 1.033-4.013 0-6.52-3.064-6.52-7.054 0-3.954 2.453-6.94 6.605-6.94 1.53 0 3.344.34 4.266.812l.165-3.262M338.892 89.012h11.488V85.95h-7.582v-4.794h6.938v-3.068h-6.938v-5.46h7.637v-3.07h-11.543v19.454M373.13 72.63h2.168c3.262 0 6.414 2.42 6.414 6.66 0 4.234-3.152 6.66-6.414 6.66h-2.168V72.63zm-3.906 16.382h5.32c5.97 0 11.234-2.006 11.234-9.723 0-7.723-5.265-9.73-11.234-9.73h-5.32V89.01M389.294 89.012h11.488V85.95h-7.586v-4.794h6.942v-3.068h-6.942v-5.46h7.64v-3.07h-11.542v19.454M405.243 89.012h10.813V85.95h-6.91v-4.794h6.574v-3.068h-6.574v-8.53h-3.903v19.454M419.6 89.012h11.48V85.95h-7.583v-4.794h6.94v-3.068h-6.94v-5.46h7.64v-3.07H419.6v19.454M435.458 89.012h4.79l7.417-14.543h.055V89.01h3.734V69.56h-4.77l-7.44 14.55h-.056V69.56h-3.73V89.01M469.985 69.84c-1.422-.332-2.95-.613-4.425-.613-6.3 0-10.68 3.152-10.68 9.728 0 6.658 4.074 10.393 10.68 10.393 1.277 0 2.98-.25 4.402-.807l-.28-3.29c-1.478.836-2.814 1.033-4.212 1.033-4.008 0-6.516-3.064-6.516-7.054 0-3.954 2.45-6.94 6.606-6.94 1.53 0 3.34.34 4.257.812l.168-3.262M474.204 89.012h11.48V85.95h-7.58v-4.794h6.94v-3.068h-6.94v-5.46h7.64v-3.07h-11.54v19.454M513.935 85.445c-1.23.534-2.59.838-3.957.838-1.34 0-3.067-.584-3.067-2.705 0-3.37 8.528-1.95 8.528-8.47 0-4.264-3.37-5.88-7.304-5.88-2.117 0-3.063.28-4.985.75l.36 3.51c1.335-.722 2.87-1.2 4.405-1.2 1.473 0 3.453.755 3.453 2.51 0 3.708-8.53 2.175-8.53 8.612 0 4.348 3.374 5.938 6.804 5.938 1.67 0 3.23-.223 4.652-.696l-.36-3.207M518.806 89.012h11.484V85.95h-7.578v-4.794h6.937v-3.068h-6.938v-5.46h7.633v-3.07h-11.54v19.454M547.97 69.84c-1.422-.332-2.957-.613-4.434-.613-6.3 0-10.672 3.152-10.672 9.728 0 6.658 4.067 10.393 10.672 10.393 1.28 0 2.98-.25 4.402-.807l-.273-3.29c-1.48.836-2.82 1.033-4.21 1.033-4.017 0-6.524-3.064-6.524-7.054 0-3.954 2.454-6.94 6.606-6.94 1.535 0 3.344.34 4.266.812l.168-3.262M551.196 89.012h3.9v-11.23c0-3.313 1.057-5.493 4.042-5.493 2.984 0 4.04 2.18 4.04 5.493v11.23h3.905v-12.43c0-5.208-2.957-7.356-7.945-7.356-4.992 0-7.942 2.148-7.942 7.355v12.43M575.247 80.71h1.28c1.927 0 4.126.276 4.126 2.7 0 2.342-2.175 2.54-4.125 2.54h-1.28v-5.24zm-3.902 8.302h4.207c4.18 0 9.172.144 9.172-5.266 0-2.283-1.536-4.183-4.012-4.517v-.054c1.055-.084 1.672-1.14 2.06-2.008l3.124-7.61h-4.348l-2.344 6.075c-.555 1.453-1.055 2.008-2.703 2.008h-1.253v-8.08h-3.902V89.01M588.85 89.012h3.897V69.56h-3.898V89.01zM600.114 85.95h-5.254v3.062h14.407V85.95h-5.25V69.56h-3.903v16.39M616.23 77.252l-6.518 11.76h4.2l4.378-8.164 4.47 8.164h4.038l-6.668-11.76V69.56h-3.9v7.692M361.353 79.166c0-1.03-.832-1.86-1.86-1.86-1.027 0-1.86.83-1.86 1.86 0 1.027.833 1.86 1.86 1.86 1.028 0 1.86-.833 1.86-1.86M496.062 79.166c0-1.03-.84-1.86-1.864-1.86-1.027 0-1.855.83-1.855 1.86 0 1.027.828 1.86 1.855 1.86 1.024 0 1.864-.833 1.864-1.86" fill="#878384"/><path d="M195.987 116.026l8.174 5.503c9.823-5.065 22.147-5.75 26.585-5.75 11.653 0 16.636 4.097 16.636 7.462v.157c0 2.946-3.08 4.796-14.47 6.5-17.87 2.64-32.152 5.234-32.152 15.773v.156c0 10.087 11.54 17.38 31.686 17.38 14.27 0 25.424-2.483 34.54-7.218l-6.78-5.384c-7.676 3.494-15.983 4.283-23.42 4.283-8.912 0-15.964-2.592-15.964-6.256v-.157c0-2.718 5.51-4.677 17.14-6.384 19.31-2.717 28.95-7.053 28.95-17.22v-.158c0-11.098-11.198-17.693-31.588-17.693-14.87 0-29.02 3.025-39.335 9.004M311.584 126.42l-12.82 21.68-11.453-21.68h24.274zm1.113 28.87l27.698-46.802h-18.843l-5.192 9.455h-33.522l-5.037-9.455h-11.108l28.37 53.324h8.772s4.633-.12 8.863-6.52M524.087 126.42L511.27 148.1l-11.453-21.68h24.27zm1.113 28.87l27.703-46.802h-18.85l-5.19 9.455h-33.52l-5.04-9.455H479.2l28.37 53.324h8.77s4.636-.12 8.862-6.52M344.46 161.432h58.15l-2.222-8.352h-39.522v-16.606H392.6l-2.224-8.48h-29.51V108.49H344.46v52.944M579.206 154.09l34.963-26.222v33.564h12.65v-52.944h-5.65c-7.85 0-11.935 3.02-11.935 3.02L569.93 140.25V108.49h-12.654v52.944h4.94s6.762.38 16.99-7.342M444.104 134.573c7.272 0 11.458 4.83 11.458 8.69v.86c0 4.16-4.41 7.564-11.567 7.564H423.99v-17.114h20.114zm9.28-20.034l-9.672 10.79H423.99v-16.842h-16.245v52.944h33.45c11.788 0 19.943-1.52 25.122-5.153 4.518-3.024 6.83-7.11 6.83-12.328v-.05c0-8.092-3.99-14.16-13.576-16.958l18.404-18.456h-9.537c-9.924 0-15.053 6.05-15.053 6.05" fill="#6a6567"/><path d="M165.072 154.594c-9.175 21-30.368 35.2-54.344 34.052-23.94-1.154-43.652-17.27-50.796-39.007l-.038-.12.262.014.027.065c8.03 18.282 27.497 31.708 50.845 32.83 23.367 1.125 44.05-10.395 53.784-27.854l.26.018M61.893 108.37c9.18-20.983 30.366-35.167 54.33-34.012 23.967 1.15 43.7 17.308 50.824 39.084l-.27-.01c-8.02-18.3-27.498-31.74-50.856-32.862-23.348-1.12-44.022 10.38-53.763 27.82l-.264-.02" fill="#1477c6"/><path d="M143.535 111.34c0-9.49-16.707-19.29-16.707-19.29 30.845 11.257 33.516 26.95 33.516 32.934 0 13.216-13.45 17.406-28.33 19.49-11.57 1.62-20.158 1.638-28.208 2.464-12.8 1.31-16.432 4.61-16.432 9.495 0 9.24 17.994 19.473 17.994 19.473-29.29-9.415-35.76-23.868-35.76-32.88 0-21.72 42.994-21.48 60.276-23.3 10.67-1.122 13.692-4.865 13.65-8.386" fill="#1477c6"/></g></svg>