<!DOCTYPE svg PUBLIC "-//W3C//DTD SVG 1.1//EN" "http://www.w3.org/Graphics/SVG/1.1/DTD/svg11.dtd" [
	<!ENTITY ns_flows "http://ns.adobe.com/Flows/1.0/">
]><svg xmlns="http://www.w3.org/2000/svg" width="117" height="15" viewBox="-0.127 -0.446 117 15"><path fill="#171F69" d="M0 .417c6.7-.6 16-.1 16-.1v2.45H9.7v10.55H6.6V2.766H.1L0 .416"/><path fill="#3CC2D2" d="M52.215 9.516c0 1.105-.895 2-2 2s-2-.895-2-2c0-1.104.895-2 2-2s2 .897 2 2"/><path fill="#171F69" d="M33.314.216v5.3H24.8v-5.3l-3.2.2v13.056l3.2.144v-5.7h8.514v5.7l3.202-.144V.417l-3.202-.2M41.4 13.316l7.4-12.9h3.1l7.5 12.9-3.5.3-5.5-10.1h-.3l-5.6 10-3.1-.2M64.1 13.316V.516H67v10.5h10.2v2.3s-6.7 1.4-13.1 0M82.2 13.417v-13s9.2-1 13.9.1v2.4l-10.626.1v2.6H91.6v2.5h-6.125v3H96.3v2.4s-8 1.1-14.1-.1M115.9.316v2.6h-11.6v2.6h9.5s2.3 1.1 2.3 2.2v3.4c0 2.2-2.3 2.8-4.4 2.8-3.2 0-8.5-.1-10.3-.4v-2.4h11.9v-2.9h-8.9c-1.4 0-2.9-.8-2.9-1.8v-3.9s1.8-2.2 3.2-2.2h11.2"/></svg>