<?xml version="1.0" encoding="utf-8"?>
<!-- Generator: Adobe Illustrator 17.1.0, SVG Export Plug-In . SVG Version: 6.00 Build 0)  -->
<!DOCTYPE svg PUBLIC "-//W3C//DTD SVG 1.1//EN" "http://www.w3.org/Graphics/SVG/1.1/DTD/svg11.dtd">
<svg version="1.1" xmlns="http://www.w3.org/2000/svg" xmlns:xlink="http://www.w3.org/1999/xlink" x="0px" y="0px"
	 viewBox="-575 -154.5 1337.9 438" enable-background="new -575 -154.5 1337.9 438" xml:space="preserve">
<g id="Calque_4_1_">
	<g id="Calque_4">
		<g id="élec">
			<g id="pieds_1_">
				<path fill="#7A797A" d="M-109.1,259.2h-11.3c-0.6,0-1-0.5-1-1v-2.5h13.3v2.5C-108.1,258.7-108.6,259.2-109.1,259.2z"/>
				<path fill="#7A797A" d="M37.9,259.2H26.6c-0.6,0-1-0.5-1-1v-2.5h13.3v2.5C38.9,258.7,38.5,259.2,37.9,259.2z"/>
			</g>
			<rect id="fond_armature_1_" x="-143.2" y="177" fill="#FAFAFA" width="204.1" height="78.7"/>
			<path id="cadre_armature_1_" fill="#202019" d="M60.7,256.4h-204c-0.4,0-0.8-0.4-0.8-0.8V177c0-0.4,0.4-0.8,0.8-0.8h204
				c0.4,0,0.8,0.4,0.8,0.8v78.7C61.6,256,61.2,256.4,60.7,256.4z M-142.5,254.8H60v-77.1h-202.5V254.8z"/>
			<path id="cadre_écran_1_" fill="#95D4EE" d="M-58.9,234.1h-73c-1.3,0-2.1-1-2.1-2.1V186c0-1.3,1-2.1,2.1-2.1h73
				c1.3,0,2.1,1,2.1,2.1v45.9C-56.8,233.2-57.7,234.1-58.9,234.1z"/>
			<rect id="fond_écran_1_" x="-132.4" y="185.3" fill="#FFFFFF" width="74" height="47.4"/>
			<g id="cadrillage_1_">
				<rect x="-112.1" y="194.9" fill="none" width="8.2" height="9.2"/>
				<rect x="-112.1" y="185.4" fill="none" width="8.2" height="9.2"/>
				<rect x="-112.1" y="204.3" fill="none" width="8.2" height="9.2"/>
				<rect x="-103.7" y="223.3" fill="none" width="8.2" height="9.2"/>
				<rect x="-112.1" y="213.9" fill="none" width="8.2" height="9.2"/>
				<rect x="-103.7" y="194.9" fill="none" width="8.2" height="9.2"/>
				<rect x="-95.3" y="223.3" fill="none" width="8.2" height="9.2"/>
				<rect x="-112.1" y="223.3" fill="none" width="8.2" height="9.2"/>
				<rect x="-103.7" y="185.4" fill="none" width="8.2" height="9.2"/>
				<rect x="-103.7" y="204.3" fill="none" width="8.2" height="9.2"/>
				<rect x="-103.7" y="213.9" fill="none" width="8.2" height="9.2"/>
				<rect x="-129.1" y="204.3" fill="none" width="8.2" height="9.2"/>
				<rect x="-129.1" y="213.9" fill="none" width="8.2" height="9.2"/>
				<rect x="-129.1" y="185.4" fill="none" width="8.2" height="9.2"/>
				<rect x="-129.1" y="223.3" fill="none" width="8.2" height="9.2"/>
				<rect x="-120.5" y="223.3" fill="none" width="8.2" height="9.2"/>
				<rect x="-120.5" y="204.3" fill="none" width="8.2" height="9.2"/>
				<rect x="-120.5" y="194.9" fill="none" width="8.2" height="9.2"/>
				<rect x="-120.5" y="185.4" fill="none" width="8.2" height="9.2"/>
				<rect x="-120.5" y="213.9" fill="none" width="8.2" height="9.2"/>
				<rect x="-129.1" y="194.9" fill="none" width="8.2" height="9.2"/>
				<rect x="-78.5" y="185.4" fill="none" width="8.2" height="9.2"/>
				<rect x="-95.3" y="213.9" fill="none" width="8.2" height="9.2"/>
				<rect x="-70" y="223.3" fill="none" width="8.2" height="9.2"/>
				<rect x="-78.5" y="194.9" fill="none" width="8.2" height="9.2"/>
				<rect x="-78.5" y="204.3" fill="none" width="8.2" height="9.2"/>
				<rect x="-70" y="194.9" fill="none" width="8.2" height="9.2"/>
				<rect x="-70" y="185.4" fill="none" width="8.2" height="9.2"/>
				<rect x="-70" y="204.3" fill="none" width="8.2" height="9.2"/>
				<rect x="-78.5" y="213.9" fill="none" width="8.2" height="9.2"/>
				<rect x="-70" y="213.9" fill="none" width="8.2" height="9.2"/>
				<rect x="-95.3" y="185.4" fill="none" width="8.2" height="9.2"/>
				<rect x="-95.3" y="194.9" fill="none" width="8.2" height="9.2"/>
				<rect x="-95.3" y="204.3" fill="none" width="8.2" height="9.2"/>
				<rect x="-86.9" y="223.3" fill="none" width="8.2" height="9.2"/>
				<rect x="-86.9" y="194.9" fill="none" width="8.2" height="9.2"/>
				<rect x="-86.9" y="185.4" fill="none" width="8.2" height="9.2"/>
				<rect x="-78.5" y="223.3" fill="none" width="8.2" height="9.2"/>
				<rect x="-86.9" y="213.9" fill="none" width="8.2" height="9.2"/>
				<rect x="-86.9" y="204.3" fill="none" width="8.2" height="9.2"/>
				<path fill="#FAFAFA" d="M-58.4,185.4v-0.3h-74v0.3h3.1v9.2h-3.1v0.3h3.1v9.2h-3.1v0.3h3.1v9.2h-3.1v0.3h3.1v9.2h-3.1v0.3h3.1
					v9.2h-3.1v0.3h74v-0.3h-3.1V223h3.1v-0.3h-3.1v-8.9h3.1v-0.3h-3.1v-9.2h3.1v-0.3h-3.1v-9.2h3.1v-0.3h-3.1v-9.2h3.1V185.4z
					 M-120.8,232.6h-8.2v-9.2h8.2V232.6z M-120.8,223h-8.2v-9.2h8.2V223z M-120.8,213.6h-8.2v-9.2h8.2V213.6z M-120.8,204.1h-8.2
					v-9.2h8.2V204.1z M-120.8,194.7h-8.2v-9.2h8.2V194.7z M-112.4,232.6h-8.2v-9.2h8.2V232.6z M-112.4,223h-8.2v-9.2h8.2V223z
					 M-112.4,213.6h-8.2v-9.2h8.2V213.6z M-112.4,204.1h-8.2v-9.2h8.2V204.1z M-112.4,194.7h-8.2v-9.2h8.2V194.7z M-104,232.6h-8.2
					v-9.2h8.2C-104,223.4-104,232.6-104,232.6z M-104,223h-8.2v-9.2h8.2C-104,213.9-104,223-104,223z M-104,213.6h-8.2v-9.2h8.2
					C-104,204.5-104,213.6-104,213.6z M-104,204.1h-8.2v-9.2h8.2C-104,194.9-104,204.1-104,204.1z M-104,194.7h-8.2v-9.2h8.2
					C-104,185.5-104,194.7-104,194.7z M-95.6,232.6h-8.2v-9.2h8.2V232.6z M-95.6,223h-8.2v-9.2h8.2V223z M-95.6,213.6h-8.2v-9.2h8.2
					V213.6z M-95.6,204.1h-8.2v-9.2h8.2V204.1z M-95.6,194.7h-8.2v-9.2h8.2V194.7z M-87.2,232.6h-8.2v-9.2h8.2V232.6z M-87.2,223
					h-8.2v-9.2h8.2V223z M-87.2,213.6h-8.2v-9.2h8.2V213.6z M-87.2,204.1h-8.2v-9.2h8.2V204.1z M-87.2,194.7h-8.2v-9.2h8.2V194.7z
					 M-78.8,232.6h-8.2v-9.2h8.2V232.6z M-78.8,223h-8.2v-9.2h8.2V223z M-78.8,213.6h-8.2v-9.2h8.2V213.6z M-78.8,204.1h-8.2v-9.2
					h8.2V204.1z M-78.8,194.7h-8.2v-9.2h8.2V194.7z M-70.2,232.6h-8.2v-9.2h8.2V232.6z M-70.2,223h-8.2v-9.2h8.2V223z M-70.2,213.6
					h-8.2v-9.2h8.2V213.6z M-70.2,204.1h-8.2v-9.2h8.2V204.1z M-70.2,194.7h-8.2v-9.2h8.2V194.7z M-61.8,232.6H-70v-9.2h8.2V232.6z
					 M-61.8,223H-70v-9.2h8.2V223z M-61.8,213.6H-70v-9.2h8.2V213.6z M-61.8,204.1H-70v-9.2h8.2V204.1z M-61.8,194.7H-70v-9.2h8.2
					V194.7z"/>
			</g>
			<g id="Partie_contrôle_1_">
				<path fill="#CED5D6" d="M49.4,239.6h-90.2c-1.3,0-2.1-1-2.1-2.1V186c0-1.3,1-2.1,2.1-2.1h90.2c1.3,0,2.1,1,2.1,2.1v51.4
					C51.6,238.6,50.6,239.6,49.4,239.6z"/>
				<rect x="-41.2" y="185.3" fill="#FFFFFF" width="91.2" height="52.8"/>
			</g>
			<path id="partie_blanche_sous_écran_1_" fill="#FFFFFF" d="M-60.8,251.6h-69.2c-0.9,0-1.5-0.6-1.5-1.5v-10.7
				c0-0.9,0.6-1.5,1.5-1.5h69.2c0.9,0,1.5,0.6,1.5,1.5v10.7C-59.3,251-59.9,251.6-60.8,251.6z"/>
			<g id="Bouton_rond_orange_droite_1_">
				<circle fill="#F4CD7D" cx="-122.9" cy="244.9" r="4.6"/>
				<circle opacity="0.5" fill="#FAFAFA" enable-background="new    " cx="-121" cy="242.5" r="1.1"/>
			</g>
			<g id="Bouton_rond_orange_gauche_1_">
				<circle fill="#F4CD7D" cx="-106.2" cy="244.9" r="4.6"/>
				<circle opacity="0.5" fill="#FAFAFA" enable-background="new    " cx="-103.7" cy="246.5" r="1.1"/>
			</g>
			<circle id="bouton_rond_rouge_1_" fill="#E48976" cx="-65.5" cy="244.9" r="2.1"/>
			<circle id="bouton_rond_vert_1_" fill="#C2D780" cx="-72.6" cy="244.9" r="2.1"/>
			<g id="entrées_sorties_1_">
				<circle fill="#C6C5C6" cx="-31.8" cy="246.7" r="3.9"/>
				<circle fill="#FAFAFA" cx="-31.8" cy="246.7" r="2.6"/>
				<circle fill="#C6C5C6" cx="-7.8" cy="246.7" r="3.9"/>
				<circle fill="#FAFAFA" cx="-7.8" cy="246.7" r="2.6"/>
				<circle fill="#C6C5C6" cx="16.3" cy="246.7" r="3.9"/>
				<circle fill="#FAFAFA" cx="16.3" cy="246.7" r="2.6"/>
				<circle fill="#C6C5C6" cx="40.4" cy="246.7" r="3.9"/>
				<circle fill="#FAFAFA" cx="40.4" cy="246.7" r="2.6"/>
			</g>
			<g id="sinusoïdes_1_">
				<path id="sinusoïde_bleue_1_" fill="#63C4E1" d="M-58.4,206.5c-2,0-2.9-3.8-3.8-7.7c-0.8-3.4-1.6-7.2-3-7.2
					c-1.4,0-2.3,3.8-3,7.2c-0.9,4-1.8,7.7-3.8,7.7s-2.9-3.8-3.8-7.7c-0.8-3.4-1.6-7.2-3-7.2c-1.4,0-2.3,3.8-3,7.2
					c-0.9,4-1.8,7.7-3.8,7.7s-2.9-3.8-3.8-7.7c-0.8-3.4-1.6-7.2-3-7.2s-2.3,3.8-3,7.2c-0.9,4-1.8,7.7-3.8,7.7s-2.9-3.8-3.8-7.7
					c-0.8-3.4-1.6-7.2-3-7.2c-1.4,0-2.3,3.8-3,7.2c-0.9,4-1.8,7.7-3.8,7.7s-2.9-3.8-3.8-7.7c-0.8-3.4-1.6-7.2-3-7.2
					c-1.4,0-2.3,3.8-3,7.2c-0.9,4-1.8,7.7-3.8,7.7s-2.9-3.8-3.8-7.7c-0.8-3.4-1.6-7.2-3-7.2v-0.8c2,0,2.9,3.8,3.8,7.7
					c0.8,3.4,1.6,7.2,3,7.2c1.4,0,2.3-3.8,3-7.2c0.9-4,1.8-7.7,3.8-7.7s2.9,3.8,3.8,7.7c0.8,3.4,1.6,7.2,3,7.2c1.4,0,2.3-3.8,3-7.2
					c0.9-4,1.8-7.7,3.8-7.7s2.9,3.8,3.8,7.7c0.8,3.4,1.6,7.2,3,7.2c1.4,0,2.3-3.8,3-7.2c0.9-4,1.8-7.7,3.8-7.7s2.9,3.8,3.8,7.7
					c0.8,3.4,1.6,7.2,3,7.2s2.3-3.8,3-7.2c0.9-4,1.8-7.7,3.8-7.7c2,0,2.9,3.8,3.8,7.7c0.8,3.4,1.6,7.2,3,7.2s2.3-3.8,3-7.2
					c0.9-4,1.8-7.7,3.8-7.7c2,0,2.9,3.8,3.8,7.7c0.8,3.4,1.6,7.2,3,7.2C-58.4,205.7-58.4,206.5-58.4,206.5z"/>
				<path id="sinusoïde_verte_1_" fill="#96C991" d="M-63.7,228.7c-1.6,0-2.1-3.5-3-9.2c-0.5-3.4-1.3-8.5-2.3-8.5s-1.8,5.1-2.3,8.5
					c-0.9,5.8-1.5,9.2-3,9.2c-1.6,0-2.1-3.5-3-9.2c-0.5-3.4-1.3-8.5-2.3-8.5s-1.8,5.1-2.3,8.5c-0.9,5.8-1.5,9.2-3,9.2
					c-1.5,0-2.1-3.5-3-9.2c-0.5-3.4-1.3-8.5-2.3-8.5s-1.8,5.1-2.3,8.5c-0.9,5.8-1.5,9.2-3,9.2c-1.6,0-2.1-3.5-3-9.2
					c-0.5-3.4-1.3-8.5-2.3-8.5s-1.8,5.1-2.3,8.5c-0.9,5.8-1.5,9.2-3,9.2c-1.6,0-2.1-3.5-3-9.2c-0.5-3.4-1.3-8.5-2.3-8.5
					s-1.8,5.1-2.3,8.5c-0.9,5.8-1.5,9.2-3,9.2c-1.6,0-2.1-3.5-3-9.2c-0.5-3.4-1.3-8.5-2.3-8.5s-1.8,5.1-2.3,8.5
					c-0.9,5.8-1.5,9.2-3,9.2c-1.6,0-2.1-3.5-3-9.2c-0.5-3.4-1.3-8.5-2.3-8.5v-0.9c1.6,0,2.1,3.5,3,9.2c0.5,3.4,1.3,8.5,2.3,8.5
					c1,0,1.8-5.1,2.3-8.5c0.9-5.8,1.5-9.2,3-9.2s2.1,3.5,3,9.2c0.5,3.4,1.3,8.5,2.3,8.5c1,0,1.8-5.1,2.3-8.5c0.9-5.8,1.5-9.2,3-9.2
					c1.6,0,2.1,3.5,3,9.2c0.5,3.4,1.3,8.5,2.3,8.5c1,0,1.8-5.1,2.3-8.5c0.9-5.8,1.5-9.2,3-9.2c1.6,0,2.1,3.5,3,9.2
					c0.5,3.4,1.3,8.5,2.3,8.5c1,0,1.8-5.1,2.3-8.5c0.9-5.8,1.5-9.2,3-9.2c1.6,0,2.1,3.5,3,9.2c0.5,3.4,1.3,8.5,2.3,8.5
					s1.8-5.1,2.3-8.5c0.9-5.8,1.5-9.2,3-9.2c1.5,0,2.1,3.5,3,9.2c0.5,3.4,1.3,8.5,2.3,8.5s1.8-5.1,2.3-8.5c0.9-5.8,1.5-9.2,3-9.2
					s2.1,3.5,3,9.2c0.5,3.4,1.3,8.5,2.3,8.5s1.8-5.1,2.3-8.5c0.9-5.8,1.5-9.2,3-9.2v0.8c-1,0-1.8,5.1-2.3,8.5
					C-61.6,225.2-62.1,228.7-63.7,228.7z"/>
			</g>
			<g id="lcd_1_">
				<rect x="-38.2" y="226.9" fill="#D5D786" width="37.4" height="9.7"/>
				<rect x="-36.5" y="228.6" fill="#FAFAFA" width="20.7" height="1.8"/>
				<rect x="-36.5" y="233.2" fill="#FAFAFA" width="31" height="1.8"/>
			</g>
			<path id="séparation_horizontale_1_" fill="#CED5D6" d="M46.1,212.5h-83.5c-0.4,0-0.8-0.4-0.8-0.8l0,0c0-0.4,0.4-0.8,0.8-0.8
				h83.5c0.4,0,0.8,0.4,0.8,0.8l0,0C46.9,212.1,46.6,212.5,46.1,212.5z"/>
			<g id="titres_bleu_foncé_1_">
				<path fill="#395377" d="M-9.4,190.3h-28c-0.5,0-0.9-0.4-0.9-0.9l0,0c0-0.5,0.4-0.9,0.9-0.9h28c0.5,0,0.9,0.4,0.9,0.9l0,0
					C-8.6,189.9-9,190.3-9.4,190.3z"/>
				<path fill="#395377" d="M18.1,190.3H3.8c-0.5,0-0.9-0.4-0.9-0.9l0,0c0-0.5,0.4-0.9,0.9-0.9h14.3c0.5,0,0.9,0.4,0.9,0.9l0,0
					C19,189.9,18.6,190.3,18.1,190.3z"/>
				<path fill="#395377" d="M46.1,190.3H27.7c-0.5,0-0.9-0.4-0.9-0.9l0,0c0-0.5,0.4-0.9,0.9-0.9h18.3c0.5,0,0.9,0.4,0.9,0.9l0,0
					C46.9,189.9,46.6,190.3,46.1,190.3z"/>
			</g>
			<g id="curseur_1_1_">
				<path fill="#C6C5C6" d="M-35.2,208.6h-0.4c-0.1,0-0.3-0.1-0.3-0.3v-15.6c0-0.1,0.1-0.3,0.3-0.3h0.4c0.1,0,0.3,0.1,0.3,0.3v15.6
					C-35,208.5-35.1,208.6-35.2,208.6z"/>
				<path fill="#95D4EE" d="M-33.8,197.7h-3.3c-0.3,0-0.4-0.1-0.4-0.4v-1.8c0-0.3,0.1-0.4,0.4-0.4h3.3c0.3,0,0.4,0.1,0.4,0.4v1.8
					C-33.5,197.6-33.6,197.7-33.8,197.7z"/>
			</g>
			<g id="curseur_2_1_">
				<path fill="#C6C5C6" d="M-11.1,208.6h-0.4c-0.1,0-0.3-0.1-0.3-0.3v-15.6c0-0.1,0.1-0.3,0.3-0.3h0.4c0.1,0,0.3,0.1,0.3,0.3v15.6
					C-10.9,208.5-11,208.6-11.1,208.6z"/>
				<path fill="#95D4EE" d="M-9.8,205.5H-13c-0.3,0-0.4-0.1-0.4-0.4v-1.8c0-0.3,0.1-0.4,0.4-0.4h3.3c0.3,0,0.4,0.1,0.4,0.4v1.8
					C-9.4,205.3-9.5,205.5-9.8,205.5z"/>
			</g>
			<g id="bouton_vert_rond_gauche_1_">
				<circle fill="#C2D780" cx="-24.6" cy="197.9" r="3.4"/>
				<circle opacity="0.5" fill="#FAFAFA" enable-background="new    " cx="-26.6" cy="197.1" r="0.9"/>
			</g>
			<g id="blabla_btn_vert_gauche_1_">
				<rect x="-30.7" y="204" fill="#575655" width="12.3" height="0.5"/>
				<rect x="-30.7" y="206" fill="#575655" width="12.3" height="0.5"/>
			</g>
			<g id="bouton_vert_rond_droite_1_">
				<circle fill="#C2D780" cx="34" cy="197.9" r="3.4"/>
				<circle opacity="0.5" fill="#FAFAFA" enable-background="new    " cx="35.5" cy="199.5" r="0.9"/>
			</g>
			<g id="curseur_4_1_">
				<path fill="#C6C5C6" d="M45.6,208.6h-0.4c-0.1,0-0.3-0.1-0.3-0.3v-15.6c0-0.1,0.1-0.3,0.3-0.3h0.4c0.1,0,0.3,0.1,0.3,0.3v15.6
					C45.8,208.5,45.7,208.6,45.6,208.6z"/>
				<path fill="#95D4EE" d="M46.9,200.3h-3.1c-0.3,0-0.4-0.1-0.4-0.4v-1.8c0-0.3,0.1-0.4,0.4-0.4h3.3c0.3,0,0.4,0.1,0.4,0.4v1.8
					C47.3,200.1,47.2,200.3,46.9,200.3z"/>
			</g>
			<g id="blabla_btn_vert_droite_1_">
				<rect x="27.9" y="203.7" fill="#575655" width="12.3" height="0.5"/>
				<rect x="27.9" y="205.9" fill="#575655" width="12.3" height="0.5"/>
			</g>
			<g id="curseur_3_1_">
				<path fill="#C6C5C6" d="M4.5,208.6H4.2c-0.1,0-0.3-0.1-0.3-0.3v-15.6c0-0.1,0.1-0.3,0.3-0.3h0.4c0.1,0,0.3,0.1,0.3,0.3v15.6
					C4.8,208.5,4.7,208.6,4.5,208.6z"/>
				<path fill="#95D4EE" d="M5.9,202.8H2.7c-0.3,0-0.4-0.1-0.4-0.4v-1.8c0-0.3,0.1-0.4,0.4-0.4h3.3c0.3,0,0.4,0.1,0.4,0.4v1.8
					C6.3,202.7,6.2,202.8,5.9,202.8z"/>
			</g>
			<g id="bouton_vert_rond_centre_1_">
				<circle fill="#C2D780" cx="13.6" cy="197.9" r="3.4"/>
				<circle opacity="0.5" fill="#FAFAFA" enable-background="new    " cx="12.2" cy="196.3" r="0.9"/>
			</g>
			<rect id="blabla_btn_vert_centre_1_" x="9.7" y="204.7" fill="#575655" width="7.8" height="0.5"/>
			<g id="blabla_btn_bleu_ciel_1_">
				<rect x="4.8" y="227.7" fill="#575655" width="12.3" height="0.5"/>
				<rect x="4.8" y="230.3" fill="#575655" width="7.7" height="0.5"/>
			</g>
			<g id="blabla_bouton_bleu_marine_1_">
				<rect x="32" y="227.7" fill="#575655" width="9.8" height="0.5"/>
				<rect x="32" y="230.3" fill="#575655" width="8.8" height="0.5"/>
			</g>
			<g id="boutons_ovales_gauche_1_">
				<path fill="#F4CD7D" d="M8.6,236.2H6.7c-0.6,0-1.3-0.5-1.3-1.3l0,0c0-0.6,0.5-1.3,1.3-1.3h1.9c0.6,0,1.3,0.5,1.3,1.3l0,0
					C9.8,235.7,9.2,236.2,8.6,236.2z"/>
				<path fill="#E48976" d="M15.2,236.2h-1.9c-0.6,0-1.3-0.5-1.3-1.3l0,0c0-0.6,0.5-1.3,1.3-1.3h1.9c0.6,0,1.3,0.5,1.3,1.3l0,0
					C16.5,235.7,16,236.2,15.2,236.2z"/>
			</g>
			<g id="boutons_ovales_droite_1_">
				<path fill="#F4CD7D" d="M34.5,236.2h-1.9c-0.6,0-1.3-0.5-1.3-1.3l0,0c0-0.6,0.5-1.3,1.3-1.3h1.9c0.6,0,1.3,0.5,1.3,1.3l0,0
					C35.6,235.7,35.1,236.2,34.5,236.2z"/>
				<path fill="#E48976" d="M41.2,236.2h-1.9c-0.6,0-1.3-0.5-1.3-1.3l0,0c0-0.6,0.5-1.3,1.3-1.3h1.9c0.6,0,1.3,0.5,1.3,1.3l0,0
					C42.3,235.7,41.8,236.2,41.2,236.2z"/>
			</g>
			<g id="boutons_multicolores_1_">
				<path fill="#F4CD7D" d="M-35.1,217.6H-37c-0.6,0-1.3-0.5-1.3-1.3l0,0c0-0.6,0.5-1.3,1.3-1.3h1.9c0.6,0,1.3,0.5,1.3,1.3l0,0
					C-34,217.1-34.5,217.6-35.1,217.6z"/>
				<path fill="#C2D780" d="M-35.1,222.9H-37c-0.6,0-1.3-0.5-1.3-1.3l0,0c0-0.6,0.5-1.3,1.3-1.3h1.9c0.6,0,1.3,0.5,1.3,1.3l0,0
					C-34,222.3-34.5,222.9-35.1,222.9z"/>
				<path fill="#E48976" d="M-24.1,217.6h-1.9c-0.6,0-1.3-0.5-1.3-1.3l0,0c0-0.6,0.5-1.3,1.3-1.3h1.9c0.6,0,1.3,0.5,1.3,1.3l0,0
					C-22.9,217.1-23.4,217.6-24.1,217.6z"/>
				<path fill="#6083AD" d="M-24.1,222.9h-1.9c-0.6,0-1.3-0.5-1.3-1.3l0,0c0-0.6,0.5-1.3,1.3-1.3h1.9c0.6,0,1.3,0.5,1.3,1.3l0,0
					C-22.9,222.3-23.4,222.9-24.1,222.9z"/>
				<path fill="#FAFAFA" d="M-13,217.6h-1.9c-0.6,0-1.3-0.5-1.3-1.3l0,0c0-0.6,0.5-1.3,1.3-1.3h1.9c0.6,0,1.3,0.5,1.3,1.3l0,0
					C-11.9,217.1-12.4,217.6-13,217.6z"/>
				<path fill="#C2D780" d="M-13,222.9h-1.9c-0.6,0-1.3-0.5-1.3-1.3l0,0c0-0.6,0.5-1.3,1.3-1.3h1.9c0.6,0,1.3,0.5,1.3,1.3l0,0
					C-11.9,222.3-12.4,222.9-13,222.9z"/>
				<path fill="#6083AD" d="M-2,217.6h-1.9c-0.6,0-1.3-0.5-1.3-1.3l0,0c0-0.6,0.5-1.3,1.3-1.3H-2c0.6,0,1.3,0.5,1.3,1.3l0,0
					C-0.9,217.1-1.4,217.6-2,217.6z"/>
				<path fill="#F4CD7D" d="M-2,222.9h-1.9c-0.6,0-1.3-0.5-1.3-1.3l0,0c0-0.6,0.5-1.3,1.3-1.3H-2c0.6,0,1.3,0.5,1.3,1.3l0,0
					C-0.9,222.3-1.4,222.9-2,222.9z"/>
			</g>
			<g id="bouton_rond_bleu_ciel_1_">
				<circle fill="#95D4EE" cx="10.9" cy="219.4" r="5.4"/>
				<circle opacity="0.5" fill="#FAFAFA" enable-background="new    " cx="13.2" cy="216.6" r="1.4"/>
			</g>
			<g id="bouton_rond_bleu_marine_1_">
				<circle fill="#6083AD" cx="36.9" cy="219.4" r="5.4"/>
				<circle opacity="0.5" fill="#FAFAFA" enable-background="new    " cx="34.5" cy="216.9" r="1.4"/>
			</g>
			<path id="séparation_verticale_1_" fill="#CED5D6" d="M24,236.2L24,236.2c-0.3,0-0.4-0.1-0.4-0.4V214c0-0.3,0.1-0.4,0.4-0.4l0,0
				c0.3,0,0.4,0.1,0.4,0.4v21.8C24.4,236.1,24.1,236.2,24,236.2z"/>
		</g>
	</g>
</g>
<g id="Calque_5_1_">
	<g id="vent">
		<g opacity="0.3">
			<line fill="none" x1="420.7" y1="-43" x2="480.1" y2="-43"/>
			<path fill="#FAFAFA" d="M480.1-42.3h-59.3c-0.4,0-0.8-0.4-0.8-0.8s0.4-0.8,0.8-0.8h59.3c0.4,0,0.8,0.4,0.8,0.8
				S480.5-42.3,480.1-42.3z"/>
		</g>
		<g opacity="0.3">
			<line fill="none" x1="426.8" y1="-26" x2="500.9" y2="-26"/>
			<path fill="#FAFAFA" d="M500.9-25.2h-74.1c-0.4,0-0.8-0.4-0.8-0.8s0.4-0.8,0.8-0.8h74.1c0.4,0,0.8,0.4,0.8,0.8
				C501.7-25.5,501.3-25.2,500.9-25.2z"/>
		</g>
		<g opacity="0.3">
			<line fill="none" x1="406.6" y1="-34.7" x2="460.9" y2="-34.7"/>
			<path fill="#FAFAFA" d="M460.9-33.9h-54.2c-0.4,0-0.8-0.4-0.8-0.8s0.4-0.8,0.8-0.8h54.2c0.4,0,0.8,0.4,0.8,0.8
				S461.3-33.9,460.9-33.9z"/>
		</g>
		<g opacity="0.3">
			<line fill="none" x1="471.2" y1="-34.7" x2="489.1" y2="-34.7"/>
			<path fill="#FAFAFA" d="M489.1-33.9h-17.9c-0.4,0-0.8-0.4-0.8-0.8s0.4-0.8,0.8-0.8h17.9c0.4,0,0.8,0.4,0.8,0.8
				S489.5-33.9,489.1-33.9z"/>
		</g>
		<g opacity="0.3">
			<line fill="none" x1="492.5" y1="-43.8" x2="514.8" y2="-43.8"/>
			<path fill="#FAFAFA" d="M514.8-43h-22.2c-0.4,0-0.8-0.4-0.8-0.8c0-0.4,0.4-0.8,0.8-0.8h22.2c0.4,0,0.8,0.4,0.8,0.8
				C515.6-43.4,515.2-43,514.8-43z"/>
		</g>
		<path opacity="0.3" fill="#FAFAFA" enable-background="new    " d="M569.3-43.3c-0.4-4.1-3.6-7.4-7.8-7.8c-3-0.3-5.6,1-7.4,3
			c-0.3,0.4-0.3,0.9,0.1,1.1l0,0c0.4,0.3,0.8,0.1,1-0.1c1.5-1.8,3.8-2.8,6.3-2.5c3.3,0.4,5.8,3,6.1,6.1c0.5,4.3-2.9,7.9-7,7.9l0,0
			H540c2.4-1.8,4-4.6,3.6-7.9c-0.4-4.1-3.6-7.4-7.8-7.8c-3-0.3-5.6,1-7.4,3c-0.3,0.4-0.3,0.9,0.1,1.1l0,0c0.4,0.3,0.8,0.1,1-0.1
			c1.5-1.8,3.8-2.8,6.3-2.5c3.3,0.4,5.8,3,6.1,6.1c0.5,4.3-2.9,7.9-7,7.9l0,0h-15.3h-9.4c-0.4,0-0.8,0.4-0.9,0.8
			c0,0.5,0.4,0.9,0.8,0.9c0,0,3.8,0,9.3,0l0,0c0,0,1.3,0,3,0c13.8,0,34.7,0,37.9,0c0.3,0,0.5,0,0.9,0
			C566.3-34.4,569.8-38.4,569.3-43.3z"/>
		<path opacity="0.3" fill="#FAFAFA" enable-background="new    " d="M555.2-17.8c-0.4,4.1-3.6,7.4-7.8,7.8c-3,0.3-5.6-1-7.4-3
			c-0.3-0.4-0.3-0.9,0.1-1.1l0,0c0.4-0.3,0.8-0.1,1,0.1c1.5,1.8,3.8,2.8,6.3,2.5c3.3-0.4,5.8-3,6.1-6.1c0.5-4.3-2.9-7.9-7-7.9l0,0
			h-36c-0.4,0-0.8-0.4-0.9-0.8c0-0.5,0.4-0.9,0.8-0.9c0,0,31.2,0,36.1,0c0.3,0,0.5,0,0.9,0C552.1-26.7,555.6-22.6,555.2-17.8z"/>
	</g>
	<g id="gaine_électrique">
		<path fill="#F4CD7D" d="M632.5,231.2c-0.5-0.4-1.1-0.6-1.9-0.6c-1,0-1.9,0.5-2.5,1.3l-15.2,20.6c-0.1,0.3-0.4,0.4-0.6,0.4H348.4
			c-0.4,0-0.8-0.4-0.8-0.8v-40.5c0-1.8-1.4-3.1-3.1-3.1s-3.1,1.4-3.1,3.1v44.4c0,1.8,1.4,3.1,3.1,3.1h269.8c1,0,1.9-0.5,2.5-1.3
			l16.3-22.2C634.1,234.2,633.9,232.3,632.5,231.2z"/>
		<path fill="#202019" d="M633.4,229.9c-0.8-0.6-1.8-0.9-2.8-0.9c-1.5,0-2.9,0.8-3.8,1.9L612,251.3H349.1v-39.8
			c0-2.5-2.1-4.6-4.6-4.6c-2.5,0-4.6,2.1-4.6,4.6v44.4c0,2.5,2.1,4.6,4.6,4.6h269.8c1.5,0,2.9-0.8,3.8-1.9l16.3-22.2
			C635.9,234.5,635.5,231.6,633.4,229.9z M633.1,235.6l-16.3,22.2c-0.6,0.8-1.5,1.3-2.5,1.3H344.5c-1.8,0-3.1-1.4-3.1-3.1v-44.4
			c0-1.8,1.4-3.1,3.1-3.1s3.1,1.4,3.1,3.1V252c0,0.4,0.4,0.8,0.8,0.8h263.9c0.3,0,0.5-0.1,0.6-0.4l15.2-20.6
			c0.6-0.8,1.5-1.3,2.5-1.3c0.6,0,1.3,0.3,1.9,0.6C633.9,232.3,634.1,234.2,633.1,235.6z"/>
	</g>
	<g id="éolienne">
		<g id="mât">
			<linearGradient id="SVGID_2_" gradientUnits="userSpaceOnUse" x1="632.6505" y1="-57.4214" x2="632.6505" y2="78.7243">
				<stop  offset="0" style="stop-color:#000000;stop-opacity:0.15"/>
				<stop  offset="7.380247e-003" style="stop-color:#090909;stop-opacity:0.1563"/>
				<stop  offset="4.767627e-002" style="stop-color:#373737;stop-opacity:0.1905"/>
				<stop  offset="9.308982e-002" style="stop-color:#626262;stop-opacity:0.2291"/>
				<stop  offset="0.1419" style="stop-color:#888888;stop-opacity:0.2706"/>
				<stop  offset="0.195" style="stop-color:#A8A8A8;stop-opacity:0.3158"/>
				<stop  offset="0.2537" style="stop-color:#C4C4C4;stop-opacity:0.3657"/>
				<stop  offset="0.32" style="stop-color:#DADADA;stop-opacity:0.422"/>
				<stop  offset="0.3974" style="stop-color:#EBEBEB;stop-opacity:0.4878"/>
				<stop  offset="0.4931" style="stop-color:#F6F6F6;stop-opacity:0.5691"/>
				<stop  offset="0.6274" style="stop-color:#FDFDFD;stop-opacity:0.6833"/>
				<stop  offset="1" style="stop-color:#FFFFFF"/>
			</linearGradient>
			<path fill="url(#SVGID_2_)" d="M639.8,258.7l-4.3-278.6c-0.6,0.2-1.2,0.3-1.8,0.3l-3.9,4.5l-4.3,273.8H639.8z"/>
			<path fill="#151515" d="M635.5-19.9l4.3,278.6h-14.3l4.3-273.8l-1.8,2l-4.2,272.6c0,0.2,0.1,0.5,0.3,0.6c0.2,0.2,0.4,0.3,0.6,0.3
				h16c0,0,0,0,0,0c0.5,0,0.9-0.4,0.9-0.9c0,0,0-0.1,0-0.1l-4.3-280.1C636.6-20.3,636.1-20.1,635.5-19.9z"/>
		</g>
		<g id="pâles">
			<path fill="none" d="M635-32.8c-0.7-0.6-1.5-0.9-2.4-0.9c-1.1,0-2.1,0.5-2.8,1.3c-0.6,0.8-0.9,1.7-0.9,2.7c0.1,1,0.6,1.9,1.3,2.5
				c0.7,0.6,1.5,0.9,2.4,0.9c1.1,0,2.1-0.5,2.8-1.3C636.8-29.1,636.6-31.5,635-32.8z"/>
			<path fill="#FAFAFA" d="M758.6-11.2L640.5-34.6c-0.2,0-0.4-0.2-0.5-0.3c-0.5-0.7-1-1.3-1.7-1.8c-0.6-0.5-1.3-1-2.1-1.3
				c-0.2-0.1-0.3-0.2-0.4-0.4l-43.6-112.3c-0.5-1.3-1.8-2.2-3.2-2.2c-0.4,0-0.8,0.1-1.1,0.2l-0.1,0c-1.7,0.6-2.6,2.6-2,4.3l38.8,114
				c0.1,0.2,0.1,0.4,0,0.6c-0.7,1.5-1,3.2-0.9,4.8c0,0.2,0,0.4-0.2,0.6l-75.4,93.9c-1.2,1.4-1,3.5,0.4,4.7l0.1,0.1
				c0.6,0.5,1.4,0.8,2.2,0.8c1,0,1.9-0.4,2.6-1.2l79.4-90.6c0.1-0.1,0.3-0.2,0.5-0.3c1.7-0.1,3.3-0.7,4.6-1.7
				c0.2-0.1,0.4-0.2,0.6-0.1l119,18.4c0.2,0,0.4,0.1,0.6,0.1c1.6,0,3-1.2,3.3-2.8l0-0.1c0.2-0.9,0-1.8-0.6-2.5
				C760.3-10.5,759.5-11,758.6-11.2z M636.6-26.6c-1,1.2-2.5,1.9-4,1.9c-1.2,0-2.4-0.4-3.4-1.2c-1.1-0.9-1.7-2.2-1.8-3.5
				c-0.1-1.4,0.3-2.7,1.2-3.8c1-1.2,2.5-1.9,4-1.9c1.2,0,2.4,0.4,3.4,1.2C638.2-32.1,638.5-28.8,636.6-26.6z"/>
			<path fill="#202019" d="M762-10.6c-0.7-1.1-1.9-1.8-3.1-2L641.1-36c-0.5-0.7-1.1-1.3-1.8-1.9c-0.7-0.6-1.4-1-2.2-1.4l-43.5-112
				c-0.7-1.9-2.5-3.2-4.6-3.2c-0.6,0-1.1,0.1-1.7,0.3l-0.1,0c-2.5,0.9-3.8,3.7-2.9,6.2l38.7,113.7c-0.7,1.6-1,3.3-0.9,5.1L547,64.5
				c-1.7,2.1-1.5,5.1,0.6,6.8l0.1,0.1c0.9,0.7,2,1.1,3.1,1.1c0,0,0,0,0,0c1.4,0,2.8-0.6,3.7-1.7L628-13.1l1.8-2l3.9-4.5
				c0.6-0.1,1.2-0.2,1.8-0.3c0.6-0.2,1.2-0.4,1.7-0.7c0.5-0.2,0.9-0.5,1.3-0.8L757.2-3c0.3,0,0.6,0.1,0.8,0.1c2.4,0,4.4-1.7,4.8-4
				l0-0.1C763.1-8.3,762.8-9.6,762-10.6z M761.4-7.3L761.4-7.3c-0.3,1.7-1.7,2.9-3.3,2.9c-0.2,0-0.4,0-0.6-0.1l-119-18.4
				c-0.2,0-0.4,0-0.6,0.1c-1.3,1-2.9,1.6-4.6,1.7c-0.2,0-0.4,0.1-0.5,0.3l-79.4,90.6c-0.6,0.8-1.6,1.2-2.6,1.2
				c-0.8,0-1.5-0.3-2.2-0.8l-0.1-0.1c-1.4-1.2-1.6-3.3-0.4-4.7l75.4-93.9c0.1-0.2,0.2-0.4,0.2-0.6c-0.2-1.7,0.1-3.3,0.9-4.8
				c0.1-0.2,0.1-0.4,0-0.6l-38.8-114c-0.6-1.7,0.3-3.7,2-4.3l0.1,0c0.4-0.1,0.8-0.2,1.1-0.2c1.4,0,2.7,0.9,3.2,2.2l43.6,112.3
				c0.1,0.2,0.2,0.3,0.4,0.4c0.8,0.3,1.5,0.8,2.1,1.3c0.6,0.5,1.2,1.2,1.7,1.8c0.1,0.2,0.3,0.3,0.5,0.3l118.1,23.4
				c0.9,0.2,1.6,0.6,2.2,1.4C761.3-9,761.5-8.2,761.4-7.3z"/>
			<path fill="#202019" d="M636-33.9c-0.9-0.8-2.1-1.2-3.4-1.2c-1.5,0-3,0.7-4,1.9c-0.9,1.1-1.3,2.4-1.2,3.8
				c0.1,1.4,0.8,2.6,1.8,3.5c0.9,0.8,2.1,1.2,3.4,1.2c1.5,0,3-0.7,4-1.9C638.5-28.8,638.2-32.1,636-33.9z M632.6-26.2
				c-0.9,0-1.7-0.3-2.4-0.9c-0.8-0.6-1.2-1.5-1.3-2.5c-0.1-1,0.2-1.9,0.9-2.7c0.7-0.8,1.7-1.3,2.8-1.3c0.9,0,1.7,0.3,2.4,0.9
				c1.6,1.3,1.8,3.7,0.5,5.2C634.8-26.7,633.7-26.2,632.6-26.2z"/>
		</g>
	</g>
</g>
<g id="Calque_3_1_">
	<g id="Calque_3">
		<g id="génir_indu">
			<g id="contour_tapis">
				<g>
					<path fill="#3D3E3F" d="M526.5,204.5h6.5v2.8c0,0.9-0.8,1.5-1.5,1.5H528c-0.9,0-1.5-0.8-1.5-1.5V204.5z"/>
				</g>
				<g>
					<path fill="#3D3E3F" d="M519.7,204.5h6.5v2.8c0,0.9-0.8,1.5-1.5,1.5h-3.4c-0.9,0-1.5-0.8-1.5-1.5v-2.8H519.7z"/>
				</g>
				<g>
					<path fill="#3D3E3F" d="M512.9,204.5h6.5v2.8c0,0.9-0.8,1.5-1.5,1.5h-3.4c-0.9,0-1.5-0.8-1.5-1.5v-2.8H512.9z"/>
				</g>
				<g>
					<path fill="#3D3E3F" d="M506.3,204.5h6.5v2.8c0,0.9-0.8,1.5-1.5,1.5h-3.4c-0.9,0-1.5-0.8-1.5-1.5v-2.8H506.3z"/>
				</g>
				<g>
					<path fill="#3D3E3F" d="M499.5,204.5h6.5v2.8c0,0.9-0.8,1.5-1.5,1.5h-3.4c-0.9,0-1.5-0.8-1.5-1.5v-2.8H499.5z"/>
				</g>
				<g>
					<path fill="#3D3E3F" d="M492.7,204.5h6.5v2.8c0,0.9-0.8,1.5-1.5,1.5h-3.4c-0.9,0-1.5-0.8-1.5-1.5v-2.8H492.7z"/>
				</g>
				<g>
					<path fill="#3D3E3F" d="M486,204.5h6.5v2.8c0,0.9-0.8,1.5-1.5,1.5h-3.4c-0.9,0-1.5-0.8-1.5-1.5v-2.8H486z"/>
				</g>
				<g>
					<path fill="#3D3E3F" d="M479.3,204.5h6.5v2.8c0,0.9-0.8,1.5-1.5,1.5H481c-0.9,0-1.5-0.8-1.5-1.5v-2.8H479.3z"/>
				</g>
				<g>
					<path fill="#3D3E3F" d="M472.6,204.5h6.5v2.8c0,0.9-0.8,1.5-1.5,1.5h-3.5c-0.9,0-1.5-0.8-1.5-1.5V204.5z"/>
				</g>
				<g>
					<path fill="#3D3E3F" d="M465.8,204.5h6.5v2.8c0,0.9-0.8,1.5-1.5,1.5h-3.4c-0.9,0-1.5-0.8-1.5-1.5v-2.8H465.8z"/>
				</g>
				<g>
					<path fill="#3D3E3F" d="M459,204.5h6.5v2.8c0,0.9-0.8,1.5-1.5,1.5h-3.4c-0.9,0-1.5-0.8-1.5-1.5v-2.8H459z"/>
				</g>
				<g>
					<path fill="#3D3E3F" d="M452.4,204.5h6.5v2.8c0,0.9-0.8,1.5-1.5,1.5H454c-0.9,0-1.5-0.8-1.5-1.5v-2.8H452.4z"/>
				</g>
				<g>
					<path fill="#3D3E3F" d="M445.6,204.5h6.5v2.8c0,0.9-0.8,1.5-1.5,1.5h-3.4c-0.9,0-1.5-0.8-1.5-1.5v-2.8H445.6z"/>
				</g>
				<g>
					<path fill="#3D3E3F" d="M438.8,204.5h6.5v2.8c0,0.9-0.8,1.5-1.5,1.5h-3.4c-0.9,0-1.5-0.8-1.5-1.5v-2.8H438.8z"/>
				</g>
				<g>
					<path fill="#3D3E3F" d="M432,204.5h6.5v2.8c0,0.9-0.8,1.5-1.5,1.5h-3.4c-0.9,0-1.5-0.8-1.5-1.5v-2.8H432z"/>
				</g>
				<g>
					<path fill="#3D3E3F" d="M425.4,204.5h6.5v2.8c0,0.9-0.8,1.5-1.5,1.5H427c-0.9,0-1.5-0.8-1.5-1.5v-2.8H425.4z"/>
				</g>
				<g>
					<path fill="#3D3E3F" d="M418.6,204.5h6.5v2.8c0,0.9-0.8,1.5-1.5,1.5h-3.5c-0.9,0-1.5-0.8-1.5-1.5V204.5z"/>
				</g>
				<g>
					<path fill="#3D3E3F" d="M411.8,204.5h6.5v2.8c0,0.9-0.8,1.5-1.5,1.5h-3.4c-0.9,0-1.5-0.8-1.5-1.5v-2.8H411.8z"/>
				</g>
				<g>
					<path fill="#3D3E3F" d="M405.1,204.5h6.5v2.8c0,0.9-0.8,1.5-1.5,1.5h-3.4c-0.9,0-1.5-0.8-1.5-1.5v-2.8H405.1z"/>
				</g>
				<g>
					<path fill="#3D3E3F" d="M398.4,204.5h6.5v2.8c0,0.9-0.8,1.5-1.5,1.5H400c-0.9,0-1.5-0.8-1.5-1.5v-2.8H398.4z"/>
				</g>
				<g>
					<path fill="#3D3E3F" d="M391.6,204.5h6.5v2.8c0,0.9-0.8,1.5-1.5,1.5h-3.4c-0.9,0-1.5-0.8-1.5-1.5v-2.8H391.6z"/>
				</g>
				<g>
					<path fill="#3D3E3F" d="M384.9,204.5h6.5v2.8c0,0.9-0.8,1.5-1.5,1.5h-3.4c-0.9,0-1.5-0.8-1.5-1.5v-2.8H384.9z"/>
				</g>
				<g>
					<path fill="#3D3E3F" d="M378.1,204.5h6.5v2.8c0,0.9-0.8,1.5-1.5,1.5h-3.4c-0.9,0-1.5-0.8-1.5-1.5v-2.8H378.1z"/>
				</g>
				<g>
					<path fill="#3D3E3F" d="M371.4,204.5h6.5v2.8c0,0.9-0.8,1.5-1.5,1.5h-3.4c-0.9,0-1.5-0.8-1.5-1.5v-2.8H371.4z"/>
				</g>
				<g>
					<path fill="#3D3E3F" d="M364.7,204.5h6.5v2.8c0,0.9-0.8,1.5-1.5,1.5h-3.5c-0.9,0-1.5-0.8-1.5-1.5V204.5z"/>
				</g>
				<g>
					<path fill="#3D3E3F" d="M357.9,204.5h6.5v2.8c0,0.9-0.8,1.5-1.5,1.5h-3.4c-0.9,0-1.5-0.8-1.5-1.5v-2.8H357.9z"/>
				</g>
				<g>
					<path fill="#3D3E3F" d="M351.1,204.5h6.5v2.8c0,0.9-0.8,1.5-1.5,1.5h-3.4c-0.9,0-1.5-0.8-1.5-1.5v-2.8H351.1z"/>
				</g>
				<g>
					<path fill="#3D3E3F" d="M344.5,204.5h6.5v2.8c0,0.9-0.8,1.5-1.5,1.5h-3.4c-0.9,0-1.5-0.8-1.5-1.5v-2.8H344.5z"/>
				</g>
				<g>
					<path fill="#3D3E3F" d="M337.7,204.5h6.5v2.8c0,0.9-0.8,1.5-1.5,1.5h-3.4c-0.9,0-1.5-0.8-1.5-1.5v-2.8H337.7z"/>
				</g>
				<g>
					<path fill="#3D3E3F" d="M330.9,204.5h6.5v2.8c0,0.9-0.8,1.5-1.5,1.5h-3.4c-0.9,0-1.5-0.8-1.5-1.5v-2.8H330.9z"/>
				</g>
				<g>
					<path fill="#3D3E3F" d="M324.2,204.5h6.5v2.8c0,0.9-0.8,1.5-1.5,1.5h-3.4c-0.9,0-1.5-0.8-1.5-1.5v-2.8H324.2z"/>
				</g>
				<g>
					<path fill="#3D3E3F" d="M317.5,204.5h6.5v2.8c0,0.9-0.8,1.5-1.5,1.5h-3.4c-0.9,0-1.5-0.8-1.5-1.5v-2.8H317.5z"/>
				</g>
				<g>
					<path fill="#3D3E3F" d="M310.7,204.5h6.5v2.8c0,0.9-0.8,1.5-1.5,1.5h-3.5c-0.9,0-1.5-0.8-1.5-1.5V204.5z"/>
				</g>
				<g>
					<path fill="#3D3E3F" d="M304,204.5h6.5v2.8c0,0.9-0.8,1.5-1.5,1.5h-3.4c-0.9,0-1.5-0.8-1.5-1.5v-2.8H304z"/>
				</g>
				<g>
					<path fill="#3D3E3F" d="M297.2,204.5h6.5v2.8c0,0.9-0.8,1.5-1.5,1.5h-3.4c-0.9,0-1.5-0.8-1.5-1.5v-2.8H297.2z"/>
				</g>
				<g>
					<path fill="#3D3E3F" d="M290.5,204.5h6.5v2.8c0,0.9-0.8,1.5-1.5,1.5h-3.4c-0.9,0-1.5-0.8-1.5-1.5v-2.8H290.5z"/>
				</g>
				<g>
					<path fill="#3D3E3F" d="M283.8,204.5h6.5v2.8c0,0.9-0.8,1.5-1.5,1.5h-3.4c-0.9,0-1.5-0.8-1.5-1.5v-2.8H283.8z"/>
				</g>
				<g>
					<path fill="#3D3E3F" d="M277,204.5h6.5v2.8c0,0.9-0.8,1.5-1.5,1.5h-3.4c-0.9,0-1.5-0.8-1.5-1.5v-2.8H277z"/>
				</g>
				<g>
					<path fill="#3D3E3F" d="M270.2,204.5h6.5v2.8c0,0.9-0.8,1.5-1.5,1.5h-3.4c-0.9,0-1.5-0.8-1.5-1.5v-2.8H270.2z"/>
				</g>
				<g>
					<path fill="#3D3E3F" d="M263.6,204.5h6.5v2.8c0,0.9-0.8,1.5-1.5,1.5h-3.4c-0.9,0-1.5-0.8-1.5-1.5v-2.8H263.6z"/>
				</g>
				<g>
					<path fill="#3D3E3F" d="M256.8,204.5h6.5v2.8c0,0.9-0.8,1.5-1.5,1.5h-3.5c-0.9,0-1.5-0.8-1.5-1.5V204.5z"/>
				</g>
				<g>
					<path fill="#3D3E3F" d="M250,204.5h6.5v2.8c0,0.9-0.8,1.5-1.5,1.5h-3.4c-0.9,0-1.5-0.8-1.5-1.5v-2.8H250z"/>
				</g>
				<g>
					<path fill="#3D3E3F" d="M243.2,204.5h6.5v2.8c0,0.9-0.8,1.5-1.5,1.5h-3.4c-0.9,0-1.5-0.8-1.5-1.5v-2.8H243.2z"/>
				</g>
				<g>
					<path fill="#3D3E3F" d="M236.6,204.5h6.5v2.8c0,0.9-0.8,1.5-1.5,1.5h-3.4c-0.9,0-1.5-0.8-1.5-1.5v-2.8H236.6z"/>
				</g>
				<g>
					<path fill="#3D3E3F" d="M229.8,204.5h6.5v2.8c0,0.9-0.8,1.5-1.5,1.5h-3.4c-0.9,0-1.5-0.8-1.5-1.5v-2.8H229.8z"/>
				</g>
				<g>
					<path fill="#3D3E3F" d="M223.1,204.5h6.5v2.8c0,0.9-0.8,1.5-1.5,1.5h-3.4c-0.9,0-1.5-0.8-1.5-1.5v-2.8H223.1z"/>
				</g>
				<g>
					<path fill="#3D3E3F" d="M216.3,204.5h6.5v2.8c0,0.9-0.8,1.5-1.5,1.5h-3.4c-0.9,0-1.5-0.8-1.5-1.5v-2.8H216.3z"/>
				</g>
				<g>
					<path fill="#3D3E3F" d="M209.6,204.5h6.5v2.8c0,0.9-0.8,1.5-1.5,1.5h-3.4c-0.9,0-1.5-0.8-1.5-1.5v-2.8H209.6z"/>
				</g>
				<g>
					<path fill="#3D3E3F" d="M202.9,204.5h6.5v2.8c0,0.9-0.8,1.5-1.5,1.5h-3.5c-0.9,0-1.5-0.8-1.5-1.5V204.5z"/>
				</g>
				<g>
					<path fill="#3D3E3F" d="M196.1,204.5h6.5v2.8c0,0.9-0.8,1.5-1.5,1.5h-3.4c-0.9,0-1.5-0.8-1.5-1.5v-2.8H196.1z"/>
				</g>
				<g>
					<path fill="#3D3E3F" d="M189.3,204.5h6.5v2.8c0,0.9-0.8,1.5-1.5,1.5h-3.4c-0.9,0-1.5-0.8-1.5-1.5v-2.8H189.3z"/>
				</g>
				<g>
					<path fill="#3D3E3F" d="M182.7,204.5h6.5v2.8c0,0.9-0.8,1.5-1.5,1.5h-3.4c-0.9,0-1.5-0.8-1.5-1.5v-2.8H182.7z"/>
				</g>
				<g>
					<path fill="#3D3E3F" d="M175.9,204.5h6.5v2.8c0,0.9-0.8,1.5-1.5,1.5h-3.4c-0.9,0-1.5-0.8-1.5-1.5v-2.8H175.9z"/>
				</g>
				<g>
					<path fill="#3D3E3F" d="M169.1,204.5h6.5v2.8c0,0.9-0.8,1.5-1.5,1.5h-3.4c-0.9,0-1.5-0.8-1.5-1.5v-2.8H169.1z"/>
				</g>
				<g>
					<path fill="#3D3E3F" d="M162.3,204.5h6.5v2.8c0,0.9-0.8,1.5-1.5,1.5H164c-0.9,0-1.5-0.8-1.5-1.5v-2.8H162.3z"/>
				</g>
				<g>
					<path fill="#3D3E3F" d="M155.7,204.5h6.5v2.8c0,0.9-0.8,1.5-1.5,1.5h-3.4c-0.9,0-1.5-0.8-1.5-1.5v-2.8H155.7z"/>
				</g>
				<g>
					<path fill="#3D3E3F" d="M149.9,203.3c0,0,0.1,0,0.3,0.1c0.1,0,0.4,0.1,0.6,0.3c0.5,0.1,1.1,0.4,1.9,0.5s1.4,0.3,1.9,0.3
						c0.3,0,0.5,0,0.6,0c0.1,0,0.3,0,0.3,0v2.8c0,0.4-0.1,0.8-0.5,1.1c-0.4,0.3-0.8,0.4-1.3,0.4c0,0-1-0.1-1.9-0.3
						c-0.3,0-0.5-0.1-0.8-0.1c-0.3,0-0.4-0.1-0.6-0.1c-0.4-0.1-0.6-0.1-0.6-0.1c-0.3-0.1-0.4-0.3-0.6-0.4c-0.1-0.1-0.3-0.4-0.4-0.5
						c-0.1-0.4-0.3-0.8,0-1.3L149.9,203.3z"/>
				</g>
				<g>
					<path fill="#3D3E3F" d="M145.3,200c0,0,0,0.1,0.1,0.1c0.1,0.1,0.3,0.3,0.5,0.5c0.4,0.4,0.9,0.9,1.5,1.3c0.6,0.4,1.1,0.8,1.6,1
						c0.3,0.1,0.4,0.3,0.6,0.3c0.1,0.1,0.3,0.1,0.3,0.1l-1.1,2.5c-0.1,0.4-0.5,0.6-0.9,0.8c-0.4,0.1-0.9,0.1-1.3-0.1
						c0,0-0.9-0.5-1.6-1.1c-0.3-0.1-0.4-0.3-0.6-0.4c-0.1-0.1-0.4-0.3-0.5-0.4c-0.3-0.3-0.5-0.4-0.5-0.4c-0.4-0.4-0.5-0.8-0.5-1.1
						c0-0.4,0.1-0.8,0.5-1.1L145.3,200z"/>
				</g>
				<g>
					<path fill="#3D3E3F" d="M142.4,194.9c0,0,0,0.1,0.1,0.3c0,0.1,0,0.1,0.1,0.3c0,0.1,0.1,0.3,0.1,0.4c0.1,0.5,0.5,1.1,0.9,1.8
						c0.1,0.3,0.4,0.6,0.5,0.9c0.3,0.3,0.4,0.5,0.5,0.8c0.1,0.3,0.3,0.4,0.4,0.5s0.1,0.1,0.1,0.1l-2.1,1.9c-0.4,0.3-0.8,0.4-1.1,0.4
						c-0.3,0-0.4-0.1-0.6-0.3c-0.3-0.1-0.4-0.3-0.5-0.5c0,0-0.1-0.3-0.4-0.5c-0.3-0.3-0.5-0.8-0.8-1.1c-0.1-0.3-0.3-0.4-0.4-0.6
						c-0.1-0.3-0.3-0.4-0.3-0.5c-0.1-0.4-0.3-0.5-0.3-0.5c-0.3-0.5-0.3-0.9,0-1.3c0.1-0.4,0.5-0.6,0.9-0.8L142.4,194.9z"/>
				</g>
				<g>
					<path fill="#3D3E3F" d="M141.8,189.2c0,0,0,0.1,0,0.3s0,0.1,0,0.3s0,0.3,0,0.4c0,0.1,0,0.3,0,0.4c0,0.1,0,0.1,0,0.3
						s0,0.1,0,0.3c0,0.1,0,0.4,0,0.5c0,0.1,0,0.4,0,0.5c0.1,0.8,0.1,1.4,0.4,1.9c0,0.3,0.1,0.5,0.1,0.6s0.1,0.3,0.1,0.3l-2.6,0.9
						c-0.4,0.1-0.9,0.1-1.1-0.1c-0.4-0.3-0.6-0.6-0.8-1.1c0,0,0-0.3-0.1-0.6c0-0.1-0.1-0.4-0.1-0.6c0-0.3-0.1-0.5-0.1-0.8
						c0-0.3,0-0.5,0-0.8c0-0.3,0-0.5,0-0.6c0-0.4,0-0.6,0-0.6c0-0.3,0-0.5,0.1-0.6c0.1-0.3,0.3-0.4,0.4-0.5c0.3-0.3,0.8-0.5,1.1-0.4
						L141.8,189.2z"/>
				</g>
				<g>
					<path fill="#3D3E3F" d="M143.5,183.6c0,0,0,0.1-0.1,0.3c-0.1,0.1-0.1,0.4-0.3,0.6c-0.3,0.5-0.5,1.1-0.8,1.8
						c-0.3,0.6-0.4,1.4-0.5,1.9c0,0.3-0.1,0.5-0.1,0.6c0,0.1,0,0.3,0,0.3l-2.8-0.3c-0.4,0-0.8-0.3-1-0.6c-0.3-0.4-0.4-0.8-0.3-1.3
						c0,0,0.3-1,0.5-1.9c0.1-0.3,0.1-0.5,0.3-0.6c0.1-0.3,0.1-0.4,0.3-0.6c0.1-0.4,0.3-0.5,0.3-0.5c0.3-0.5,0.5-0.8,1-0.9
						c0.4-0.1,0.9-0.1,1.3,0.1L143.5,183.6z"/>
				</g>
				<g>
					<path fill="#3D3E3F" d="M147.3,179.3c0,0-0.1,0-0.3,0.1c-0.1,0.1-0.3,0.3-0.5,0.4c-0.4,0.4-0.9,0.9-1.4,1.4
						c-0.5,0.5-0.9,1.1-1.3,1.5c-0.1,0.3-0.3,0.4-0.4,0.5c-0.1,0.1-0.1,0.3-0.1,0.3L141,182c-0.4-0.3-0.6-0.6-0.8-1
						c-0.1-0.4,0-0.9,0.3-1.3c0,0,0.6-0.8,1.3-1.5c0.4-0.4,0.6-0.8,0.9-1c0.1-0.1,0.3-0.3,0.4-0.3c0.1-0.1,0.1-0.1,0.1-0.1
						c0.1-0.1,0.4-0.3,0.6-0.4s0.4-0.1,0.6-0.1c0.4,0,0.8,0.3,1,0.6L147.3,179.3z"/>
				</g>
				<g>
					<path fill="#3D3E3F" d="M152.6,176.9c0,0-0.1,0-0.3,0c-0.1,0-0.4,0.1-0.6,0.1c-0.5,0.1-1.1,0.4-1.9,0.6
						c-0.6,0.3-1.3,0.6-1.8,0.9c-0.5,0.3-0.8,0.5-0.8,0.5l-1.6-2.3c-0.3-0.4-0.4-0.8-0.3-1.1c0.1-0.4,0.4-0.8,0.8-1
						c0,0,0.9-0.5,1.8-0.9c0.3-0.1,0.5-0.3,0.6-0.3c0.3-0.1,0.4-0.1,0.6-0.3c0.4-0.1,0.6-0.3,0.6-0.3c0.5-0.1,0.9-0.1,1.3,0.1
						c0.4,0.3,0.6,0.5,0.8,1L152.6,176.9z"/>
				</g>
				<g>
					<path fill="#3D3E3F" d="M158.8,176.6c0,0-1.6,0-3.3,0c-0.3,0-0.4,0-0.5,0c-0.1,0-0.4,0-0.5,0c-0.1,0-0.4,0-0.5,0
						c-0.1,0-0.3,0-0.4,0c-0.3,0-0.5,0.1-0.6,0.1s-0.3,0-0.3,0l-0.5-2.8c-0.1-0.4,0-0.9,0.3-1.1c0.3-0.4,0.6-0.5,1.1-0.6
						c0,0,0.3,0,0.6,0c0.1,0,0.4,0,0.6,0c0.3,0,0.5,0,0.8,0c0.9,0,1.8,0,1.8,0c0.9,0,1.5,0.8,1.5,1.5v2.9H158.8z"/>
				</g>
				<g>
					<path fill="#3D3E3F" d="M165.6,176.6h-6.5v-2.8c0-0.9,0.8-1.5,1.5-1.5h3.4c0.9,0,1.5,0.8,1.5,1.5v2.8H165.6z"/>
				</g>
				<g>
					<path fill="#3D3E3F" d="M172.4,176.6h-6.5v-2.8c0-0.9,0.8-1.5,1.5-1.5h3.4c0.9,0,1.5,0.8,1.5,1.5v2.8H172.4z"/>
				</g>
				<g>
					<path fill="#3D3E3F" d="M179,176.6h-6.5v-2.8c0-0.9,0.8-1.5,1.5-1.5h3.4c0.9,0,1.5,0.8,1.5,1.5v2.8H179z"/>
				</g>
				<g>
					<path fill="#3D3E3F" d="M185.8,176.6h-6.5v-2.8c0-0.9,0.8-1.5,1.5-1.5h3.4c0.9,0,1.5,0.8,1.5,1.5v2.8H185.8z"/>
				</g>
				<g>
					<path fill="#3D3E3F" d="M192.6,176.6H186v-2.8c0-0.9,0.8-1.5,1.5-1.5h3.4c0.9,0,1.5,0.8,1.5,1.5v2.8H192.6z"/>
				</g>
				<g>
					<path fill="#3D3E3F" d="M199.3,176.6h-6.5v-2.8c0-0.9,0.8-1.5,1.5-1.5h3.4c0.9,0,1.5,0.8,1.5,1.5v2.8H199.3z"/>
				</g>
				<g>
					<path fill="#3D3E3F" d="M206,176.6h-6.5v-2.8c0-0.9,0.8-1.5,1.5-1.5h3.4c0.9,0,1.5,0.8,1.5,1.5v2.8H206z"/>
				</g>
				<g>
					<path fill="#3D3E3F" d="M212.8,176.6h-6.5v-2.8c0-0.9,0.8-1.5,1.5-1.5h3.4c0.9,0,1.5,0.8,1.5,1.5v2.8H212.8z"/>
				</g>
				<g>
					<path fill="#3D3E3F" d="M219.5,176.6H213v-2.8c0-0.9,0.8-1.5,1.5-1.5h3.4c0.9,0,1.5,0.8,1.5,1.5v2.8H219.5z"/>
				</g>
				<g>
					<path fill="#3D3E3F" d="M226.3,176.6h-6.5v-2.8c0-0.9,0.8-1.5,1.5-1.5h3.4c0.9,0,1.5,0.8,1.5,1.5v2.8H226.3z"/>
				</g>
				<g>
					<path fill="#3D3E3F" d="M233,176.6h-6.5v-2.8c0-0.9,0.8-1.5,1.5-1.5h3.4c0.9,0,1.5,0.8,1.5,1.5v2.8H233z"/>
				</g>
				<g>
					<path fill="#3D3E3F" d="M239.7,176.6h-6.5v-2.8c0-0.9,0.8-1.5,1.5-1.5h3.4c0.9,0,1.5,0.8,1.5,1.5v2.8H239.7z"/>
				</g>
				<g>
					<path fill="#3D3E3F" d="M246.5,176.6H240v-2.8c0-0.9,0.8-1.5,1.5-1.5h3.4c0.9,0,1.5,0.8,1.5,1.5v2.8H246.5z"/>
				</g>
				<g>
					<path fill="#3D3E3F" d="M253.3,176.6h-6.5v-2.8c0-0.9,0.8-1.5,1.5-1.5h3.4c0.9,0,1.5,0.8,1.5,1.5v2.8H253.3z"/>
				</g>
				<g>
					<path fill="#3D3E3F" d="M259.9,176.6h-6.5v-2.8c0-0.9,0.8-1.5,1.5-1.5h3.4c0.9,0,1.5,0.8,1.5,1.5v2.8H259.9z"/>
				</g>
				<g>
					<path fill="#3D3E3F" d="M266.7,176.6h-6.5v-2.8c0-0.9,0.8-1.5,1.5-1.5h3.4c0.9,0,1.5,0.8,1.5,1.5v2.8H266.7z"/>
				</g>
				<g>
					<path fill="#3D3E3F" d="M273.5,176.6H267v-2.8c0-0.9,0.8-1.5,1.5-1.5h3.4c0.9,0,1.5,0.8,1.5,1.5v2.8H273.5z"/>
				</g>
				<g>
					<path fill="#3D3E3F" d="M280.3,176.6h-6.5v-2.8c0-0.9,0.8-1.5,1.5-1.5h3.4c0.9,0,1.5,0.8,1.5,1.5v2.8H280.3z"/>
				</g>
				<g>
					<path fill="#3D3E3F" d="M286.9,176.6h-6.5v-2.8c0-0.9,0.8-1.5,1.5-1.5h3.4c0.9,0,1.5,0.8,1.5,1.5v2.8H286.9z"/>
				</g>
				<g>
					<path fill="#3D3E3F" d="M293.7,176.6h-6.5v-2.8c0-0.9,0.8-1.5,1.5-1.5h3.4c0.9,0,1.5,0.8,1.5,1.5v2.8H293.7z"/>
				</g>
				<g>
					<path fill="#3D3E3F" d="M300.4,176.6h-6.5v-2.8c0-0.9,0.8-1.5,1.5-1.5h3.4c0.9,0,1.5,0.8,1.5,1.5v2.8H300.4z"/>
				</g>
				<g>
					<path fill="#3D3E3F" d="M307.2,176.6h-6.5v-2.8c0-0.9,0.8-1.5,1.5-1.5h3.4c0.9,0,1.5,0.8,1.5,1.5v2.8H307.2z"/>
				</g>
				<g>
					<path fill="#3D3E3F" d="M313.9,176.6h-6.5v-2.8c0-0.9,0.8-1.5,1.5-1.5h3.4c0.9,0,1.5,0.8,1.5,1.5v2.8H313.9z"/>
				</g>
				<g>
					<path fill="#3D3E3F" d="M320.6,176.6h-6.5v-2.8c0-0.9,0.8-1.5,1.5-1.5h3.4c0.9,0,1.5,0.8,1.5,1.5v2.8H320.6z"/>
				</g>
				<g>
					<path fill="#3D3E3F" d="M327.4,176.6h-6.5v-2.8c0-0.9,0.8-1.5,1.5-1.5h3.4c0.9,0,1.5,0.8,1.5,1.5v2.8H327.4z"/>
				</g>
				<g>
					<path fill="#3D3E3F" d="M334.2,176.6h-6.5v-2.8c0-0.9,0.8-1.5,1.5-1.5h3.4c0.9,0,1.5,0.8,1.5,1.5v2.8H334.2z"/>
				</g>
				<g>
					<path fill="#3D3E3F" d="M340.8,176.6h-6.5v-2.8c0-0.9,0.8-1.5,1.5-1.5h3.4c0.9,0,1.5,0.8,1.5,1.5v2.8H340.8z"/>
				</g>
				<g>
					<path fill="#3D3E3F" d="M347.6,176.6h-6.5v-2.8c0-0.9,0.8-1.5,1.5-1.5h3.4c0.9,0,1.5,0.8,1.5,1.5v2.8H347.6z"/>
				</g>
				<g>
					<path fill="#3D3E3F" d="M354.4,176.6h-6.5v-2.8c0-0.9,0.8-1.5,1.5-1.5h3.4c0.9,0,1.5,0.8,1.5,1.5v2.8H354.4z"/>
				</g>
				<g>
					<path fill="#3D3E3F" d="M361.2,176.6h-6.5v-2.8c0-0.9,0.8-1.5,1.5-1.5h3.4c0.9,0,1.5,0.8,1.5,1.5v2.8H361.2z"/>
				</g>
				<g>
					<path fill="#3D3E3F" d="M367.8,176.6h-6.5v-2.8c0-0.9,0.8-1.5,1.5-1.5h3.4c0.9,0,1.5,0.8,1.5,1.5v2.8H367.8z"/>
				</g>
				<g>
					<path fill="#3D3E3F" d="M374.6,176.6h-6.5v-2.8c0-0.9,0.8-1.5,1.5-1.5h3.4c0.9,0,1.5,0.8,1.5,1.5v2.8H374.6z"/>
				</g>
				<g>
					<path fill="#3D3E3F" d="M381.4,176.6h-6.5v-2.8c0-0.9,0.8-1.5,1.5-1.5h3.4c0.9,0,1.5,0.8,1.5,1.5v2.8H381.4z"/>
				</g>
				<g>
					<path fill="#3D3E3F" d="M388.1,176.6h-6.5v-2.8c0-0.9,0.8-1.5,1.5-1.5h3.4c0.9,0,1.5,0.8,1.5,1.5v2.8H388.1z"/>
				</g>
				<g>
					<path fill="#3D3E3F" d="M394.8,176.6h-6.5v-2.8c0-0.9,0.8-1.5,1.5-1.5h3.4c0.9,0,1.5,0.8,1.5,1.5v2.8H394.8z"/>
				</g>
				<g>
					<path fill="#3D3E3F" d="M401.6,176.6H395v-2.8c0-0.9,0.8-1.5,1.5-1.5h3.4c0.9,0,1.5,0.8,1.5,1.5v2.8H401.6z"/>
				</g>
				<g>
					<path fill="#3D3E3F" d="M408.3,176.6h-6.5v-2.8c0-0.9,0.8-1.5,1.5-1.5h3.4c0.9,0,1.5,0.8,1.5,1.5v2.8H408.3z"/>
				</g>
				<g>
					<path fill="#3D3E3F" d="M415.1,176.6h-6.5v-2.8c0-0.9,0.8-1.5,1.5-1.5h3.4c0.9,0,1.5,0.8,1.5,1.5v2.8H415.1z"/>
				</g>
				<g>
					<path fill="#3D3E3F" d="M421.7,176.6h-6.5v-2.8c0-0.9,0.8-1.5,1.5-1.5h3.4c0.9,0,1.5,0.8,1.5,1.5v2.8H421.7z"/>
				</g>
				<g>
					<path fill="#3D3E3F" d="M428.5,176.6H422v-2.8c0-0.9,0.8-1.5,1.5-1.5h3.4c0.9,0,1.5,0.8,1.5,1.5v2.8H428.5z"/>
				</g>
				<g>
					<path fill="#3D3E3F" d="M435.3,176.6h-6.5v-2.8c0-0.9,0.8-1.5,1.5-1.5h3.4c0.9,0,1.5,0.8,1.5,1.5v2.8H435.3z"/>
				</g>
				<g>
					<path fill="#3D3E3F" d="M442.1,176.6h-6.5v-2.8c0-0.9,0.8-1.5,1.5-1.5h3.4c0.9,0,1.5,0.8,1.5,1.5v2.8H442.1z"/>
				</g>
				<g>
					<path fill="#3D3E3F" d="M448.7,176.6h-6.5v-2.8c0-0.9,0.8-1.5,1.5-1.5h3.4c0.9,0,1.5,0.8,1.5,1.5v2.8H448.7z"/>
				</g>
				<g>
					<path fill="#3D3E3F" d="M455.5,176.6H449v-2.8c0-0.9,0.8-1.5,1.5-1.5h3.4c0.9,0,1.5,0.8,1.5,1.5v2.8H455.5z"/>
				</g>
				<g>
					<path fill="#3D3E3F" d="M462.3,176.6h-6.5v-2.8c0-0.9,0.8-1.5,1.5-1.5h3.4c0.9,0,1.5,0.8,1.5,1.5v2.8H462.3z"/>
				</g>
				<g>
					<path fill="#3D3E3F" d="M469,176.6h-6.5v-2.8c0-0.9,0.8-1.5,1.5-1.5h3.4c0.9,0,1.5,0.8,1.5,1.5v2.8H469z"/>
				</g>
				<g>
					<path fill="#3D3E3F" d="M475.8,176.6h-6.5v-2.8c0-0.9,0.8-1.5,1.5-1.5h3.4c0.9,0,1.5,0.8,1.5,1.5v2.8H475.8z"/>
				</g>
				<g>
					<path fill="#3D3E3F" d="M482.5,176.6h-6.5v-2.8c0-0.9,0.8-1.5,1.5-1.5h3.4c0.9,0,1.5,0.8,1.5,1.5v2.8H482.5z"/>
				</g>
				<g>
					<path fill="#3D3E3F" d="M489.2,176.6h-6.5v-2.8c0-0.9,0.8-1.5,1.5-1.5h3.4c0.9,0,1.5,0.8,1.5,1.5v2.8H489.2z"/>
				</g>
				<g>
					<path fill="#3D3E3F" d="M496,176.6h-6.5v-2.8c0-0.9,0.8-1.5,1.5-1.5h3.4c0.9,0,1.5,0.8,1.5,1.5v2.8H496z"/>
				</g>
				<g>
					<path fill="#3D3E3F" d="M502.8,176.6h-6.5v-2.8c0-0.9,0.8-1.5,1.5-1.5h3.4c0.9,0,1.5,0.8,1.5,1.5v2.8H502.8z"/>
				</g>
				<g>
					<path fill="#3D3E3F" d="M509.4,176.6h-6.5v-2.8c0-0.9,0.8-1.5,1.5-1.5h3.4c0.9,0,1.5,0.8,1.5,1.5v2.8H509.4z"/>
				</g>
				<g>
					<path fill="#3D3E3F" d="M516.2,176.6h-6.5v-2.8c0-0.9,0.8-1.5,1.5-1.5h3.4c0.9,0,1.5,0.8,1.5,1.5v2.8H516.2z"/>
				</g>
				<g>
					<path fill="#3D3E3F" d="M523,176.6h-6.5v-2.8c0-0.9,0.8-1.5,1.5-1.5h3.4c0.9,0,1.5,0.8,1.5,1.5v2.8H523z"/>
				</g>
				<g>
					<path fill="#3D3E3F" d="M529.8,176.6h-6.5v-2.8c0-0.9,0.8-1.5,1.5-1.5h3.4c0.9,0,1.5,0.8,1.5,1.5v2.8H529.8z"/>
				</g>
				<g>
					<path fill="#3D3E3F" d="M536,176.9c0,0-0.1,0-0.3,0c-0.1,0-0.4-0.1-0.6-0.1c-0.5-0.1-1.3-0.1-2-0.1c-1.6,0-3.3,0-3.3,0v-2.8
						c0-0.9,0.8-1.5,1.5-1.5c0,0,0.9,0,1.8,0c0.5,0,1,0,1.4,0c0.4,0,0.6,0,0.6,0c0.5,0,0.9,0.3,1.1,0.6c0.3,0.4,0.4,0.8,0.3,1.1
						L536,176.9z"/>
				</g>
				<g>
					<path fill="#3D3E3F" d="M541.3,179.3c0,0-0.1,0-0.3-0.1c-0.1-0.1-0.3-0.3-0.5-0.4c-0.3-0.1-0.5-0.3-0.8-0.5
						c-0.3-0.1-0.6-0.4-0.9-0.5c-0.6-0.3-1.3-0.5-1.9-0.6c-0.1,0-0.3-0.1-0.4-0.1s-0.3,0-0.3,0c-0.1,0-0.3,0-0.3,0l0.6-2.8
						c0.1-0.4,0.4-0.8,0.8-1c0.4-0.3,0.9-0.3,1.3-0.1c0,0,0.3,0.1,0.6,0.3c0.1,0,0.4,0.1,0.6,0.3c0.3,0.1,0.5,0.1,0.6,0.3
						c0.5,0.3,0.9,0.4,1.3,0.6c0.4,0.1,0.5,0.3,0.5,0.3c0.3,0.1,0.4,0.3,0.5,0.5c0.1,0.1,0.3,0.4,0.3,0.6c0.1,0.4,0,0.9-0.3,1.1
						L541.3,179.3z"/>
				</g>
				<g>
					<path fill="#3D3E3F" d="M545.2,183.5c0,0,0-0.1-0.1-0.3c-0.1-0.1-0.3-0.4-0.4-0.5c-0.3-0.4-0.8-1-1.1-1.5c-0.5-0.5-1-1-1.4-1.4
						c-0.3-0.1-0.4-0.3-0.5-0.4c-0.1-0.1-0.3-0.1-0.3-0.1l1.6-2.3c0.3-0.4,0.6-0.5,1-0.6c0.4,0,0.9,0.1,1.3,0.5c0,0,0.8,0.6,1.4,1.4
						c0.1,0.1,0.4,0.4,0.5,0.5s0.3,0.4,0.4,0.5c0.1,0.1,0.3,0.3,0.3,0.4c0,0.1,0.1,0.1,0.1,0.1c0.3,0.4,0.4,0.9,0.3,1.3
						c-0.1,0.4-0.4,0.8-0.8,1L545.2,183.5z"/>
				</g>
				<g>
					<path fill="#3D3E3F" d="M546.9,189c0,0,0-0.1,0-0.3s0-0.4-0.1-0.6c-0.1-0.5-0.3-1.3-0.5-1.9c-0.3-0.6-0.5-1.4-0.8-1.8
						c-0.1-0.3-0.3-0.4-0.3-0.6c-0.1-0.1-0.1-0.3-0.1-0.3l2.4-1.4c0.4-0.3,0.8-0.3,1.3-0.1c0.3,0.1,0.4,0.3,0.5,0.4
						c0.1,0.1,0.3,0.4,0.4,0.6c0,0,0.1,0.3,0.3,0.6c0.1,0.1,0.1,0.4,0.3,0.6c0.1,0.3,0.1,0.5,0.3,0.6c0.3,0.9,0.5,1.9,0.5,1.9
						c0.1,0.5,0,1-0.3,1.3c-0.3,0.4-0.6,0.6-1,0.6L546.9,189z"/>
				</g>
				<g>
					<path fill="#3D3E3F" d="M546.4,194.8c0,0,0-0.1,0.1-0.3c0-0.1,0.1-0.4,0.1-0.6c0.1-0.5,0.3-1.3,0.4-1.9c0-0.4,0-0.8,0-1
						c0-0.1,0-0.4,0-0.5s0-0.3,0-0.5c0-0.1,0-0.3,0-0.4c0-0.1,0-0.3,0-0.3c0-0.1,0-0.3,0-0.3l2.8-0.3c0.4,0,0.9,0.1,1.1,0.4
						c0.1,0.1,0.3,0.4,0.4,0.5c0,0.1,0.1,0.3,0.1,0.4c0,0.1,0,0.3,0,0.4c0,0,0,0,0,0.1c0,0.1,0,0.3,0,0.4c0,0.1,0,0.4,0,0.6
						c0,0.3,0,0.5,0,0.8c-0.1,1-0.3,1.9-0.3,1.9c-0.1,0.5-0.4,0.9-0.8,1.1c-0.4,0.3-0.8,0.3-1.1,0.1L546.4,194.8z"/>
				</g>
				<g>
					<path fill="#3D3E3F" d="M543.6,199.8c0,0,0-0.1,0.1-0.1c0.1-0.1,0.3-0.3,0.4-0.5c0.1-0.3,0.4-0.5,0.5-0.8
						c0.1-0.3,0.4-0.6,0.5-0.9c0.4-0.6,0.6-1.3,0.9-1.8c0.1-0.3,0.1-0.5,0.3-0.6c0-0.1,0.1-0.3,0.1-0.3l2.6,0.9
						c0.4,0.1,0.8,0.4,0.9,0.9c0.1,0.4,0.1,0.9,0,1.3c0,0-0.1,0.3-0.3,0.5c-0.1,0.4-0.4,0.8-0.6,1.1s-0.5,0.9-0.8,1.1
						c-0.3,0.3-0.4,0.5-0.4,0.5c-0.1,0.3-0.4,0.4-0.5,0.5c-0.3,0.1-0.4,0.3-0.6,0.3c-0.4,0-0.9-0.1-1.1-0.4L543.6,199.8z"/>
				</g>
				<g>
					<path fill="#3D3E3F" d="M538.9,203.2c0,0,0.4-0.1,0.8-0.4c0.5-0.3,1.1-0.6,1.6-1c0.6-0.4,1.1-0.9,1.5-1.3
						c0.3-0.1,0.4-0.4,0.5-0.5c0.1-0.1,0.1-0.1,0.1-0.1l2,1.9c0.4,0.3,0.5,0.6,0.5,1.1c0,0.4-0.3,0.9-0.5,1.1c0,0-0.1,0.1-0.5,0.4
						c-0.1,0.1-0.3,0.3-0.5,0.4c-0.1,0.1-0.4,0.3-0.6,0.4c-0.8,0.6-1.6,1-1.6,1c-0.4,0.3-0.9,0.3-1.3,0.1c-0.4-0.1-0.8-0.4-0.9-0.8
						L538.9,203.2z"/>
				</g>
				<g>
					<path fill="#3D3E3F" d="M533.3,204.5c0,0,0.1,0,0.3,0s0.4,0,0.6,0c0.5,0,1.3-0.1,1.9-0.3c0.8-0.1,1.4-0.4,1.9-0.5
						c0.3-0.1,0.5-0.1,0.6-0.3c0.1,0,0.1,0,0.1-0.1l0,0l1.1,2.5c0.1,0.4,0.1,0.9,0,1.3c-0.1,0.1-0.3,0.4-0.4,0.5
						c-0.1,0.1-0.4,0.3-0.6,0.4c0,0-0.3,0.1-0.6,0.1c-0.4,0.1-0.9,0.3-1.3,0.4c-0.5,0.1-1,0.1-1.4,0.3c-0.1,0-0.4,0-0.5,0
						c-0.1,0-0.1,0-0.1,0c-0.5,0-0.9-0.1-1.3-0.4c-0.4-0.3-0.5-0.6-0.5-1.1v-2.8H533.3z"/>
				</g>
			</g>
			<g id="fond_rouages">
				<path fill="#AFAFAF" d="M139.6,190.7c0,8.8,7.2,15.9,15.9,15.9h377.7c8.8,0,15.9-7.2,15.9-15.9v-0.1H139.6V190.7z"/>
				<path fill="#E4E4E4" d="M139.5,190.4c0-8.8,7.2-15.9,15.9-15.9h377.7c8.8,0,15.9,7.2,15.9,15.9v0.1H139.5V190.4z"/>
			</g>
			<g id="rouages_tapis_bleu_x26_rose">
				<g>
					<g>
						<circle fill="#F4ADB7" cx="283" cy="190.5" r="14.2"/>
						<path fill="#202019" d="M283,205.5c-8.3,0-15.1-6.8-15.1-15.1s6.8-15.1,15.1-15.1c8.3,0,15.1,6.8,15.1,15.1
							C297.9,198.8,291.3,205.5,283,205.5z M283,177.1c-7.4,0-13.4,6-13.4,13.4s6,13.4,13.4,13.4c7.4,0,13.4-6,13.4-13.4
							S290.4,177.1,283,177.1z"/>
					</g>
					<circle opacity="0.5" fill="#FAFAFA" enable-background="new    " cx="283" cy="190.5" r="5.6"/>
				</g>
				<g>
					<g>
						<circle fill="#F4ADB7" cx="160.6" cy="190.5" r="14.2"/>
						<path fill="#202019" d="M160.6,205.5c-8.3,0-15.1-6.8-15.1-15.1s6.8-15.1,15.1-15.1c8.3,0,15.1,6.8,15.1,15.1
							C175.5,198.8,168.9,205.5,160.6,205.5z M160.6,177.1c-7.4,0-13.4,6-13.4,13.4s6,13.4,13.4,13.4c7.4,0,13.4-6,13.4-13.4
							S168,177.1,160.6,177.1z"/>
					</g>
					<circle opacity="0.5" fill="#FAFAFA" enable-background="new    " cx="160.6" cy="190.5" r="5.6"/>
				</g>
				<g>
					<g>
						<circle fill="#63C4E1" cx="221.8" cy="190.5" r="14.2"/>
						<path fill="#202019" d="M221.8,205.5c-8.3,0-15.1-6.8-15.1-15.1s6.8-15.1,15.1-15.1s15.1,6.8,15.1,15.1
							C236.7,198.8,230.1,205.5,221.8,205.5z M221.8,177.1c-7.4,0-13.4,6-13.4,13.4s6,13.4,13.4,13.4s13.4-6,13.4-13.4
							C235.2,183.1,229.2,177.1,221.8,177.1z"/>
					</g>
					<circle opacity="0.5" fill="#FAFAFA" enable-background="new    " cx="221.8" cy="190.5" r="5.6"/>
				</g>
				<g>
					<g>
						<circle fill="#F4ADB7" cx="405.4" cy="190.5" r="14.2"/>
						<path fill="#202019" d="M405.4,205.5c-8.3,0-15.1-6.8-15.1-15.1s6.8-15.1,15.1-15.1c8.3,0,15.1,6.8,15.1,15.1
							C420.4,198.8,413.7,205.5,405.4,205.5z M405.4,177.1c-7.4,0-13.4,6-13.4,13.4s6,13.4,13.4,13.4c7.4,0,13.4-6,13.4-13.4
							S412.8,177.1,405.4,177.1z"/>
					</g>
					<circle opacity="0.5" fill="#FAFAFA" enable-background="new    " cx="405.4" cy="190.5" r="5.6"/>
				</g>
				<g>
					<g>
						<circle fill="#63C4E1" cx="466.7" cy="190.5" r="14.2"/>
						<path fill="#202019" d="M466.7,205.5c-8.3,0-15.1-6.8-15.1-15.1s6.8-15.1,15.1-15.1c8.3,0,15.1,6.8,15.1,15.1
							C481.6,198.8,474.9,205.5,466.7,205.5z M466.7,177.1c-7.4,0-13.4,6-13.4,13.4s6,13.4,13.4,13.4c7.4,0,13.4-6,13.4-13.4
							C480.1,183.1,474.1,177.1,466.7,177.1z"/>
					</g>
					<circle opacity="0.5" fill="#FAFAFA" enable-background="new    " cx="466.7" cy="190.5" r="5.6"/>
				</g>
				<g>
					<g>
						<circle fill="#F4ADB7" cx="527.9" cy="190.5" r="14.2"/>
						<path fill="#202019" d="M527.9,205.5c-8.3,0-15.1-6.8-15.1-15.1s6.8-15.1,15.1-15.1c8.3,0,15.1,6.8,15.1,15.1
							C542.8,198.8,536.1,205.5,527.9,205.5z M527.9,177.1c-7.4,0-13.4,6-13.4,13.4s6,13.4,13.4,13.4c7.4,0,13.4-6,13.4-13.4
							S535.3,177.1,527.9,177.1z"/>
					</g>
					<circle opacity="0.5" fill="#FAFAFA" enable-background="new    " cx="527.9" cy="190.5" r="5.6"/>
				</g>
			</g>
			<g id="arrosoir2">
				<g>
					<path fill="none" d="M238.1,147.5c-0.6,0-1.1,0.1-1.8,0.3l2.5,14.6c3.6-0.4,6.6-3.6,6.6-7.4
						C245.6,150.8,242.2,147.5,238.1,147.5z"/>
					<path fill="#E4D4E9" d="M238.1,143.4c-1,0-2.1,0.1-3.1,0.4c-0.3,0-0.4,0-0.6-0.1c-0.1-0.1-0.3-0.3-0.4-0.5l-0.4-1.9h-21.7l-1,6
						c0,0.3-0.1,0.4-0.4,0.5c-0.3,0.1-0.5,0.1-0.6,0l-12.7-5.4c-0.3-0.1-0.4-0.3-0.4-0.5l-1.4-3.9l-3.8,8.9l3.9-1.9
						c0.3-0.1,0.4-0.1,0.6,0l13.5,5.8c0.4,0.1,0.5,0.5,0.5,0.9l-3.3,18.8h32.1l-0.6-3.4c0-0.3,0-0.4,0.1-0.6
						c0.1-0.1,0.4-0.3,0.5-0.3c6-0.4,10.7-5.5,10.7-11.5C249.6,148.5,244.5,143.4,238.1,143.4z M238.4,163.8L238.4,163.8
						c-0.4,0-0.8-0.3-0.8-0.6l-2.8-15.9c-0.1-0.4,0.1-0.8,0.5-0.9c0.9-0.3,1.9-0.5,2.9-0.5c4.9,0,9,4,9,9
						C247.1,159.7,243.2,163.8,238.4,163.8z"/>
					<path fill="#202019" d="M251.3,154.9c0-7.3-5.9-13-13-13c-0.9,0-1.8,0.1-2.6,0.3l-0.3-1.8c-0.1-0.4-0.4-0.6-0.8-0.6h-23.2
						c-0.4,0-0.8,0.3-0.8,0.6l-1.3,5.8l-11.4-4.9l-2-5.5c-0.1-0.3-0.4-0.5-0.8-0.5c-0.4,0-0.6,0.1-0.8,0.5l-5.4,12.7
						c-0.1,0.3,0,0.6,0.1,0.9c0.3,0.3,0.6,0.3,0.9,0.1l5.4-2.6l12.7,5.4l-3.4,19.2c0,0.3,0,0.5,0.1,0.6c0.1,0.1,0.4,0.3,0.6,0.3h34
						c0.3,0,0.5-0.1,0.6-0.3c0.1-0.1,0.3-0.4,0.1-0.6l-0.6-3.5C246.4,167,251.3,161.4,251.3,154.9z M239,166.5
						c-0.3,0-0.4,0.1-0.5,0.3c-0.1,0.1-0.3,0.4-0.1,0.6l0.6,3.4h-32.1l3.3-18.8c0-0.4-0.1-0.8-0.5-0.9l-13.5-5.8
						c-0.3-0.1-0.5-0.1-0.6,0l-3.9,1.9l3.8-8.9l1.4,3.9c0.1,0.3,0.3,0.4,0.4,0.5l12.7,5.4c0.3,0.1,0.5,0.1,0.6,0
						c0.3-0.1,0.4-0.4,0.4-0.5l1-6h22l0.4,1.9c0,0.3,0.1,0.4,0.4,0.5c0.1,0.1,0.4,0.1,0.6,0.1c1-0.3,2-0.4,3.1-0.4
						c6.4,0,11.5,5.1,11.5,11.5C249.6,160.9,245,166,239,166.5z"/>
					<path fill="#202019" d="M238.1,145.9c-1,0-1.9,0.1-2.9,0.5c-0.4,0.1-0.6,0.5-0.5,0.9l2.8,15.9c0.1,0.4,0.4,0.6,0.8,0.6l0,0
						c4.9-0.1,8.8-4.1,8.8-9C247.1,149.9,243.1,145.9,238.1,145.9z M239,162.3l-2.5-14.6c0.5-0.1,1.1-0.3,1.8-0.3
						c4.1,0,7.4,3.4,7.4,7.4C245.6,158.7,242.7,161.8,239,162.3z"/>
				</g>
				<g>
					<g>
						<path fill="#FAFAFA" d="M222.7,147.1c-0.3,0-0.4,0.1-0.5,0.3c0,0-1.4,1.5-2.8,3.6c-1.9,2.9-2.9,5.4-2.9,7.4
							c0,1.6,0.6,3.3,1.6,4.4c0.9,1,2.4,2.1,4.9,2.1c4.3,0,6.1-3.8,6.1-6.5c0-4.3-5.8-10.8-6-11
							C223.1,147.1,222.8,147.1,222.7,147.1z M227.7,158.3c0,2.1-1.5,5.1-4.8,5.1c-2.5,0-5.1-1.8-5.1-5.1c0-3.6,3.4-7.9,4.8-9.5
							c0.5,0.6,1.5,1.8,2.4,3.1C226.8,154.7,227.7,156.8,227.7,158.3z M222.8,160.1c0.6,0,1-0.1,1.3-0.5c0.4-0.5,0.4-1.5,0.3-1.8
							c-0.1-0.4,0.1-0.8,0.5-0.9c0.4-0.1,0.8,0.1,0.9,0.5c0,0.1,0.4,1.9-0.5,3c-0.5,0.6-1.3,1-2.4,1c-0.4,0-0.8-0.3-0.8-0.8
							C222.1,160.4,222.3,160.1,222.8,160.1z"/>
					</g>
				</g>
			</g>
			<g id="arrosoir1">
				<g>
					<path fill="none" d="M315.8,147.5c-0.6,0-1.1,0.1-1.8,0.3l2.5,14.6c3.6-0.4,6.6-3.6,6.6-7.4
						C323.3,150.8,319.9,147.5,315.8,147.5z"/>
					<path fill="#E4D4E9" d="M315.8,143.4c-1,0-2.1,0.1-3.1,0.4c-0.3,0-0.4,0-0.6-0.1c-0.1-0.1-0.3-0.3-0.4-0.5l-0.4-1.9h-22l-1,6
						c0,0.3-0.1,0.4-0.4,0.5c-0.3,0.1-0.5,0.1-0.6,0l-12.7-5.4c-0.3-0.1-0.4-0.3-0.4-0.5l-1.4-3.9l-3.8,8.9l3.9-1.9
						c0.3-0.1,0.4-0.1,0.6,0l13.5,5.8c0.4,0.1,0.5,0.5,0.5,0.9l-3.3,18.8h32.1l-0.6-3.4c0-0.3,0-0.4,0.1-0.6
						c0.1-0.1,0.4-0.3,0.5-0.3c6-0.4,10.7-5.5,10.7-11.5C327.3,148.5,322.2,143.4,315.8,143.4z M316,163.8L316,163.8
						c-0.4,0-0.8-0.3-0.8-0.6l-2.8-15.9c-0.1-0.4,0.1-0.8,0.5-0.9c0.9-0.3,1.9-0.5,2.9-0.5c4.9,0,9,4,9,9
						C324.8,159.7,320.9,163.8,316,163.8z"/>
					<path fill="#202019" d="M328.9,154.9c0-7.3-5.9-13-13-13c-0.9,0-1.8,0.1-2.6,0.3l-0.3-1.8c-0.1-0.4-0.4-0.6-0.8-0.6H289
						c-0.4,0-0.8,0.3-0.8,0.6l-1,5.6l-11.4-4.9l-2-5.5c-0.1-0.3-0.4-0.5-0.8-0.5s-0.6,0.1-0.8,0.5l-5.4,12.7c-0.1,0.3,0,0.6,0.1,0.9
						c0.3,0.3,0.6,0.3,0.9,0.1l5.4-2.6L286,152l-3.4,19.2c0,0.3,0,0.5,0.1,0.6c0.1,0.1,0.4,0.3,0.6,0.3h34c0.3,0,0.5-0.1,0.6-0.3
						c0.1-0.1,0.3-0.4,0.1-0.6l-0.6-3.5C324,167,328.9,161.4,328.9,154.9z M316.6,166.5c-0.3,0-0.4,0.1-0.5,0.3
						c-0.1,0.1-0.3,0.4-0.1,0.6l0.6,3.4h-32.1l3.3-18.8c0-0.4-0.1-0.8-0.5-0.9l-13.5-5.8c-0.3-0.1-0.5-0.1-0.6,0l-3.9,1.9l3.8-8.9
						l1.4,3.9c0.1,0.3,0.3,0.4,0.4,0.5l12.7,5.4c0.3,0.1,0.5,0.1,0.6,0c0.3-0.1,0.4-0.4,0.4-0.5l1-6h22l0.4,1.9
						c0,0.3,0.1,0.4,0.4,0.5c0.1,0.1,0.4,0.1,0.6,0.1c1-0.3,2-0.4,3.1-0.4c6.4,0,11.5,5.1,11.5,11.5
						C327.3,160.9,322.7,166,316.6,166.5z"/>
					<path fill="#202019" d="M315.8,145.9c-1,0-1.9,0.1-2.9,0.5c-0.4,0.1-0.6,0.5-0.5,0.9l2.8,15.9c0.1,0.4,0.4,0.6,0.8,0.6l0,0
						c4.9-0.1,8.8-4.1,8.8-9C324.8,149.9,320.8,145.9,315.8,145.9z M316.6,162.3l-2.5-14.6c0.5-0.1,1.1-0.3,1.8-0.3
						c4.1,0,7.4,3.4,7.4,7.4C323.3,158.7,320.3,161.8,316.6,162.3z"/>
				</g>
				<g>
					<g>
						<path fill="#FAFAFA" d="M300.2,147.1c-0.3,0-0.4,0.1-0.5,0.3c0,0-1.4,1.5-2.8,3.6c-1.9,2.9-2.9,5.4-2.9,7.4
							c0,1.6,0.6,3.3,1.6,4.4c0.9,1,2.4,2.1,4.9,2.1c4.3,0,6.1-3.8,6.1-6.5c0-4.3-5.8-10.8-6-11
							C300.6,147.1,300.4,147.1,300.2,147.1z M305.3,158.3c0,2.1-1.5,5.1-4.8,5.1c-2.5,0-5.1-1.8-5.1-5.1c0-3.6,3.4-7.9,4.8-9.5
							c0.5,0.6,1.5,1.8,2.4,3.1C304.5,154.7,305.3,156.8,305.3,158.3z M300.3,160.1c0.6,0,1-0.1,1.3-0.5c0.4-0.5,0.4-1.5,0.3-1.8
							c-0.1-0.4,0.1-0.8,0.5-0.9c0.4-0.1,0.8,0.1,0.9,0.5c0,0.1,0.4,1.9-0.5,3c-0.5,0.6-1.3,1-2.4,1c-0.4,0-0.8-0.3-0.8-0.8
							C299.7,160.4,299.9,160.1,300.3,160.1z"/>
					</g>
				</g>
			</g>
			<rect id="fond_écran" x="308.2" y="125.9" fill="#FAFAFA" width="72.5" height="40.4"/>
			<g id="courbe">
				<path fill="#7CBA52" d="M369.4,157.6L369.4,157.6c-0.4,0-0.6-0.3-0.8-0.6l-4.6-18.1l-1.5,6.4c-0.1,0.4-0.4,0.6-0.8,0.6h-7.3
					l-3.6,7.2c-0.1,0.3-0.5,0.5-0.8,0.4c-0.4,0-0.6-0.3-0.6-0.6l-2-10.7l-2.3,7.4c-0.1,0.4-0.4,0.6-0.8,0.5c-0.4,0-0.6-0.3-0.8-0.6
					l-2-7.9l-1.6,3.8c-0.1,0.3-0.4,0.5-0.8,0.5h-3.8l-3.3,11c-0.1,0.4-0.4,0.5-0.8,0.5l0,0c-0.4,0-0.6-0.3-0.8-0.6l-4.9-20.9
					l-3.8,9.2c-0.1,0.3-0.4,0.5-0.8,0.5h-15.1c-0.4,0-0.8-0.4-0.8-0.8c0-0.4,0.4-0.8,0.8-0.8h14.6l4.5-10.8c0.1-0.3,0.5-0.5,0.8-0.5
					c0.4,0,0.6,0.3,0.8,0.6l4.8,20.4l2.6-8.8c0.1-0.4,0.4-0.5,0.8-0.5h3.8l2.4-5.3c0.1-0.3,0.5-0.5,0.8-0.5c0.4,0,0.6,0.3,0.6,0.6
					l1.9,7.4l2.4-7.8c0.1-0.4,0.4-0.5,0.8-0.5c0.4,0,0.6,0.3,0.8,0.6l2.1,11.4l2.8-5.5c0.1-0.3,0.4-0.4,0.8-0.4h7.2l2-9
					c0.1-0.4,0.4-0.6,0.8-0.6c0.4,0,0.6,0.3,0.8,0.6l4.6,18.3l2.3-8.8c0.1-0.4,0.4-0.6,0.8-0.6h8c0.4,0,0.8,0.4,0.8,0.8
					s-0.4,0.8-0.8,0.8H373l-2.9,11C370.1,157.3,369.8,157.6,369.4,157.6z"/>
			</g>
			<g id="boîte_de_transformatiiiiiiiiiiiiion">
				<g id="entrées">
					<g>
						<path fill="#90B9E3" d="M304.5,172.4h2.4v-40.5h-2.4c-2.8,0-4.9,2.3-4.9,4.9v30.7C299.6,170.1,301.8,172.4,304.5,172.4z"/>
						<path fill="#202019" d="M306.8,173.1h-2.4c-3.1,0-5.6-2.5-5.6-5.6v-30.7c0-3.1,2.5-5.6,5.6-5.6h2.4c0.4,0,0.8,0.4,0.8,0.8
							v40.5C307.6,172.7,307.2,173.1,306.8,173.1z M304.5,132.6c-2.3,0-4.1,1.9-4.1,4.1v30.7c0,2.3,1.9,4.1,4.1,4.1h1.5v-39
							C306,132.6,304.5,132.6,304.5,132.6z"/>
					</g>
					<g>
						<path fill="#90B9E3" d="M384.2,172.4h-2.4v-40.5h2.4c2.8,0,4.9,2.3,4.9,4.9v30.7C389.1,170.1,386.9,172.4,384.2,172.4z"/>
						<path fill="#202019" d="M384.2,173.1h-2.4c-0.4,0-0.8-0.4-0.8-0.8v-40.5c0-0.4,0.4-0.8,0.8-0.8h2.4c3.1,0,5.6,2.5,5.6,5.6
							v30.7C389.9,170.6,387.4,173.1,384.2,173.1z M382.6,171.6h1.5c2.3,0,4.1-1.9,4.1-4.1v-30.7c0-2.3-1.9-4.1-4.1-4.1h-1.5V171.6z
							"/>
					</g>
				</g>
				<g id="boîte">
					<path fill="#6E93CC" d="M378,122.9h-67.4c-3.1,0-5.8,2.6-5.8,5.8v88.8c0,3.1,2.6,5.8,5.8,5.8H378c3.1,0,5.8-2.6,5.8-5.8v-88.8
						C383.7,125.6,381.2,122.9,378,122.9z M376.6,155.3c0,2.4-1.9,4.3-4.3,4.3h-55.9c-2.4,0-4.3-1.9-4.3-4.3v-21.1
						c0-2.4,1.9-4.3,4.3-4.3h55.9c2.4,0,4.3,1.9,4.3,4.3V155.3z"/>
					<path fill="#202019" d="M378,224.2h-67.4c-3.6,0-6.5-2.9-6.5-6.5v-88.8c0-3.6,2.9-6.5,6.5-6.5H378c3.6,0,6.5,2.9,6.5,6.5v88.8
						C384.6,221.2,381.6,224.2,378,224.2z M310.7,123.7c-2.8,0-5,2.3-5,5v88.8c0,2.8,2.3,5,5,5h67.4c2.8,0,5-2.3,5-5v-88.8
						c0-2.8-2.3-5-5-5H310.7z M372.3,160.3h-55.9c-2.8,0-5-2.3-5-5v-21.1c0-2.8,2.3-5,5-5h55.9c2.8,0,5,2.3,5,5v21.1
						C377.3,158.1,375.1,160.3,372.3,160.3z M316.4,130.8c-1.9,0-3.5,1.5-3.5,3.5v21.1c0,1.9,1.5,3.5,3.5,3.5h55.9
						c1.9,0,3.5-1.5,3.5-3.5v-21.1c0-1.9-1.5-3.5-3.5-3.5H316.4z"/>
				</g>
				<g id="rond_vert_éclair">
					<circle fill="#FAFAFA" cx="344.5" cy="190.5" r="15.6"/>
					<circle fill="#AACE81" cx="344.5" cy="190.5" r="13.9"/>
					<path fill="#FAFAFA" d="M346.6,181.1l-7.9,11h4.8l-1.5,7.9l7.9-11h-4.8L346.6,181.1L346.6,181.1z"/>
				</g>
			</g>
			<g id="bouteille">
				<path fill="none" d="M421.2,137.2c-0.4,0-0.6-0.4-0.6-0.8v-3.3c0-0.4,0.4-0.8,0.8-0.8h0.3l0,0h-3.9l0,0h0.3
					c0.4,0,0.8,0.4,0.8,0.8v3.3c0,0.4-0.3,0.8-0.6,0.8c-2.6,0.4-4.6,2.6-4.6,5.3v0.6c0,1.6,0.3,3.4,0.9,5.3c0.1,0.5,0.4,1,0.4,1.6
					c0,0.1,0,0.3,0.1,0.4c0.3-0.3,0.5-0.4,0.8-0.4l0,0c0.3,0,0.5-0.1,0.6-0.4c0.4-0.5,0.9-0.9,1.6-0.9c0.6,0,1.1,0.3,1.4,0.8
					c0.1,0.3,0.5,0.4,0.8,0.3c0.1,0,0.4-0.1,0.5-0.1c0.3,0,0.4,0,0.6,0.1c0.3,0.1,0.6,0,0.8-0.3c0.4-0.5,0.9-0.8,1.5-0.8
					c0.5,0,1,0.3,1.4,0.6c0.1-0.4,0.1-0.6,0.3-1c0.6-1.8,0.9-3.5,0.9-5.3v-0.6C425.9,139.9,423.9,137.6,421.2,137.2z"/>
				<path fill="#92CEF1" d="M423.4,148.9c-0.6,0-1.1,0.3-1.5,0.8c-0.1,0.3-0.5,0.4-0.8,0.3s-0.4-0.1-0.6-0.1c-0.1,0-0.4,0-0.5,0.1
					c-0.3,0.1-0.5,0-0.8-0.3c-0.4-0.4-0.9-0.8-1.4-0.8c-0.6,0-1.3,0.4-1.6,0.9c-0.1,0.3-0.4,0.4-0.6,0.4l0,0c-0.4,0-0.6,0.1-0.8,0.4
					c0.1,0.8,0.1,1.4,0.1,2.1c0,1.4-0.3,2.8-0.6,4.1c-0.6,1.8-0.9,3.5-0.9,5.3v6.8c0,1.1,0.9,1.9,1.9,1.9h8.7c1.1,0,1.9-0.9,1.9-1.9
					v-6.8c0-1.6-0.3-3.4-0.9-5.3c-0.5-1.4-0.6-2.8-0.6-4.1c0-0.8,0.1-1.6,0.3-2.4c0-0.3,0.1-0.5,0.1-0.8
					C424.4,149,423.9,148.9,423.4,148.9z"/>
				<path fill="#202019" d="M427.5,143.1v-0.6c0-3.3-2.3-6-5.3-6.8V134h0.3c0.4,0,0.8-0.4,0.8-0.8v-1.6c0-0.4-0.4-0.8-0.8-0.8h-5.4
					c-0.4,0-0.8,0.4-0.8,0.8v1.6c0,0.4,0.4,0.8,0.8,0.8h0.3v1.8c-3.1,0.8-5.3,3.5-5.3,6.8v0.6c0,1.9,0.4,3.8,1,5.8
					c0.4,1.1,0.6,2.4,0.6,3.6s-0.3,2.5-0.6,3.6c-0.6,1.9-1,3.9-1,5.8v6.8c0,1.9,1.5,3.5,3.5,3.5h8.7c1.9,0,3.5-1.5,3.5-3.5v-6.8
					c0-1.9-0.4-3.8-1-5.8c-0.4-1.1-0.6-2.4-0.6-3.6s0.3-2.5,0.6-3.6C427.1,147,427.5,145,427.5,143.1z M425.9,143.1
					c0,1.6-0.3,3.4-0.9,5.3c-0.1,0.4-0.3,0.6-0.3,1c0,0.3-0.1,0.5-0.1,0.8c-0.1,0.8-0.3,1.6-0.3,2.4c0,1.4,0.3,2.8,0.6,4.1
					c0.6,1.8,0.9,3.5,0.9,5.3v6.8c0,1.1-0.9,1.9-1.9,1.9h-8.7c-1.1,0-1.9-0.9-1.9-1.9v-6.8c0-1.6,0.3-3.4,0.9-5.3
					c0.5-1.4,0.6-2.8,0.6-4.1c0-0.8,0-1.4-0.1-2.1c0-0.1,0-0.3-0.1-0.4c-0.1-0.5-0.3-1.1-0.4-1.6c-0.6-1.8-0.9-3.5-0.9-5.3v-0.6
					c0-2.6,2-5,4.6-5.3c0.4,0,0.6-0.4,0.6-0.8v-3.3c0-0.4-0.4-0.8-0.8-0.8h-0.3l0,0h3.9l0,0h-0.3c-0.4,0-0.8,0.4-0.8,0.8v3.3
					c0,0.4,0.3,0.8,0.6,0.8c2.6,0.4,4.6,2.6,4.6,5.3V143.1z"/>
			</g>
			<g id="bouteille_1_">
				<path fill="none" d="M460.4,137.2c-0.4,0-0.6-0.4-0.6-0.8v-3.3c0-0.4,0.4-0.8,0.8-0.8h0.3l0,0h-3.9l0,0h0.3
					c0.4,0,0.8,0.4,0.8,0.8v3.3c0,0.4-0.3,0.8-0.6,0.8c-2.6,0.4-4.6,2.6-4.6,5.3v0.6c0,1.6,0.3,3.4,0.9,5.3c0.1,0.5,0.4,1,0.4,1.6
					c0,0.1,0,0.3,0.1,0.4c0.3-0.3,0.5-0.4,0.8-0.4l0,0c0.3,0,0.5-0.1,0.6-0.4c0.4-0.5,0.9-0.9,1.6-0.9c0.6,0,1.1,0.3,1.4,0.8
					c0.1,0.3,0.5,0.4,0.8,0.3c0.1,0,0.4-0.1,0.5-0.1c0.3,0,0.4,0,0.6,0.1c0.3,0.1,0.6,0,0.8-0.3c0.4-0.5,0.9-0.8,1.5-0.8
					c0.5,0,1,0.3,1.4,0.6c0.1-0.4,0.1-0.6,0.3-1c0.6-1.8,0.9-3.5,0.9-5.3v-0.6C465,139.9,463,137.6,460.4,137.2z"/>
				<path fill="#92CEF1" d="M462.5,148.9c-0.6,0-1.1,0.3-1.5,0.8c-0.1,0.3-0.5,0.4-0.8,0.3s-0.4-0.1-0.6-0.1c-0.1,0-0.4,0-0.5,0.1
					c-0.3,0.1-0.5,0-0.8-0.3c-0.4-0.4-0.9-0.8-1.4-0.8c-0.6,0-1.3,0.4-1.6,0.9c-0.1,0.3-0.4,0.4-0.6,0.4l0,0c-0.4,0-0.6,0.1-0.8,0.4
					c0.1,0.8,0.1,1.4,0.1,2.1c0,1.4-0.3,2.8-0.6,4.1c-0.6,1.8-0.9,3.5-0.9,5.3v6.8c0,1.1,0.9,1.9,1.9,1.9h8.7c1.1,0,1.9-0.9,1.9-1.9
					v-6.8c0-1.6-0.3-3.4-0.9-5.3c-0.5-1.4-0.6-2.8-0.6-4.1c0-0.8,0.1-1.6,0.3-2.4c0-0.3,0.1-0.5,0.1-0.8
					C463.5,149,463,148.9,462.5,148.9z"/>
				<path fill="#202019" d="M466.7,143.1v-0.6c0-3.3-2.3-6-5.3-6.8V134h0.3c0.4,0,0.8-0.4,0.8-0.8v-1.6c0-0.4-0.4-0.8-0.8-0.8h-5.4
					c-0.4,0-0.8,0.4-0.8,0.8v1.6c0,0.4,0.4,0.8,0.8,0.8h0.3v1.8c-3.1,0.8-5.3,3.5-5.3,6.8v0.6c0,1.9,0.4,3.8,1,5.8
					c0.4,1.1,0.6,2.4,0.6,3.6s-0.3,2.5-0.6,3.6c-0.6,1.9-1,3.9-1,5.8v6.8c0,1.9,1.5,3.5,3.5,3.5h8.7c1.9,0,3.5-1.5,3.5-3.5v-6.8
					c0-1.9-0.4-3.8-1-5.8c-0.4-1.1-0.6-2.4-0.6-3.6s0.3-2.5,0.6-3.6C466.3,147,466.7,145,466.7,143.1z M465,143.1
					c0,1.6-0.3,3.4-0.9,5.3c-0.1,0.4-0.3,0.6-0.3,1c0,0.3-0.1,0.5-0.1,0.8c-0.1,0.8-0.3,1.6-0.3,2.4c0,1.4,0.3,2.8,0.6,4.1
					c0.6,1.8,0.9,3.5,0.9,5.3v6.8c0,1.1-0.9,1.9-1.9,1.9h-8.7c-1.1,0-1.9-0.9-1.9-1.9v-6.8c0-1.6,0.3-3.4,0.9-5.3
					c0.5-1.4,0.6-2.8,0.6-4.1c0-0.8,0-1.4-0.1-2.1c0-0.1,0-0.3-0.1-0.4c-0.1-0.5-0.3-1.1-0.4-1.6c-0.6-1.8-0.9-3.5-0.9-5.3v-0.6
					c0-2.6,2-5,4.6-5.3c0.4,0,0.6-0.4,0.6-0.8v-3.3c0-0.4-0.4-0.8-0.8-0.8h-0.3l0,0h3.9l0,0h-0.3c-0.4,0-0.8,0.4-0.8,0.8v3.3
					c0,0.4,0.3,0.8,0.6,0.8c2.6,0.4,4.6,2.6,4.6,5.3L465,143.1L465,143.1z"/>
			</g>
			<g id="bouteille_2_">
				<path fill="none" d="M499.5,137.2c-0.4,0-0.6-0.4-0.6-0.8v-3.3c0-0.4,0.4-0.8,0.8-0.8h0.3l0,0H496l0,0h0.3
					c0.4,0,0.8,0.4,0.8,0.8v3.3c0,0.4-0.3,0.8-0.6,0.8c-2.6,0.4-4.6,2.6-4.6,5.3v0.6c0,1.6,0.3,3.4,0.9,5.3c0.1,0.5,0.4,1,0.4,1.6
					c0,0.1,0,0.3,0.1,0.4c0.3-0.3,0.5-0.4,0.8-0.4l0,0c0.3,0,0.5-0.1,0.6-0.4c0.4-0.5,0.9-0.9,1.6-0.9c0.6,0,1.1,0.3,1.4,0.8
					c0.1,0.3,0.5,0.4,0.8,0.3c0.1,0,0.4-0.1,0.5-0.1c0.3,0,0.4,0,0.6,0.1s0.6,0,0.8-0.3c0.4-0.5,0.9-0.8,1.5-0.8
					c0.5,0,1,0.3,1.4,0.6c0.1-0.4,0.1-0.6,0.3-1c0.6-1.8,0.9-3.5,0.9-5.3v-0.6C504.2,139.9,502.2,137.6,499.5,137.2z"/>
				<path fill="#92CEF1" d="M501.7,148.9c-0.6,0-1.1,0.3-1.5,0.8c-0.1,0.3-0.5,0.4-0.8,0.3s-0.4-0.1-0.6-0.1c-0.1,0-0.4,0-0.5,0.1
					c-0.3,0.1-0.5,0-0.8-0.3c-0.4-0.4-0.9-0.8-1.4-0.8c-0.6,0-1.3,0.4-1.6,0.9c-0.1,0.3-0.4,0.4-0.6,0.4l0,0c-0.4,0-0.6,0.1-0.8,0.4
					c0.1,0.8,0.1,1.4,0.1,2.1c0,1.4-0.3,2.8-0.6,4.1c-0.6,1.8-0.9,3.5-0.9,5.3v6.8c0,1.1,0.9,1.9,1.9,1.9h8.7c1.1,0,1.9-0.9,1.9-1.9
					v-6.8c0-1.6-0.3-3.4-0.9-5.3c-0.5-1.4-0.6-2.8-0.6-4.1c0-0.8,0.1-1.6,0.3-2.4c0-0.3,0.1-0.5,0.1-0.8
					C502.7,149,502.2,148.9,501.7,148.9z"/>
				<path fill="#202019" d="M505.8,143.1v-0.6c0-3.3-2.3-6-5.3-6.8V134h0.3c0.4,0,0.8-0.4,0.8-0.8v-1.6c0-0.4-0.4-0.8-0.8-0.8h-5.4
					c-0.4,0-0.8,0.4-0.8,0.8v1.6c0,0.4,0.4,0.8,0.8,0.8h0.3v1.8c-3.1,0.8-5.3,3.5-5.3,6.8v0.6c0,1.9,0.4,3.8,1,5.8
					c0.4,1.1,0.6,2.4,0.6,3.6s-0.3,2.5-0.6,3.6c-0.6,1.9-1,3.9-1,5.8v6.8c0,1.9,1.5,3.5,3.5,3.5h8.7c1.9,0,3.5-1.5,3.5-3.5v-6.8
					c0-1.9-0.4-3.8-1-5.8c-0.4-1.1-0.6-2.4-0.6-3.6s0.3-2.5,0.6-3.6C505.4,147,505.8,145,505.8,143.1z M504.2,143.1
					c0,1.6-0.3,3.4-0.9,5.3c-0.1,0.4-0.3,0.6-0.3,1c0,0.3-0.1,0.5-0.1,0.8c-0.1,0.8-0.3,1.6-0.3,2.4c0,1.4,0.3,2.8,0.6,4.1
					c0.6,1.8,0.9,3.5,0.9,5.3v6.8c0,1.1-0.9,1.9-1.9,1.9h-8.7c-1.1,0-1.9-0.9-1.9-1.9v-6.8c0-1.6,0.3-3.4,0.9-5.3
					c0.5-1.4,0.6-2.8,0.6-4.1c0-0.8,0-1.4-0.1-2.1c0-0.1,0-0.3-0.1-0.4c-0.1-0.5-0.3-1.1-0.4-1.6c-0.6-1.8-0.9-3.5-0.9-5.3v-0.6
					c0-2.6,2-5,4.6-5.3c0.4,0,0.6-0.4,0.6-0.8v-3.3c0-0.4-0.4-0.8-0.8-0.8H496l0,0h3.9l0,0h-0.3c-0.4,0-0.8,0.4-0.8,0.8v3.3
					c0,0.4,0.3,0.8,0.6,0.8c2.6,0.4,4.6,2.6,4.6,5.3L504.2,143.1L504.2,143.1z"/>
			</g>
			<g id="arrosoir_qui_arrose">
				<g>
					<g>
						<path fill="none" d="M157.4,144.3c-0.5,0.3-1,0.5-1.5,0.8l7.3,12.9c3.4-1.6,5-5.6,3.8-9.2
							C165.5,144.9,161.2,142.9,157.4,144.3z"/>
						<path fill="#E4D4E9" d="M156.1,140.4c-1,0.4-1.9,0.9-2.8,1.4c-0.1,0.1-0.4,0.1-0.6,0.1c-0.3,0-0.4-0.1-0.5-0.4l-0.9-1.6
							l-20.7,7.3l1,6c0,0.3,0,0.5-0.3,0.6c-0.1,0.1-0.4,0.3-0.6,0.3l-13.7-0.9c-0.3,0-0.4-0.1-0.5-0.3l-2.6-3.3l-0.6,9.7l3-3
							c0.1-0.1,0.4-0.3,0.6-0.3l14.8,1c0.4,0,0.6,0.3,0.8,0.6l3.1,18.9L166,166l-1.6-3c-0.1-0.3-0.1-0.4,0-0.6
							c0.1-0.3,0.3-0.4,0.4-0.5c5.5-2.4,8.3-8.8,6.3-14.4C168.6,141.4,162,138.2,156.1,140.4z M163.1,159.6
							C163,159.6,163,159.7,163.1,159.6c-0.4,0.1-0.8,0-1-0.4l-7.9-14c-0.1-0.4-0.1-0.8,0.3-1c0.8-0.6,1.6-1,2.5-1.4
							c4.6-1.6,9.8,0.8,11.4,5.5C170,152.8,167.6,157.9,163.1,159.6z"/>
						<path fill="#202019" d="M172.3,146.9c-2.4-6.8-9.9-10.4-16.7-8c-0.9,0.3-1.6,0.6-2.4,1.1l-0.9-1.5c-0.1-0.4-0.6-0.5-0.9-0.4
							l-22,7.8c-0.4,0.1-0.6,0.5-0.5,0.9l1,5.6l-12.4-0.8l-3.6-4.5c-0.3-0.3-0.5-0.4-0.9-0.3c-0.3,0.1-0.5,0.4-0.5,0.6l-0.9,13.8
							c0,0.4,0.1,0.6,0.5,0.8c0.3,0.1,0.6,0.1,0.9-0.1l4.3-4.3l13.8,0.9l3.3,19.2c0,0.3,0.1,0.4,0.4,0.5c0.3,0.1,0.4,0.1,0.6,0.1
							l32.1-11.3c0.3-0.1,0.4-0.3,0.5-0.5c0.1-0.3,0.1-0.5,0-0.6l-1.8-3C171.6,159.9,174.4,153,172.3,146.9z M164.5,161.8
							c-0.3,0.1-0.4,0.3-0.4,0.5c-0.1,0.3,0,0.4,0,0.6l1.6,3l-30.4,10.7l-3.1-18.9c0-0.4-0.4-0.6-0.8-0.6l-14.8-1
							c-0.3,0-0.5,0.1-0.6,0.3l-3,3l0.6-9.7l2.6,3.3c0.1,0.1,0.4,0.3,0.5,0.3l13.7,0.9c0.3,0,0.5-0.1,0.6-0.3
							c0.1-0.1,0.3-0.4,0.3-0.6l-1-6l20.7-7.3l0.9,1.6c0.1,0.3,0.3,0.4,0.5,0.4s0.5,0,0.6-0.1c0.9-0.6,1.8-1.1,2.8-1.4
							c6-2.1,12.7,1,14.7,7C172.8,153,170,159.4,164.5,161.8z"/>
						<path fill="#202019" d="M156.8,142.8c-0.9,0.4-1.8,0.8-2.5,1.4c-0.3,0.3-0.4,0.6-0.3,1l7.9,14.2c0.1,0.4,0.6,0.5,0.9,0.4l0,0
							c4.5-1.8,6.9-6.8,5.3-11.4C166.7,143.5,161.6,141.1,156.8,142.8z M163.1,157.9l-7.3-12.9c0.5-0.3,1-0.6,1.5-0.8
							c3.9-1.4,8.2,0.6,9.5,4.5C168.1,152.3,166.5,156.3,163.1,157.9z"/>
					</g>
					<g>
						<g>
							<path fill="#FAFAFA" d="M142.6,149c-0.3,0-0.4,0.3-0.4,0.4c0,0.1-0.9,1.9-1.5,4.3c-0.9,3.3-0.9,6-0.3,7.9
								c0.5,1.5,1.6,2.9,3,3.6c1.1,0.6,3,1.1,5.3,0.4c4-1.4,4.5-5.6,3.6-8.2c-1.4-4-9-8.2-9.3-8.4C143,149,142.8,149,142.6,149z
								 M151.2,157.9c0.8,2,0.4,5.4-2.8,6.4c-2.4,0.9-5.4,0-6.5-3.1c-1.1-3.4,0.6-8.7,1.4-10.5c0.8,0.5,2,1.3,3.3,2.1
								C149,154.8,150.7,156.6,151.2,157.9z M147,161.3c0.6-0.3,0.9-0.5,1-0.9c0.3-0.6-0.1-1.5-0.4-1.8c-0.3-0.4-0.1-0.8,0.3-1
								c0.4-0.3,0.8-0.1,1,0.3c0.1,0.1,1,1.6,0.5,3c-0.3,0.8-0.9,1.4-1.9,1.8c-0.4,0.1-0.8-0.1-0.9-0.4S146.7,161.4,147,161.3z"/>
						</g>
					</g>
				</g>
				<g>
					<g>
						<path fill="#92CEF1" d="M100.6,155.2h-0.1c-0.4-0.1-0.6-0.5-0.6-0.9c0.5-2.3,1.6-4,3.4-5c3.3-1.9,7.5-0.6,7.7-0.5
							c0.4,0.1,0.6,0.6,0.5,1c-0.1,0.4-0.6,0.6-1,0.5c0,0-3.8-1.1-6.4,0.4c-1.4,0.8-2.3,2.1-2.6,4
							C101.3,154.9,101,155.2,100.6,155.2z"/>
					</g>
					<g>
						<path fill="#92CEF1" d="M102.4,160.8L102.4,160.8c-0.5,0-0.9-0.5-0.8-0.9c0.3-2.3,1.1-3.9,2.6-4.9c2.6-1.9,6.3-1,6.4-1
							c0.4,0.1,0.6,0.5,0.6,0.9c-0.1,0.4-0.5,0.6-0.9,0.6c0,0-3-0.8-5.1,0.8c-1.1,0.8-1.8,2-2,3.8
							C103.1,160.4,102.8,160.8,102.4,160.8z"/>
					</g>
					<g>
						<path fill="#92CEF1" d="M104.3,166.3c-0.4,0-0.8-0.4-0.8-0.8c0-2.1,0.6-3.8,1.9-4.9c2-1.8,4.9-1.4,5-1.4
							c0.4,0,0.8,0.5,0.6,0.9c0,0.4-0.5,0.8-0.9,0.6c0,0-2.4-0.3-3.9,1c-0.9,0.8-1.4,2-1.4,3.8C105,166,104.6,166.3,104.3,166.3z"/>
					</g>
				</g>
			</g>
			<g id="pieds_tapis">
				<g>
					<path fill="#FAFAFA" d="M533.4,257.2v-66.6c0-3.1-2.5-5.5-5.5-5.5h-0.1c-3.1,0-5.5,2.5-5.5,5.5v66.6h-4.9v3.5h21.1v-3.5H533.4z
						 M527.9,187.8c1.5,0,2.8,1.3,2.8,2.8s-1.3,2.8-2.8,2.8c-1.5,0-2.8-1.3-2.8-2.8S526.4,187.8,527.9,187.8z"/>
					<path fill="#202019" d="M538.4,261.4h-21.1c-0.4,0-0.8-0.4-0.8-0.8v-3.5c0-0.4,0.4-0.8,0.8-0.8h4.1v-65.9
						c0-3.5,2.9-6.4,6.4-6.4h0.1c3.5,0,6.4,2.9,6.4,6.4v65.9h4.1c0.4,0,0.8,0.4,0.8,0.8v3.5C539.2,261,538.8,261.4,538.4,261.4z
						 M518.1,259.8h19.6v-1.9h-4.1c-0.4,0-0.8-0.4-0.8-0.8v-66.6c0-2.6-2.1-4.8-4.8-4.8h-0.1c-2.6,0-4.8,2.1-4.8,4.8v66.6
						c0,0.3-0.1,0.4-0.3,0.5c-0.1,0.1-0.4,0.3-0.5,0.3h-4.1v1.9H518.1z M527.9,194.1c-1.9,0-3.5-1.6-3.5-3.5c0-1.9,1.6-3.5,3.5-3.5
						s3.5,1.6,3.5,3.5C531.4,192.4,529.8,194.1,527.9,194.1z M527.9,188.5c-1.1,0-2,0.9-2,2s0.9,2,2,2c1.1,0,2-0.9,2-2
						C529.8,189.4,528.9,188.5,527.9,188.5z"/>
				</g>
				<g>
					<path fill="#FAFAFA" d="M166.2,257.2v-66.6c0-3.1-2.5-5.5-5.5-5.5h-0.3c-3.1,0-5.5,2.5-5.5,5.5v66.6H150v3.5h21.1v-3.5H166.2z
						 M160.6,187.8c1.5,0,2.8,1.3,2.8,2.8s-1.3,2.8-2.8,2.8c-1.5,0-2.8-1.3-2.8-2.8S159.1,187.8,160.6,187.8z"/>
					<path fill="#202019" d="M171.1,261.4H150c-0.4,0-0.8-0.4-0.8-0.8v-3.5c0-0.4,0.4-0.8,0.8-0.8h4.1v-65.9c0-3.5,2.9-6.4,6.4-6.4
						h0.1c3.5,0,6.4,2.9,6.4,6.4v65.9h4.1c0.4,0,0.8,0.4,0.8,0.8v3.5C171.9,261,171.5,261.4,171.1,261.4z M150.8,259.8h19.6v-1.9
						h-4.1c-0.4,0-0.8-0.4-0.8-0.8v-66.6c0-2.6-2.1-4.8-4.8-4.8h-0.3c-2.6,0-4.8,2.1-4.8,4.8v66.6c0,0.3-0.1,0.4-0.3,0.5
						c-0.1,0.1-0.4,0.3-0.5,0.3h-4.1V259.8z M160.6,194.1c-1.9,0-3.5-1.6-3.5-3.5c0-1.9,1.6-3.5,3.5-3.5c1.9,0,3.5,1.6,3.5,3.5
						C164.1,192.4,162.5,194.1,160.6,194.1z M160.6,188.5c-1.1,0-2,0.9-2,2s0.9,2,2,2c1.1,0,2-0.9,2-2
						C162.5,189.4,161.6,188.5,160.6,188.5z"/>
				</g>
			</g>
		</g>
	</g>
</g>
<g id="Calque_9">
	<g>
		<g id="parties_blanches_1_">
			<polygon fill="#FAFAFA" points="-262.7,252 -241.3,252 -241.3,236.8 -284.2,236.8 -284.2,252 			"/>
			<path fill="#FAFAFA" d="M-240.5,235.2h109.8v-15.2h-132h-132v15.2H-285H-240.5z M-138,224.1c1.9,0,3.5,1.6,3.5,3.5
				c0,1.9-1.6,3.5-3.5,3.5c-1.9,0-3.5-1.6-3.5-3.5C-141.5,225.6-140,224.1-138,224.1z M-149.9,224.1c1.9,0,3.5,1.6,3.5,3.5
				c0,1.9-1.6,3.5-3.5,3.5c-1.9,0-3.5-1.6-3.5-3.5C-153.4,225.6-151.8,224.1-149.9,224.1z M-262.7,222.4c0.4,0,0.8,0.1,1.2,0.2
				c2.3,0.6,3.9,2.6,3.9,5c0,2.4-1.7,4.4-3.9,5c-0.4,0.1-0.8,0.2-1.2,0.2c-2.9,0-5.2-2.3-5.2-5.2
				C-267.9,224.7-265.6,222.4-262.7,222.4z"/>
		</g>
		<g id="LCD_bleu_x2F_rouge_1_">
			<rect id="blue_1_" x="-394.8" y="98" fill="#95D4EE" width="132" height="120.4"/>
			<rect id="red_1_" x="-262.7" y="98" fill="#757576" width="132" height="120.4"/>
		</g>
		<g id="Pied_1_">
			<polygon fill="#95D4EE" points="-285,253.6 -293.3,253.6 -293.3,257.5 -262.7,257.5 -262.7,253.6 			"/>
			<polygon fill="#757576" points="-262.7,253.6 -262.7,257.5 -232.1,257.5 -232.1,253.6 -240.5,253.6 			"/>
		</g>
		<path id="écran_1_" fill="#202019" d="M-231.3,252h-8.4v-15.2h109.8c0.4,0,0.8-0.4,0.8-0.8v-16v-0.8v0v-122
			c0-0.4-0.4-0.8-0.8-0.8h-132.8h-132.8c-0.4,0-0.8,0.4-0.8,0.8v121.5v0.4v0V236c0,0.4,0.4,0.8,0.8,0.8h109.8V252h-8.4
			c-0.4,0-0.8,0.3-0.8,0.7c0,0,0,0.1,0,0.1v5.6c0,0.4,0.4,0.8,0.8,0.8h31.4h31.4c0.4,0,0.8-0.4,0.8-0.8v-5.6c0,0,0-0.1,0-0.1
			C-230.5,252.3-230.9,252-231.3,252z M-394.8,98h132h132v120.4h-132h-132V98z M-232.1,257.5h-30.6h-30.6v-3.9h8.4h22.3h22.3h8.4
			V257.5z M-394.8,235.2v-15.2h132h132v15.2h-109.8H-285H-394.8z M-241.3,236.8V252h-21.4h-21.4v-15.2H-241.3z"/>
		<g id="Boutons_1_">
			<circle fill="#757576" cx="-138" cy="227.5" r="3.5"/>
			<circle fill="#95D4EE" cx="-149.9" cy="227.5" r="3.5"/>
			<path fill="#202019" d="M-262.7,232.7c0.4,0,0.8-0.1,1.2-0.2c2.3-0.6,3.9-2.6,3.9-5c0-2.4-1.7-4.4-3.9-5
				c-0.4-0.1-0.8-0.2-1.2-0.2c-2.9,0-5.2,2.3-5.2,5.2C-267.9,230.4-265.6,232.7-262.7,232.7z"/>
		</g>
		<g id="Lignes_gauche_1_">
			<rect x="-387.5" y="103.4" fill="#DFC778" width="86.6" height="4.6"/>
			<rect x="-387.5" y="158.3" opacity="0.7" fill="#FFFFFF" width="31.8" height="4.6"/>
			<rect x="-387.5" y="199.7" opacity="0.7" fill="#FFFFFF" width="86.6" height="4.6"/>
			<rect x="-387.5" y="208.7" fill="#C2D780" width="37.9" height="4.6"/>
			<rect x="-378.3" y="115.6" opacity="0.7" fill="#FFFFFF" width="46.7" height="4.6"/>
			<rect x="-378.3" y="126" fill="#DFC778" width="25.2" height="4.6"/>
			<rect x="-349.6" y="126" opacity="0.7" fill="#FFFFFF" width="30.9" height="4.6"/>
			<rect x="-324.5" y="115.6" fill="#C2D780" width="19.6" height="4.6"/>
			<rect x="-378.3" y="136.4" opacity="0.7" fill="#FFFFFF" width="96.6" height="4.6"/>
			<rect x="-378.3" y="146.7" opacity="0.7" fill="#FFFFFF" width="22.7" height="4.6"/>
			<rect x="-344.2" y="146.7" fill="#DFC778" width="34" height="4.6"/>
			<rect x="-378.3" y="168.2" fill="#C2D780" width="26.3" height="4.6"/>
			<rect x="-334.1" y="168.2" opacity="0.7" fill="#FFFFFF" width="49.9" height="4.6"/>
			<rect x="-370.1" y="177.7" opacity="0.7" fill="#FFFFFF" width="45.6" height="4.6"/>
			<rect x="-318.7" y="177.7" opacity="0.7" fill="#FFFFFF" width="45.6" height="4.6"/>
			<rect x="-370.1" y="188.3" fill="#DFC778" width="20.5" height="4.6"/>
			<rect x="-341.9" y="188.3" opacity="0.7" fill="#FFFFFF" width="20.5" height="4.6"/>
			<rect x="-313.7" y="188.3" fill="#C2D780" width="20.5" height="4.6"/>
		</g>
		<g id="Lignes_droite_1_">
			<rect x="-253.9" y="103.2" fill="#95D4EE" width="27" height="4.6"/>
			<rect x="-253.9" y="158.1" fill="#395377" width="55" height="4.6"/>
			<rect x="-253.9" y="199.5" opacity="0.7" fill="#FFFFFF" width="44" height="4.6"/>
			<rect x="-253.9" y="208.5" opacity="0.7" fill="#FFFFFF" width="48.5" height="4.6"/>
			<rect x="-200.9" y="208.5" fill="#395377" width="48.5" height="4.6"/>
			<rect x="-244.7" y="115.3" opacity="0.7" fill="#FFFFFF" width="63.4" height="4.6"/>
			<rect x="-244.7" y="125.7" opacity="0.7" fill="#FFFFFF" width="46.7" height="4.6"/>
			<rect x="-192.4" y="126" fill="#395377" width="14.6" height="4.6"/>
			<rect x="-174.4" y="126.2" opacity="0.7" fill="#FFFFFF" width="20.2" height="4.6"/>
			<rect x="-244.7" y="136.1" fill="#95D4EE" width="34.8" height="4.6"/>
			<rect x="-191.7" y="136.1" opacity="0.7" fill="#FFFFFF" width="6.6" height="4.6"/>
			<rect x="-244.7" y="146.5" opacity="0.7" fill="#FFFFFF" width="39.3" height="4.6"/>
			<rect x="-244.7" y="167.9" opacity="0.7" fill="#FFFFFF" width="10.6" height="4.6"/>
			<rect x="-226.9" y="167.9" fill="#95D4EE" width="76.3" height="4.6"/>
			<rect x="-236.5" y="177.5" fill="#95D4EE" width="30.4" height="4.6"/>
			<rect x="-200.2" y="177.5" opacity="0.7" fill="#FFFFFF" width="23.6" height="4.6"/>
			<rect x="-172.7" y="177.5" opacity="0.7" fill="#FFFFFF" width="11.8" height="4.6"/>
			<rect x="-236.5" y="188" opacity="0.7" fill="#FFFFFF" width="51.4" height="4.6"/>
		</g>
	</g>
</g>
<g id="Calque_6_1_">
	<g id="Calque_6">
		<g id="étude_de_marché">
			<g id="Feuille_2_">
				<g id="Feuille_3_">
					<path fill="#FFFFFF" d="M-398.1,153v-21.3H-470v125.8h94V153.7h-21.3C-397.7,153.8-398.1,153.4-398.1,153z"/>
					<path fill="#202019" d="M-375.2,152.2h-21.3v-21.3c0-0.4-0.4-0.8-0.8-0.8h-73.4c-0.4,0-0.8,0.4-0.8,0.8v127.6
						c0,0.4,0.4,0.8,0.8,0.8h95.6c0.4,0,0.8-0.4,0.8-0.8V153C-374.4,152.5-374.8,152.2-375.2,152.2z M-375.9,257.5h-94V131.6h71.9
						v21.3c0,0.4,0.4,0.8,0.8,0.8h21.3V257.5z"/>
				</g>
				<g id="partie_camembert_1_">
					<path fill="#6E93CC" d="M-392.7,197.2l9.8-3.9c-1.8-3.6-5.5-6.3-9.8-6.5V197.2z"/>
					<path fill="#96B3DE" d="M-381.8,197.7c0-1.1-0.3-2.1-0.6-3.1l-8,3.1H-381.8z"/>
					<path fill="#466DB3" d="M-392.7,199h-0.6h-0.6v-12.2c-6.1,0.4-10.9,5.4-10.9,11.5c0,6.4,5.1,11.5,11.5,11.5
						c6.1,0,11.2-4.9,11.5-10.9C-381.8,199-392.7,199-392.7,199z"/>
				</g>
				<g id="partie_histogramme_1_">
					<path id="cadre_histogramme_1_" fill="#D3EAFA" d="M-398.1,153v-15.4h-67v43h83.3v-27h-15.6
						C-397.7,153.8-398.1,153.4-398.1,153z"/>
					<g>
						<rect x="-450.9" y="163.3" opacity="0.9" fill="#FFFFFF" enable-background="new    " width="8.8" height="10.9"/>
						<rect x="-435.6" y="150" opacity="0.9" fill="#FFFFFF" enable-background="new    " width="8.8" height="24.2"/>
						<rect x="-404.8" y="144" opacity="0.9" fill="#FFFFFF" enable-background="new    " width="8.8" height="30.2"/>
						<rect x="-420.2" y="160.2" opacity="0.9" fill="#FFFFFF" enable-background="new    " width="8.8" height="14"/>
					</g>
				</g>
				<g id="partie_je_sais_pas_1_">
					<path fill="#D3EAFA" d="M-465.1,215.8v35.9h19.1v-35.9H-465.1z M-459.8,240.5h8.8v2h-8.8V240.5z M-459.8,238.7v-7.4h8.8v7.4
						H-459.8z M-451.1,229.6h-8.8v-1.9h8.8V229.6z M-451.1,220.2v5.8h-8.8v-5.8H-451.1z M-459.8,248.8v-4.5h8.8v4.5
						C-451.1,248.8-459.8,248.8-459.8,248.8z"/>
					<rect x="-459.8" y="220.2" fill="#D3EAFA" width="8.8" height="5.8"/>
					<rect x="-459.8" y="220.2" opacity="0.9" fill="#FFFFFF" enable-background="new    " width="8.8" height="5.8"/>
					<rect x="-459.8" y="227.7" fill="#D3EAFA" width="8.8" height="1.9"/>
					<rect x="-459.8" y="227.7" opacity="0.9" fill="#FFFFFF" enable-background="new    " width="8.8" height="1.9"/>
					<rect x="-459.8" y="231.3" fill="#D3EAFA" width="8.8" height="7.4"/>
					<rect x="-459.8" y="231.3" opacity="0.9" fill="#FFFFFF" enable-background="new    " width="8.8" height="7.4"/>
					<rect x="-459.8" y="240.5" fill="#D3EAFA" width="8.8" height="2"/>
					<rect x="-459.8" y="240.5" opacity="0.9" fill="#FFFFFF" enable-background="new    " width="8.8" height="2"/>
					<rect x="-459.8" y="244.2" fill="#D3EAFA" width="8.8" height="4.5"/>
					<rect x="-459.8" y="244.2" opacity="0.9" fill="#FFFFFF" enable-background="new    " width="8.8" height="4.5"/>
				</g>
				<g id="partie_blabla_1_">
					<polygon fill="#F4ADB7" points="-417.7,201.8 -417.7,186.8 -457.2,186.8 -465.1,194.7 -465.1,209.9 -425.7,209.9 					"/>
					<g>
						<rect x="-453.2" y="190" opacity="0.75" fill="#FFFFFF" enable-background="new    " width="30.2" height="1.9"/>
						<rect x="-461.5" y="196.8" opacity="0.75" fill="#FFFFFF" enable-background="new    " width="13.4" height="1.9"/>
						<rect x="-443.4" y="196.8" opacity="0.75" fill="#FFFFFF" enable-background="new    " width="20.4" height="1.9"/>
						<rect x="-461.5" y="200.7" opacity="0.75" fill="#FFFFFF" enable-background="new    " width="28.6" height="1.9"/>
						<rect x="-461.5" y="204.7" opacity="0.75" fill="#FFFFFF" enable-background="new    " width="12.8" height="1.9"/>
						<rect x="-446.5" y="204.7" opacity="0.75" fill="#FFFFFF" enable-background="new    " width="7.4" height="1.9"/>
						<rect x="-437.6" y="204.7" opacity="0.75" fill="#FFFFFF" enable-background="new    " width="8.8" height="1.9"/>
					</g>
				</g>
				<g id="partie_courbe_1_">
					<rect x="-441.4" y="215.8" fill="#EFD1E6" width="59.6" height="35.9"/>
					<g id="courbe_1_">
						<g>
							<path fill="#FFFFFF" d="M-434.1,245.1c-0.1,0-0.3,0-0.3-0.1c-0.1-0.1-0.1-0.4,0-0.5l11.2-11.9c0.1-0.1,0.4-0.1,0.5,0l11,8.9
								l3.5-4.3c0.1-0.1,0.1-0.1,0.3-0.1c0.1,0,0.3,0,0.3,0.1l3.8,3.4l15.4-15.7c0.1-0.1,0.4-0.1,0.5,0c0.1,0.1,0.1,0.4,0,0.5
								l-15.7,15.9c-0.1,0.1-0.4,0.1-0.5,0l-3.8-3.4l-3.5,4.3c-0.1,0.1-0.4,0.3-0.5,0l-11-8.9l-10.9,11.7
								C-433.9,245.1-434,245.1-434.1,245.1z"/>
						</g>
						<g>
							<circle fill="#EFD1E6" cx="-434.1" cy="244.7" r="1.1"/>
							<path fill="#FFFFFF" d="M-434.1,246.2c-0.9,0-1.5-0.8-1.5-1.5c0-0.8,0.8-1.5,1.5-1.5c0.8,0,1.5,0.8,1.5,1.5
								C-432.6,245.5-433.2,246.2-434.1,246.2z M-434.1,244c-0.4,0-0.8,0.4-0.8,0.8c0,0.4,0.4,0.8,0.8,0.8s0.8-0.4,0.8-0.8
								C-433.4,244.4-433.7,244-434.1,244z"/>
						</g>
						<g>
							<circle fill="#EFD1E6" cx="-411.7" cy="241.7" r="1.1"/>
							<path fill="#FFFFFF" d="M-411.7,243.2c-0.9,0-1.5-0.8-1.5-1.5c0-0.9,0.8-1.5,1.5-1.5c0.9,0,1.5,0.8,1.5,1.5
								C-410,242.5-410.8,243.2-411.7,243.2z M-411.7,241c-0.4,0-0.8,0.4-0.8,0.8s0.4,0.8,0.8,0.8c0.4,0,0.8-0.4,0.8-0.8
								C-410.8,241.2-411.2,241-411.7,241z"/>
						</g>
						<g>
							<circle fill="#EFD1E6" cx="-423" cy="232.8" r="1.1"/>
							<path fill="#FFFFFF" d="M-423,234.5c-0.9,0-1.5-0.8-1.5-1.5c0-0.9,0.8-1.5,1.5-1.5c0.8,0,1.5,0.8,1.5,1.5
								C-421.5,233.7-422.1,234.5-423,234.5z M-423,232.1c-0.4,0-0.8,0.4-0.8,0.8s0.4,0.8,0.8,0.8c0.4,0,0.8-0.4,0.8-0.8
								C-422.2,232.4-422.6,232.1-423,232.1z"/>
						</g>
						<g>
							<circle fill="#EFD1E6" cx="-403.8" cy="240.8" r="1.1"/>
							<path fill="#FFFFFF" d="M-403.8,242.5c-0.9,0-1.5-0.8-1.5-1.5c0-0.8,0.8-1.5,1.5-1.5c0.9,0,1.5,0.8,1.5,1.5
								C-402.3,241.7-402.9,242.5-403.8,242.5z M-403.8,240.1c-0.4,0-0.8,0.4-0.8,0.8c0,0.4,0.4,0.8,0.8,0.8s0.8-0.4,0.8-0.8
								C-403,240.5-403.4,240.1-403.8,240.1z"/>
						</g>
						<g>
							<circle fill="#EFD1E6" cx="-407.8" cy="237.6" r="1.1"/>
							<path fill="#FFFFFF" d="M-407.8,239.1c-0.9,0-1.5-0.8-1.5-1.5s0.8-1.5,1.5-1.5c0.9,0,1.5,0.8,1.5,1.5
								S-406.9,239.1-407.8,239.1z M-407.8,236.7c-0.4,0-0.8,0.4-0.8,0.8c0,0.4,0.4,0.8,0.8,0.8s0.8-0.4,0.8-0.8
								C-407,237.1-407.4,236.7-407.8,236.7z"/>
						</g>
						<g>
							<circle fill="#EFD1E6" cx="-388.1" cy="225.2" r="1.1"/>
							<path fill="#FFFFFF" d="M-388.1,226.7c-0.9,0-1.5-0.8-1.5-1.5c0-0.9,0.8-1.5,1.5-1.5c0.9,0,1.5,0.8,1.5,1.5
								C-386.6,226-387.2,226.7-388.1,226.7z M-388.1,224.4c-0.4,0-0.8,0.4-0.8,0.8s0.4,0.8,0.8,0.8s0.8-0.4,0.8-0.8
								S-387.7,224.4-388.1,224.4z"/>
						</g>
					</g>
				</g>
				<g>
					<polygon fill="#FFFFFF" points="-396.6,152.2 -377,152.2 -396.6,132.7 					"/>
					<path fill="#202019" d="M-374.7,152.4l-7.2-7.2l-10-10l-4.9-4.9c-0.3-0.3-0.5-0.3-0.9-0.1c-0.3,0.1-0.5,0.4-0.5,0.8v4.4v17.8
						c0,0.4,0.4,0.8,0.8,0.8h15.6h6.6c0.4,0,0.6-0.3,0.8-0.5C-374.4,153-374.4,152.7-374.7,152.4z M-396.6,152.2v-19.4l19.4,19.4
						H-396.6z"/>
				</g>
			</g>
			<g id="Loupe_1_">
				<g id="oeil_1_" opacity="0.7">
					<path fill="#FAFAFA" d="M-380.3,213.9c-10-10-26.2-10-36.1,0c-10,10-10,26.2,0,36.1c10,10,26.2,10,36.1,0
						C-370.4,240-370.3,223.9-380.3,213.9z"/>
					<g>
						<circle fill="#95D4EE" cx="-398.4" cy="232.1" r="20.6"/>
					</g>
					<g>
						<circle fill="#202019" cx="-398.4" cy="232.1" r="10.5"/>
					</g>
					<g opacity="0.5">
						<circle fill="#FFFFFF" cx="-389.8" cy="230.3" r="6.8"/>
					</g>
				</g>
				<g id="manche_1_">
					<path fill="none" d="M-380.3,213.9c-10-10-26.2-10-36.1,0c-9.9,10-10,26.2,0,36.1c10,10,26.2,10,36.1,0
						C-370.3,240.1-370.3,223.9-380.3,213.9z"/>
					
						<rect x="-380.4" y="251.6" transform="matrix(-0.7071 -0.7071 0.7071 -0.7071 -821.6749 168.2054)" fill="none" width="8.8" height="5.4"/>
					
						<rect x="-376" y="263.8" transform="matrix(0.7071 0.7071 -0.7071 0.7071 83.7727 334.549)" fill="#BBB7A9" width="28.1" height="9.3"/>
					<g>
						
							<rect x="-376" y="263.8" transform="matrix(0.7071 0.7071 -0.7071 0.7071 83.7727 334.549)" fill="none" width="28.1" height="9.3"/>
						<path fill="none" d="M-380.3,213.9c-10-10-26.2-10-36.1,0c-9.9,10-10,26.2,0,36.1c10,10,26.2,10,36.1,0
							C-370.3,240.1-370.3,223.9-380.3,213.9z"/>
						
							<rect x="-380.4" y="251.6" transform="matrix(-0.7071 -0.7071 0.7071 -0.7071 -821.6749 168.2054)" fill="#FFFFFF" width="8.8" height="5.4"/>
						<path fill="#202019" d="M-347.1,274.5l-20.8-20.8l-0.1-0.1c-0.3-0.3-0.8-0.3-1.1,0l-0.4,0.4l-0.5,0.5l-6.4-6.4
							c0.3-0.4,0.5-0.6,0.8-1c6.9-10.5,5.8-24.8-3.5-34.1c-10.5-10.5-27.8-10.5-38.4,0c-10.5,10.5-10.5,27.8,0,38.4
							c8.9,8.9,22.5,10.3,32.7,4.3c0.8-0.5,1.5-1,2.3-1.5l6.4,6.4l-0.9,0.9c-0.3,0.3-0.3,0.6-0.1,0.9c0,0,0,0.1,0.1,0.1
							c0,0,0,0.1,0.1,0.1l20.9,20.9c0.3,0.3,0.8,0.3,1.1,0l7.7-7.7C-346.8,275.3-346.8,274.8-347.1,274.5z M-416.4,250.1
							c-10-10-10-26.2,0-36.1c10-9.9,26.2-10,36.1,0c10,10,10,26.2,0,36.1C-390.2,260-406.5,260-416.4,250.1z M-381.1,253.1l3.9-3.9
							l6.1,6.1l-3.9,3.9L-381.1,253.1z M-355.3,281.6l-19.8-19.8l6.6-6.6l19.8,19.8L-355.3,281.6z"/>
					</g>
				</g>
			</g>
		</g>
	</g>
</g>
<g id="Calque_7_1_">
	<g id="Calque_7">
		<g id="bouqin">
			<path fill="#F9F9F9" d="M-565.8,242.2c0,0-3.4-0.1-5.6,2c-1.4,1.3-2,3.3-2,5.6c0,2.5,0.8,4.4,2.1,5.6c2.3,2.1,5.5,2,5.6,2l0,0
				h62.1v-15.4L-565.8,242.2L-565.8,242.2z"/>
			<path fill="#202019" d="M-499.8,257.5h-3.8h-62.1l0,0c0,0-3.4,0.1-5.6-2c-1.4-1.3-2.1-3.3-2.1-5.6c0-2.5,0.8-4.4,2-5.6
				c2.3-2.1,5.5-2,5.6-2l0,0h62.1h3.8c0.4,0,0.8-0.4,0.8-0.8c0-0.4-0.4-0.8-0.8-0.8h-3.8h-62.1c-0.4,0-4-0.1-6.6,2.4
				c-1.8,1.6-2.5,3.9-2.5,6.8c0,2.9,0.9,5.1,2.5,6.8c0.9,0.8,1.8,1.4,2.8,1.8c1.6,0.6,3.3,0.8,3.8,0.8c0.1,0,0.1,0,0.3,0h65.9
				c0.4,0,0.8-0.4,0.8-0.8C-499.1,257.9-499.5,257.5-499.8,257.5z"/>
			<polygon fill="#C2D780" points="-524.4,242.2 -524.4,257.3 -520.8,254.4 -517.3,257.3 -517.3,242.2 			"/>
		</g>
	</g>
</g>
<g id="Calque_8_1_">
	<g id="Calque_8">
		<g id="cactus">
			<g>
				<g>
					<path fill="#AACE81" d="M103.8,170.7c-0.8,0-1.5,0-2.3,0.1c0.5,0.3,0.8,0.8,0.8,1.4l0,0c0,0.9-0.8,1.5-1.6,1.5h-0.1l-0.1,6h0.1
						c0.9,0,1.5,0.8,1.5,1.6l0,0c0,0.9-0.8,1.5-1.6,1.5h-0.1l-0.1,6h0.1c0.9,0,1.5,0.8,1.5,1.6l0,0c0,0.9-0.8,1.5-1.6,1.5H100
						l-0.1,6h0.1c0.9,0,1.5,0.8,1.5,1.6l0,0c0,0.9-0.8,1.5-1.6,1.5h-0.1l-0.1,6h0.1c0.9,0,1.5,0.8,1.5,1.6l0,0
						c0,0.8-0.6,1.5-1.5,1.5c0.3,0.1,0.4,0.4,0.4,0.6H123l0.6-20.3c0.1-5.3-1.8-10.3-5.5-14.2c-3.6-3.8-8.7-5.9-13.9-5.9h-0.4V170.7
						z"/>
					<polygon fill="#CED5D6" points="80.1,257.5 109.7,257.5 124.3,223.7 65.4,223.7 					"/>
					<path fill="#AACE81" d="M67.6,203.1c0.1,0,0.4,0,0.5,0c0.3,0,0.5,0,0.8,0c1.5-5.1,6.3-8.7,11.5-8.7c6.5,0,11.8,5.1,12,11.5
						c2.3,0.8,3.8,2.8,4,5.1h1.3l1.3-40c0.3-4.5-1.3-8.7-4.4-11.9c-3-3.3-7.2-5-11.7-5h-0.3c-4.4,0-8.5,1.8-11.7,5
						c-3,3.3-4.6,7.5-4.4,11.9L67.6,203.1z"/>
					<path fill="#8E775B" d="M95,211.1c-0.3-1.9-1.6-3.4-3.4-3.8l-0.6-0.1v-0.8c0-5.8-4.6-10.4-10.4-10.4c-4.9,0-9.2,3.4-10.2,8.2
						l-0.3,0.6l-0.8-0.1c-0.4-0.1-0.8-0.1-1.3-0.1c-3,0-5.5,2.5-5.5,5.5c0,0.4,0,0.8,0.1,1C62.7,211.1,95,211.1,95,211.1z"/>
					<polygon fill="#FAFAFA" points="60,212.7 60,222 64.2,222 125.5,222 129.7,222 129.7,212.7 					"/>
					<path fill="#202019" d="M130.5,211.1H126c-0.3-0.5-0.8-0.9-1.4-0.9h-0.1l0.3-6h0.1c0.9,0,1.5-0.6,1.6-1.5l0,0
						c0-0.9-0.6-1.5-1.5-1.6h-0.1l0.3-6h0.1c0.9,0,1.5-0.6,1.6-1.5l0,0c0-0.9-0.6-1.5-1.5-1.6h-0.1v-1c0-1.8-0.1-3.5-0.5-5.1
						c0.8-0.1,1.4-0.9,1.3-1.8l0,0c-0.1-0.9-0.9-1.4-1.8-1.4h-0.4c-0.8-2-1.9-4-3.3-5.6c0.6-0.6,0.6-1.5,0-2.1l0,0
						c-0.6-0.6-1.5-0.6-2.1-0.1c-1.6-1.5-3.4-2.6-5.3-3.5c0.3-0.8,0-1.6-0.8-2l0,0c-0.8-0.4-1.6-0.1-2.1,0.6l-0.1,0.3
						c-1.9-0.6-4-0.9-6-0.9h-0.4l0,0v-0.1c-0.1-0.9-0.9-1.4-1.8-1.3l0,0c-0.8,0.1-1.4,0.9-1.3,1.6l0,0c-0.1-1.8-0.4-3.5-1-5.1
						c0.8-0.4,1-1.3,0.8-2l0,0c-0.4-0.8-1.3-1.1-2-0.8c-0.6-1.1-1.5-2.3-2.5-3.4c-0.5-0.6-1.1-1.1-1.8-1.6l0.1-0.1
						c0.4-0.8,0.1-1.6-0.6-2.1l0,0c-0.8-0.4-1.6-0.1-2,0.5c-1.9-1-3.9-1.6-6-2c0.1-0.8-0.5-1.5-1.3-1.6l0,0
						c-0.9-0.1-1.6,0.4-1.8,1.3v0.3c-2.3,0-4.4,0.5-6.4,1.4c-0.4-0.8-1.4-1-2-0.6l0,0c-0.8,0.4-1,1.3-0.6,2
						c-1.1,0.8-2.3,1.6-3.3,2.6c-0.5,0.6-1,1.3-1.5,1.9l-0.6,0c-0.8-0.4-1.6,0-2,0.8l0,0c-0.4,0.8,0,1.6,0.6,2
						c-0.9,1.9-1.5,4-1.6,6.1c-0.8,0-1.5,0.5-1.6,1.4l0,0c-0.1,0.9,0.5,1.6,1.4,1.8h0.3l0.3,6.1h-0.1c-0.9,0-1.5,0.8-1.5,1.6l0,0
						c0,0.9,0.8,1.5,1.6,1.5h0.1l0.1,6h-0.1c-0.9,0-1.5,0.8-1.5,1.6l0,0c0,0.9,0.8,1.5,1.6,1.5h0.1l0.1,6h-0.1
						c-0.9,0-1.5,0.8-1.5,1.6l0,0c0,0.9,0.8,1.5,1.6,1.5h0.1l0.1,3.8c-2.9,0.9-5,3.6-5,6.8c0,0.4,0,0.8,0.1,1h-2
						c-0.4,0-0.8,0.4-0.8,0.8v10.9c0,0.4,0.4,0.8,0.8,0.8h4.5l14.9,35.1c0.1,0.3,0.4,0.5,0.8,0.5h30.6c0.3,0,0.6-0.1,0.8-0.5
						l15.2-35h4.5c0.4,0,0.8-0.4,0.8-0.8V212C131.2,211.5,131,211.1,130.5,211.1z M124.3,223.7l-14.7,33.9H80.1l-14.7-33.9H124.3z
						 M129.7,222h-4.3H64.2H60v-9.4h69.7V222z M62.7,210.1c0-3,2.5-5.5,5.5-5.5c0.4,0,0.8,0,1.3,0.1l0.8,0.1l0.1-0.8
						c1-4.8,5.4-8.2,10.2-8.2c5.8,0,10.4,4.6,10.4,10.4v0.8l0.6,0.1c1.9,0.5,3.1,2,3.4,3.8H62.9C62.7,210.7,62.7,210.5,62.7,210.1z
						 M66.8,171.1c-0.3-4.4,1.3-8.7,4.4-11.9c3-3.3,7.2-5,11.7-5h0.4c4.4,0,8.5,1.8,11.7,5c3,3.3,4.6,7.5,4.4,11.9l-1.3,40h-1.3
						c-0.3-2.4-1.8-4.4-4-5.1c-0.3-6.4-5.5-11.5-12-11.5c-5.4,0-10,3.6-11.5,8.7c-0.3,0-0.5,0-0.8,0c-0.1,0-0.4,0-0.5,0L66.8,171.1z
						 M118.2,176.6c3.6,3.8,5.6,8.8,5.5,14.2l-0.6,20.3h-23c-0.1-0.3-0.3-0.5-0.4-0.6c0.8,0,1.4-0.6,1.5-1.5l0,0
						c0-0.9-0.6-1.5-1.5-1.6h-0.1l0.1-6h0.1c0.9,0,1.5-0.6,1.6-1.5l0,0c0-0.9-0.6-1.5-1.5-1.6h-0.1l0.1-6h0.1c0.9,0,1.5-0.6,1.6-1.5
						l0,0c0-0.9-0.6-1.5-1.5-1.6h-0.1l0.1-6h0.1c0.9,0,1.5-0.6,1.6-1.5l0,0c0-0.9-0.6-1.5-1.5-1.6h-0.1l0.1-6h0.1
						c0.9,0,1.5-0.6,1.6-1.5l0,0c0-0.6-0.3-1.1-0.8-1.4c0.8-0.1,1.5-0.1,2.3-0.1h0.4C109.5,170.7,114.4,172.9,118.2,176.6z"/>
				</g>
				<g>
					<circle fill="#EB6092" cx="111.5" cy="170.7" r="3.6"/>
					<path fill="#0E0E0E" d="M111.5,165.6c-2.9,0-5.1,2.3-5.1,5.1c0,2.9,2.3,5.1,5.1,5.1c2.9,0,5.1-2.3,5.1-5.1
						C116.8,167.8,114.4,165.6,111.5,165.6z M108,170.7c0-2,1.6-3.6,3.6-3.6c2,0,3.6,1.6,3.6,3.6s-1.6,3.6-3.6,3.6
						C109.7,174.4,108,172.7,108,170.7z"/>
				</g>
			</g>
			<g>
				<circle fill="#202019" cx="78.4" cy="162.7" r="1.5"/>
				<circle fill="#202019" cx="84.4" cy="178.5" r="1.5"/>
				<circle fill="#202019" cx="111" cy="189.4" r="1.5"/>
				<circle fill="#202019" cx="107.1" cy="179.3" r="1.5"/>
				<circle fill="#202019" cx="119.1" cy="195.4" r="1.5"/>
				<circle fill="#202019" cx="115.9" cy="206.4" r="1.5"/>
				<circle fill="#202019" cx="108" cy="200.5" r="1.5"/>
				<circle fill="#202019" cx="92.1" cy="169.2" r="1.5"/>
				<circle fill="#202019" cx="73.8" cy="173.6" r="1.5"/>
				<circle fill="#202019" cx="75.3" cy="183.9" r="1.5"/>
				<circle fill="#202019" cx="89.8" cy="191.8" r="1.5"/>
				<circle fill="#202019" cx="76.5" cy="194.6" r="1.5"/>
			</g>
		</g>
	</g>
</g>
</svg>
