<svg xmlns:svg="http://www.w3.org/2000/svg" xmlns="http://www.w3.org/2000/svg" version="1.1" x="0" y="0" viewBox="0 0 187.65 177.73" enable-background="new 0 0 592.1 362" xml:space="preserve" id="svg2" width="100" height="100"><metadata id="metadata50"/><defs id="defs48"/><g id="Calque_2" transform="translate(-202.29131,0.05350574)"/><g id="Calque_1" transform="translate(-202.29131,0.05350574)"><path d="m344.9 10.4c-23.5 7.7-54.4 18.3-54.4 18.3l-0.9 8c0 0 16.4-5.5 32.8-11.1 14.2-4.9 28-9.5 33.7-9.2 3.6 0.2-0.3 17-4.1 44.3l-51.7 15.3-9 18.5 58.2-15.9c-6.9 52.5-6.6 51.4-10.5 58.6-3.4 6.3-16.5 7.9-39.7 13.3l-1.2 11.4c0 0 21.9-4.6 42-9.5 22.5-5.5 27.7-9 31.4-12.9 13.3-13.7 12.8-39.1 15.8-80.4 1.9-25.6 4.3-49.4 1-56.1-3.4-6.9-17.8-1.1-43.4 7.4z" id="path18" fill="#d0d0dd"/><path d="m290.5 28.7-0.9 8c-17.4 5.5-26.7 8.7-28.4 11.8-0.7 1.3-2.3 6.8-5.2 17.2-1.8 6.4-4.6 14.4-6.5 25.3l50.8-14.9-8.9 18.5-47.4 14c0 0-3.5 12.3-6.8 24.2-3.7 13.5-7.8 26.9-4.4 29.5 2 1.5 16.8-1.3 31.2-4.2 17.7-3.6 35.4-7.5 35.4-7.5l-1.2 11.4c0 0-18 3.6-39.3 8.3-24.2 5.3-51.2 10.4-55.2 5.2-5.1-6.7 4.7-33.7 12.6-59.1 10-32.3 14-54.8 27.9-68.5 6.5-6.6 46.3-19.2 46.3-19.2" id="path20" fill="#9897a1"/></g></svg>