<?xml version="1.0" encoding="utf-8"?>
<!-- Generator: Adobe Illustrator 17.1.0, SVG Export Plug-In . SVG Version: 6.00 Build 0)  -->
<!DOCTYPE svg PUBLIC "-//W3C//DTD SVG 1.1//EN" "http://www.w3.org/Graphics/SVG/1.1/DTD/svg11.dtd">
<svg version="1.1" id="Calque_1" xmlns="http://www.w3.org/2000/svg" xmlns:xlink="http://www.w3.org/1999/xlink" x="0px" y="0px"
	 viewBox="585.4 260.9 590.4 570.6" enable-background="new 585.4 260.9 590.4 570.6" xml:space="preserve">
<g>
	<path id="sheet-outline" fill="#3A3A3A" d="M637.4,625h17.3V278.2h329.4v365.3c0,8.9-7.3,16.1-16.1,16.1H618.9
		c-8.9,0-16.1-7.3-16.1-16.1V330.2h17.3v-17.3h-34.7v330.6c0,18.4,15,33.5,33.5,33.5h349.3c18.4,0,33.5-15,33.5-33.5V260.9H637.5
		V625H637.4z"/>
	<rect id="blue-fill" x="689.4" y="399.6" fill="#3366CC" width="260.1" height="17.3"/>
	<rect id="pink-fill" x="689.4" y="486.3" fill="#FF3366" width="208.1" height="17.3"/>
	<g id="green-fill_1_">
		<rect x="689.4" y="312.9" fill="#66CC66" width="138.7" height="17.3"/>
		<rect id="green-fill" x="689.4" y="573" fill="#66CC66" width="260.1" height="17.3"/>
	</g>
</g>
<g id="search">
	<path id="search-outline" fill="#11162D" d="M1175.8,808.2l-80.5-80.6l-32.8-32.8c20.8-26,33.3-59.1,33.3-95.1
		c0-84.1-68.1-152.2-152-152.2c-84,0-152,68.2-152,152.2s68.1,152.2,152,152.2c36.2,0,69.4-12.7,95.5-33.8l32,32l81.2,81.4
		L1175.8,808.2z M943.8,735.9c-36.3,0.1-70.5-14.1-96.2-39.8s-39.8-59.9-39.8-96.3s14.2-70.6,39.8-96.3c25.6-25.7,59.9-40,96.2-40
		s70.5,14.2,96.2,39.9c25.7,25.7,39.8,59.9,39.8,96.3c0,36.4-14.2,70.6-39.8,96.3C1014.3,721.7,980.1,735.9,943.8,735.9z"/>
	<path id="search-glass" opacity="0.2" fill="#939393" d="M1040,503.4c-25.7-25.7-59.9-39.9-96.2-39.9s-70.6,14.3-96.2,40
		c-25.6,25.7-39.8,59.9-39.8,96.3s14.1,70.6,39.8,96.3s59.9,39.9,96.2,39.8c36.3,0,70.5-14.2,96.2-39.9
		c25.6-25.7,39.8-59.9,39.8-96.3C1079.8,563.3,1065.7,529.1,1040,503.4z"/>
</g>
</svg>
