<?xml version="1.0" encoding="utf-8"?>
<!-- Generator: Adobe Illustrator 17.1.0, SVG Export Plug-In . SVG Version: 6.00 Build 0)  -->
<!DOCTYPE svg PUBLIC "-//W3C//DTD SVG 1.1//EN" "http://www.w3.org/Graphics/SVG/1.1/DTD/svg11.dtd">
<svg version="1.1" id="Calque_1" xmlns="http://www.w3.org/2000/svg" xmlns:xlink="http://www.w3.org/1999/xlink" x="0px" y="0px"
	 viewBox="106.2 184.3 978.6 473.8" enable-background="new 106.2 184.3 978.6 473.8" xml:space="preserve">
<polygon id="arrow" fill="#B8DFE0" points="570.1,386.1 559,397.2 609.7,447.8 558.7,498.7 570.1,510 632,448.1 "/>
<g id="sheets">
	<g id="sheet_1_">
		<polygon fill="#3B3A3A" points="349.8,223.8 330,223.8 330,322.5 428.7,322.5 428.7,302.7 349.8,302.7 		"/>
		<path fill="#3B3A3A" d="M376,184.3H172v59.2h-59.2v414.6H409v-59.2h59.2V276.8L376,184.3z M389.3,638.4H132.6V263.3h39.5V599
			h217.2V638.4z M448.5,579.2H191.8V204h176.1l80.6,81L448.5,579.2L448.5,579.2z"/>
	</g>
	<g id="pie_1_">
		<path fill="#71BA67" d="M330.2,364.3c14.2,1.2,27.4,7.2,37.6,17.4c11.4,11.4,17.6,26.5,17.6,42.5c0,8.1-1.6,16-4.7,23.4
			c-3,7.2-7.4,13.6-12.9,19.1c-5.5,5.5-12,9.9-19.1,12.9c-7.4,3.1-15.3,4.7-23.4,4.7c-12.9,0-25.2-4-35.6-11.6
			c-5-3.7-9.4-8.1-13.1-13.1c-2.6-3.6-4.8-7.4-6.6-11.5l56.5-14.1l3.8-0.9v-3.9L330.2,364.3 M325.2,359.1v70.2l-62,15.5
			c8.6,26,33.1,44.7,62,44.7c36,0,65.2-29.2,65.2-65.2S361.2,359.1,325.2,359.1L325.2,359.1z"/>
		<path fill="#71BA67" d="M315.1,354.1v67.4l-56.5,14.3c-2.9-7.4-3.5-17.9-3.5-21.8l0,0l0,0c0-14.8,5.2-29.4,14.2-39.9
			c5.2-6.2,11.8-11,19.3-14.3C296.3,356.3,305.3,354.4,315.1,354.1 M320.1,349h-1.7c-50.2,0-68.5,36.4-68.5,65
			c0,0,0.1,17.8,5.9,27.7l64.3-16.3L320.1,349L320.1,349z"/>
	</g>
	<g id="text_1_">
		<polygon fill="#3D64AD" points="410.4,522.2 410.4,515.1 229.9,515.1 229.9,529.3 410.4,529.3 		"/>
		<polygon fill="#E83B68" points="410.4,544.9 410.4,537.8 229.9,537.8 229.9,552 410.4,552 		"/>
	</g>
</g>
<g id="box">
	<path fill="#D9A2C9" d="M945.8,413.6c9.5,0,17.4,7.8,17.4,17.3s-7.6,17.3-17.2,17.3h-69.4c-9.5,0-17.3-7.8-17.3-17.3
		s7.8-17.3,17.3-17.3H945 M946.1,396.2h-69.4c-19.1,0-34.7,15.6-34.7,34.7c0,19.1,15.6,34.7,34.7,34.7h69.4
		c19.1,0,34.7-15.6,34.7-34.7C980.7,411.8,965.1,396.2,946.1,396.2L946.1,396.2z"/>
	<g>
		<path fill="#3B3A3A" d="M1084.8,274.9H738v86.7h17.3V587h312.1V361.6h17.3L1084.8,274.9L1084.8,274.9z M1050.1,569.6H772.6v-208
			H1050L1050.1,569.6L1050.1,569.6z M1067.4,344.2H755.3v-52h312.1V344.2z"/>
	</g>
</g>
<g id="gear">
	<g id="background">
		<path fill="#FFFFFF" d="M189.3,457.4c5.3,14.8,13.8,28.4,25.3,39.9c20.3,20.3,47.4,31.5,76.1,31.5c26,0,50.5-9.1,70-25.9l-72-72
			L189.3,457.4z"/>
		<path fill="#FFFFFF" d="M312,315.5c-6.9-1.4-14-2.1-21.2-2.1c-28.8,0-55.8,11.2-76.1,31.5s-31.5,47.4-31.5,76.1
			c0,7.2,0.7,14.2,2.1,21.1l100.1-26.8L312,315.5z"/>
		<path fill="#FFFFFF" d="M423.2,379.1l25.2-18.9l-2.7-6.4l-31.2,4.4l-17.7-26l16-26.9l-4.9-4.9L380.8,316l-26.1-17.4l4.8-31.8
			l-6.3-2.7l-19.3,25.8l-30.5-6.1l-8-31.7h-6.9L280,284l-30.3,5.9l-19.5-26.3l-6.4,2.7l4.3,32.5l-26.8,17.5l-8.8-5.3l-19.8-11.8
			l-4.8,4.8l17.3,28.8L168,358.5l-32.4-4.6l-2.6,6.3l26.2,19.7l-6.1,30.4l-31.7,8.1v6.9l31.7,8.2l6,30.6l-25.9,19.4l2.6,6.3
			l31.9-4.5l17.4,26.5l-16.3,28l4.9,4.9l27.7-16.8l26.4,17.6l-4.2,31.2l6.4,2.7l18.7-25.4l31.3,6.2l8.1,30.1h6.9l7.5-30l31.6-6.2
			l18.8,24.6l6.4-2.7l-4.6-30.6l25.6-17.5l26.2,15.3l5-5l-15.1-26.1l18.2-26.7l30.7,4.3l2.7-6.4l-25-19l6.2-31.4l30.2-7.8v-6.9
			l-30.1-7.8L423.2,379.1z M290.8,544.2c-68,0-123-55.1-123-123c0-68,55.1-123,123-123s123,55.1,123,123S358.7,544.2,290.8,544.2z"
			/>
		<path fill="#FFFFFF" d="M326.6,319.5l-27,100.5l72,72.1c17.3-19.7,26.8-44.6,26.8-71c0-28.8-11.2-55.8-31.5-76.1
			C355.3,333.4,341.6,324.8,326.6,319.5z"/>
	</g>
	<g id="gear-outline">
		<path fill="#14182D" d="M440.6,385.5l26.5-20.1l-11.7-28.5l-33.1,4.6l-7.2-10.2l17-28.6L410.4,281l-29,16.7l-10.3-7l5.1-33.7
			l-28.3-11.8l-20.8,27.2l-11.8-2.5l-8.4-33.4h-30.8l-8.8,33.6l-11.6,2.3L235,244.6l-28.4,11.8l4.6,34.3l-11.2,6.9l-30.1-18
			l-21.7,21.7l18.1,30.3l-6.4,10.1l-34.1-4.8l-11.7,28.5l27.8,20.9l-2.3,11.7l-33.4,8.6v30.8l33.3,8.6l2.3,12l-27.3,20.5l11.8,28.4
			l33.6-4.8l6.8,10.9l-17.2,29.4l21.7,21.7l29-17.5l10.8,7l-4.3,33l28.4,11.7l19.8-26.7l12.9,2.4l8.5,31.8h30.8l8-31.8l13.1-2.5
			l19.9,26.1l28.4-11.7l-4.8-32.4l9.8-7.1l27.9,16.2l21.7-21.7L414.7,513l7.6-11l32.5,4.6l11.8-28.4l-26.1-19.7l2.6-13l32-8.3v-30.8
			l-32-8.4L440.6,385.5z M459.3,425.2l-30.2,7.8l-6.2,31.4l25,19l-2.7,6.4l-30.7-4.3l-18.2,26.7l15.1,26.1l-5,5L380.2,528
			l-25.6,17.5l4.6,30.6l-6.4,2.7L334,554.2l-31.6,6.2l-7.5,30H288l-8.1-30.1l-31.3-6.2l-18.7,25.4l-6.4-2.7l4.2-31.2L201.2,528
			l-27.7,16.8l-4.9-4.9l16.3-28l-17.4-26.5l-31.9,4.5l-2.6-6.3l25.9-19.4l-6-30.6l-31.7-8.2v-6.9l31.7-8.1L159,380l-26.2-19.7
			l2.6-6.3l32.4,4.6l17.1-25.8L167.6,304l4.8-4.8l19.8,11.8l8.8,5.3l26.8-17.5l-4.3-32.5l6.4-2.7l19.5,26.3l30.3-5.9l8.5-31.9h6.9
			l8,31.7l30.5,6.1l19.3-25.8l6.3,2.7l-4.8,31.8l26.1,17.4l27.2-15.6l4.9,4.9l-16,26.9l17.7,26l31.2-4.4l2.7,6.4l-25.2,19l6.2,31.2
			l30.1,7.8L459.3,425.2L459.3,425.2z"/>
		<path fill="#14182D" d="M290.5,298.2c-68,0-123,55.1-123,123c0,68,55.1,123,123,123s123-55.1,123-123
			C413.6,353.3,358.5,298.2,290.5,298.2z M182.9,421.2c0-28.8,11.2-55.8,31.5-76.1c20.3-20.3,47.4-31.5,76.1-31.5
			c7.2,0,14.3,0.7,21.2,2.1L285,415.5l-100.1,26.8C183.6,435.5,182.9,428.4,182.9,421.2z M290.5,528.9c-28.8,0-55.8-11.2-76.1-31.5
			c-11.5-11.5-20-25.1-25.3-39.9l99.4-26.4l72,72C341,519.7,316.5,528.9,290.5,528.9z M371.4,492.3l-72-72.1l27-100.5
			c15,5.3,28.7,13.9,40.3,25.5c20.3,20.3,31.5,47.4,31.5,76.1C398.2,447.6,388.7,472.6,371.4,492.3z"/>
	</g>
</g>
</svg>
