<?xml version="1.0" encoding="utf-8"?>
<!-- Generator: Adobe Illustrator 17.1.0, SVG Export Plug-In . SVG Version: 6.00 Build 0)  -->
<!DOCTYPE svg PUBLIC "-//W3C//DTD SVG 1.1//EN" "http://www.w3.org/Graphics/SVG/1.1/DTD/svg11.dtd">
<svg version="1.1" id="Calque_1" xmlns="http://www.w3.org/2000/svg" xmlns:xlink="http://www.w3.org/1999/xlink" x="0px" y="0px"
	 viewBox="318.4 382.5 1160.6 547.5" enable-background="new 318.4 382.5 1160.6 547.5" xml:space="preserve">
<g>
	<path id="client" fill="#3A3A3A" d="M707.9,849.9c-14-5-34-6.7-46.7-9.5c-7.4-1.6-18.1-5.7-21.6-10c-3.6-4.4-1.4-44.3-1.4-44.3
		s6.6-10.4,10.2-19.5c3.6-9.1,7.4-34,7.4-34s7.4,0,10-12.9c2.8-14.1,7.1-19.9,6.6-30.4c-0.5-9.7-5.6-10.3-6.2-10.3l0,0
		c0,0,5.3-14.7,6-45.9c0.8-36.9-27.4-73.2-80.4-73.2c-53,0-81.1,36.2-80.4,73.1c0.7,31,6,45.9,6,45.9l0,0c-0.5,0-5.6,0.5-6.2,10.3
		c-0.5,10.5,3.9,16.1,6.6,30.2c2.6,12.9,10,13,10,13s3.9,25,7.4,34.1c3.6,9.2,10.2,19.5,10.2,19.5s2.2,39.9-1.4,44.3
		c-3.6,4.4-14.3,8.3-21.6,10c-12.9,2.8-32.8,4.7-46.7,9.6c-14,5-57,21.8-57,56.3h173h173C764.9,871.6,721.9,854.9,707.9,849.9z
		 M591.8,889H443.3c2.2-3.3,5.1-5.5,8.9-8.2c7.6-5.5,17.4-10.6,29.3-14.7c7.4-2.6,18.1-4.4,27.4-5.7c6.2-1,12-1.8,17.2-3
		c3.7-0.8,22.5-5.4,31.1-15.8c4.9-5.9,6.3-13.7,6-34.9c-0.1-10.8-0.7-20.9-0.7-21.3l-0.2-4.5L560,777c-1.6-2.5-6.3-10.3-8.6-16.6
		c-1.9-5.1-5-20.7-6.5-30.4c0,0,0.4,1.1-0.5-4c-1-5.1-9.1-4.7-10.2-8.6c-1-3.9-1.9-7.4-4.7-19.7c-2.7-12.2,3-12.1,4.2-17.5
		c0.7-3.3,0-6.2,0-6.3l0,0c-0.3-1.1-4.4-14.5-5.1-40.8c-0.3-14.3,5-27.7,14.9-37.7c11.5-11.7,28.1-17.8,48.1-17.8
		c20.6,0,36.8,6.2,48.2,17.8c10,10,15.2,23.5,14.9,37.7c-0.5,26.2-4.7,39.6-5.1,40.8l0,0c0,0.1-0.7,1.8-0.4,5.6
		c0.2,5.9,7.4,5.9,4.7,18.2c-2.7,12.2-3.7,15.8-4.7,19.7c-1,3.9-9.2,3.6-10.2,8.6c-1,5.1-0.5,4-0.5,4c-1.5,9.6-4.5,25.3-6.5,30.4
		c-2.5,6.3-7.1,14.1-8.6,16.6l-2.5,3.8l-0.2,4.5c0,0.4-0.5,10.5-0.7,21.3c-0.2,21.2,1.2,29.1,6,34.9c8.6,10.3,27.4,14.9,31.1,15.8
		c5.2,1.2,11,2.1,17.2,3c9.4,1.4,20.1,3.1,27.4,5.7c11.9,4.2,21.8,9.3,29.3,14.8c3.8,2.7,6.7,5,8.9,8.2L591.8,889L591.8,889z"/>
</g>
<path id="student" fill="#3A3A3A" d="M1253.6,849.9c-14-5-34-6.7-46.7-9.5c-7.4-1.6-18.1-5.7-21.6-10c-3.6-4.4-1.4-44.3-1.4-44.3
	s6.6-10.4,10.2-19.5c3.6-9.1,7.4-34,7.4-34s7.4,0,10-12.9c2.8-14.1,7.1-19.9,6.6-30.4c-0.5-9.7-5.6-10.3-6.2-10.3l0,0
	c0,0,5.3-14.7,6-45.9c0.8-36.9-27.4-73.2-80.4-73.2c-53,0-81.1,36.2-80.4,73.1c0.7,31,6,45.9,6,45.9l0,0c-0.5,0-5.6,0.5-6.2,10.3
	c-0.5,10.5,3.9,16.1,6.6,30.2c2.6,12.9,10,13,10,13s3.9,25,7.4,34.1c3.6,9.2,10.2,19.5,10.2,19.5s2.2,39.9-1.4,44.3
	c-3.6,4.4-14.3,8.3-21.6,10c-12.9,2.8-32.8,4.7-46.7,9.6c-14,5-57,21.8-57,56.3h173h173C1310.6,871.6,1267.6,854.9,1253.6,849.9z
	 M1137.5,889H989c2.2-3.3,5.1-5.5,8.9-8.2c7.6-5.5,17.4-10.6,29.3-14.7c7.4-2.6,18.1-4.4,27.4-5.7c6.2-1,12-1.8,17.2-3
	c3.7-0.8,22.5-5.4,31.1-15.8c4.9-5.9,6.3-13.7,6-34.9c-0.1-10.8-0.7-20.9-0.7-21.3l-0.2-4.5l-2.5-3.8c-1.6-2.5-6.3-10.3-8.6-16.6
	c-1.9-5.1-5-20.7-6.5-30.4c0,0,0.4,1.1-0.5-4c-1-5.1-9.1-4.7-10.2-8.6c-1-3.9-1.9-7.4-4.7-19.7c-2.7-12.2,3-12.1,4.2-17.5
	c0.7-3.3,0-6.2,0-6.3l0,0c-0.3-1.1-4.4-14.5-5.1-40.8c-0.3-14.3,5-27.7,14.9-37.7c11.5-11.7,28.1-17.8,48.1-17.8
	c20.6,0,36.8,6.2,48.2,17.8c10,10,15.2,23.5,14.9,37.7c-0.5,26.2-4.7,39.6-5.1,40.8l0,0c0,0.1-0.7,1.8-0.4,5.6
	c0.2,5.9,7.4,5.9,4.7,18.2c-2.7,12.2-3.7,15.8-4.7,19.7c-1,3.9-9.2,3.6-10.2,8.6s-0.5,4-0.5,4c-1.5,9.6-4.5,25.3-6.5,30.4
	c-2.5,6.3-7.1,14.1-8.6,16.6l-2.5,3.8l-0.2,4.5c0,0.4-0.5,10.5-0.7,21.3c-0.2,21.2,1.2,29.1,6,34.9c8.6,10.3,27.4,14.9,31.1,15.8
	c5.2,1.2,11,2.1,17.2,3c9.4,1.4,20.1,3.1,27.4,5.7c11.9,4.2,21.8,9.3,29.3,14.8c3.8,2.7,6.7,5,8.9,8.2L1137.5,889L1137.5,889z"/>
<path id="blue-bubble" fill="#3366CC" d="M860.1,382.5c-39.8,0-77.3,12.5-105.6,35.2c-28.7,23.1-44.6,53.9-44.6,86.8
	c0,22.2,7.4,43.9,21.3,62.8c3.9,5.3,5.9,12.1,5.5,18.9c-0.6,8.9-3.2,23.3-11.9,41.2c-1.4,2.8-0.9,6.1,1.3,8.4
	c1.4,1.5,3.4,2.4,5.5,2.4c1,0,1.9-0.2,2.8-0.6l46.2-18.8c4.2-1.7,8.8-2.6,13.3-2.6c3.7,0,7.2,0.6,10.7,1.7
	c17.7,5.8,36.4,8.7,55.6,8.7c39.8,0,77.3-12.5,105.6-35.2c28.7-23.1,44.6-53.9,44.6-86.8C1010.4,437.2,943,382.5,860.1,382.5z
	 M860.3,611.6c-17.7,0-34.8-2.7-51-7.9c-4.9-1.6-10.1-2.5-15.4-2.5c-6.4,0-13,1.3-18.9,3.7l-29.6,12c4.2-12.4,5.8-22.6,6.3-29.8
	c0.6-10.4-2.3-20.6-8.4-28.8c-12-16.3-18.4-34.9-18.4-53.9c0-59,60.6-107.1,135.2-107.1c74.6,0,135.3,48.1,135.3,107.1
	C995.4,563.6,934.8,611.6,860.3,611.6z"/>
<g id="green-bubble">
	<path fill="#FFFFFF" d="M1003.9,624.1l13.1,5.3c-1.5-5.5-2.1-10.1-2.3-13.6c-0.4-7.2,1.6-14.3,5.8-19.9c7.2-9.7,11-20.8,11-32.1
		c0-35.4-36.7-64.2-81.8-64.2c-45.2,0-81.9,28.8-81.9,64.3c0,35.4,36.7,64.2,81.8,64.2c10.8,0,21.2-1.6,31.1-4.8
		c3.3-1.1,6.8-1.7,10.5-1.7C995.5,621.6,999.8,622.4,1003.9,624.1z"/>
	<path fill="#66CC66" d="M1029.6,614.9c-0.2-3.6,0.8-7.2,2.9-10c9.1-12.3,13.9-26.5,13.9-41c0-43.7-43.4-79.2-96.8-79.2
		c-53.4,0-96.9,35.6-96.9,79.3c0,43.7,43.4,79.2,96.8,79.2c12.3,0,24.4-1.9,35.8-5.6c4.1-1.4,8.9-1.2,13,0.5l28.9,11.8
		c0.9,0.4,1.9,0.6,2.8,0.6c0,0,0.1,0,0.1,0c4.1,0,7.4-3.4,7.4-7.5c0-1.4-0.4-2.6-1-3.7C1031.5,628.5,1030,620.1,1029.6,614.9z
		 M949.5,628.1c-45.1,0-81.8-28.8-81.8-64.2c0-35.4,36.7-64.3,81.9-64.3c45.1,0,81.8,28.8,81.8,64.2c0,11.3-3.8,22.4-11,32.1
		c-4.2,5.6-6.2,12.7-5.8,19.9c0.2,3.5,0.9,8.1,2.3,13.6l-13.1-5.3c-4.1-1.7-8.4-2.5-12.9-2.5c-3.6,0-7.1,0.6-10.5,1.7
		C970.7,626.5,960.3,628.1,949.5,628.1z"/>
</g>
<g id="wand">
	<g id="wand_1_">
		
			<rect id="purple-fill" x="391.5" y="841" transform="matrix(0.7071 0.7071 -0.7071 0.7071 740.1014 -94.3729)" fill="#8896D3" width="185" height="10.5"/>
		<path fill="#11162D" d="M567.7,907.9L427.5,767.6l-26-26l-22.1,22.1l27.1,27.1L545.7,930L567.7,907.9z M422.3,777.1l130.8,130.8
			l-7.4,7.4L414.9,784.5L422.3,777.1z"/>
	</g>
	<g id="wand-pinkfill">
		<rect x="396.3" y="686" fill="#FF3366" width="10.4" height="26"/>
		<rect x="396.3" y="818.5" fill="#FF3366" width="10.4" height="26"/>
		<rect x="458.6" y="758.7" fill="#FF3366" width="26" height="10.4"/>
		<rect x="318.4" y="758.7" fill="#FF3366" width="26" height="10.4"/>
	</g>
	<g id="wand-orange-fill">
		
			<rect x="341.7" y="713.3" transform="matrix(-0.7071 -0.7071 0.7071 -0.7071 97.3968 1477.4063)" fill="#F7CF6D" width="26" height="10.4"/>
		
			<rect x="349.5" y="799.2" transform="matrix(-0.7071 -0.7071 0.7071 -0.7071 31.1832 1637.2693)" fill="#F7CF6D" width="10.4" height="26"/>
		
			<rect x="443.1" y="705.6" transform="matrix(0.7071 0.7071 -0.7071 0.7071 639.3849 -106.5594)" fill="#F7CF6D" width="10.4" height="26"/>
	</g>
</g>
<g id="briefcase">
	<path fill="none" d="M1393.6,734.6c0-6.2-4-10.7-10.2-10.7h-57.6c-6.4,0-8.1,4.7-8.1,10.7v11h75.9V734.6z"/>
	<polygon fill="#FFFFFF" points="1279.7,771.3 1260.7,771.3 1260.7,761.8 1241.7,761.8 1241.7,790.3 1469.5,790.3 1469.5,761.8 
		1450.5,761.8 1450.5,771.3 1431.5,771.3 1431.5,761.8 1279.7,761.8 	"/>
	<rect x="1241.7" y="799.8" fill="#FFFFFF" width="227.8" height="116.4"/>
	<path fill="#685942" d="M1232.2,752.3v173.4H1479V752.3h-28.5v-6.8v-2.7h-19v2.7v6.8h-28.5v-6.8v-11v-1.2c-0.3-10.8-8.1-19-19.1-19
		h-58.8c-11,0-17,8.1-17,19v1.2v11v6.8h-28.5v-6.8v-2.7h-19v2.7v6.8H1232.2z M1469.5,916.2h-227.8V799.8h227.8V916.2z M1317.7,734.6
		c0-6,1.7-10.7,8.1-10.7h57.6c6.2,0,10.2,4.6,10.2,10.7v11v6.5v0.3h-75.9V752v-6.5V734.6z M1431.5,761.8v9.5h19v-9.5h19v28.5h-227.8
		v-28.5h19v9.5h19v-9.5H1431.5z"/>
</g>
</svg>
