<?xml version="1.0" encoding="utf-8"?>
<!-- Generator: Adobe Illustrator 17.1.0, SVG Export Plug-In . SVG Version: 6.00 Build 0)  -->
<!DOCTYPE svg PUBLIC "-//W3C//DTD SVG 1.1//EN" "http://www.w3.org/Graphics/SVG/1.1/DTD/svg11.dtd">
<svg version="1.1" id="Calque_1" xmlns="http://www.w3.org/2000/svg" xmlns:xlink="http://www.w3.org/1999/xlink" x="0px" y="0px"
	 viewBox="419.4 209.9 610 520.6" enable-background="new 419.4 209.9 610 520.6" xml:space="preserve">
<g id="sheet">
	<polygon fill="#3A3A3A" points="679.7,253.3 658,253.3 658,361.7 766.5,361.7 766.5,340.1 679.7,340.1 	"/>
	<path fill="#3A3A3A" d="M708.6,209.9H484.5V275h-65.1v455.5h325.4v-65.1h65.1V311.6L708.6,209.9z M723.1,708.8h-282V296.7h43.4
		v368.7h238.6V708.8z M788.2,643.7h-282V231.6h193.5l88.5,88.9V643.7z"/>
</g>
<g id="pen">
	<g id="pencil">
		<polygon fill="#B5EAE6" points="770,514.3 981.3,303 969.3,291.1 758,502.4 		"/>
		<polygon fill="#11162D" points="995.2,316.9 981.3,303 770,514.3 758,502.4 969.3,291.1 955.3,277.1 948.8,283.6 737.5,494.9 
			733.4,499 733.4,538.9 773.2,538.9 778.1,533.9 993.4,318.7 		"/>
	</g>
	<path id="rubber" fill="#EAA0E0" d="M983.8,276.7l25.9,25.9l15-15c2.9-3.2,4.7-7.5,4.7-12.2c0-4.7-1.7-9.1-4.7-12.3l-15.4-15.4
		c-3.3-2.9-7.6-4.7-12.3-4.7c-4.7,0-9,1.8-12.2,4.7l-15,15l0.1,0.1L983.8,276.7z"/>
</g>
<g id="pie">
	<path fill="#66CC66" d="M658.2,407.7c15.6,1.3,30.1,7.9,41.3,19.1c12.5,12.5,19.4,29.1,19.4,46.7c0,8.9-1.7,17.6-5.2,25.7
		c-3.3,7.9-8.1,14.9-14.2,21c-6.1,6.1-13.2,10.8-21,14.2c-8.2,3.4-16.8,5.2-25.7,5.2c-14.2,0-27.7-4.4-39.1-12.8
		c-5.5-4-10.3-8.9-14.3-14.4c-2.9-3.9-5.3-8.2-7.2-12.6l62.1-15.5l4.2-1v-4.3V407.7 M652.7,401.9v77.1l-68.1,17
		c9.4,28.5,36.4,49.1,68.1,49.1c39.6,0,71.7-32.1,71.7-71.6S692.3,401.9,652.7,401.9L652.7,401.9z"/>
	<path fill="#66CC66" d="M641.7,396.5v74l-62.1,15.7c-3.1-8.1-3.9-19.6-3.8-23.9v0v0c0-16.3,5.7-32.3,15.6-43.9
		c5.8-6.8,12.9-12,21.3-15.7C621,398.9,630.8,396.8,641.7,396.5 M647.2,390.9h-1.9c-55.1,0-75.2,40-75.2,71.4c0,0,0.1,19.5,6.5,30.4
		l70.6-17.9V390.9L647.2,390.9z"/>
</g>
<g id="text">
	<polygon fill="#3366CC" points="746.3,581.1 746.3,573.3 548,573.3 548,588.9 746.3,588.9 	"/>
	<polygon fill="#FF3366" points="746.3,606.1 746.3,598.3 548,598.3 548,613.9 746.3,613.9 	"/>
</g>
</svg>
