<?xml version="1.0" encoding="utf-8"?>
<!-- Generator: Adobe Illustrator 17.1.0, SVG Export Plug-In . SVG Version: 6.00 Build 0)  -->
<!DOCTYPE svg PUBLIC "-//W3C//DTD SVG 1.1//EN" "http://www.w3.org/Graphics/SVG/1.1/DTD/svg11.dtd">
<svg version="1.1" id="Calque_1" xmlns="http://www.w3.org/2000/svg" xmlns:xlink="http://www.w3.org/1999/xlink" x="0px" y="0px"
	 viewBox="398.6 155.5 352 477.5" enable-background="new 398.6 155.5 352 477.5" xml:space="preserve">
<g id="box_1_">
	<path id="box_2_" fill="#3A3A3A" d="M687.1,377h-225l-63.5,96v160h176h176V473L687.1,377z M732,473h-45.4v-68L732,473z M478.6,393
		h192v80h-48c0,26.5-21.5,48-48,48s-48-21.5-48-48h-48V393z M462.6,405v68h-45.4L462.6,405z M734.6,617h-160h-160V489h98
		c7.1,27.6,32.2,48,62,48s54.9-20.4,62-48h98V617z"/>
	<g id="flame">
		<path fill="#FFFFFF" d="M567,346.4l7.6-6.7l7.5,6.7c1.3,1.2,32.5,29.3,32.5,65.5c0,11-2.9,21.2-6.9,30.2c-0.3,0.7-0.6,1.3-0.9,2
			c-0.1,0.2-0.2,0.3-0.2,0.5c-1.7,3.5-3.6,6.9-5.5,9.9c4.6-2.6,9.4-5.8,14.1-9.8c9.7-8.3,17.8-18.8,24-31.1
			c7.7-15.2,12.6-33.4,14.6-54c3.2-33.3-6.8-70.6-29.1-107.6c-15.4-25.5-35.8-49.9-59-70.4c0.3,40.9-17.7,64.2-35.2,87
			c-18.4,23.9-35.9,46.6-35.6,92.1c0.1,17.9,3.8,34.3,11,48.7c5.9,12,14.3,22.6,24.7,31.6c5.5,4.8,11.1,8.6,16.4,11.7
			c-0.1-0.1-0.1-0.2-0.2-0.4c-6.6-11-12.3-24.9-12.3-40.3C534.3,375.7,565.7,347.5,567,346.4z"/>
		<path fill="#FFFFFF" d="M574.6,354.9c0,0-28.9,25.5-28.9,57c0,31.5,29,57,29,57s28.6-25.5,28.6-57
			C603.3,380.4,574.6,354.9,574.6,354.9z"/>
		<path fill="#F7CF6D" d="M551.7,155.5c18.3,103.3-68.9,101.1-68.3,205.1c0.5,85.1,74.8,113.9,91.2,113.9
			c-16.1-7.8-24.3-16.8-28-22.3c0.1,0.1,0.1,0.2,0.2,0.4c-5.3-3.1-10.8-6.9-16.4-11.7c-10.5-9-18.8-19.7-24.7-31.6
			c-7.2-14.4-10.9-30.8-11-48.7c-0.3-45.6,17.2-68.2,35.6-92.1c17.5-22.7,35.5-46.1,35.2-87c23.2,20.5,43.6,44.9,59,70.4
			c22.3,37.1,32.4,74.3,29.1,107.6c-2,20.6-6.9,38.8-14.6,54c-6.2,12.4-14.3,22.9-24,31.1c-4.6,4-9.4,7.2-14.1,9.8
			c1.9-3.1,3.8-6.4,5.5-9.9c-12.6,25.8-31.9,30-31.9,30c16.5,0,81.1-18.5,90.4-113.9C672.6,282.8,613.4,201.1,551.7,155.5z"/>
		<path fill="#FF3366" d="M606.6,444.5c0.1-0.2,0.2-0.3,0.2-0.5c0.3-0.6,0.6-1.3,0.9-2c4-9,6.9-19.2,6.9-30.2
			c0-36.2-31.2-64.3-32.5-65.5l-7.5-6.7l-7.6,6.7c-1.3,1.2-32.7,29.3-32.7,65.5c0,15.4,5.7,29.3,12.3,40.3
			c3.8,5.5,11.9,14.6,28,22.3C574.7,474.5,594,470.3,606.6,444.5z M574.7,468.8c0,0-29-25.5-29-57c0-31.5,28.9-57,28.9-57
			s28.7,25.5,28.7,57C603.3,443.3,574.7,468.8,574.7,468.8z"/>
	</g>
</g>
<g id="validation">
	<g id="circle">
		<path opacity="0.8" fill="#FFFFFF" d="M574.6,314.2c-81.1,0-147,65.9-147,147s65.9,147,147,147s147-65.9,147-147
			S655.6,314.2,574.6,314.2z"/>
		<path fill="#3366CC" d="M574.6,300.2c-88.8,0-161,72.2-161,161s72.2,161,161,161s161-72.2,161-161S663.3,300.2,574.6,300.2z
			 M574.6,608.2c-81.1,0-147-65.9-147-147s65.9-147,147-147s147,65.9,147,147S655.6,608.2,574.6,608.2z"/>
	</g>
	<path id="check" fill="#66CC66" d="M549,524.4c-2,2-5,3.8-7.5,3.8s-5.5-1.8-7.6-3.8l-47.8-47.8l15.2-15.2l40.3,40.3l106.5-107.3
		l14.9,15.5L549,524.4z"/>
</g>
</svg>
