<?xml version="1.0" encoding="UTF-8" standalone="no"?>
<!-- Created with Inkscape (http://www.inkscape.org/) -->

<svg
   xmlns:dc="http://purl.org/dc/elements/1.1/"
   xmlns:cc="http://creativecommons.org/ns#"
   xmlns:rdf="http://www.w3.org/1999/02/22-rdf-syntax-ns#"
   xmlns:svg="http://www.w3.org/2000/svg"
   xmlns="http://www.w3.org/2000/svg"
   xmlns:sodipodi="http://sodipodi.sourceforge.net/DTD/sodipodi-0.dtd"
   xmlns:inkscape="http://www.inkscape.org/namespaces/inkscape"
   width="264.64539"
   height="28.815981"
   id="svg9444"
   version="1.1"
   inkscape:version="0.48.4 r9939"
   sodipodi:docname="New document 6">
  <defs
     id="defs9446">
    <clipPath
       clipPathUnits="userSpaceOnUse"
       id="clipPath9111">
      <path
         inkscape:connector-curvature="0"
         d="m 84.92,102.52 75.144,0 0,14.439 -75.144,0 0,-14.439 z"
         id="path9113" />
    </clipPath>
  </defs>
  <sodipodi:namedview
     id="base"
     pagecolor="#ffffff"
     bordercolor="#666666"
     borderopacity="1.0"
     inkscape:pageopacity="0.0"
     inkscape:pageshadow="2"
     inkscape:zoom="0.98994949"
     inkscape:cx="115.31"
     inkscape:cy="23.813489"
     inkscape:document-units="px"
     inkscape:current-layer="layer1"
     showgrid="false"
     fit-margin-top="0"
     fit-margin-left="0"
     fit-margin-right="0"
     fit-margin-bottom="0"
     inkscape:window-width="467"
     inkscape:window-height="457"
     inkscape:window-x="22"
     inkscape:window-y="29"
     inkscape:window-maximized="0" />
  <metadata
     id="metadata9449">
    <rdf:RDF>
      <cc:Work
         rdf:about="">
        <dc:format>image/svg+xml</dc:format>
        <dc:type
           rdf:resource="http://purl.org/dc/dcmitype/StillImage" />
        <dc:title></dc:title>
      </cc:Work>
    </rdf:RDF>
  </metadata>
  <g
     inkscape:label="Layer 1"
     inkscape:groupmode="layer"
     id="layer1"
     transform="translate(-327.32092,-428.65999)">
    <path
       inkscape:connector-curvature="0"
       d="m 355.12483,447.17088 4.52207,-2.42304 3.35985,6.98385 -5.00104,0 c 0,0.006 -0.96147,0.006 -1.34535,-0.86286 -0.35571,-0.95442 -1.53201,-3.69795 -1.53553,-3.69795"
       style="fill:#43494d;fill-opacity:1;fill-rule:nonzero;stroke:none"
       id="path9103" />
    <path
       inkscape:connector-curvature="0"
       d="m 327.70012,453.96102 36.3808,0 0,3.26125 -36.3808,0 0,-3.26125 z"
       style="fill:#43494d;fill-opacity:1;fill-rule:nonzero;stroke:none"
       id="path9105" />
    <g
       transform="matrix(3.5218584,0,0,-3.5218584,28.24354,840.57304)"
       id="g9107">
      <g
         id="g9109"
         clip-path="url(#clipPath9111)">
        <path
           inkscape:connector-curvature="0"
           d="m 93.526,113.706 -1.069,2.364 -1.55,0 -2.179,-4.066 c 0.002,-0.002 1.071,0.033 1.757,0.548 0.175,0.103 0.624,1.312 1.072,2.174 0.035,0.107 0.072,0.003 0.072,0 l 0.665,-1.668 c -1.055,-0.539 -2.055,-1.014 -2.593,-1.165 -1.423,-0.41 -3.155,-0.656 -3.777,-0.104 -0.584,0.518 0.767,2.694 3.321,3.178 0.411,0.102 0.658,0.07 0.658,0.07 0,0 -0.206,0.795 -0.313,0.897 -0.205,0.214 -0.376,0.282 -0.656,0.246 -0.555,-0.032 -2.904,-0.659 -3.835,-2.622 -0.516,-1.114 0.205,-2.287 0.656,-2.591 0.138,-0.112 1.521,-1.317 4.595,-0.114 3.044,1.184 5.772,3.045 5.774,3.045 l 0,1.244 c 0,0 -1.203,-0.688 -2.598,-1.436"
           style="fill:#43494d;fill-opacity:1;fill-rule:nonzero;stroke:none"
           id="path9115" />
      </g>
    </g>
    <path
       inkscape:connector-curvature="0"
       d="m 366.77866,433.35111 c -0.006,0 -5.72302,3.28237 -7.06133,3.78247 -1.22912,0.48602 -1.71162,-0.13383 -1.82432,-0.38036 -0.24653,-0.23948 -0.96851,-2.41599 -0.96147,-2.42303 -0.006,0.008 0.34867,0.008 1.07417,-0.11975 0.86638,-0.24315 8.76591,-4.63124 8.77295,-4.6242 l 0,3.76487"
       style="fill:#277656;fill-opacity:1;fill-rule:nonzero;stroke:none"
       id="path9117" />
    <path
       inkscape:connector-curvature="0"
       d="m 388.02955,432.49178 c 0,0 -0.0225,1.80319 0.006,2.77874 -2.78579,-0.96147 -7.11415,-1.9335 -9.40688,0.62689 -1.09178,1.27844 -1.33479,3.30703 -0.67268,4.85312 0.7889,1.96872 2.89145,2.64492 4.88482,2.65548 1.79615,0.0493 3.51129,-0.32401 5.1243,-0.80298 l 0.006,2.69422 c -3.74022,1.26083 -9.1357,1.73276 -12.22789,-1.32774 -1.22913,-1.2256 -1.94055,-2.77874 -2.10608,-4.50093 -0.0986,-1.02839 0.06,-2.0462 0.30288,-2.96541 0.0809,-0.22878 0.11975,-0.42966 0.25358,-0.63745 l 0.10199,-0.22202 c 1.79263,-3.27885 5.36027,-4.43402 9.00187,-4.17693 1.66232,0.11975 3.22954,0.50363 4.72986,1.02486"
       style="fill:#277656;fill-opacity:1;fill-rule:nonzero;stroke:none"
       id="path9119" />
    <path
       inkscape:connector-curvature="0"
       d="m 421.59639,434.27736 -10.12887,0 0,9.10752 c 0,0 10.35074,0.003 10.62897,-0.0141 l -1.10938,2.52869 -13.11188,0.006 0,-14.10153 12.8583,0 0.86286,2.47235"
       style="fill:#277656;fill-opacity:1;fill-rule:nonzero;stroke:none"
       id="path9121" />
    <path
       inkscape:connector-curvature="0"
       d="m 419.69811,437.61608 c -0.5952,0.83116 -0.95795,1.91589 -2.03916,2.20116 l -0.87694,0.0671 -5.13487,0 c 0.41206,-0.67972 0.78889,-1.32774 1.22913,-1.94055 0.44375,-0.52123 1.09882,-0.49658 1.74332,-0.51419 l 5.15952,0.003 -0.0811,0.18314"
       style="fill:#277656;fill-opacity:1;fill-rule:nonzero;stroke:none"
       id="path9123" />
    <path
       inkscape:connector-curvature="0"
       d="m 399.34881,431.79093 c 2.00746,0.10199 4.26497,0.5001 5.16304,2.51812 0.60576,1.1763 0.51419,2.8668 -0.19722,3.95857 -0.58111,0.87695 -2.44769,1.59893 -2.44769,1.59893 l 3.867,6.02942 -4.06423,0.003 -3.26476,-4.994 -0.1127,-0.0634 -3.40211,0 c 0,0 0.71141,-1.81024 1.52848,-2.39487 1.67641,-0.31344 4.31076,0.38389 4.69464,-1.89123 0.0197,-0.62337 -0.10199,-1.24674 -0.63394,-1.63062 -0.76424,-0.58111 -1.83136,-0.44024 -2.79635,-0.53885 l -3.59582,0.0169 0,11.49182 c -1.27843,0.003 -2.43712,0.003 -3.69443,0.003 l 0,-14.10857 8.95609,0"
       style="fill:#277656;fill-opacity:1;fill-rule:nonzero;stroke:none"
       id="path9125" />
    <path
       inkscape:connector-curvature="0"
       d="m 415.20774,428.65999 -1.8525,2.58857 2.69422,0 2.5287,-2.58857 -3.37042,0"
       style="fill:#277656;fill-opacity:1;fill-rule:nonzero;stroke:none"
       id="path9127" />
    <path
       inkscape:connector-curvature="0"
       d="m 433.85246,435.05921 c -1.72219,-0.92977 -3.85292,-0.72902 -5.92025,-0.71494 l 0,9.09344 c 2.89849,-0.0113 6.3323,0.38741 7.56847,-2.63083 0.60224,-1.43692 0.49307,-3.39859 -0.4191,-4.63476 -0.35218,-0.44376 -0.76776,-0.84173 -1.22912,-1.11291 m 5.20178,0.82411 c 1.07769,2.37374 0.7572,5.62089 -1.03895,7.54383 -1.78558,2.03563 -4.26497,2.44417 -6.88523,2.48643 l -6.83241,0 0.003,-14.12265 4.23327,0 c 4.03958,-0.0282 8.74126,-0.0845 10.5198,4.09239"
       style="fill:#277656;fill-opacity:1;fill-rule:nonzero;stroke:none"
       id="path9129" />
    <path
       inkscape:connector-curvature="0"
       d="m 442.49157,445.91358 3.76487,0 0,-14.1297 -3.76487,0 0,14.1297 z"
       style="fill:#277656;fill-opacity:1;fill-rule:nonzero;stroke:none"
       id="path9131" />
    <path
       inkscape:connector-curvature="0"
       d="m 462.93244,431.79093 c -0.29584,0.65154 -0.41558,1.4193 -0.8699,2.03211 -0.30992,0.34866 -0.77833,0.38036 -1.20095,0.43319 l -3.63456,0 0,11.6503 -3.64865,0 0,-11.6503 -5.49409,0 c 0,0 0.72902,-1.63415 1.10938,-2.4653 l 13.73877,0"
       style="fill:#277656;fill-opacity:1;fill-rule:nonzero;stroke:none"
       id="path9133" />
    <path
       inkscape:connector-curvature="0"
       d="m 478.71389,431.79093 c 0.58815,1.3383 6.64222,14.10856 6.64222,14.10856 l -3.95857,0 -5.25461,-11.59396 c -0.40853,0.81003 -2.61674,5.88855 -2.61674,5.88855 l 4.90595,0 c -0.50715,0.90864 -0.9016,2.40895 -2.16242,2.52869 l -3.97618,0.0197 c -0.54237,1.02486 -0.98964,2.15185 -1.50031,3.16263 l -3.69443,-0.006 6.7197,-14.10856 4.89539,0"
       style="fill:#277656;fill-opacity:1;fill-rule:nonzero;stroke:none"
       id="path9135" />
    <path
       inkscape:connector-curvature="0"
       d="m 500.60224,432.50938 0,2.73649 c -2.84566,-0.81707 -6.7021,-1.64471 -9.3928,0.0315 -1.60597,1.15165 -2.15185,3.12037 -1.70458,5.00104 0.22906,1.00021 0.84173,1.99338 1.77502,2.57096 1.98281,1.27491 4.65237,0.91921 6.90284,0.50715 l -0.0113,-3.06402 -4.50093,0 c 0.24653,-0.75015 0.53884,-1.49679 1.0319,-2.13072 0.23244,-0.2502 0.54941,-0.30288 0.85933,-0.36628 2.05325,0.0113 3.8987,0.0113 5.96251,0.0113 l 0,7.4276 c -4.1241,1.03543 -9.84712,1.97577 -13.52746,-0.75368 -2.08494,-1.71162 -2.74705,-4.20157 -2.47939,-6.81831 0.28175,-2.42656 2.43009,-4.64181 4.70169,-5.36379 3.23658,-1.13052 7.18106,-0.81355 10.38243,0.21131"
       style="fill:#277656;fill-opacity:1;fill-rule:nonzero;stroke:none"
       id="path9137" />
    <path
       inkscape:connector-curvature="0"
       d="m 513.66833,431.79093 c 2.01803,0.10199 4.27202,0.5001 5.17009,2.51812 0.6128,1.1763 0.52476,2.8668 -0.19356,3.95857 -0.58463,0.87695 -2.45826,1.59893 -2.45826,1.59893 l 3.87757,6.02942 -4.07479,0.003 -3.26124,-4.994 -0.10904,-0.0634 -3.40564,0 c 0,0 0.70438,-1.81024 1.5144,-2.39487 1.6905,-0.31344 4.32485,0.38389 4.70168,-1.89123 0.0282,-0.62337 -0.0986,-1.24674 -0.62689,-1.63062 -0.76424,-0.58111 -1.82432,-0.44024 -2.79635,-0.53885 l -3.62047,0.0169 c -0.006,1.25026 0,11.49182 0,11.49182 -1.27492,0.003 -2.43361,0.003 -3.68739,0.003 l 0,-14.10857 8.97017,0"
       style="fill:#277656;fill-opacity:1;fill-rule:nonzero;stroke:none"
       id="path9139" />
    <path
       inkscape:connector-curvature="0"
       d="m 522.48002,445.91358 3.76135,0 0,-14.1297 -3.76135,0 0,14.1297 z"
       style="fill:#277656;fill-opacity:1;fill-rule:nonzero;stroke:none"
       id="path9141" />
    <path
       inkscape:connector-curvature="0"
       d="m 543.23786,432.49178 c 0,0 -0.0254,1.80319 0.003,2.77874 -2.78579,-0.96147 -7.10358,-1.9335 -9.39631,0.62689 -1.08474,1.27844 -1.32422,3.30703 -0.66564,4.85312 0.78186,1.96872 2.89145,2.64492 4.87073,2.65548 1.8032,0.0493 3.51834,-0.32401 5.12431,-0.80298 l 0.0113,2.69422 c -3.74374,1.26083 -9.13218,1.73276 -12.21028,-1.32774 -1.23265,-1.2256 -1.94759,-2.77874 -2.1096,-4.50093 -0.10565,-1.02839 0.053,-2.0462 0.29584,-2.96541 0.0916,-0.22878 0.12679,-0.42966 0.26062,-0.63745 l 0.10199,-0.22202 c 1.78558,-3.27885 5.35322,-4.43402 8.98426,-4.17693 1.66232,0.11975 3.23307,0.50363 4.72986,1.02486"
       style="fill:#277656;fill-opacity:1;fill-rule:nonzero;stroke:none"
       id="path9143" />
    <path
       inkscape:connector-curvature="0"
       d="m 591.46619,434.27736 -10.12535,0 0,9.10752 c 0,0 10.35427,0.003 10.62545,-0.0141 l -1.10234,2.52869 -13.12245,0.006 0,-14.10153 12.8724,0 0.85229,2.47235"
       style="fill:#277656;fill-opacity:1;fill-rule:nonzero;stroke:none"
       id="path9145" />
    <path
       inkscape:connector-curvature="0"
       d="m 589.5679,437.61608 c -0.59519,0.83116 -0.95794,1.91589 -2.03563,2.20116 l -0.87342,0.0671 -5.14191,0 c 0.41558,-0.67972 0.79241,-1.32774 1.23969,-1.94055 0.43319,-0.52123 1.08121,-0.49658 1.72923,-0.51419 l 5.17009,0.003 -0.0879,0.18314"
       style="fill:#277656;fill-opacity:1;fill-rule:nonzero;stroke:none"
       id="path9147" />
    <path
       inkscape:connector-curvature="0"
       d="m 568.00357,443.36727 8.20593,0 c 0,0 -0.77481,1.73276 -1.14109,2.53926 l -10.80154,0 0,-14.1156 c 1.25026,-0.0113 2.46178,0.0141 3.7367,0.003 l 0,11.57283"
       style="fill:#277656;fill-opacity:1;fill-rule:nonzero;stroke:none"
       id="path9149" />
    <path
       inkscape:connector-curvature="0"
       d="m 555.26148,434.30905 c -1.75741,-0.67619 -4.00435,-0.4684 -5.39196,0.86286 -1.44397,1.44044 -1.72571,3.81417 -1.06713,5.73359 0.40149,1.35943 1.8208,2.40542 3.16263,2.72944 1.79615,0.33809 3.80361,-0.0456 4.994,-1.58836 1.20447,-1.66584 1.32422,-4.35302 0.25357,-6.10691 -0.44728,-0.7255 -1.19391,-1.32421 -1.95111,-1.63062 m 5.92025,1.29253 c 1.15869,2.3526 0.88398,5.68428 -0.79947,7.70582 -2.28216,2.76114 -5.80754,3.2225 -9.22022,2.81749 -2.47235,-0.44375 -5.11374,-1.84193 -6.12099,-4.36006 -1.00021,-2.26103 -0.69029,-5.33562 0.83116,-7.27968 2.30329,-2.87032 5.99772,-3.3986 9.59002,-2.87032 2.29273,0.4191 4.68407,1.69402 5.7195,3.98675"
       style="fill:#277656;fill-opacity:1;fill-rule:nonzero;stroke:none"
       id="path9151" />
    <path
       inkscape:connector-curvature="0"
       d="m 379.08403,457.45119 c -2.57447,0 -4.5925,-1.46862 -4.5925,-3.82826 0,-2.38078 2.09903,-3.84235 4.52559,-3.84235 1.14813,0 1.97224,0.2361 2.97949,0.5001 l 0,1.57427 c -0.85229,-0.36627 -1.71867,-0.57406 -2.63083,-0.57406 -1.62005,0 -2.76818,0.91216 -2.76818,2.34204 0,1.45805 1.05656,2.39838 2.89145,2.39838 0.96147,0 1.48622,-0.23244 2.44769,-0.3874 l 0,1.32422 c -0.98612,0.34866 -1.76445,0.49306 -2.85271,0.49306"
       style="fill:#43494d;fill-opacity:1;fill-rule:nonzero;stroke:none"
       id="path9153" />
    <path
       inkscape:connector-curvature="0"
       d="m 384.8141,453.57714 c -0.0169,1.38409 0.84172,2.64844 2.53221,2.64844 1.52849,0 2.42656,-1.289 2.39839,-2.69422 -0.0352,-1.34887 -0.94738,-2.497 -2.39839,-2.497 -1.57074,0 -2.51812,1.15869 -2.53221,2.54278 m -2.08846,0.06 c 0,-2.32442 1.72923,-3.87756 4.62067,-3.87756 2.48291,0 4.47276,1.47213 4.47276,3.91983 0,1.98632 -1.47565,3.79656 -4.47276,3.79656 -3.05345,0 -4.62067,-1.88419 -4.62067,-3.83883"
       style="fill:#43494d;fill-opacity:1;fill-rule:nonzero;stroke:none"
       id="path9155" />
    <path
       inkscape:connector-curvature="0"
       d="m 395.44659,454.53861 c 0.10565,-0.27809 0.34514,-0.71494 0.54237,-0.98964 0.17243,-0.2502 0.33457,-0.32401 0.73254,-0.32401 0.28527,0 0.66211,0.0141 1.08121,-0.0564 0.69381,-0.13383 0.91216,-0.50363 0.91216,-1.02486 0,-1.11291 -1.54257,-1.02134 -2.50404,-1.02134 l -1.13756,0 0,6.13507 -1.95815,0 0,-7.38886 4.63476,0 c 1.93703,0 2.94428,0.89808 2.94428,2.27513 0,0.95794 -0.59872,1.62005 -1.57427,1.90884 l 2.00041,3.20489 -2.14833,0 -1.72923,-2.71887 -1.79615,0"
       style="fill:#43494d;fill-opacity:1;fill-rule:nonzero;stroke:none"
       id="path9157" />
    <path
       inkscape:connector-curvature="0"
       d="m 404.74782,454.60552 c 0.11608,-0.26399 0.42614,-0.81354 0.60928,-1.08825 0.16905,-0.24653 0.36275,-0.22174 0.76424,-0.22174 0.27471,0 0.57054,0.0254 0.98964,-0.06 0.69733,-0.13383 0.91217,-0.48954 0.91217,-1.02134 0,-1.1129 -1.55314,-1.01781 -2.497,-1.01781 l -1.14461,0 0,6.06111 -1.96872,0 0,-7.38886 4.63829,0 c 1.94055,0.0634 2.95132,0.96499 2.95132,2.34556 0,0.96851 -0.99669,2.09551 -2.1589,2.29625 -1.20095,0.21498 -3.09571,0.095 -3.09571,0.095"
       style="fill:#43494d;fill-opacity:1;fill-rule:nonzero;stroke:none"
       id="path9159" />
    <path
       inkscape:connector-curvature="0"
       d="m 412.76709,453.57714 c -0.0141,1.38409 0.8382,2.64844 2.53221,2.64844 1.53201,0 2.43361,-1.289 2.40543,-2.69422 -0.0459,-1.34887 -0.95794,-2.497 -2.40543,-2.497 -1.57427,0 -2.51108,1.15869 -2.53221,2.54278 m -2.09199,0.06 c 0,-2.32442 1.73276,-3.87756 4.6242,-3.87756 2.47939,0 4.47277,1.47213 4.47277,3.91983 0,1.98632 -1.47566,3.79656 -4.47277,3.79656 -3.05345,0 -4.6242,-1.88419 -4.6242,-3.83883"
       style="fill:#43494d;fill-opacity:1;fill-rule:nonzero;stroke:none"
       id="path9161" />
    <path
       inkscape:connector-curvature="0"
       d="m 423.39958,454.53861 c 0.10199,-0.27809 0.35219,-0.71494 0.53532,-0.98964 0.17609,-0.2502 0.3381,-0.32401 0.74311,-0.32401 0.28175,0 0.65507,0.0141 1.07417,-0.0564 0.69733,-0.13383 0.91216,-0.50363 0.91216,-1.02486 0,-1.11291 -1.53905,-1.02134 -2.50052,-1.02134 l -1.14108,0 0,6.13507 -1.95815,0 0,-7.38886 4.63828,0 c 1.94055,0 2.94076,0.89808 2.94076,2.27513 0,0.95794 -0.60224,1.62005 -1.5778,1.90884 l 2.01451,3.20489 -2.15538,0 -1.72923,-2.71887 -1.79615,0"
       style="fill:#43494d;fill-opacity:1;fill-rule:nonzero;stroke:none"
       id="path9163" />
    <path
       inkscape:connector-curvature="0"
       d="m 436.7439,457.25748 -2.62731,-6.00476 -1.44748,3.08162 2.58152,0 c -0.49306,1.21152 -0.88751,1.28548 -1.59892,1.28548 l -1.57427,0 -0.73959,1.63766 -1.97224,0 3.55707,-7.42407 2.50757,0 3.41268,7.42407 -2.09903,0"
       style="fill:#43494d;fill-opacity:1;fill-rule:nonzero;stroke:none"
       id="path9165" />
    <path
       inkscape:connector-curvature="0"
       d="m 440.93491,451.15058 -2.86679,0 0.66211,-1.31717 7.27264,0 c 0,0 -0.16905,0.53884 -0.4825,0.97907 -0.25019,0.3381 -0.8065,0.3381 -1.31365,0.3381 l -1.31013,0 0,6.1069 -1.96168,0 0,-6.1069"
       style="fill:#43494d;fill-opacity:1;fill-rule:nonzero;stroke:none"
       id="path9167" />
    <path
       inkscape:connector-curvature="0"
       d="m 449.45077,453.40809 c 0.39092,-0.6128 0.45784,-0.52123 1.79614,-0.52475 l 2.03212,-0.006 -0.61985,0.88047 c -0.22202,0.29583 -0.45784,0.33809 -0.80298,0.33809 l -2.85271,0 0.44728,-0.68676 z m -2.48291,-3.57468 6.8007,0 0.47193,1.33478 -5.37083,0 0,4.81438 5.55397,0 -0.57054,1.27491 -6.88523,0 0,-7.42407"
       style="fill:#43494d;fill-opacity:1;fill-rule:nonzero;stroke:none"
       id="path9169" />
    <path
       inkscape:connector-curvature="0"
       d="m 468.22932,449.82636 1.95111,0 0,7.4276 -1.95111,0 0,-7.4276 z"
       style="fill:#43494d;fill-opacity:1;fill-rule:nonzero;stroke:none"
       id="path9171" />
    <path
       inkscape:connector-curvature="0"
       d="m 472.27241,449.83341 2.34908,0 3.39507,5.08908 0,-5.08908 1.67288,0 0,7.42407 -2.15537,0 -3.68387,-5.3814 0,5.3814 -1.57779,0 0,-7.42407"
       style="fill:#43494d;fill-opacity:1;fill-rule:nonzero;stroke:none"
       id="path9173" />
    <path
       inkscape:connector-curvature="0"
       d="m 480.72135,449.83341 2.17651,0 2.33851,5.4941 2.41599,-5.4941 1.91942,0 -3.37746,7.42407 -2.12369,0 -3.34928,-7.42407"
       style="fill:#43494d;fill-opacity:1;fill-rule:nonzero;stroke:none"
       id="path9175" />
    <path
       inkscape:connector-curvature="0"
       d="m 493.17112,453.40809 c 0.3874,-0.6128 0.45784,-0.52123 1.79614,-0.52475 l 2.03212,-0.006 -0.62337,0.88047 c -0.21498,0.29583 -0.46137,0.33809 -0.79946,0.33809 l -2.85975,0 0.45432,-0.68676 z m -2.47939,-3.57468 6.79719,0 0.47192,1.33478 -5.36731,0 0,4.81438 5.55397,0 -0.57054,1.27491 -6.88523,0 0,-7.42407"
       style="fill:#43494d;fill-opacity:1;fill-rule:nonzero;stroke:none"
       id="path9177" />
    <path
       inkscape:connector-curvature="0"
       d="m 501.69754,456.02131 c 0.9192,0.0671 2.37021,0.0113 2.37021,-0.75015 0,-1.0953 -1.94759,-0.92625 -2.6097,-1.046 -0.81003,-0.15496 -2.39134,-0.57406 -2.39134,-2.20116 0,-1.64118 1.90885,-2.29977 3.56764,-2.29977 1.01077,0 2.10959,0.28527 2.91258,0.64802 l 0,1.41227 c -0.97556,-0.29584 -1.99337,-0.61985 -3.2225,-0.61985 -0.59168,0 -1.38762,0.18314 -1.38762,0.73959 0,1.09882 2.54279,0.84172 3.49017,1.09882 0.83116,0.23244 1.57427,0.89807 1.57427,1.95815 0,1.57427 -1.54962,2.34556 -3.17672,2.46882 -1.34887,0.10566 -2.16242,-0.20426 -3.42325,-0.52827 l -0.24286,-1.41579 c 1.02486,0.28879 1.60596,0.46136 2.53926,0.53532"
       style="fill:#43494d;fill-opacity:1;fill-rule:nonzero;stroke:none"
       id="path9179" />
    <path
       inkscape:connector-curvature="0"
       d="m 509.04061,451.15058 -2.86327,0 0.66211,-1.31717 7.26207,0 c 0,0 -0.15834,0.53884 -0.47897,0.97907 -0.24653,0.3381 -0.80298,0.3381 -1.30661,0.3381 l -1.31013,0 0,6.1069 -1.9652,0 0,-6.1069"
       style="fill:#43494d;fill-opacity:1;fill-rule:nonzero;stroke:none"
       id="path9181" />
    <path
       inkscape:connector-curvature="0"
       d="m 514.8235,449.83341 2.68718,0 2.10255,5.06443 2.1272,-5.06443 2.58152,0 0,7.42407 -1.6764,0 0,-5.64554 -2.28921,5.64554 -1.51087,0 -2.44065,-5.47296 0,5.47296 -1.58132,0 0,-7.42407"
       style="fill:#43494d;fill-opacity:1;fill-rule:nonzero;stroke:none"
       id="path9183" />
    <path
       inkscape:connector-curvature="0"
       d="m 528.91798,453.40809 c 0.39445,-0.6128 0.46489,-0.52123 1.80671,-0.52475 l 2.02859,-0.006 -0.62689,0.88047 c -0.21131,0.29583 -0.45784,0.33809 -0.79594,0.33809 l -2.85622,0 0.44375,-0.68676 z m -2.47587,-3.57468 6.79719,0 0.47193,1.33478 -5.36379,0 0,4.81438 5.55397,0 -0.57406,1.27491 -6.88524,0 0,-7.42407"
       style="fill:#43494d;fill-opacity:1;fill-rule:nonzero;stroke:none"
       id="path9185" />
    <path
       inkscape:connector-curvature="0"
       d="m 535.14463,449.83341 2.3526,0 3.39507,5.08908 0,-5.08908 1.66936,0 0,7.42407 -2.15538,0 -3.68034,-5.3814 0,5.3814 -1.58131,0 0,-7.42407"
       style="fill:#43494d;fill-opacity:1;fill-rule:nonzero;stroke:none"
       id="path9187" />
    <path
       inkscape:connector-curvature="0"
       d="m 546.03773,451.15058 -2.86327,0 0.66211,-1.31717 7.2656,0 c 0,0 -0.16201,0.53884 -0.4825,0.97907 -0.24315,0.3381 -0.80298,0.3381 -1.31013,0.3381 l -1.31013,0 0,6.1069 -1.96168,0 0,-6.1069"
       style="fill:#43494d;fill-opacity:1;fill-rule:nonzero;stroke:none"
       id="path9189" />
    <path
       inkscape:connector-curvature="0"
       d="m 560.0019,456.00018 c 0.72903,0.003 1.58132,-0.28527 1.58132,-1.00373 0,-0.73607 -0.85581,-1.00021 -1.59893,-1.00021 l -1.78206,0 c 0.25724,-0.80298 0.6445,-1.16925 1.127,-1.16925 l 0.55997,0 c 0.61281,0 1.23618,-0.34515 1.23618,-0.87695 0,-0.68676 -0.83116,-0.94033 -1.53201,-0.94033 l -2.04268,0 0,4.97286 2.45121,0.0169 z m -4.31427,-6.16677 4.69463,0 c 2.70831,-0.0141 3.28942,2.62378 1.67641,3.34576 0.79946,0.19356 1.37704,0.89103 1.37704,1.87011 0,1.21856 -1.06007,2.2082 -2.74352,2.2082 l -5.00456,0 0,-7.42407"
       style="fill:#43494d;fill-opacity:1;fill-rule:nonzero;stroke:none"
       id="path9191" />
    <path
       inkscape:connector-curvature="0"
       d="m 571.21902,457.25748 -2.63435,-6.00476 -1.44748,3.08162 2.58152,0 c -0.49306,1.21152 -0.88399,1.28548 -1.5954,1.28548 l -1.57427,0 -0.74664,1.63766 -1.97224,0 3.56412,-7.42407 2.50052,0 3.41268,7.42407 -2.08846,0"
       style="fill:#43494d;fill-opacity:1;fill-rule:nonzero;stroke:none"
       id="path9193" />
    <path
       inkscape:connector-curvature="0"
       d="m 574.14216,449.83341 2.34908,0 3.39508,5.08908 0,-5.08908 1.66936,0 0,7.42407 -2.15538,0 -3.67682,-5.3814 0,5.3814 -1.58132,0 0,-7.42407"
       style="fill:#43494d;fill-opacity:1;fill-rule:nonzero;stroke:none"
       id="path9195" />
    <path
       inkscape:connector-curvature="0"
       d="m 586.7152,453.9892 -1.14813,0.85229 0,2.41599 -1.95111,0 0,-7.43112 1.95111,0 0,3.19433 3.71556,-3.19433 2.2716,0 -3.32463,3.01824 3.32463,4.41288 -2.24342,0 -2.59561,-3.26828"
       style="fill:#43494d;fill-opacity:1;fill-rule:nonzero;stroke:none"
       id="path9197" />
    <path
       inkscape:connector-curvature="0"
       d="m 460.06917,452.2001 c 0.34162,-0.2888 0.66211,-0.57407 0.66211,-1.04247 0,-0.37684 -0.28879,-0.60929 -0.61985,-0.60929 -0.28879,0 -0.58815,0.22202 -0.58815,0.5952 0,0.37684 0.28879,0.73959 0.54589,1.05656 m -0.42967,1.94758 c -0.43319,0.30288 -0.63041,0.62689 -0.63041,1.00021 0,0.48602 0.42614,0.94034 0.96499,0.94034 0.30992,0 0.60928,-0.14792 0.8065,-0.38741 l -1.14108,-1.55314 z m 2.18708,0.44376 c 0.21469,-0.30993 0.27104,-0.66211 0.3064,-1.0143 l 1.51792,0 c -0.06,0.86638 -0.27104,1.63414 -0.89455,2.27864 l 1.04951,1.4017 -1.89124,0 -0.34162,-0.4684 c -0.55645,0.38388 -1.10938,0.62337 -1.89476,0.62337 -1.75036,0 -2.33147,-1.16574 -2.33147,-2.12721 0,-1.10938 0.5952,-1.62005 1.47566,-2.26455 -0.31344,-0.40149 -0.74663,-1.10939 -0.74663,-1.68697 0,-1.19039 0.93329,-1.77854 2.07437,-1.77854 1.10234,0 2.03564,0.54941 2.03564,1.7081 0,0.93682 -0.63746,1.44748 -1.33831,1.99689 l 0.97908,1.33127"
       style="fill:#43494d;fill-opacity:1;fill-rule:nonzero;stroke:none"
       id="path9199" />
  </g>
</svg>
